<?xml version="1.0" encoding="UTF-8"?>
<svg width="160px" height="160px" viewBox="0 0 160 160" version="1.1" xmlns="http://www.w3.org/2000/svg" xmlns:xlink="http://www.w3.org/1999/xlink">
    <!-- Generator: Sketch 52.2 (67145) - http://www.bohemiancoding.com/sketch -->
    <title>img_your_need</title>
    <desc>Created with Sketch.</desc>
    <defs>
        <path d="M49.198435,25.9184766 C49.198435,12.2152924 38.6558068,1.10666667 25.650816,1.10666667 C12.6458251,1.10666667 2.1031969,12.2152924 2.1031969,25.9184766 C2.1031969,39.6216609 49.198435,39.6216609 49.198435,25.9184766 Z" id="path-1"></path>
    </defs>
    <g id="Page-1" stroke="none" stroke-width="1" fill="none" fill-rule="evenodd">
        <g id="01---Landing-Page" transform="translate(-641.000000, -2446.000000)">
            <g id="section----copy" transform="translate(173.000000, 2305.000000)">
                <g id="Group-3-Copy-2" transform="translate(380.000000, 141.000000)">
                    <g id="Group-4">
                        <g id="Illustration/img_your_need" transform="translate(88.000000, 0.000000)">
                            <circle id="Oval-4-Copy" fill="#E6DFFC" cx="80" cy="80" r="80"></circle>
                            <g id="Group-31" transform="translate(34.000000, 39.000000)">
                                <g id="Group-23" transform="translate(0.000000, 17.706667)">
                                    <g id="Group-22" transform="translate(0.000000, 25.240623)">
                                        <g id="Group-37">
                                            <mask id="mask-2" fill="white">
                                                <use xlink:href="#path-1"></use>
                                            </mask>
                                            <use id="Oval-9" fill="#6327EA" xlink:href="#path-1"></use>
                                            <path d="M40.7754183,2.21333333 L29.9544877,24.052646 C28.8756167,26.2300744 26.2358644,27.1206311 24.0584359,26.0417601 C23.1956022,25.6142437 22.4968382,24.9154797 22.0693218,24.052646 L11.2483912,2.21333333 C17.8006081,0.784345057 22.7217793,0.0698509187 26.0119048,0.0698509187 C29.3020302,0.0698509187 34.2232014,0.784345057 40.7754183,2.21333333 Z" id="Mask" fill="#000000" opacity="0.0813058036" mask="url(#mask-2)"></path>
                                            <path d="M23.9770585,2.19282122 L20.1284265,21.1563133 C19.9772418,21.9012511 20.2213152,22.6714585 20.7739526,23.1933599 L25.3867189,27.5495777 C25.8106444,27.9499257 26.4733133,27.9499257 26.8972387,27.5495777 L31.4918408,23.2105139 C32.0543163,22.6793216 32.2964362,21.8917239 32.129488,21.1362952 L27.943018,2.19282122 L23.9770585,2.19282122 Z" id="Mask" fill="#FFFFFF" mask="url(#mask-2)"></path>
                                            <path d="M25.8152018,5.11149247 C28.484996,5.11149247 30.6492919,2.82299934 30.6492919,0 L20.9811117,0 C20.9811117,2.82299934 23.1454075,5.11149247 25.8152018,5.11149247 Z" id="Oval-6" fill="#FFFFFF" mask="url(#mask-2)"></path>
                                        </g>
                                    </g>
                                    <ellipse id="Oval-5" fill="#6327EA" cx="25.4207251" cy="12.4952727" rx="11.8650042" ry="11.9419394"></ellipse>
                                </g>
                                <g id="Group-30" transform="translate(45.561905, 0.000000)">
                                    <path d="M8.30514496,31.685614 L1.48369365,35.6101408 C1.33350564,35.6965472 1.16327001,35.7420227 0.989999995,35.7420227 C0.443238096,35.7420227 -1.15428631e-15,35.2987846 -1.22124533e-15,34.7520227 L-1.71528028e-15,26.7356141 L0,4.94999998 C-3.34795105e-16,2.21619048 2.21619048,-3.85985762e-16 4.94999998,-8.8817842e-16 L40.3928572,0 C43.1266667,-5.02192658e-16 45.3428571,2.21619048 45.3428571,4.94999998 L45.3428571,26.7356141 C45.3428571,29.4694236 43.1266667,31.685614 40.3928572,31.685614 L8.30514496,31.685614 Z" id="Combined-Shape" fill="#6327EA" opacity="0.299999982"></path>
                                    <path d="M10.3330049,9.84350877 L36.5097444,9.84350877" id="Line" stroke="#FFFFFF" stroke-width="3.30000007" opacity="0.300000012" stroke-linecap="round"></path>
                                    <path d="M9.85714286,19.8035088 L25.6668872,19.8035088" id="Line-Copy" stroke="#FFFFFF" stroke-width="3.30000007" opacity="0.300000012" stroke-linecap="round"></path>
                                </g>
                                <g id="Group-30-Copy" transform="translate(78.000000, 49.840000) scale(-1, 1) translate(-78.000000, -49.840000) translate(64.000000, 39.840000)" fill="#6327EA" opacity="0.299999982">
                                    <path d="M5.01518415,16.929009 L0.890315187,19.3031907 C0.800178778,19.3550712 0.698000717,19.3823769 0.593999962,19.3823769 C0.265942841,19.3823769 -1.07004761e-15,19.116434 -1.11022302e-15,18.7883769 L-1.70065552e-15,13.9590092 L0,2.96999981 C-2.00877051e-16,1.32971421 1.32971421,-1.42773633e-16 2.96999981,-4.4408921e-16 L24.4109526,0 C26.0512382,-3.01315577e-16 27.3809524,1.32971421 27.3809524,2.96999981 L27.3809524,13.9590092 C27.3809524,15.5992948 26.0512382,16.929009 24.4109526,16.929009 L5.01518415,16.929009 Z" id="Combined-Shape"></path>
                                </g>
                            </g>
                        </g>
                    </g>
                </g>
            </g>
        </g>
    </g>
</svg>