<?xml version="1.0" encoding="UTF-8"?>
<svg width="160px" height="160px" viewBox="0 0 160 160" version="1.1" xmlns="http://www.w3.org/2000/svg" xmlns:xlink="http://www.w3.org/1999/xlink">
    <!-- Generator: Sketch 52.2 (67145) - http://www.bohemiancoding.com/sketch -->
    <title>img_pay_perhour</title>
    <desc>Created with Sketch.</desc>
    <defs>
        <linearGradient x1="50%" y1="-95.5191329%" x2="2.31757106%" y2="155.269167%" id="linearGradient-1">
            <stop stop-color="#7F14F4" offset="0%"></stop>
            <stop stop-color="#4D35E2" offset="100%"></stop>
        </linearGradient>
        <path d="M0.712984907,0.459082965 L16.224727,0.459082965 C18.1277599,0.459082965 19.9381754,1.28051603 21.191431,2.71260702 L38.5974678,22.602427 C39.2580743,23.8386674 39.6763501,24.8245168 39.8522951,25.5599753 C40.0282402,26.2954337 40.0282402,26.6938823 39.8522951,26.7553212 L66.9921313,26.9483676 C68.5520178,27.7120668 69.331961,29.2078107 69.331961,31.4355993 C69.331961,33.6633879 68.5520178,35.1484951 66.9921313,35.890921 L28.3667408,35.890921 C26.8671097,35.890921 25.4121883,35.380216 24.2415702,34.4429079 L5.19516025,19.1925419 L0.712984907,19.1925419 L0.712984907,0.459082965 Z" id="path-2"></path>
    </defs>
    <g id="Page-1" stroke="none" stroke-width="1" fill="none" fill-rule="evenodd">
        <g id="06a---For-Company" transform="translate(-1019.000000, -654.000000)">
            <g id="section---" transform="translate(173.000000, 654.000000)">
                <g id="Group-3-Copy" transform="translate(759.000000, 0.000000)">
                    <g id="Group-4">
                        <g id="Illustration/img_pay_perhour" transform="translate(87.000000, 0.000000)">
                            <circle id="Oval-4" fill="#E6DFFC" cx="80" cy="80" r="80"></circle>
                            <g id="Group-35" transform="translate(80.508726, 80.000076) rotate(91.000000) translate(-80.508726, -80.000076) translate(48.508726, 37.500076)">
                                <g id="Group-29" transform="translate(15.000000, 9.000000)">
                                    <g id="Group-26" transform="translate(29.268152, 38.458586) rotate(-90.000000) translate(-29.268152, -38.458586) translate(-8.231848, 19.458586)">
                                        <g id="Group-27" transform="translate(4.203979, 1.662260)">
                                            <mask id="mask-3" fill="white">
                                                <use xlink:href="#path-2"></use>
                                            </mask>
                                            <use id="Path-11" fill="url(#linearGradient-1)" xlink:href="#path-2"></use>
                                            <path d="M23.8223702,20.6970143 L32.6131429,29.3621685 C34.1459309,29.930033 35.5734837,29.930033 36.8958013,29.3621685 C38.2181189,28.794304 39.4456736,27.5907967 40.5784654,25.7516467" id="Path-5" stroke="#FFFFFF" stroke-width="1.08108008" mask="url(#mask-3)"></path>
                                        </g>
                                        <g id="Group-28">
                                            <rect id="Rectangle-13" fill="#FFFFFF" x="0" y="1.09234258" width="7.61662138" height="21.8468516"></rect>
                                            <rect id="Rectangle-13-Copy" fill="url(#linearGradient-1)" x="0" y="0" width="4.35235507" height="24.0315367"></rect>
                                        </g>
                                    </g>
                                    <g id="Group-21" transform="translate(0.742980, 1.925519)"></g>
                                </g>
                                <g id="Group-17" transform="translate(30.209170, 28.579331) rotate(-90.000000) translate(-30.209170, -28.579331) translate(12.709170, 11.079331)">
                                    <circle id="Oval-2" fill="#BEA7F6" cx="17.5" cy="17.5" r="17.5"></circle>
                                    <g id="Group-16" transform="translate(16.000000, 16.333333)" stroke="#FFFFFF" stroke-linecap="round" stroke-linejoin="round" stroke-width="2.79999995">
                                        <path d="M1.49611546,2.43416485 L8.00415443,2.43416485" id="Path-3"></path>
                                    </g>
                                    <g id="Group-16-Copy" transform="translate(16.666667, 13.500000) rotate(450.000000) translate(-16.666667, -13.500000) translate(10.166667, 11.500000)" stroke="#FFFFFF" stroke-linecap="round" stroke-linejoin="round" stroke-width="2.79999995">
                                        <path d="M0.941214765,1.54361955 L11.698087,1.54361955" id="Path-3"></path>
                                    </g>
                                </g>
                                <g id="Group-24" transform="translate(26.328522, 28.350571) rotate(90.000000) translate(-26.328522, -28.350571) translate(-1.671478, 2.850571)" fill="#5C2CE8">
                                    <path d="M13.2937546,50.8778332 L11.2618821,50.8778332 L11.2618821,48.8178105 C8.49295777,48.4520121 7.17821673,46.5075047 6.99893387,44.8710381 L9.46905339,44.2934617 C9.5885753,45.5063722 10.4252287,46.62302 12.257898,46.62302 C13.5527187,46.62302 14.3096908,46.026191 14.3096908,45.1790789 C14.3096908,44.5244923 13.8116829,44.023926 12.8156669,43.812148 L10.9829976,43.427097 C8.83160319,42.9650359 7.49694183,41.6558626 7.49694183,39.807618 C7.49694183,37.7668479 9.13040797,36.2651491 11.2618821,35.9378558 L11.2618821,33.8778332 L13.2937546,33.8778332 L13.2937546,35.9956134 C15.5845912,36.399917 16.5806072,37.9401208 16.8594916,39.2300415 L14.4092924,39.9038807 C14.2897705,39.2300415 13.7718422,38.1133937 12.1383761,38.1133937 C10.8634757,38.1133937 10.1662645,38.825738 10.1662645,39.6150925 C10.1662645,40.2119215 10.6045116,40.7124877 11.5407665,40.9050132 L13.3535155,41.3093167 C15.8634757,41.8483881 16.9989339,43.2923292 16.9989339,45.0250585 C16.9989339,46.796293 15.6841928,48.4327595 13.2937546,48.798558 L13.2937546,50.8778332 Z" id="$"></path>
                                    <path d="M7.09836994,20.9461197 L4.86331018,20.9461197 L4.86331018,18.5225637 C1.81749344,18.0922126 0.371278305,15.8045569 0.17406715,13.8793021 L2.89119862,13.1998004 C3.02267273,14.6267539 3.94299145,15.9404572 5.95892771,15.9404572 C7.3832305,15.9404572 8.21589982,15.2383055 8.21589982,14.241703 C8.21589982,13.471601 7.66809105,12.8826996 6.57247352,12.633549 L4.55653727,12.1805478 C2.1900034,11.6369465 0.721875915,10.0967426 0.721875915,7.92233717 C0.721875915,5.52143117 2.51868866,3.75472675 4.86331018,3.36967579 L4.86331018,0.946119732 L7.09836994,0.946119732 L7.09836994,3.43762596 C9.61829026,3.91327715 10.7139078,5.72528168 11.0206807,7.24283547 L8.32546157,8.03558746 C8.19398747,7.24283547 7.62426635,5.92913219 5.8274536,5.92913219 C4.42506317,5.92913219 3.65813089,6.76718428 3.65813089,7.69583661 C3.65813089,8.39798836 4.14020261,8.98688983 5.17008309,9.2133904 L7.16410699,9.68904159 C9.92506317,10.3232432 11.1740671,12.0219974 11.1740671,14.0605025 C11.1740671,16.1443077 9.72785201,18.0695625 7.09836994,18.4999136 L7.09836994,20.9461197 Z" id="$"></path>
                                    <path d="M50.924912,45.0698096 L48.6898522,45.0698096 L48.6898522,42.6462536 C45.6440355,42.2159025 44.1978204,39.9282468 44.0006092,38.002992 L46.7177407,37.3234903 C46.8492148,38.7504438 47.7695335,40.0641471 49.7854698,40.0641471 C51.2097726,40.0641471 52.0424419,39.3619954 52.0424419,38.3653929 C52.0424419,37.5952909 51.4946331,37.0063895 50.3990156,36.7572388 L48.3830793,36.3042377 C46.0165455,35.7606364 44.548418,34.2204325 44.548418,32.0460271 C44.548418,29.6451211 46.3452307,27.8784166 48.6898522,27.4933657 L48.6898522,25.0698096 L50.924912,25.0698096 L50.924912,27.5613159 C53.4448323,28.036967 54.5404499,29.8489716 54.8472228,31.3665254 L52.1520036,32.1592773 C52.0205295,31.3665254 51.4508084,30.0528221 49.6539957,30.0528221 C48.2516052,30.0528221 47.484673,30.8908742 47.484673,31.8195265 C47.484673,32.5216783 47.9667447,33.1105797 48.9966252,33.3370803 L50.9906491,33.8127315 C53.7516052,34.4469331 55.0006092,36.1456873 55.0006092,38.1841924 C55.0006092,40.2679976 53.5543941,42.1932524 50.924912,42.6236035 L50.924912,45.0698096 Z" id="$-copy"></path>
                                </g>
                            </g>
                        </g>
                    </g>
                </g>
            </g>
        </g>
    </g>
</svg>