<?xml version="1.0" encoding="utf-8"?>
<svg version="1.1" id="bg-landingpage-dark"
  xmlns="http://www.w3.org/2000/svg"
  xmlns:xlink="http://www.w3.org/1999/xlink" x="0px" y="0px" viewBox="0 0 2500.1 1251" style="enable-background:new 0 0 2500.1 1251;" xml:space="preserve">
  <defs>
    <linearGradient id="bg-landingpage-dark-gradient-1" gradientUnits="userSpaceOnUse" x1="687.2108" y1="1663.6279" x2="424.0616" y2="-416.5421">
      <stop offset="2.342417e-02" style="stop-color:#4D35E2"/>
      <stop offset="1" style="stop-color:#B364E2"/>
    </linearGradient>
    <linearGradient id="bg-landingpage-dark-gradient-2" gradientUnits="userSpaceOnUse" x1="-485.9059" y1="981.3147" x2="241.2108" y2="854.8596">
      <stop offset="0" style="stop-color:#FFFFFF;stop-opacity:0"/>
      <stop offset="1" style="stop-color:#FFFFFF;stop-opacity:0.15"/>
    </linearGradient>
  </defs>
  <g transform="translate(752.000000, 0.000000)">
    <path style="fill-rule:evenodd;clip-rule:evenodd;fill:#E7F7FC;" d="M1748,0L-748.3,1.7c0,120.2,1.8,341.3,10,434.8c48.9,554.5,472.7,919,2486.4,668.9L1748,0z"/>

    <path style="fill-rule:evenodd;clip-rule:evenodd;fill:url(#bg-landingpage-dark-gradient-1);" d="M1748,0L-748.3,1.7c0,120.2-8.2,261.3,0,354.8c48.9,554.5,382.3,905.4,2496.4,799.7L1748,0z"/>

    <path style="fill:url(#bg-landingpage-dark-gradient-2);" d="M1748,272.8c0,0-2205.6-285.3-2195.6,433.9s1452.3,535.5,2195.6,488.6V272.8z"/>
  </g>
</svg>
