<svg xmlns="http://www.w3.org/2000/svg" xmlns:xlink="http://www.w3.org/1999/xlink" viewBox="0 0 526 420">
  <defs>
    <mask id="a" x="36" y="11" width="454" height="383.85" maskUnits="userSpaceOnUse">
      <path d="M265,390C389.24,390,490,289.33,490,165.15S367.42-60.53,278.31,76.61,36,89.58,36,213.76,140.66,390,265,390Z" style="fill: #fff;fill-rule: evenodd"/>
    </mask>
    <linearGradient id="b" x1="13.51" y1="459.89" x2="13.24" y2="463.59" gradientTransform="matrix(370.38, 0, 0, -159.85, -4682.98, 73888.01)" gradientUnits="userSpaceOnUse">
      <stop offset="0" stop-color="#fff" stop-opacity="0"/>
      <stop offset="1" stop-color="#5818be"/>
    </linearGradient>
    <mask id="c" x="196.5" y="360.38" width="46.61" height="34.92" maskUnits="userSpaceOnUse">
      <path d="M197,360.38h46.11L237.89,392a2,2,0,0,1-1.57,1.63A79.81,79.81,0,0,1,220,395.3a78.42,78.42,0,0,1-16.22-1.71h0a2,2,0,0,1-1.56-1.63Z" style="fill: #fff;fill-rule: evenodd"/>
    </mask>
    <linearGradient id="d" x1="13.77" y1="460.87" x2="13.19" y2="459.69" gradientTransform="matrix(186.92, 0, 0, -204.57, -2111.34, 94451.82)" gradientUnits="userSpaceOnUse">
      <stop offset="0" stop-color="#7f14f4"/>
      <stop offset="1" stop-color="#4d35e2"/>
    </linearGradient>
    <mask id="e" x="305.63" y="183.58" width="186.92" height="204.68" maskUnits="userSpaceOnUse">
      <path d="M363.63,272.36q-53,13-56.6,36.82c-6.49,42.46,8.74,72.08,64.59,77.88s94.19-9.34,111.62-49.12c15.2-34.68,13.86-92.88-19.6-127.89s-82.23-32.14-100-9Q345.84,224.18,363.63,272.36Z" style="fill: #fff;fill-rule: evenodd"/>
    </mask>
    <mask id="f" x="305.63" y="180.63" width="186.92" height="207.63" maskUnits="userSpaceOnUse">
      <path d="M363.63,272.36q-53,13-56.6,36.82c-6.49,42.46,8.74,72.08,64.59,77.88s94.19-9.34,111.62-49.12c15.2-34.68,13.86-92.88-19.6-127.89s-82.23-32.14-100-9Q345.84,224.18,363.63,272.36Z" style="fill: #fff;fill-rule: evenodd"/>
    </mask>
    <linearGradient id="g" x1="13.55" y1="461.15" x2="13.36" y2="459.77" gradientTransform="matrix(151.57, 0, 0, -145.71, -1650.93, 67311.68)" gradientUnits="userSpaceOnUse">
      <stop offset="0" stop-opacity="0"/>
      <stop offset="0.09" stop-opacity="0.01"/>
      <stop offset="1" stop-opacity="0.2"/>
    </linearGradient>
    <mask id="h" x="305.63" y="183.69" width="186.92" height="211.43" maskUnits="userSpaceOnUse">
      <path d="M363.63,272.36q-53,13-56.6,36.82c-6.49,42.46,8.74,72.08,64.59,77.88s94.19-9.34,111.62-49.12c15.2-34.68,13.86-92.88-19.6-127.89s-82.23-32.14-100-9Q345.84,224.18,363.63,272.36Z" style="fill: #fff;fill-rule: evenodd"/>
    </mask>
    <linearGradient id="i" x1="13.48" y1="460.54" x2="13.29" y2="459.16" gradientTransform="matrix(168.52, 0, 0, -43.76, -1868.83, 20485.78)" xlink:href="#g"/>
    <mask id="j" x="353.94" y="161.8" width="47.5" height="51" maskUnits="userSpaceOnUse">
      <path d="M388.81,197.64q10.17-5.05,5.09-18.56c-5.09-13.5-13.14-20.15-27-16.11s-13.9,24.27-12.08,31.86q1.83,7.59,16.18,7.53Z" style="fill: #fff;fill-rule: evenodd"/>
    </mask>
    <mask id="k" x="276.09" y="365.16" width="34.03" height="29.25" maskUnits="userSpaceOnUse">
      <path d="M296.34,365.16q.9,5-2.9,11.5c-3.79,6.49-14.73,6.3-14.73,11.61s9.68,6.48,17.63,1.11,13.13-4.73,13.13-9q0-4.26.65-13.61Z" style="fill: #fff;fill-rule: evenodd"/>
    </mask>
    <linearGradient id="l" x1="14.17" y1="462.39" x2="12.91" y2="459.38" gradientTransform="matrix(103.08, 0, 0, -103.09, -1032.25, 47753.41)" gradientUnits="userSpaceOnUse">
      <stop offset="0" stop-color="#00d3e9"/>
      <stop offset="1" stop-color="#00a7ce"/>
    </linearGradient>
    <mask id="m" x="294.75" y="269.69" width="103.08" height="105.77" maskUnits="userSpaceOnUse">
      <path d="M397.83,271.13q-93-5.52-96.82,10.11t-6.26,87.42a10.26,10.26,0,0,0,7,4,14.5,14.5,0,0,0,8.92-1.59q20.37-61,15.06-83.62Z" style="fill: #fff;fill-rule: evenodd"/>
    </mask>
    <mask id="n" x="294.75" y="269.69" width="103.08" height="103.09" maskUnits="userSpaceOnUse">
      <path d="M397.83,271.13q-93-5.52-96.82,10.11t-6.26,87.42a10.26,10.26,0,0,0,7,4,14.5,14.5,0,0,0,8.92-1.59q20.37-61,15.06-83.62Z" style="fill: #fff;fill-rule: evenodd"/>
    </mask>
    <mask id="o" x="351.84" y="378.29" width="28.59" height="33.17" maskUnits="userSpaceOnUse">
      <path d="M364,381.56a20,20,0,0,1,1.25,7.33c0,4.15-4.86,9.56-10.15,15.05s2.1,9.64,13.05,2.95,11.89-14.26,10.8-18q-1.08-3.74-3.54-10.6Z" style="fill: #fff;fill-rule: evenodd"/>
    </mask>
    <linearGradient id="p" x1="13.69" y1="460.99" x2="12.91" y2="459.63" gradientTransform="matrix(106.79, 0, 0, -124.59, -1057.33, 57656.45)" xlink:href="#l"/>
    <mask id="q" x="317.98" y="258.8" width="106.79" height="126.4" maskUnits="userSpaceOnUse">
      <path d="M417.28,258.8q16.41,42.17-3.11,51.59Q392,321.1,355,308q16.42,22.31,22,70.95c0,2.92-7.34,6.72-13.86,2.68q-49.53-87.9-44.7-101.27T417.28,258.8Z" style="fill: #fff;fill-rule: evenodd"/>
    </mask>
    <mask id="r" x="343.79" y="206.46" width="85.9" height="69.2" maskUnits="userSpaceOnUse">
      <path d="M383.38,269q29.64,8.58,40.8,6.16c11.16-2.42,3.69-52.54-7.3-60.71s-31.19-9.31-43.85-6.73c-9.54,1.94-28.27,9.57-29.24,57Z" style="fill: #fff;fill-rule: evenodd"/>
    </mask>
    <mask id="s" x="343.79" y="205.52" width="85.9" height="70.14" maskUnits="userSpaceOnUse">
      <path d="M383.38,269q29.64,8.58,40.8,6.16c11.16-2.42,3.69-52.54-7.3-60.71s-31.19-9.31-43.85-6.73c-9.54,1.94-28.27,9.57-29.24,57Z" style="fill: #fff;fill-rule: evenodd"/>
    </mask>
    <mask id="u" x="359.64" y="180.1" width="30.55" height="45.28" maskUnits="userSpaceOnUse">
      <path d="M359.64,180.1q.38,22.47,12.62,23.68a84.6,84.6,0,0,1,0,13c-.61,9,11,15.15,17.57-3.63q1.83-5.22-5.56-23.47,5.34-.76,4.93-5.19c-.41-4.42-4.25-5.82-7.57-.62Q366,186.5,359.64,180.1Z" style="fill: #fff;fill-rule: evenodd"/>
    </mask>
    <mask id="x" x="359.64" y="180.1" width="30.87" height="47.55" maskUnits="userSpaceOnUse">
      <path d="M359.64,180.1q.38,22.47,12.62,23.68a84.6,84.6,0,0,1,0,13c-.61,9,11,15.15,17.57-3.63q1.83-5.22-5.56-23.47,5.34-.76,4.93-5.19c-.41-4.42-4.25-5.82-7.57-.62Q366,186.5,359.64,180.1Z" style="fill: #fff;fill-rule: evenodd"/>
    </mask>
    <mask id="aa" x="295.94" y="226.86" width="72.34" height="44.9" maskUnits="userSpaceOnUse">
      <path d="M298.27,226.86h53.66a4.66,4.66,0,0,1,4.45,3.3l11.8,38.45a2.34,2.34,0,0,1-1.55,2.91,2.59,2.59,0,0,1-.67.1l-53.37.14a4.66,4.66,0,0,1-4.46-3.27l-12.08-38.6a2.33,2.33,0,0,1,1.52-2.92A2.38,2.38,0,0,1,298.27,226.86Z" style="fill: #fff;fill-rule: evenodd"/>
    </mask>
    <mask id="ab" x="162" y="38.39" width="57.6" height="77.69" maskUnits="userSpaceOnUse">
      <path d="M162,57.54q15.88,31.92,3.18,47.08c-.78,1.23-1,1.9-.8,2q2,.8,8.74-3.2l-2,8.31a.79.79,0,0,0,.59,1,.87.87,0,0,0,.55-.06l6.4-3.22v5.87a.8.8,0,0,0,.8.8.78.78,0,0,0,.37-.09L219.6,95.44q-6-44.68-7.55-49.07l-5.56-7.58a10.58,10.58,0,0,0-2.38-.4,16.21,16.21,0,0,0-2.78.4Z" style="fill: #fff;fill-rule: evenodd"/>
    </mask>
    <mask id="ae" x="160.81" y="38.19" width="58.79" height="77.89" maskUnits="userSpaceOnUse">
      <path d="M162,57.54q15.88,31.92,3.18,47.08c-.78,1.23-1,1.9-.8,2q2,.8,8.74-3.2l-2,8.31a.79.79,0,0,0,.59,1,.87.87,0,0,0,.55-.06l6.4-3.22v5.87a.8.8,0,0,0,.8.8.78.78,0,0,0,.37-.09L219.6,95.44q-6-44.68-7.55-49.07l-5.56-7.58a10.58,10.58,0,0,0-2.38-.4,16.21,16.21,0,0,0-2.78.4Z" style="fill: #fff;fill-rule: evenodd"/>
    </mask>
    <mask id="af" x="159.62" y="35.99" width="59.99" height="80.08" maskUnits="userSpaceOnUse">
      <path d="M162,57.54q15.88,31.92,3.18,47.08c-.78,1.23-1,1.9-.8,2q2,.8,8.74-3.2l-2,8.31a.79.79,0,0,0,.59,1,.87.87,0,0,0,.55-.06l6.4-3.22v5.87a.8.8,0,0,0,.8.8.78.78,0,0,0,.37-.09L219.6,95.44q-6-44.68-7.55-49.07l-5.56-7.58a10.58,10.58,0,0,0-2.38-.4,16.21,16.21,0,0,0-2.78.4Z" style="fill: #fff;fill-rule: evenodd"/>
    </mask>
    <linearGradient id="ag" x1="13.42" y1="459.73" x2="13.07" y2="458.68" gradientTransform="matrix(55.22, 0, 0, -32.72, -545.23, 15079.61)" xlink:href="#d"/>
    <mask id="ah" x="53.16" y="42.86" width="42.36" height="38.03" maskUnits="userSpaceOnUse">
      <path d="M79,77.12c4.66-3.76,4.39-8.17,4.39-15.64,15.66,5,15.73-13.43,2.49-16q-2.49-2.65-10.66-2.65c-8.16,0-12.49,1.54-17.45,9.24Q46.9,58.85,61.65,80,72.12,82.69,79,77.12Z" style="fill: #fff;fill-rule: evenodd"/>
    </mask>
    <mask id="ai" x="58.67" y="57.75" width="34.99" height="34.44" maskUnits="userSpaceOnUse">
      <path d="M91.53,66c.34,1.64,1.8,6.39,2.1,7.47.22.76-.71,1.31-2.78,1.65q-2.58,12.21-14.64,9.76l-.39,7.33-17.15-.9L60.89,79q9.92,1.92,15.75-2.38a6.71,6.71,0,0,1-3.82-2.15,3.87,3.87,0,0,1-.71-4c1.33-3,6.3-2.46,7.54,2.31q2.41-7.39.59-13.15,6.89,0,10.64-1.82A81.07,81.07,0,0,1,91.53,66Z" style="fill: #fff;fill-rule: evenodd"/>
    </mask>
    <linearGradient id="al" x1="13.56" y1="460.75" x2="13.08" y2="459.71" gradientTransform="matrix(91.63, 4.8, 10.04, -191.62, -5771.09, 88427.18)" xlink:href="#d"/>
    <mask id="am" x="36.51" y="194.91" width="86.75" height="191.32" maskUnits="userSpaceOnUse">
      <path d="M77.41,198.48l19-1.85q27.6,81.24,26.79,96.7T114,382.71c-1.94,2-4.9,2.87-8.89,2.67s-6.84-1.41-8.56-3.59l-5.1-90.12L76.24,260.32q-.58,27.07-.94,33.84-.66,12.73-18.95,88.7-2.33,3.69-8.77,3.35t-9-4.28l4.63-86.43L36.51,194.91l40.93,2.15Z" style="fill: #fff;fill-rule: evenodd"/>
    </mask>
    <mask id="an" x="35.76" y="194.91" width="87.5" height="191.32" maskUnits="userSpaceOnUse">
      <path d="M77.41,198.48l19-1.85q27.6,81.24,26.79,96.7T114,382.71c-1.94,2-4.9,2.87-8.89,2.67s-6.84-1.41-8.56-3.59l-5.1-90.12L76.24,260.32q-.58,27.07-.94,33.84-.66,12.73-18.95,88.7-2.33,3.69-8.77,3.35t-9-4.28l4.63-86.43L36.51,194.91l40.93,2.15Z" style="fill: #fff;fill-rule: evenodd"/>
    </mask>
    <linearGradient id="aq" x1="13.62" y1="460.8" x2="12.97" y2="459.8" gradientTransform="matrix(163.56, 8.57, 7.02, -133.98, -5331.93, 61700.64)" xlink:href="#l"/>
    <mask id="ar" x="15.11" y="87.76" width="165.96" height="132.54" maskUnits="userSpaceOnUse">
      <path d="M17,180.72q-2.52-22-1.74-36.77C16.06,129.19,26.53,85.82,65,87.83q29,1.52,70.57,29.1l39-18.83a13.57,13.57,0,0,1,6.54,12.14Q141.12,144.52,131.11,144T100,131.31q-3.18,45-.63,55c2.55,10,7.36,13.69-.87,16.62s-52.81,4.88-61.7-1.35q2.16,13.88.75,16.76a84.23,84.23,0,0,1-8.41,2,96.34,96.34,0,0,1-6.62-14.84A240.27,240.27,0,0,1,17,180.72Z" style="fill: #fff;fill-rule: evenodd"/>
    </mask>
    <mask id="at" x="15.11" y="87.76" width="167.66" height="132.54" maskUnits="userSpaceOnUse">
      <path d="M17,180.72q-2.52-22-1.74-36.77C16.06,129.19,26.53,85.82,65,87.83q29,1.52,70.57,29.1l39-18.83a13.57,13.57,0,0,1,6.54,12.14Q141.12,144.52,131.11,144T100,131.31q-3.18,45-.63,55c2.55,10,7.36,13.69-.87,16.62s-52.81,4.88-61.7-1.35q2.16,13.88.75,16.76a84.23,84.23,0,0,1-8.41,2,96.34,96.34,0,0,1-6.62-14.84A240.27,240.27,0,0,1,17,180.72Z" style="fill: #fff;fill-rule: evenodd"/>
    </mask>
    <mask id="au" x="15.11" y="87.76" width="165.96" height="134.19" maskUnits="userSpaceOnUse">
      <path d="M17,180.72q-2.52-22-1.74-36.77C16.06,129.19,26.53,85.82,65,87.83q29,1.52,70.57,29.1l39-18.83a13.57,13.57,0,0,1,6.54,12.14Q141.12,144.52,131.11,144T100,131.31q-3.18,45-.63,55c2.55,10,7.36,13.69-.87,16.62s-52.81,4.88-61.7-1.35q2.16,13.88.75,16.76a84.23,84.23,0,0,1-8.41,2,96.34,96.34,0,0,1-6.62-14.84A240.27,240.27,0,0,1,17,180.72Z" style="fill: #fff;fill-rule: evenodd"/>
    </mask>
    <mask id="av" x="310.4" y="89.4" width="57.6" height="77.69" maskUnits="userSpaceOnUse">
      <path d="M368,108.55q-15.88,31.92-3.18,47.08c.78,1.23,1,1.9.8,2q-2,.8-8.74-3.2l2,8.31a.79.79,0,0,1-.59,1,.87.87,0,0,1-.55-.06l-6.4-3.22v5.87a.8.8,0,0,1-.8.8.78.78,0,0,1-.37-.09L310.4,146.45q6-44.68,7.55-49.07l5.56-7.58a10.58,10.58,0,0,1,2.38-.4,16.21,16.21,0,0,1,2.78.4Z" style="fill: #fff;fill-rule: evenodd"/>
    </mask>
    <mask id="ay" x="310.4" y="89.2" width="58.79" height="77.89" maskUnits="userSpaceOnUse">
      <path d="M368,108.55q-15.88,31.92-3.18,47.08c.78,1.23,1,1.9.8,2q-2,.8-8.74-3.2l2,8.31a.79.79,0,0,1-.59,1,.87.87,0,0,1-.55-.06l-6.4-3.22v5.87a.8.8,0,0,1-.8.8.78.78,0,0,1-.37-.09L310.4,146.45q6-44.68,7.55-49.07l5.56-7.58a10.58,10.58,0,0,1,2.38-.4,16.21,16.21,0,0,1,2.78.4Z" style="fill: #fff;fill-rule: evenodd"/>
    </mask>
    <mask id="az" x="310.4" y="87.01" width="59.99" height="80.08" maskUnits="userSpaceOnUse">
      <path d="M368,108.55q-15.88,31.92-3.18,47.08c.78,1.23,1,1.9.8,2q-2,.8-8.74-3.2l2,8.31a.79.79,0,0,1-.59,1,.87.87,0,0,1-.55-.06l-6.4-3.22v5.87a.8.8,0,0,1-.8.8.78.78,0,0,1-.37-.09L310.4,146.45q6-44.68,7.55-49.07l5.56-7.58a10.58,10.58,0,0,1,2.38-.4,16.21,16.21,0,0,1,2.78.4Z" style="fill: #fff;fill-rule: evenodd"/>
    </mask>
    <linearGradient id="ba" x1="13.89" y1="459.73" x2="13.54" y2="458.68" gradientTransform="translate(1101.23 15130.62) rotate(180) scale(55.22 32.72)" xlink:href="#d"/>
  </defs>
  <title>Artboard 1</title>
  <g>
    <rect width="526" height="420" style="fill: none"/>
    <path d="M238.35,384.33C242.89,373.51,291.14,365,350,365c61.86,0,112,9.4,112,21s-50.14,21-112,21c-38.88,0-73.14-3.72-93.22-9.36-5.4,4.29-20,7.36-37.28,7.36-21.82,0-39.5-4.92-39.5-11s17.68-11,39.5-11A127.28,127.28,0,0,1,238.35,384.33Z" style="fill: #3c11ca;fill-rule: evenodd;opacity: 0.06000000238418579;isolation: isolate"/>
    <g>
      <path d="M261.05,390C136.76,390,36,289.33,36,165.15S158.58-60.53,247.69,76.61,490,89.58,490,213.76,385.34,390,261.05,390Z" style="fill: #f0edfc;fill-rule: evenodd"/>
      <g style="mask: url(#a)">
        <path d="M134,356.81c-38.16-70.67,1-127.27,68-121.39,140.67,12.34,161.28,60.35,259,25.62q12.16-4.76,16.1-7.57c9.52-6.82,12.37-12.82,12.37-12.82q-2.91,26.57-7.31,37c-17.69,41.8-40.09,64.23-54.88,72.54-79.53,44.7-168.92,46-187.26,44.24C175.1,388.15,137.67,363.64,134,356.81Z" style="fill-rule: evenodd;fill: url(#b)"/>
      </g>
    </g>
    <g>
      <g>
        <path d="M261,327.16q-2,4.32-7.64,7.18c-5.64,2.85-8.79,19.09-11.15,22.56a13.29,13.29,0,0,1-11.31,6.38c-5.36.08-8.2-4.21-9-9.34s.56-8.54,6.74-12.86,7-5.57,7.24-9.7,5.39-5.42,8.28-6.14,6.22-4.82,7.23-5.89a7.81,7.81,0,0,1,6.29-1.57,4.6,4.6,0,0,1,3.49,3.8A17.77,17.77,0,0,1,261,327.16Z" style="fill: #2caf78;fill-rule: evenodd"/>
        <path d="M223.59,360.08q11.74-21.91,29.32-34.46" style="fill: none;stroke: #000;stroke-opacity: 0.20000000298023224;stroke-width: 0.550000011920929px"/>
        <path d="M234.63,343.13q8.81-1.62,12.25,1.09" style="fill: none;stroke: #000;stroke-opacity: 0.20000000298023224;stroke-width: 0.550000011920929px"/>
        <path d="M239,338.4q7.6-1.48,9.42-.08" style="fill: none;stroke: #000;stroke-opacity: 0.20000000298023224;stroke-width: 0.550000011920929px"/>
      </g>
      <g>
        <path d="M210.68,363.54q-7.5-12.53,0-21.36c7.51-8.84,5.18-10.26,3.37-16.93s.69-16.12,5.14-19.87,4.87-6.51,3.85-14.77q-1-8.25,9.32-15.76a26,26,0,0,0,3.83-14.22c0-8.18,7.87-12,11.85-11s11.67,14.43,6.49,25.2-8.26,12.54-9.29,13.81-3.47,5.17-1.73,12.42-5.41,10.45-9.23,15.17-3.49,10.78-.79,18.35-.31,24.54-4.43,27.77Q224.94,365.61,210.68,363.54Z" style="fill: #6ce1b0;fill-rule: evenodd"/>
        <path d="M219.36,363.13q1.13-59.4,24.67-96.87" style="fill: none;stroke: #07946a;stroke-width: 0.550000011920929px"/>
        <path d="M222.05,329.63q6.34-4.77,8-5.4" style="fill: none;stroke: #07946a;stroke-width: 0.550000011920929px"/>
        <path d="M220.65,336.64q8-6,9.68-6.62" style="fill: none;stroke: #07946a;stroke-width: 0.550000011920929px"/>
        <path d="M226.89,305.17q-3-7-3.44-7" style="fill: none;stroke: #07946a;stroke-width: 0.550000011920929px"/>
        <path d="M228.13,301.21q-3.33-9.1-4.91-10" style="fill: none;stroke: #07946a;stroke-width: 0.550000011920929px"/>
      </g>
      <g>
        <path d="M203.49,362.59q-3.7-3-5.11-9.15c-1.41-6.17-16.4-13.15-19.2-16.28a13.28,13.28,0,0,1-3.46-12.52c1.22-5.22,6.08-6.93,11.25-6.5s8.15,2.61,10.85,9.65,3.71,8.13,7.66,9.37,4,6.55,4,9.52,3.16,7.2,4,8.44a7.76,7.76,0,0,1,0,6.48,4.58,4.58,0,0,1-4.52,2.47A17.89,17.89,0,0,1,203.49,362.59Z" style="fill: #02bc85;fill-rule: evenodd"/>
        <path d="M185.67,328.67q19.07,15.21,23.85,36.59" style="fill: none;stroke: #07946a;stroke-width: 0.550000011920929px"/>
        <path d="M194.36,336.56q1.89-6.8,1.58-8.28" style="fill: none;stroke: #07946a;stroke-width: 0.550000011920929px"/>
        <path d="M192.26,334.46q2-7.95,1.66-9.44" style="fill: none;stroke: #07946a;stroke-width: 0.550000011920929px"/>
        <path d="M207.48,357.32c2-3.67,3-6,3-7" style="fill: none;stroke: #07946a;stroke-width: 0.550000011920929px"/>
        <path d="M206.09,353.81q3.27-6.24,3.27-7.76" style="fill: none;stroke: #07946a;stroke-width: 0.550000011920929px"/>
      </g>
      <g>
        <path d="M197,360.38h46.11L237.89,392a2,2,0,0,1-1.57,1.63A79.81,79.81,0,0,1,220,395.3a78.42,78.42,0,0,1-16.22-1.71h0a2,2,0,0,1-1.56-1.63Z" style="fill: #6b18dc;fill-rule: evenodd"/>
        <g style="mask: url(#c)">
          <polygon points="196.5 370.12 241.06 376.84 242.62 369 196.5 370.12" style="fill-rule: evenodd;opacity: 0.20000001788139343;isolation: isolate"/>
        </g>
      </g>
      <path d="M197.5,370h45.11a2,2,0,0,0,2-2v-8.3a2,2,0,0,0-2-2H197.5a2,2,0,0,0-2,2V368A2,2,0,0,0,197.5,370Z" style="fill: #6f17e0;fill-rule: evenodd"/>
    </g>
    <g>
      <g>
        <path d="M363.63,272.36q-53,13-56.6,36.82c-6.49,42.46,8.74,72.08,64.59,77.88s94.19-9.34,111.62-49.12c15.2-34.68,13.86-92.88-19.6-127.89s-82.23-32.14-100-9Q345.84,224.18,363.63,272.36Z" style="fill-rule: evenodd;fill: url(#d)"/>
        <g style="mask: url(#e)">
          <path d="M419.8,184.05q44,19,50.76,46.22c24.77,100.21-44.09,150.81-162.35,108" style="fill: none;stroke: #fff;stroke-width: 1.0291050672531128px;stroke-dasharray: 5.5"/>
        </g>
        <g style="mask: url(#f)">
          <path d="M383.14,182.72c22.43-7.47,61.22,4.92,71.53,39.26s-.74,99.67-71.53,104.06-89.21-42.92-69.05-72.12c10.84-15.68,12.1-15.77,29.18-39.6S358.47,179.39,383.14,182.72Z" style="fill-rule: evenodd;fill: url(#g)"/>
        </g>
        <g style="mask: url(#h)">
          <path d="M477.45,351.35C459.54,381.1,340,389,308.93,351.35q27.7,48.58,84.91,43.24C451,389.25,463.09,375.59,477.45,351.35Z" style="fill: url(#i)"/>
        </g>
      </g>
      <g>
        <path d="M388.81,197.64q10.17-5.05,5.09-18.56c-5.09-13.5-13.14-20.15-27-16.11s-13.9,24.27-12.08,31.86q1.83,7.59,16.18,7.53Z" style="fill: #30007d"/>
        <g style="mask: url(#j)">
          <path d="M380.75,183.3q4.38-9.54,13-4.77c8.61,4.77,8.75,13.52,6.36,21.67q-2.4,8.15-6.36,12.6H383.64Z" style="fill-opacity: 0.30000001192092896;opacity: 0.6000000238418579;isolation: isolate"/>
        </g>
      </g>
      <g>
        <path d="M296.34,365.16q.9,5-2.9,11.5c-3.79,6.49-14.73,6.3-14.73,11.61s9.68,6.48,17.63,1.11,13.13-4.73,13.13-9q0-4.26.65-13.61Z" style="fill: #ffd7d5"/>
        <g style="mask: url(#k)">
          <path d="M293.51,375.75c-2.09,2.68-4.67,5.43-3.38,7.53s17.72-2.82,19.75-9.82v10.48l-9.5,4q-5.49,6.48-15.35,6.48c-9.85,0-10.41-7.23-7.18-9.73Q281.09,382.19,293.51,375.75Z" style="fill: #0c1642"/>
        </g>
      </g>
      <g>
        <path d="M397.83,271.13q-93-5.52-96.82,10.11t-6.26,87.42a10.26,10.26,0,0,0,7,4,14.5,14.5,0,0,0,8.92-1.59q20.37-61,15.06-83.62Z" style="fill: url(#l)"/>
        <g style="mask: url(#m)">
          <path d="M322.51,289.21l-18.15,86.15" style="fill: none;stroke: #fff;stroke-width: 1.0291050672531128px;stroke-dasharray: 5.5;opacity: 0.3999999761581421;isolation: isolate"/>
        </g>
        <g style="mask: url(#n)">
          <path d="M350.17,271.08c-15.38,0-47.21-.73-38.68,25.36q8.53,26.1,16.08,48.5Q365.55,271.08,350.17,271.08Z" style="fill-opacity: 0.30000001192092896;opacity: 0.699999988079071;isolation: isolate"/>
        </g>
      </g>
      <g>
        <path d="M364,381.56a20,20,0,0,1,1.25,7.33c0,4.15-4.86,9.56-10.15,15.05s2.1,9.64,13.05,2.95,11.89-14.26,10.8-18q-1.08-3.74-3.54-10.6Z" style="fill: #ffd7d5"/>
        <g style="mask: url(#o)">
          <path d="M364.55,391.32c-.57,2.13-2.22,7.52,0,8.33s12-2.53,13.58-14.16q4.13,3.93.85,12.17c-3.27,8.25-17.36,15.93-24.91,13.27Q346.53,408.26,364.55,391.32Z" style="fill: #0c1642"/>
        </g>
      </g>
      <g>
        <path d="M417.28,258.8q16.41,42.17-3.11,51.59Q392,321.1,355,308q16.42,22.31,22,70.95c0,2.92-7.34,6.72-13.86,2.68q-49.53-87.9-44.7-101.27T417.28,258.8Z" style="fill: url(#p)"/>
        <g style="mask: url(#q)">
          <path d="M405.16,263.06q10.74,32.6-17.25,26.47c-28-6.12-52.43-12.18-54.37-3.69s22.19,20.56,41.29,99.24" style="fill: none;stroke: #fff;stroke-width: 1.0291050672531128px;stroke-dasharray: 5.5;opacity: 0.3999999761581421;isolation: isolate"/>
        </g>
      </g>
      <g>
        <g>
          <path d="M383.38,269q29.64,8.58,40.8,6.16c11.16-2.42,3.69-52.54-7.3-60.71s-31.19-9.31-43.85-6.73c-9.54,1.94-28.27,9.57-29.24,57Z" style="fill: #fff"/>
          <g style="mask: url(#r)">
            <path d="M410.44,251.68a57.94,57.94,0,0,1-2.63-21.49A27.41,27.41,0,0,0,406,237c-.48,6.37-.17,12.28-2.2,14.7-1.06,1.26-7.11,3.3-13,3.46-3.88.1-8.06-1.71-9.34-1.22-.36.14,1.7.74,6.07,1.66a41.3,41.3,0,0,0,5.84.49q12-.12,14.25-1A4,4,0,0,0,410.44,251.68Z" style="opacity: 0.10000000149011612;isolation: isolate"/>
          </g>
          <g style="mask: url(#s)">
            <path d="M368.24,205.82q-12.15,28.08,6.27,49.86,29-13.86,20.94-49.86" style="fill: none;stroke: #fff;stroke-width: 1.470150113105774px"/>
          </g>
          <g style="mask: url(#r)">
            <polygon points="380.47 261.94 380.11 263.74 387.92 266.73 361.37 266.73 359.86 256.21 370.89 256.21 380.47 261.94" style="fill: #0c1642"/>
          </g>
        </g>
        <path d="M373.1,207.16A61.73,61.73,0,0,0,372,220.87q1.14,11.5,6.06,9.49c4.92-2,15.37-15.2,11.49-24.54Z" style="fill: #0c1642"/>
      </g>
      <g>
        <path d="M359.64,180.1q.38,22.47,12.62,23.68a84.6,84.6,0,0,1,0,13c-.61,9,11,15.15,17.57-3.63q1.83-5.22-5.56-23.47,5.34-.76,4.93-5.19c-.41-4.42-4.25-5.82-7.57-.62Q366,186.5,359.64,180.1Z" style="fill: #fed2f5"/>
        <g style="mask: url(#u)">
          <path d="M372,187.72a1.11,1.11,0,0,0,0-2.21,1.11,1.11,0,1,0,0,2.21Z" style="fill: #902e7c"/>
        </g>
        <g style="mask: url(#u)">
          <path d="M363.17,189.19a1.11,1.11,0,0,0,0-2.21,1.11,1.11,0,1,0,0,2.21Z" style="fill: #902e7c"/>
        </g>
        <g style="mask: url(#u)">
          <path d="M371.81,203.87c1.17-.16,3.42-.83,8.1-5.23a11.62,11.62,0,0,1-7.54,9.46Z" style="opacity: 0.10000000149011612;isolation: isolate"/>
        </g>
        <g style="mask: url(#x)">
          <path d="M372.09,217c0,2,2.65,6.76,7,5.62s13.3-5.62,10.55-16.22q3.84,14.85-8.88,19.9T372.09,217Z" style="opacity: 0.10000000149011612;isolation: isolate"/>
        </g>
        <g style="mask: url(#u)">
          <path d="M367.12,190.13q-1.74,4.62,1.44,3.33" style="fill: none;stroke: #e0a7d4;stroke-linecap: round;stroke-linejoin: round;stroke-width: 0.8820900321006775px"/>
        </g>
        <g style="mask: url(#u)">
          <path d="M368.87,197.6a2,2,0,0,0,3.6-.5" style="fill: none;stroke: #902e7c;stroke-linecap: round;stroke-linejoin: round;stroke-width: 0.8820900321006775px"/>
        </g>
      </g>
      <path d="M382.2,254.27q-11.43-4.47-13.7-4.47c-2.27,0-12.15,5-12.15,6.27q0,1.29,4.65,0-2.87,5.42-1.43,6t4.15-4.17q8.44,4.17,12.27,2.43l4.46,1.74Z" style="fill: #fed2f5"/>
      <path d="M379.11,263.42l3.35,1.24,2.15-9.8-3.34-.94a10.29,10.29,0,0,0-1.75,4.06A23.2,23.2,0,0,0,379.11,263.42Z" style="fill: #0c1642"/>
      <g>
        <path d="M362.23,266.18h42v1.89a3.5,3.5,0,0,1-3.5,3.49H362.23Z" style="fill: #5c2ae7;fill-rule: evenodd"/>
        <g>
          <path d="M298.27,226.86h53.66a4.66,4.66,0,0,1,4.45,3.3l11.8,38.45a2.34,2.34,0,0,1-1.55,2.91,2.59,2.59,0,0,1-.67.1l-53.37.14a4.66,4.66,0,0,1-4.46-3.27l-12.08-38.6a2.33,2.33,0,0,1,1.52-2.92A2.38,2.38,0,0,1,298.27,226.86Z" style="fill: #6f17e0"/>
          <g style="mask: url(#aa)">
            <path d="M326.33,250.18a2.67,2.67,0,0,0,4.26-2.12,2.59,2.59,0,0,0-.36-1.32h0a4,4,0,1,1-4,4A4.58,4.58,0,0,1,326.33,250.18Z" style="fill: #fff;fill-rule: evenodd"/>
          </g>
        </g>
      </g>
      <g>
        <ellipse cx="362" cy="189" rx="3" ry="4" transform="translate(-40.69 121.11) rotate(-18)" style="fill: #fff;fill-opacity: 0.4000000059604645;stroke: #fff;stroke-width: 1.100000023841858px"/>
        <ellipse cx="372.5" cy="188" rx="3.5" ry="4" transform="translate(-39.86 124.31) rotate(-18)" style="fill: #fff;fill-opacity: 0.4000000059604645;stroke: #fff;stroke-width: 1.100000023841858px"/>
        <path d="M369,187.84c-1.55-1.15-2.88-1-4,.37" style="fill: none;stroke: #fff"/>
        <path d="M375.14,185.34l6.36-1.84" style="fill: none;stroke: #fff;stroke-linecap: round"/>
      </g>
    </g>
    <g>
      <g>
        <path d="M162,57.54q15.88,31.92,3.18,47.08c-.78,1.23-1,1.9-.8,2q2,.8,8.74-3.2l-2,8.31a.79.79,0,0,0,.59,1,.87.87,0,0,0,.55-.06l6.4-3.22v5.87a.8.8,0,0,0,.8.8.78.78,0,0,0,.37-.09L219.6,95.44q-6-44.68-7.55-49.07l-5.56-7.58a10.58,10.58,0,0,0-2.38-.4,16.21,16.21,0,0,0-2.78.4Z" style="fill: #c3b0f5;fill-rule: evenodd"/>
        <g style="mask: url(#ab)">
          <path d="M178.68,111.4l35.76-18q3.18-22.74-2.39-39.5L176.3,72.7Z" style="fill-rule: evenodd;opacity: 0.04693080484867096;isolation: isolate"/>
        </g>
        <g style="mask: url(#ab)">
          <path d="M178.68,109.41l34.17-17.56q1.5-11.71,1.59-16.36c.21-11.47-2.05-19.5-3.18-22.34l-4.37-3.59L174.71,75.49l-1.19,26.34-6.75,12.77,5.8-1.73Z" style="fill: #f8f8fa;fill-rule: evenodd"/>
        </g>
        <g style="mask: url(#ab)">
          <path d="M169.55,113.8l44.09-21.55q2.4-22.14,0-32.32c-1.21-4.19-2.13-6.72-2.78-7.58a17.6,17.6,0,0,0-4.37-4L169.55,69.11l1.19,39.9Z" style="fill-rule: evenodd;opacity: 0.10000000149011612;isolation: isolate"/>
        </g>
        <g style="mask: url(#ae)">
          <path d="M164,107.81l4.9-1.5,3.62-2.5,34.78-16.35q6.75-13.15,0-35.91t-2.39-6.78L160.81,63.13Z" style="fill: #f8f8fa;fill-rule: evenodd"/>
        </g>
        <g style="mask: url(#af)">
          <polygon points="167.16 67.51 206.49 49.16 213.25 54.35 214.84 49.96 211.26 40.78 205.3 35.99 159.62 56.34 165.18 68.71 167.16 67.51" style="fill-rule: evenodd;fill: url(#ag)"/>
        </g>
      </g>
      <ellipse cx="181.72" cy="76.72" rx="4.28" ry="6.97" transform="translate(-10.56 32.72) rotate(-10)" style="fill: none;stroke: #999;stroke-width: 2.4000000953674316px"/>
      <path d="M195.68,80.21a5.16,5.16,0,0,1-2.85.41,3.69,3.69,0,0,1-2.18-1.19,4.7,4.7,0,0,1-1.09-2.53,1.56,1.56,0,0,1,.15-1,1.18,1.18,0,0,1,.63-.63.72.72,0,0,1,.74.07,1,1,0,0,1,.39.73,2.9,2.9,0,0,0,.68,1.55,2.45,2.45,0,0,0,1.38.77,3,3,0,0,0,1.73-.22,4.2,4.2,0,0,0,2.1-1.75,4,4,0,0,0,.5-2.68,3.21,3.21,0,0,0-.62-1.57,2.13,2.13,0,0,0-1.2-.82,2.36,2.36,0,0,0-1.51.15.85.85,0,0,1-.81,0,.93.93,0,0,1-.43-.72,1.6,1.6,0,0,1,.18-1,1.4,1.4,0,0,1,.72-.64,3,3,0,0,0,1.08-.8,3.83,3.83,0,0,0,.77-1.27,2.83,2.83,0,0,0,.16-1.4,1.78,1.78,0,0,0-.91-1.42,2.08,2.08,0,0,0-1.81,0,4.26,4.26,0,0,0-1.4.94,4.36,4.36,0,0,0-.91,1.34A2.81,2.81,0,0,0,191,68a1.6,1.6,0,0,1-.14,1,1.23,1.23,0,0,1-.63.64.77.77,0,0,1-.74,0,1,1,0,0,1-.39-.73,5.27,5.27,0,0,1,.28-2.62,6.66,6.66,0,0,1,1.46-2.37,6.73,6.73,0,0,1,2.34-1.6,4.27,4.27,0,0,1,2.29-.32,3.1,3.1,0,0,1,1.81,1,3.65,3.65,0,0,1,.89,2,4.16,4.16,0,0,1-.4,2.43,7.62,7.62,0,0,1-1.57,2.15,3.49,3.49,0,0,1,2.61.86A4.27,4.27,0,0,1,200,73a6.07,6.07,0,0,1-.31,2.94,7.54,7.54,0,0,1-1.57,2.62A6.73,6.73,0,0,1,195.68,80.21Z" style="fill: #999;fill-rule: evenodd"/>
      <path d="M174.32,56.74a10.1,10.1,0,0,1-3.26-2.18,6,6,0,0,1-1.11-5.8c.79-1.8,2.12-2.17,4-1.11a16.26,16.26,0,0,1,2,1.51" style="fill: none;stroke: #c3b0f5;stroke-linecap: round;stroke-width: 2.4000000953674316px"/>
      <path d="M191.79,48.76a10.14,10.14,0,0,1-3.25-2.18,6.08,6.08,0,0,1-1.12-5.8q1.2-2.7,4-1.11a16.26,16.26,0,0,1,2,1.51" style="fill: none;stroke: #c3b0f5;stroke-linecap: round;stroke-width: 2.4000000953674316px"/>
    </g>
    <ellipse cx="88.5" cy="396" rx="73.5" ry="16" style="fill: #3c11ca;opacity: 0.06000000238418579;isolation: isolate"/>
    <g>
      <g style="opacity: 0.20000000298023224">
        <path d="M55.4,56.38c2,4.41,10.41,7.11,16.59-1.91,2.87-4.19,9.63-1.85,14.11-1.62q5.45,15.88-9.24,19.38c-4.72,1.11-10.24.84-13.56-1.82C56.25,64.79,54.08,53.39,55.4,56.38Z" style="fill: #fff"/>
      </g>
      <g>
        <g>
          <path d="M79,77.12c4.66-3.76,4.39-8.17,4.39-15.64,15.66,5,15.73-13.43,2.49-16q-2.49-2.65-10.66-2.65c-8.16,0-12.49,1.54-17.45,9.24Q46.9,58.85,61.65,80,72.12,82.69,79,77.12Z" style="fill: #30007d"/>
          <g style="mask: url(#ah)">
            <path d="M79.67,72.89q-.45-8.58-6.34-7.21c-5.89,1.38-15,5.95-20-2.87q1.29,11.82,8.37,18Q72.38,81,77.36,78.2Z" style="opacity: 0.2544642984867096;isolation: isolate"/>
          </g>
        </g>
        <g>
          <path d="M91.53,66c.34,1.64,1.8,6.39,2.1,7.47.22.76-.71,1.31-2.78,1.65q-2.58,12.21-14.64,9.76l-.39,7.33-17.15-.9L60.89,79q9.92,1.92,15.75-2.38a6.71,6.71,0,0,1-3.82-2.15,3.87,3.87,0,0,1-.71-4c1.33-3,6.3-2.46,7.54,2.31q2.41-7.39.59-13.15,6.89,0,10.64-1.82A81.07,81.07,0,0,1,91.53,66Z" style="fill: #fed2f5"/>
          <g style="mask: url(#ai)">
            <path d="M87,68.29a1.32,1.32,0,1,0-1.25-1.39A1.32,1.32,0,0,0,87,68.29Z" style="fill: #902e7c"/>
          </g>
          <g style="mask: url(#ai)">
            <path d="M77.72,85.17Q72.56,84,70.88,83.51a9.87,9.87,0,0,0,5.41,6.25Z" style="opacity: 0.10000000149011612;isolation: isolate"/>
          </g>
          <g style="mask: url(#ai)">
            <path d="M85.36,77.94q.56,3.3,2.76,3.3" style="fill: none;stroke: #902e7c;stroke-linecap: round;stroke-linejoin: round;stroke-width: 0.9702990651130676px"/>
          </g>
        </g>
      </g>
      <path d="M40,377.76l-2.78,14.29A4.69,4.69,0,0,0,41,397.54a4.52,4.52,0,0,0,1,.09q12.4-.42,17.61-.5c13.27-.23,16.78-1.77,16.93-5.93.17-4.76-12.89-3-22.44-8.65Z" style="fill: #0c1642"/>
      <path d="M97.7,379.85l.41,15.4a3.13,3.13,0,0,0,2.89,3q40.25,3,40.24-2.91c0-6.17-25.85-5.41-30.83-14.81Z" style="fill: #0c1642"/>
      <path d="M33.57,224.7c1.36,1.83,5.32,2.94,6.06,2.33q.57-.48,0-5.08l-2.2-6.59-6.62,4.39A48.51,48.51,0,0,0,33.57,224.7Z" style="fill: #fed2f5;fill-rule: evenodd"/>
      <g>
        <path d="M77.41,198.48l19-1.85q27.6,81.24,26.79,96.7T114,382.71c-1.94,2-4.9,2.87-8.89,2.67s-6.84-1.41-8.56-3.59l-5.1-90.12L76.24,260.32q-.58,27.07-.94,33.84-.66,12.73-18.95,88.7-2.33,3.69-8.77,3.35t-9-4.28l4.63-86.43L36.51,194.91l40.93,2.15Z" style="fill: url(#al)"/>
        <g style="mask: url(#am)">
          <path d="M56.05,218.06l20.59,43.06v29.26Q64.7,266.14,60.27,250.24A114.34,114.34,0,0,1,56.05,218.06Z" style="fill-opacity: 0.20000001788139343"/>
        </g>
        <g style="mask: url(#an)">
          <path d="M35.76,207.54q39,8.6,65.63-2.21l-3.3-6.57-61.93,1.29Z" style="fill-opacity: 0.20000001788139343"/>
        </g>
        <g style="mask: url(#am)">
          <path d="M77.53,198.46q30.68,91.73,30.15,101.68t-4.94,85" style="fill: none;stroke: #fff;stroke-width: 1.0291050672531128px;stroke-dasharray: 5.5;opacity: 0.5;isolation: isolate"/>
        </g>
        <g style="mask: url(#am)">
          <path d="M45.93,385.53q24-101,14.5-154.5" style="fill: none;stroke: #fff;stroke-width: 1.0291050672531128px;stroke-dasharray: 5.5;opacity: 0.5;isolation: isolate"/>
        </g>
      </g>
      <path d="M173.25,101.32q9-14.2,10.86-12.73t-1.5,6.23q14-8.64,16.64-6.74c2.61,1.9-7.54,6.57-6.87,8.91.72,2.55,1.39,6.14-.64,8.27q-3.9,4.11-13.59,5.2Z" style="fill: #fed2f5"/>
      <g>
        <path d="M17,180.72q-2.52-22-1.74-36.77C16.06,129.19,26.53,85.82,65,87.83q29,1.52,70.57,29.1l39-18.83a13.57,13.57,0,0,1,6.54,12.14Q141.12,144.52,131.11,144T100,131.31q-3.18,45-.63,55c2.55,10,7.36,13.69-.87,16.62s-52.81,4.88-61.7-1.35q2.16,13.88.75,16.76a84.23,84.23,0,0,1-8.41,2,96.34,96.34,0,0,1-6.62-14.84A240.27,240.27,0,0,1,17,180.72Z" style="fill: url(#aq)"/>
        <g style="mask: url(#ar)">
          <path d="M102.13,132.58q-3.51-2.09-12.41-7.32,5.79,22.69,0,43.22c-5.81,20.53-3.33,27.09,8.74,34.65,3.57-.31,5.45-2.18,5.63-5.63.27-5.18-5.92-15-4.19-21.77S105.64,134.66,102.13,132.58Z" style="opacity: 0.19564731419086456;isolation: isolate"/>
        </g>
        <g style="mask: url(#ar)">
          <path d="M36.16,202Q30,190.37,29.82,184.7c-.31-10.1,5.2-19.87,4.22-27.89-2.29-18.8-2.4-34.53-1.2-41.06q-10.89,12.44-4.26,42.61c2.11,9.61-2,21.87-.76,28Q28.57,190.1,36.16,202Z" style="opacity: 0.19564731419086456;isolation: isolate"/>
        </g>
        <g style="mask: url(#at)">
          <path d="M168.44,100.23q8.1,4.24,8.1,14.35l6.22-4.1q-1.9-11.33-8.68-13.34Z" style="fill: #fff"/>
        </g>
        <g style="mask: url(#au)">
          <path d="M27.51,216.45a23.49,23.49,0,0,0,5.51-.54,40.37,40.37,0,0,0,6.06-2.75l.55,5.5L27,222l-1.11-4.37Z" style="fill: #fff;fill-rule: evenodd"/>
        </g>
      </g>
    </g>
    <g>
      <g>
        <path d="M368,108.55q-15.88,31.92-3.18,47.08c.78,1.23,1,1.9.8,2q-2,.8-8.74-3.2l2,8.31a.79.79,0,0,1-.59,1,.87.87,0,0,1-.55-.06l-6.4-3.22v5.87a.8.8,0,0,1-.8.8.78.78,0,0,1-.37-.09L310.4,146.45q6-44.68,7.55-49.07l5.56-7.58a10.58,10.58,0,0,1,2.38-.4,16.21,16.21,0,0,1,2.78.4Z" style="fill: #c3b0f5;fill-rule: evenodd"/>
        <g style="mask: url(#av)">
          <path d="M351.32,162.41l-35.76-17.95Q312.38,121.72,318,105l35.75,18.75Z" style="fill-rule: evenodd;opacity: 0.04693080484867096;isolation: isolate"/>
        </g>
        <g style="mask: url(#av)">
          <path d="M351.32,160.42l-34.17-17.56q-1.5-11.72-1.59-16.35c-.21-11.48,2.05-19.51,3.18-22.35l4.37-3.59,32.18,25.94,1.19,26.33,6.75,12.77-5.8-1.73Z" style="fill: #f8f8fa;fill-rule: evenodd"/>
        </g>
        <g style="mask: url(#av)">
          <path d="M360.45,164.81l-44.09-21.55q-2.4-22.14,0-32.32c1.21-4.19,2.13-6.72,2.78-7.58a17.6,17.6,0,0,1,4.37-4l36.94,20.75L359.26,160Z" style="fill-rule: evenodd;opacity: 0.10000000149011612;isolation: isolate"/>
        </g>
        <g style="mask: url(#ay)">
          <path d="M366,158.82l-4.9-1.5-3.62-2.5-34.78-16.35q-6.75-13.16,0-35.9t2.39-6.79l44.09,18.36Z" style="fill: #f8f8fa;fill-rule: evenodd"/>
        </g>
        <g style="mask: url(#az)">
          <polygon points="362.84 118.53 323.51 100.17 316.75 105.36 315.16 100.97 318.74 91.79 324.7 87 370.38 107.35 364.82 119.72 362.84 118.53" style="fill-rule: evenodd;fill: url(#ba)"/>
        </g>
        <g style="mask: url(#av)">
          <path d="M329.86,109l25.82,12" style="fill: none;stroke: #999;stroke-linecap: round;stroke-width: 1.600000023841858px"/>
        </g>
        <g style="mask: url(#av)">
          <path d="M329.86,116.93l25.82,12" style="fill: none;stroke: #999;stroke-linecap: round;stroke-width: 1.600000023841858px"/>
        </g>
        <g style="mask: url(#av)">
          <path d="M329.86,124.91l25.82,12" style="fill: none;stroke: #999;stroke-linecap: round;stroke-width: 1.600000023841858px"/>
        </g>
      </g>
      <path d="M355.68,107.75a10.1,10.1,0,0,0,3.26-2.18,6,6,0,0,0,1.11-5.8c-.79-1.8-2.12-2.17-4-1.11a16.26,16.26,0,0,0-2,1.51" style="fill: none;stroke: #c3b0f5;stroke-linecap: round;stroke-width: 2.4000000953674316px"/>
      <path d="M338.21,99.77a10.14,10.14,0,0,0,3.25-2.18,6.08,6.08,0,0,0,1.12-5.8q-1.2-2.7-4-1.11a16.26,16.26,0,0,0-2,1.51" style="fill: none;stroke: #c3b0f5;stroke-linecap: round;stroke-width: 2.4000000953674316px"/>
    </g>
  </g>
</svg>
