<?xml version="1.0" encoding="UTF-8"?>
<svg width="526px" height="420px" viewBox="0 0 526 420" version="1.1" xmlns="http://www.w3.org/2000/svg" xmlns:xlink="http://www.w3.org/1999/xlink">
    <defs>
        <path d="M228.950116,379 C353.241735,379 454,278.331523 454,154.150664 C454,29.9698049 331.421571,-71.5305511 242.309475,65.6132439 C153.197379,202.757039 0,78.5761798 0,202.757039 C0,326.937898 104.658498,379 228.950116,379 Z" id="talent-manager-path-1"></path>
        <linearGradient x1="27.3996788%" y1="88.8580026%" x2="0%" y2="-280.99014%" id="linearGradient-3">
            <stop stop-color="#FFFFFF" stop-opacity="0" offset="0%"></stop>
            <stop stop-color="#5818BE" offset="100%"></stop>
        </linearGradient>
        <linearGradient x1="59.9014233%" y1="6.39761353%" x2="25.2097224%" y2="111.166943%" id="linearGradient-4">
            <stop stop-color="#7F14F4" offset="0%"></stop>
            <stop stop-color="#4D35E2" offset="100%"></stop>
        </linearGradient>
        <path d="M1.86931007,1.22951462 C2.12248301,4.64214306 2.16623207,7.14852503 2.00055725,8.74866053 C1.88297993,9.88425637 1.55573437,11.5697192 1.01882055,13.805049 L1.01881476,13.8050476 C0.67704992,15.2279149 1.55345665,16.6584319 2.97632399,17.0001968 C3.11615489,17.0337834 3.25848808,17.0559302 3.40191314,17.0664179 C24.3216779,18.5961309 35.1153455,17.7238525 35.7829161,14.4495827 C36.8333249,9.29758543 17.3078326,9.41622211 12.8185959,0.0370375413 L1.86931007,1.22951462 Z" id="talent-manager-path-5"></path>
        <path d="M0.374956621,0.371574539 C10.6680307,51.6264288 18.3842308,85.976219 23.5235567,103.420945 C23.0102061,115.622573 23.1614699,124.28847 23.977348,129.418635 C29.3704057,163.329678 38.4176002,184.954268 38.8514124,190.807992 C39.2852247,196.661717 39.2593682,195.180402 39.9360859,195.650204 C40.3972689,195.970375 41.5817322,195.278046 43.4894758,193.573217 C47.8960732,193.496299 50.1028275,192.509053 50.1097389,190.611478 L46.789089,0.371574539 L0.374956621,0.371574539 Z" id="talent-manager-path-7"></path>
        <path d="M5.24397389,0.0724972912 L0.672980062,11.2961022 C-0.154940695,13.3289804 0.821870332,15.6481162 2.85474855,16.4760369 C2.9836406,16.5285302 3.11520092,16.5742171 3.2488858,16.6129089 C23.97009,22.6101502 35.0662988,23.8463165 36.5375121,20.3214078 C38.890093,14.6848131 18.5422635,11.1635481 15.8505483,0.0484127482 L5.24397389,0.0724972912 Z" id="talent-manager-path-9"></path>
        <path d="M10.5811546,0.166308334 C4.36626825,12.6594281 1.25882506,28.052939 1.25882506,46.3468409 C1.25882506,52.781868 2.61206831,70.5503038 5.3185548,99.6521483 C-1.60663337,115.62716 -1.43729645,146.888158 5.82656557,193.435142 C5.40954459,195.351288 6.72351716,196.282786 9.76848326,196.229636 C12.8134494,196.176485 15.2737025,195.179108 17.1492426,193.237504 C22.0471403,149.145309 25.5029093,119.413802 27.5165495,104.042985 C30.5370098,80.9867591 50.3049932,32.0740815 53.832549,3.45026422 L10.5811546,0.166308334 Z" id="talent-manager-path-11"></path>
        <path d="M63.8333527,91.9099785 C65.3427331,91.9445776 66.8935457,91.9780005 68.4857904,92.0102471 L70.0477808,181.496616 C51.5293939,190.154458 29.6849066,189.681715 4.51431895,180.078385 C1.5906917,155.869564 0.147858006,139.077353 0.185817851,129.701755 C0.222730716,120.584747 2.74534403,107.410113 7.75365778,90.1778527 C7.72940317,90.1741306 7.7051451,90.1704159 7.68088686,90.1666974 C10.1596317,74.1014414 9.37736384,55.6993848 5.33408341,34.9605277 C1.29080298,14.2216706 9.60924058,2.79399365 30.2893962,0.677496846 L42.0876273,0.677496846 C68.6860683,0.677496846 77.5698343,30.9190464 68.7389254,91.4021455 C67.1045517,91.5892279 65.4693608,91.7585056 63.8333527,91.9099785 Z" id="talent-manager-path-13"></path>
        <path d="M19.5682075,0.263550664 C27.2209931,16.6723921 26.1221312,25.9358432 16.2716219,28.0539041 L16.2716219,35.4123525 C24.1567369,47.1266647 25.2838451,54.033117 19.6529463,56.1317094 C11.2065981,59.2795979 1.49632182,44.4627234 2.03356779,39.2282249 C2.57081376,33.9937264 4.05658991,29.2539628 3.76649618,23.5125024 C3.47640244,17.771042 -0.473931263,14.8516736 0.0633147077,12.2426106 C0.600560678,9.63354753 6.46943759,9.02841697 6.93263332,13.4450283 C9.04339142,9.54154375 9.04339142,6.01289112 6.93263332,2.85907039 C11.7083445,3.96969292 15.9202026,3.10451967 19.5682075,0.263550664 Z" id="talent-manager-path-15"></path>
        <linearGradient x1="82.7036561%" y1="0%" x2="17.640099%" y2="100%" id="linearGradient-17">
            <stop stop-color="#00D3E9" offset="0%"></stop>
            <stop stop-color="#00A7CE" offset="100%"></stop>
        </linearGradient>
        <path d="M3.67353162,15.5494153 C6.22802189,-0.00796085706 18.5518429,-5.66793079 22.7271922,8.54780765 C25.5107584,18.0249666 25.0068414,34.9078636 21.2154412,59.1964986 C39.0568938,64.5555371 54.9764995,67.7926162 68.9742583,68.9077358 C70.5900378,71.6837747 71.1791281,74.5535589 70.7415291,77.5170884 C70.2220063,81.0354259 69.3612801,83.3188065 68.1593505,84.3672301 C38.9230435,83.3844501 15.0445841,79.7209701 6.55818622,73.4483079 C-1.92821167,67.1756457 1.11904134,31.1067915 3.67353162,15.5494153 Z" id="talent-manager-path-18"></path>
        <path d="M18.175266,0.202645363 C25.0773313,2.75439293 30.7270223,9.48069957 36.4053026,20.7431864 C42.0835829,32.0056733 54.2666076,69.9389564 42.5359898,74.6832201 C34.715578,77.8460625 20.6100612,68.5437228 0.219439557,46.7762008 C-0.17791941,44.3561846 0.165167062,41.966563 1.24869898,39.6073361 C2.33223089,37.2481093 4.22098781,35.7815124 6.91496974,35.2075456 L31.5752589,48.9026257 C30.8904579,41.2619608 30.2343954,35.7489528 29.6070714,32.3636018 C26.9283974,17.9081495 23.2307866,7.47109204 18.175266,0.202645363 Z" id="talent-manager-path-20"></path>
        <path d="M0.10623776,0.227513454 L0.106263304,15.6936632 C0.106266934,18.0314627 1.7427893,20.0501304 4.03003432,20.5336764 C25.8257951,25.1415134 37.4804682,25.801479 38.9940537,22.5135731 C41.3970677,17.2935944 15.1423684,12.2257138 16.1554216,0.227513454 L0.10623776,0.227513454 Z" id="talent-manager-path-22"></path>
        <path d="M0.891796596,0.490110608 L0.891816138,15.5573198 C0.891820216,18.0692303 2.77431814,20.1823928 5.2695413,20.4714527 C29.7458228,23.3069144 41.9839636,23.1325238 41.9839636,19.9482808 C41.9839636,14.8951741 16.9409818,10.27105 16.9409818,0.490110608 L0.891796596,0.490110608 Z" id="talent-manager-path-24"></path>
        <path d="M40.167929,67.608345 C38.3590532,82.3675417 37.0912384,93.7369243 36.3644844,101.716493 C34.8128722,118.752789 29.379344,151.240471 20.0638998,199.179538 C17.8374193,201.393192 14.9419138,202.50002 11.3773834,202.50002 C7.81285297,202.50002 4.91734748,201.393192 2.69086688,199.179538 C0.265539691,151.562533 0.744108778,119.909771 4.12657415,104.221251 L0.966998661,4.25344824 L48.2545267,4.25344824 L69.0722249,0.771347168 C73.1543403,47.0116655 75.1953981,78.9543059 75.1953981,96.5992684 C75.1953981,114.244231 73.1543403,147.334169 69.0722249,195.869084 C66.6577248,198.082739 63.6644815,199.189566 60.0924947,199.189566 C56.520508,199.189566 53.5272646,198.082739 51.1127646,195.869084 C47.9573199,155.060475 46.3795976,125.332333 46.3795976,106.684659 C44.0464665,93.8667143 41.9759103,80.8412764 40.167929,67.608345 Z" id="talent-manager-path-26"></path>
        <path d="M9.47083375,18.4820831 C5.71440815,15.8842402 1.84068907,10.5656211 3.15475801,9.60650647 C3.71768325,9.19563773 4.85528367,9.56431103 6.56755928,10.7125264 C6.8850131,9.34905768 7.39311059,7.7622658 8.09185175,5.95215075 C2.43631797,3.17154637 -0.242498671,1.35655026 0.0554018297,0.507162418 C0.502252581,-0.766919351 10.8432893,1.78770344 14.3419907,3.92363118 C16.6744583,5.34758301 20.0959067,9.8758386 24.6063361,17.508398 L13.6583071,21.3886813 C11.9798814,20.3498327 10.5840569,19.3809667 9.47083375,18.4820831 Z" id="talent-manager-path-28"></path>
        <path d="M0.972738511,0.0911474845 C7.35659877,4.03706273 15.799663,18.4132003 26.3019311,43.2195602 L48.3663124,3.42469165 C50.9954998,2.26318467 53.5834173,2.25566693 56.1300648,3.40213844 C58.6767124,4.54860994 60.6917711,6.62833471 62.175241,9.64131275 C48.3929628,44.596341 38.5710378,64.6406073 32.709466,69.7741116 C26.8478942,74.9076159 16.1510836,68.9781158 0.619034141,51.9856114 L0.972738511,0.0911474845 Z" id="talent-manager-path-30"></path>
        <path d="M28.7237374,0.688497052 C9.37309826,4.23984764 -2.54709888,16.4642224 1.9066084,57.8089513 C3.45372869,72.1712038 0.220019244,89.5438026 0.424140642,110.051643 C0.451705568,112.82106 1.32207093,115.997309 3.03523673,119.580392 C26.9013642,127.263976 51.0847351,125.574561 75.5853495,114.512148 C78.0366613,72.8601132 77.6077719,44.9625181 74.2986813,30.8193626 C69.3350453,9.60462948 47.4849105,-2.75467103 28.7237374,0.688497052 Z" id="talent-manager-path-32"></path>
        <path d="M2.95843179,6.98246019 C0.905829087,10.9020764 -2.94780855,38.746974 9.68276165,136.164751 L33.9397627,136.964421 C22.2883722,65.3873748 18.079787,22.3196833 21.3140073,7.76134684 C20.1758243,4.11217469 19.2989718,2.21752185 18.6834498,2.07738832 C16.7953352,1.64752855 13.9631635,1.00273888 10.1869344,0.143019319 C6.73633447,2.0895691 4.32683359,4.36938273 2.95843179,6.98246019 Z" id="talent-manager-path-34"></path>
        <path d="M3.39963687,21.756077 C0.136304802,17.7941832 -0.217403578,12.7408574 2.33851173,6.59609969 C3.17056129,4.59574276 8.28943668,1.70173887 10.7063121,1.15595957 C19.2240775,-0.767524007 31.8164581,-1.09233899 36.489454,15.3781945 C41.1624498,31.8487281 26.7602225,36.086975 22.6693413,40.1359791 C19.4541299,43.3182774 23.7391073,37.7951137 21.0830538,38.3045637 C19.2830151,36.7417887 16.7926147,34.3665366 13.6118524,31.1788072 C10.4310901,27.9910779 7.02701822,24.8501678 3.39963687,21.756077 Z" id="talent-manager-path-36"></path>
        <path d="M5.42120701,0.363541226 C-3.41806141,17.5847576 -1.17381526,25.729837 12.1539454,24.7987793 C10.6510099,36.7093283 12.2322364,42.4813852 16.8976249,42.1149498 C22.3867312,41.6838169 31.4066539,35.1158214 30.0675867,29.9573003 C29.1748752,26.5182863 28.2380789,23.4285901 27.257198,20.6882119 C23.9141111,18.3455802 21.5866194,16.3574832 20.2747231,14.7239209 C22.8946208,12.8399728 23.6747653,10.9366135 22.6151568,9.01384312 C21.0257439,6.12968755 17.5757754,8.13126 17.5757754,10.2004152 C15.7764768,7.21751221 15.7764768,4.21315009 17.5757754,1.18732888 C11.5095175,3.29244448 7.45799475,3.0178486 5.42120701,0.363541226 Z" id="talent-manager-path-38"></path>
        <path d="M42.0789466,75.9950086 C36.9913356,73.7737731 36.9913356,60.6905964 33.6657932,61.2051992 C30.3402508,61.7198019 34.0385494,66.5005742 32.1173774,67.5622346 C30.1962055,68.623895 29.1300474,61.748742 26.034905,61.748742 C22.9397627,61.748742 22.0931021,71.4028539 23.7551624,73.3663227 C25.4172228,75.3297914 27.6505665,80.0738922 35.6461306,81.8837896 C39.6063338,84.8891843 42.2219056,86.3452041 43.4928459,86.2518491 L42.0789466,75.9950086 Z" id="talent-manager-path-40"></path>
        <path d="M38.1822581,-38.6897746 C38.1822581,-29.7153798 31.1371977,-11.6237543 17.047077,15.5851018 L35.2661099,67.2910685 C32.9809943,68.7764464 31.1751193,69.7525377 29.8484848,70.2193424 C28.5218504,70.6861471 26.1956602,71.1640114 22.8699142,71.6529352 C6.71439641,41.9558473 -1.36336247,23.2665695 -1.36336247,15.5851018 C-1.36336247,4.06290013 12.9637633,-37.1127262 20.2134888,-46.4519385 C27.4632144,-55.7911508 38.1822581,-52.1513668 38.1822581,-38.6897746 Z" id="talent-manager-path-42"></path>
        <path d="M0.996323529,0.376811594 L47.1139706,0.376811594 L41.8862057,31.9837329 C41.7531916,32.7879332 41.1454314,33.4309448 40.3499994,33.6090426 C35.3165944,34.7360255 30.0332612,35.2995169 24.5,35.2995169 C18.9310391,35.2995169 13.3613259,34.7287309 7.79086035,33.5871589 L7.7908636,33.5871431 C6.9793701,33.4208413 6.35437899,32.7714953 6.21920561,31.95424 L0.996323529,0.376811594 Z" id="talent-manager-path-44"></path>
    </defs>
    <g id="Page-1" stroke="none" stroke-width="1" fill="none" fill-rule="evenodd">
        <g id="01---Landing-Page" transform="translate(-740.000000, -4181.000000)">
            <g id="section---illustration" transform="translate(169.000000, 3081.000000)">
                <g id="section" transform="translate(3.000000, 1100.000000)">
                    <g id="Illustration/img_talent_manager" transform="translate(568.000000, 0.000000)">
                        <rect id="Rectangle-7" x="0" y="0" width="526" height="420"></rect>
                        <g id="Group-37" transform="translate(258.000000, 194.500000) scale(1, -1) translate(-258.000000, -194.500000) translate(31.000000, 5.000000)">
                            <mask id="mask-2" fill="white">
                                <use xlink:href="#talent-manager-path-1"></use>
                            </mask>
                            <use id="Oval-9" fill="#F0EDFC" transform="translate(227.000000, 189.500000) scale(-1, 1) translate(-227.000000, -189.500000) " xlink:href="#talent-manager-path-1"></use>
                            <path d="M97.9809857,345.81104 C59.821738,275.13685 98.9368236,218.541946 165.949586,224.419976 C306.62026,236.758917 327.226806,284.770034 424.906075,250.040533 C433.024998,246.866749 438.391521,244.34412 441.005642,242.472645 C450.534592,235.650778 453.383406,229.653337 453.383406,229.653337 C451.444808,247.357833 449.007631,259.679158 446.071874,266.617311 C428.384226,308.419004 405.976411,330.848129 391.18591,339.162109 C311.661022,383.864335 222.271425,385.1687 203.928164,383.39972 C139.09667,377.147525 101.667418,352.638629 97.9809857,345.81104 Z" id="Path-16" fill="url(#linearGradient-3)" mask="url(#mask-2)"></path>
                        </g>
                        <g id="Group-36" transform="translate(284.000000, 6.000000)">
                            <path d="M116,56 L116,66.251531 C116,66.8626774 115.720573,67.4402823 115.241406,67.8196226 C114.375373,68.5052322 113.117518,68.35897 112.431908,67.4929369 L108.083333,62 L6,62 C2.6862915,62 4.05812251e-16,59.3137085 0,56 L0,6 C-4.05812251e-16,2.6862915 2.6862915,6.08718376e-16 6,0 L110,0 C113.313708,-6.08718376e-16 116,2.6862915 116,6 L116,56 Z" id="Combined-Shape" fill="url(#linearGradient-4)"></path>
                            <path d="M20,16 L84,16 C85.1045695,16 86,16.8954305 86,18 L86,18 C86,19.1045695 85.1045695,20 84,20 L20,20 C18.8954305,20 18,19.1045695 18,18 L18,18 C18,16.8954305 18.8954305,16 20,16 Z" id="Rectangle-16" fill="#FFFFFF"></path>
                            <path d="M20,28 L53,28 C54.1045695,28 55,28.8954305 55,30 L55,30 C55,31.1045695 54.1045695,32 53,32 L20,32 C18.8954305,32 18,31.1045695 18,30 L18,30 C18,28.8954305 18.8954305,28 20,28 Z" id="Rectangle-16-Copy" fill="#FFFFFF"></path>
                            <path d="M20,41 L84,41 C85.1045695,41 86,41.8954305 86,43 L86,43 C86,44.1045695 85.1045695,45 84,45 L20,45 C18.8954305,45 18,44.1045695 18,43 L18,43 C18,41.8954305 18.8954305,41 20,41 Z" id="Rectangle-16-Copy-2" fill="#FFFFFF"></path>
                        </g>
                        <g id="Group-34" transform="translate(185.000000, 40.000000)">
                            <path d="M6.72916667,42 L3.56809165,45.9929369 C2.88248211,46.85897 1.62462722,47.0052322 0.758594111,46.3196226 C0.279427343,45.9402823 3.55271368e-15,45.3626774 3.55271368e-15,44.751531 L0,36.6052632 L0.0316718485,36.6202656 C0.0107305482,36.4163632 2.56483564e-17,36.2094347 0,36 L0,6 C-4.05812251e-16,2.6862915 2.6862915,6.08718376e-16 6,0 L72,0 C75.3137085,-6.08718376e-16 78,2.6862915 78,6 L78,36 C78,39.3137085 75.3137085,42 72,42 L6.72916667,42 Z" id="Combined-Shape" fill="url(#linearGradient-4)"></path>
                            <path d="M15.5,10 L63.5,10 C64.3284271,10 65,10.6715729 65,11.5 L65,11.5 C65,12.3284271 64.3284271,13 63.5,13 L15.5,13 C14.6715729,13 14,12.3284271 14,11.5 L14,11.5 C14,10.6715729 14.6715729,10 15.5,10 Z" id="Rectangle-16-Copy-5" fill="#FFFFFF"></path>
                            <path d="M38.5,20 L63.5,20 C64.3284271,20 65,20.6715729 65,21.5 L65,21.5 C65,22.3284271 64.3284271,23 63.5,23 L38.5,23 C37.6715729,23 37,22.3284271 37,21.5 L37,21.5 C37,20.6715729 37.6715729,20 38.5,20 Z" id="Rectangle-16-Copy-4" fill="#FFFFFF"></path>
                        </g>
                        <path d="M242.443264,385.000011 C242.462173,385.000004 242.481085,385 242.5,385 C264.315248,385 282,389.924868 282,396 C282,402.075132 264.315248,407 242.5,407 C231.39968,407 221.368792,405.724897 214.193006,403.671967 C198.280201,406.370047 177.602415,408 155,408 C104.742088,408 64,399.941125 64,390 C64,380.058875 104.742088,372 155,372 C196.486848,372 231.489466,377.491442 242.443264,385.000011 Z" id="Combined-Shape" fill="#1C036C" opacity="0.0199999996"></path>
                        <g id="Group-6" transform="translate(151.984102, 225.503267) rotate(1.000000) translate(-151.984102, -225.503267) translate(103.984102, 52.003267)">
                            <path d="M53.0588458,52.3899982 C60.3941184,48.6730342 59.6188759,41.960133 50.7331184,32.2512948 C37.4044822,17.6880374 49.6741666,22.009678 52.3546749,12.0480738 C55.0351832,2.08646959 24.250495,-7.1250684 20.6651921,10.2085434 C9.38817731,22.938155 7.77649027,35.7150213 15.830131,48.5391424 C19.5686725,54.4921655 19.5945481,55.9745767 27.6163442,64.8359267 L53.0588458,52.3899982 Z" id="Path-7" fill="#080D38" fill-rule="nonzero"></path>
                            <g id="Group-19" transform="translate(59.119996, 319.042586)">
                                <mask id="mask-6" fill="white">
                                    <use xlink:href="#talent-manager-path-5"></use>
                                </mask>
                                <use id="Path-22" fill="#FED2F5" fill-rule="nonzero" xlink:href="#talent-manager-path-5"></use>
                                <path d="M19.7733204,4.65966197 C22.7302779,6.22827597 23.8176326,9.64692645 19.7733204,11.0016111 C15.7290083,12.3562958 1.55818968,11.8518121 -1.0870674,5.50986288 L0.229707932,20.4850066 L29.346118,20.4850066 L42.5538212,16.3010316 L39.8288408,11.0016111 L19.7733204,4.65966197 Z" id="Path-28" fill="#0C1642" fill-rule="nonzero" mask="url(#mask-6)"></path>
                                <path d="M2.85588332,8.01260128 C3.8507219,8.14187143 4.75619549,8.24629504 5.57230409,8.32587209 C8.56569015,8.61775095 12.0148968,8.69082761 13.0003267,7.92452253 C12.9388314,8.87459967 12.5403867,9.55278403 11.8049927,9.95907562 C11.2257817,10.279079 9.31322657,10.4911147 6.06732742,10.5951828 C3.73031922,11.3361774 2.38040629,11.5902567 2.01758863,11.3574207 C1.7522245,11.1871249 -1.44467487,6.82071536 -1.02290544,5.70666892 C-0.119156531,6.23447665 0.559027833,6.63292132 1.01164765,6.90200292 C1.42098089,7.14535073 2.03572611,7.51555018 2.85588332,8.01260128 Z" id="Path-77" fill="#000000" opacity="0.0469308036" mask="url(#mask-6)" transform="translate(5.969570, 8.573797) rotate(32.000000) translate(-5.969570, -8.573797) "></path>
                            </g>
                            <g id="Group-22" transform="translate(22.230767, 129.622399)">
                                <mask id="mask-8" fill="white">
                                    <use xlink:href="#talent-manager-path-7"></use>
                                </mask>
                                <use id="Path-92" fill="#FED2F5" fill-rule="nonzero" xlink:href="#talent-manager-path-7"></use>
                                <path d="M52.627221,9.3525829 C38.7711547,16.1164101 14.9339209,19.4983237 -18.8844803,19.4983237 L-14.3567085,5.93339235 L52.627221,9.3525829 Z" id="Path-30" fill="#5B34B4" fill-rule="nonzero" mask="url(#mask-8)"></path>
                                <path d="M32.6425264,16.8813333 C32.6425264,53.0801269 32.6425264,75.5430756 32.6425264,84.2701796 C32.6425264,92.8855905 54.0738663,96.9262465 53.3194537,102.902506 C53.2087227,103.779688 48.9641303,106.441804 40.5507717,108.889159 C37.5459897,109.763218 30.9643865,110.056643 29.9713783,111.811343 C28.9783701,113.566044 27.8829675,118.343552 28.8119287,131.334552 C29.4557892,140.33858 31.7646517,160.500612 35.738516,191.82065 C22.3680389,165.962981 17.3095067,136.806429 20.5629195,104.350992 L14.5257398,84.2701796 L32.6425264,16.8813333 Z" id="Path-31" fill="#000000" fill-rule="nonzero" opacity="0.0469308036" mask="url(#mask-8)"></path>
                            </g>
                            <g id="Group-20" transform="translate(23.003198, 332.428602) rotate(-9.000000) translate(-23.003198, -332.428602) translate(4.503198, 320.928602)">
                                <mask id="mask-10" fill="white">
                                    <use xlink:href="#talent-manager-path-9"></use>
                                </mask>
                                <use id="Path-21" fill="#FED2F5" fill-rule="nonzero" xlink:href="#talent-manager-path-9"></use>
                                <path d="M20.141411,5.66681137 C21.4239612,6.90810748 22.8612607,11.100769 18.3164146,12.1355284 C13.7715686,13.1702878 2.18467494,10.5261328 0.126469115,3.45648783 L-1.7238858,16.3499841 L15.727332,21.1290434 C29.4782989,23.6476152 36.9691908,23.6476152 38.2000077,21.1290434 C39.4308247,18.6104715 33.4112924,13.4563942 20.141411,5.66681137 Z" id="Path-29" fill="#0C1642" fill-rule="nonzero" mask="url(#mask-10)"></path>
                            </g>
                            <g id="Group-23" transform="translate(1.963076, 129.286085)">
                                <mask id="mask-12" fill="white">
                                    <use xlink:href="#talent-manager-path-11"></use>
                                </mask>
                                <use id="Path-17" fill="#FED2F5" fill-rule="nonzero" xlink:href="#talent-manager-path-11"></use>
                                <path d="M72.894912,9.68889628 C59.0388457,16.4527235 35.201612,19.8346371 1.38321076,19.8346371 L5.91098252,6.26970574 L72.894912,9.68889628 Z" id="Path-30" fill-opacity="0.200000018" fill="#252525" fill-rule="nonzero" mask="url(#mask-12)"></path>
                                <path d="M4.96668457,96.9354519 C0.609054506,114.680872 -1.5086771,127.05305 -1.38651026,134.051983 C-1.28956375,139.606045 -3.43942918,145.904974 -2.07221464,152.066694 C-1.83509689,153.135329 -0.475788016,154.611831 2.00571197,156.496199 C2.67692661,149.814915 3.49341543,140.132524 4.45517842,127.449026 C5.22121516,117.346719 6.21086596,110.915867 8.68430658,109.372465 C11.1577472,107.829062 13.0852063,108.410334 20.6999313,110.162883 C24.7191477,111.087917 30.2512114,110.960405 32.1807274,108.962333 C34.1102434,106.964261 33.6144527,100.301334 30.5064318,98.9900347 C28.4344179,98.115835 19.9211688,97.4309741 4.96668457,96.9354519 Z" id="Path-78" fill="#000000" opacity="0.0469308036" mask="url(#mask-12)"></path>
                            </g>
                            <g id="Group-25" transform="translate(0.950768, 48.107282)">
                                <mask id="mask-14" fill="white">
                                    <use xlink:href="#talent-manager-path-13"></use>
                                </mask>
                                <use id="Combined-Shape" fill="url(#linearGradient-4)" fill-rule="nonzero" xlink:href="#talent-manager-path-13"></use>
                                <path d="M46.9704772,5.37254573 C53.3269973,9.44709213 55.2746759,22.7302611 49.5347466,25.3308328 C42.9204181,28.3275657 27.5984362,22.2289995 28.7185886,3.44498373 C36.6488343,2.0136608 42.7327971,2.65618146 46.9704772,5.37254573 Z" id="Path-36" fill="#FFFFFF" fill-rule="nonzero" mask="url(#mask-14)"></path>
                                <path d="" id="Path-101" stroke="#979797" mask="url(#mask-14)"></path>
                            </g>
                            <path d="M32.2540195,83.5421751 L16.0313222,139.081121 C15.6210332,140.485759 16.4271124,141.957048 17.8317504,142.367337 C17.9109516,142.390472 17.9911902,142.409894 18.0722039,142.42554 L55.1976936,149.5957 C56.5580492,149.858429 57.8911327,149.02875 58.2561349,147.6922 L72.9359201,93.9383406 C73.3214287,92.5267003 72.4895846,91.0698233 71.0779444,90.6843147 C71.0608722,90.6796524 71.0437538,90.6751613 71.0265916,90.670842 L35.444014,81.7155956 C34.0625521,81.3679161 32.653432,82.1747734 32.2540195,83.5421751 Z" id="Path-20" fill="#27C193" fill-rule="nonzero"></path>
                            <path d="M32.3401802,78.8520218 L21.9247277,135.832916 C21.6635561,137.261735 22.6014079,138.63447 24.0274088,138.910614 L60.9299441,146.056751 C62.3665886,146.334956 63.7567484,145.395855 64.0349531,143.95921 C64.0421212,143.922194 64.0484984,143.88503 64.0540803,143.847742 L72.7422055,85.8095775 C72.9553619,84.385656 71.9924209,83.0521146 70.5737313,82.8065379 L35.3985232,76.7176707 C33.9661971,76.4697334 32.6015558,77.4220869 32.3401802,78.8520218 Z" id="Path-20" fill="#FFFFFF" fill-rule="nonzero"></path>
                            <path d="M50.3031837,21.7346209 C51.1133464,24.2745146 54.8375486,26.2965511 55.0610989,27.5031835 C55.2101324,28.3076051 54.0420082,29.113018 51.5567263,29.919422 L50.3031837,21.7346209 Z" id="Path-46" fill="#FED2F5" fill-rule="nonzero"></path>
                            <g id="Group-24" transform="translate(27.547690, 13.363134)">
                                <mask id="mask-16" fill="white">
                                    <use xlink:href="#talent-manager-path-15"></use>
                                </mask>
                                <use id="Path-6" fill="#FED2F5" fill-rule="nonzero" xlink:href="#talent-manager-path-15"></use>
                                <path d="M17.2347141,19.8444461 C18.0721733,21.4083514 20.8656506,21.4083514 21.7932927,19.8444461" id="Path-129" stroke="#080D38" stroke-width="1.0598399" stroke-linecap="round" stroke-linejoin="round" fill-rule="nonzero" mask="url(#mask-16)"></path>
                                <path d="M16.5674038,10.9789107 C17.2281063,10.9789107 17.7637115,10.4404515 17.7637115,9.77622856 C17.7637115,9.11200558 17.2281063,8.57354646 16.5674038,8.57354646 C15.9067014,8.57354646 15.3710962,9.11200558 15.3710962,9.77622856 C15.3710962,10.4404515 15.9067014,10.9789107 16.5674038,10.9789107 Z" id="Oval-2" fill="#080D38" fill-rule="nonzero" mask="url(#mask-16)"></path>
                                <path d="M17.1137597,27.9337515 C14.5551068,28.3613992 11.9964538,27.9534439 9.43780083,26.7098856 C11.0686516,30.5096727 13.6273045,32.4095663 17.1137597,32.4095663 L17.1137597,27.9337515 Z" id="Path-35" fill="#000000" fill-rule="nonzero" opacity="0.0469308036" mask="url(#mask-16)"></path>
                                <path d="M22.0160851,41.7049529 C23.3696831,45.3772205 22.6824996,52.8650446 18.7577022,53.6469551 C14.8329049,54.4288656 3.21519687,49.7790453 1.73084721,37.989748 C1.43988502,51.8147389 7.1358645,58.2002969 18.8187857,57.146422 C26.6934817,56.4360736 26.922831,46.106662 22.0160851,41.7049529 Z" id="Path-37" fill="#000000" fill-rule="nonzero" opacity="0.0469308036" mask="url(#mask-16)"></path>
                            </g>
                            <path d="M69.1965333,124.103738 L79.0816468,123.354088 C78.3120745,129.668816 77.386908,133.66418 76.3061471,135.340179 C75.2253862,137.016179 72.429438,137.562389 67.9183024,136.978809 L69.1965333,124.103738 Z" id="Path-34" fill="#FED2F5" fill-rule="nonzero"></path>
                            <g id="Group-26" transform="translate(0.963076, 53.452536)">
                                <mask id="mask-19" fill="white">
                                    <use xlink:href="#talent-manager-path-18"></use>
                                </mask>
                                <use id="Path-19" fill="url(#linearGradient-17)" fill-rule="nonzero" xlink:href="#talent-manager-path-18"></use>
                                <path d="M65.0096248,67.8968394 C67.1282544,73.0472938 66.7242179,78.7365521 63.7975155,84.9646144 L70.4420825,84.848633 C73.6251692,76.2119188 74.3592225,70.5169 72.6442425,67.7635767 C70.9292625,65.0102534 68.38439,65.0546743 65.0096248,67.8968394 Z" id="Path-41" fill="#F4F4F4" fill-rule="nonzero" mask="url(#mask-19)"></path>
                            </g>
                            <path d="M45.0260253,89.1402404 C39.9238542,82.6014213 36.7959845,79.3320117 35.6424163,79.3320117 C34.4888481,79.3320117 33.912064,79.741102 33.912064,80.5592826 C31.0650244,79.7388076 29.3158298,79.7388076 28.6644802,80.5592826 C27.6874558,81.7899949 28.0756564,88.5227574 28.6644802,91.2656296 C29.0570294,93.0942111 32.8653444,95.2808051 40.0894252,97.8254117 L45.0260253,89.1402404 Z" id="Path-33" fill="#FED2F5" fill-rule="nonzero"></path>
                            <g id="Group-27" transform="translate(37.852305, 51.779909)">
                                <mask id="mask-21" fill="white">
                                    <use xlink:href="#talent-manager-path-20"></use>
                                </mask>
                                <use id="Path-18" fill="url(#linearGradient-17)" fill-rule="nonzero" xlink:href="#talent-manager-path-20"></use>
                                <path d="M-17.5166566,83.1735494 C-15.8236192,133.814759 -15.8236192,164.693425 -17.5166566,175.809549 C-20.0562126,192.483734 -30.4327466,220.525516 -30.4327466,267.517885" id="Path-32" stroke="#FFFFFF" stroke-width="0.927359915" fill-rule="nonzero" mask="url(#mask-21)"></path>
                                <path d="M9.81944495,36.2175274 C4.84415779,39.4378291 2.4828336,44.0520153 2.73547238,50.0600861 L-1.15259964,46.4025703 C-0.93015843,44.1219391 -0.625963209,42.4497088 -0.240013973,41.3858794 C0.145935263,40.32205 1.05796689,38.6418759 2.4960809,36.3453572 L8.63644844,34.2298739 L9.81944495,36.2175274 Z" id="Path-40" fill="#F4F4F4" fill-rule="nonzero" mask="url(#mask-21)"></path>
                            </g>
                            <path d="M70.5876701,101.533826 L72.5123672,85.6442244 C72.6838557,84.2284781 71.7040263,82.9309643 70.2953969,82.7084584 L63.7527696,81.6749907 L66.0257531,98.7008678 L70.5876701,101.533826 Z" id="Path-20" fill="#FFFFFF" fill-rule="nonzero"></path>
                        </g>
                        <ellipse id="Oval-14" fill="#1C036C" opacity="0.0199999996" cx="413" cy="390" rx="91" ry="18"></ellipse>
                        <g id="Group-66" transform="translate(418.500000, 213.000000) scale(-1, 1) translate(-418.500000, -213.000000) translate(342.000000, 27.000000)">
                            <g id="Group-80" transform="translate(20.956157, 346.713156)">
                                <mask id="mask-23" fill="white">
                                    <use xlink:href="#talent-manager-path-22"></use>
                                </mask>
                                <use id="Path-105" fill="#0C1642" fill-rule="nonzero" xlink:href="#talent-manager-path-22"></use>
                                <path d="M15.283856,11.7750468 C16.7009936,9.40778957 19.0247632,8.22416095 22.2551648,8.22416095" id="Path-111" stroke="#FFFFFF" stroke-width="1.64900009" stroke-linecap="round" stroke-linejoin="round" fill-rule="nonzero" mask="url(#mask-23)"></path>
                                <path d="M21.8860481,15.0955293 C23.3031858,12.728272 25.6269554,11.5446434 28.8573569,11.5446434" id="Path-111" stroke="#FFFFFF" stroke-width="1.64900009" stroke-linecap="round" stroke-linejoin="round" fill-rule="nonzero" mask="url(#mask-23)"></path>
                            </g>
                            <g id="Group-81" transform="translate(68.822050, 342.423924)">
                                <mask id="mask-25" fill="white">
                                    <use xlink:href="#talent-manager-path-24"></use>
                                </mask>
                                <use id="Path-105" fill="#0C1642" fill-rule="nonzero" xlink:href="#talent-manager-path-24"></use>
                                <path d="M19.4277025,11.1106607 C20.063212,8.91713959 21.5445537,7.57855783 23.8717276,7.09491541" id="Path-112" stroke="#FFFFFF" stroke-width="1.64900009" stroke-linecap="round" stroke-linejoin="round" fill-rule="nonzero" mask="url(#mask-25)"></path>
                                <path d="M26.4737171,14.3317445 C27.1092266,12.1382234 28.5905683,10.7996416 30.9177423,10.3159992" id="Path-112" stroke="#FFFFFF" stroke-width="1.64900009" stroke-linecap="round" stroke-linejoin="round" fill-rule="nonzero" mask="url(#mask-25)"></path>
                            </g>
                            <g id="Group-67" transform="translate(17.655061, 149.835942)">
                                <mask id="mask-27" fill="white">
                                    <use xlink:href="#talent-manager-path-26"></use>
                                </mask>
                                <use id="Combined-Shape" fill="url(#linearGradient-4)" fill-rule="nonzero" xlink:href="#talent-manager-path-26"></use>
                                <path d="M1.88375469,18.8000662 C24.2904501,32.3048346 47.9619862,34.8319843 72.898363,26.3815153 L72.898363,8.9933492 L1.88375469,18.8000662 Z" id="Path-110" fill-opacity="0.200000018" fill="#000000" fill-rule="nonzero" mask="url(#mask-27)"></path>
                                <path d="M42.3668997,109.692457 L49.6660429,196.964421 C58.4052662,203.139271 65.1052289,203.139271 69.7659309,196.964421 C49.1149402,178.578654 55.9546237,127.642161 55.9546237,109.692457 C55.9546237,97.7259878 51.4253824,77.3845959 42.3668997,48.6682815 L38.4263753,83.4744514 L42.3668997,109.692457 Z" id="Path-109" fill-opacity="0.200000018" fill="#252525" fill-rule="nonzero" mask="url(#mask-27)"></path>
                                <path d="M0.902361197,191.297161 C6.94100599,197.081628 14.2837272,197.37083 22.9305247,192.164765" id="Path-89" stroke="#0C1642" stroke-width="1.64900009" stroke-linecap="round" stroke-linejoin="round" fill-rule="nonzero" mask="url(#mask-27)"></path>
                                <path d="M49.4185713,188.248747 C56.8952774,192.226852 64.0282087,192.226852 70.8173653,188.248747" id="Path-90" stroke="#0C1642" stroke-width="1.64900009" stroke-linecap="round" stroke-linejoin="round" fill-rule="nonzero" mask="url(#mask-27)"></path>
                            </g>
                            <g id="Group-8" transform="translate(77.812402, 90.632676) scale(-1, 1) rotate(4.000000) translate(-77.812402, -90.632676) translate(9.312402, 5.132676)">
                                <g id="Group-82" transform="translate(0.000000, 39.568531)">
                                    <mask id="mask-29" fill="white">
                                        <use xlink:href="#talent-manager-path-28"></use>
                                    </mask>
                                    <use id="Combined-Shape" fill="#FED2F5" fill-rule="nonzero" xlink:href="#talent-manager-path-28"></use>
                                    <path d="M7.83170087,5.83204748 C9.53101324,6.75917688 12.6791912,10.0836797 11.6120829,13.411198 C11.1752141,14.7734673 7.79851685,11.6299414 6.33150058,10.5301603 L7.83170087,5.83204748 Z" id="Path-114" fill="#000000" fill-rule="nonzero" opacity="0.0469308036" mask="url(#mask-29)"></path>
                                </g>
                                <g id="Group-79" transform="translate(10.872985, 51.881710)">
                                    <mask id="mask-31" fill="white">
                                        <use xlink:href="#talent-manager-path-30"></use>
                                    </mask>
                                    <use id="Path-54" fill="url(#linearGradient-17)" fill-rule="nonzero" transform="translate(31.397138, 35.825906) scale(-1, 1) translate(-31.397138, -35.825906) " xlink:href="#talent-manager-path-30"></use>
                                    <path d="M2.76038898,14.0897424 C5.20488572,11.4189265 7.18804013,9.66186023 8.70985221,8.81854371 C10.2316643,7.97522719 12.9273512,7.13950009 16.796913,6.3113624 L15.592829,2.99657338 L5.75037399,1.25636378 L-0.963496151,9.49430955 L1.79305415,14.157319 L2.76038898,14.0897424 Z" id="Path-73" fill="#F4F4F4" mask="url(#mask-31)"></path>
                                    <path d="M49.9698617,19.9865437 C48.2546494,27.7653866 48.1053106,33.4659433 48.0235167,35.1592738 C46.330734,70.2039482 36.9886007,68.5634504 31.0473725,71.9330489 C36.2558759,73.4036718 39.7822283,73.6583062 41.6264297,72.696952 C46.4450668,70.1850695 53.4466324,65.1844838 62.6311264,57.6951949 C54.5061949,31.1233695 50.2857733,18.5538192 49.9698617,19.9865437 Z" id="Path-102" fill-opacity="0.200000018" fill="#252525" mask="url(#mask-31)"></path>
                                </g>
                                <g id="Group-15" transform="translate(58.846167, 45.473219)">
                                    <mask id="mask-33" fill="white">
                                        <use xlink:href="#talent-manager-path-32"></use>
                                    </mask>
                                    <use id="Path-122" fill="url(#linearGradient-17)" fill-rule="nonzero" xlink:href="#talent-manager-path-32"></use>
                                    <g id="Group-7" mask="url(#mask-33)">
                                        <g transform="translate(15.240104, -4.111588)">
                                            <mask id="mask-35" fill="white">
                                                <use xlink:href="#talent-manager-path-34"></use>
                                            </mask>
                                            <use id="Path-2" stroke="none" fill="#F4F4F4" fill-rule="nonzero" xlink:href="#talent-manager-path-34"></use>
                                            <polygon id="Path-15" stroke="none" fill="#000000" fill-rule="evenodd" opacity="0.0469308036" mask="url(#mask-35)" points="2.34605628 26.049473 7.89194005 21.03294 15.9563866 26.069791 23.0964505 10.0331472 1.12848873 8.65444985"></polygon>
                                            <polygon id="Path-7" stroke="none" fill="#FFFFFF" fill-rule="evenodd" mask="url(#mask-35)" points="8.1264129 18.3622989 15.4050766 25.1371891 22.0276517 8.65113855"></polygon>
                                            <path d="M2.99589969,6.41419161 C-2.27318718,22.7588251 1.07770639,67.018196 13.0485804,139.192304 L2.99589969,139.192304 C-2.41650313,90.5052862 -4.68898762,56.932129 -3.82155376,38.4728331 C-2.95411991,20.0135371 -0.681635423,9.32732326 2.99589969,6.41419161 Z" id="Path-10" stroke="none" fill="#000000" fill-rule="nonzero" opacity="0.0469308036" mask="url(#mask-35)"></path>
                                            <polygon id="Path-12" stroke="none" fill="#FFFFFF" fill-rule="evenodd" mask="url(#mask-35)" points="7.19289939 18.9130705 2.76208105 25.0492945 2.54566967 8.06988988"></polygon>
                                            <polygon id="Path-20" stroke="none" fill="url(#linearGradient-4)" fill-rule="evenodd" mask="url(#mask-35)" points="8.19405555 19.328689 3.69559457 24.4985228 7.48712234 30.0603458 9.78343228 111.473638 16.4769646 116.832732 21.256165 108.729939 10.3891269 29.8576161 13.3689429 23.822757"></polygon>
                                        </g>
                                    </g>
                                    <path d="M48.0015292,15.6986614 C45.0002629,27.7160739 48.2039292,44.7296325 57.6125283,66.739337 C67.6960125,90.3278125 47.6578478,113.537606 48.9088375,131.532655 L72.9432106,133.010869 L81.2629441,75.7685973 L48.0015292,15.6986614 Z" id="Path-88" fill-opacity="0.200000018" fill="#252525" fill-rule="nonzero" mask="url(#mask-33)"></path>
                                </g>
                                <g id="Group-5" transform="translate(68.864994, -0.000000)">
                                    <mask id="mask-37" fill="white">
                                        <use xlink:href="#talent-manager-path-36"></use>
                                    </mask>
                                    <use id="Path-127" fill="#30007D" fill-rule="nonzero" xlink:href="#talent-manager-path-36"></use>
                                    <path d="M6.08245928,-3.96771797 C3.23166444,-1.01046571 -0.0136762786,11.2797366 15.4562763,15.0039239 C22.4700199,16.6923902 10.9246239,16.3546776 12.5123703,24.6206025 C10.5336129,26.0614401 10.1910691,24.7198578 11.4847389,20.5958557 C5.22728764,20.6594742 1.10208662,19.0550111 -0.890864172,15.7824665 C-3.88029035,10.8736495 -5.29032141,6.37208051 -3.09059279,1.87790384 C-1.62410704,-1.11821395 1.43357698,-3.06675455 6.08245928,-3.96771797 Z" id="Path-3" fill="#000000" fill-rule="nonzero" opacity="0.200000018" mask="url(#mask-37)"></path>
                                    <path d="M13.8068778,28.3477747 C12.025892,25.7543263 11.1772449,23.9608398 11.2609366,22.9673151 C11.736136,17.3261065 15.5588195,15.2274178 17.1089359,16.2465311 C20.0483722,18.1790432 26.8515245,37.5030582 33.8038608,32.5603289 C31.1313891,36.4118856 27.7310538,38.7535118 23.6028548,39.5852075 C20.2429969,37.5928924 17.6857943,35.4903031 15.9312471,33.2774395 C14.1766999,31.0645759 13.4685768,29.4213543 13.8068778,28.3477747 Z" id="Path-5" fill="#000000" fill-rule="nonzero" opacity="0.200000018" mask="url(#mask-37)"></path>
                                </g>
                                <path d="M69.4923447,21.1821361 C68.1950604,24.4491697 64.3378586,26.4927567 64.0133023,27.7577041 C63.7969314,28.6010023 64.6803933,29.4370123 66.6636879,30.2657341 L69.4923447,21.1821361 Z" id="Path-11" fill="#FED2F5" fill-rule="nonzero"></path>
                                <g id="Group-6" transform="translate(65.143008, 17.930605)">
                                    <mask id="mask-39" fill="white">
                                        <use xlink:href="#talent-manager-path-38"></use>
                                    </mask>
                                    <use id="Path-120" fill="#FED2F5" fill-rule="nonzero" xlink:href="#talent-manager-path-38"></use>
                                    <path d="M8.24513427,8.3031311 C8.98350801,8.3031311 9.5820782,7.70104569 9.5820782,6.9583357 C9.5820782,6.2156257 8.98350801,5.61354029 8.24513427,5.61354029 C7.50676053,5.61354029 6.90819035,6.2156257 6.90819035,6.9583357 C6.90819035,7.70104569 7.50676053,8.3031311 8.24513427,8.3031311 Z" id="Oval-2" fill="#4A0300" fill-rule="nonzero" mask="url(#mask-39)"></path>
                                    <path d="M9.57818359,25.1837395 C11.8796809,24.9182588 13.8849369,24.8125413 17.0274182,21.7439938 C17.416477,26.8377899 15.5746499,29.9655563 11.5019369,31.1272929 L9.57818359,25.1837395 Z" id="Path-8" fill="#000000" fill-rule="nonzero" opacity="0.0469308036" mask="url(#mask-39)"></path>
                                    <path d="M11.270011,34.418225 C12.043947,36.1397826 13.7113143,39.7412831 18.2346462,39.3460718 C22.757978,38.9508606 30.0992481,35.5159021 30.5101473,30.4124598 C30.4058905,36.7552873 26.3140568,40.8540534 18.2346462,42.7087582 C12.5428684,44.0153594 10.2213234,41.2518483 11.270011,34.418225 Z" id="Path-9" fill="#000000" fill-rule="nonzero" opacity="0.0469308036" mask="url(#mask-39)"></path>
                                </g>
                                <path d="M68.778209,34.9980846 C69.498299,36.3435379 71.1072549,36.3435379 71.9048887,34.9980846" id="Path-129" stroke="#F3BFBD" stroke-width="1.18728004" stroke-linecap="round" stroke-linejoin="round" fill-rule="nonzero"></path>
                            </g>
                            <g id="Group-68" transform="translate(0.000000, 113.843158)">
                                <g id="Group-78">
                                    <g id="task" transform="translate(41.000000, 41.500000) scale(-1, 1) rotate(-44.000000) translate(-41.000000, -41.500000) translate(16.000000, 9.000000)">
                                        <rect id="Rectangle-5" fill="#FFFFFF" x="0.581395349" y="3.25" width="48.8372093" height="61.75" rx="4.07400021"></rect>
                                        <g id="Group-20" transform="translate(6.887299, 14.625000)" fill-rule="nonzero">
                                            <ellipse id="Oval-10" fill="url(#linearGradient-4)" cx="4.46552132" cy="4.56838384" rx="4.46552132" ry="4.56838384"></ellipse>
                                            <path d="M14.0344956,2.61050505 L33.8103757,2.61050505" id="Path-14" stroke="#999999" stroke-width="1.30367999" stroke-linecap="round" stroke-linejoin="round"></path>
                                            <path d="M14.0344956,7.17888889 L30.6207176,7.17888889" id="Path-14" stroke="#BACDEF" stroke-width="1.30367999" stroke-linecap="round" stroke-linejoin="round"></path>
                                            <polyline id="Path-24" stroke="#FFFFFF" stroke-width="0.977759993" points="2.55298479 4.27544592 4.01890386 5.77513219 6.37805784 3.36163549"></polyline>
                                        </g>
                                        <g id="Group-20-Copy" transform="translate(6.887299, 27.625000)" fill-rule="nonzero">
                                            <ellipse id="Oval-10" fill="url(#linearGradient-4)" cx="4.46552132" cy="4.56838384" rx="4.46552132" ry="4.56838384"></ellipse>
                                            <path d="M14.0344956,2.61050505 L33.8103757,2.61050505" id="Path-14" stroke="#999999" stroke-width="1.30367999" stroke-linecap="round" stroke-linejoin="round"></path>
                                            <path d="M14.0344956,7.17888889 L30.6207176,7.17888889" id="Path-14" stroke="#BACDEF" stroke-width="1.30367999" stroke-linecap="round" stroke-linejoin="round"></path>
                                            <polyline id="Path-24" stroke="#FFFFFF" stroke-width="0.977759993" points="2.55298479 4.27544592 4.01890386 5.77513219 6.37805784 3.36163549"></polyline>
                                        </g>
                                        <g id="Group-20-Copy-2" transform="translate(6.887299, 39.812500)" fill-rule="nonzero">
                                            <ellipse id="Oval-10" fill="url(#linearGradient-4)" cx="4.46552132" cy="4.56838384" rx="4.46552132" ry="4.56838384"></ellipse>
                                            <path d="M14.0344956,2.61050505 L33.8103757,2.61050505" id="Path-14" stroke="#999999" stroke-width="1.30367999" stroke-linecap="round" stroke-linejoin="round"></path>
                                            <path d="M14.0344956,7.17888889 L30.6207176,7.17888889" id="Path-14" stroke="#BACDEF" stroke-width="1.30367999" stroke-linecap="round" stroke-linejoin="round"></path>
                                            <polyline id="Path-24" stroke="#FFFFFF" stroke-width="0.977759993" points="2.55298479 4.27544592 4.01890386 5.77513219 6.37805784 3.36163549"></polyline>
                                        </g>
                                        <rect id="Rectangle-13" fill="#0C1642" x="11.7173524" y="0" width="26.5652952" height="8.125" rx="4.0625"></rect>
                                    </g>
                                    <mask id="mask-41" fill="white">
                                        <use xlink:href="#talent-manager-path-40"></use>
                                    </mask>
                                    <use id="Path-87" fill="#FED2F5" fill-rule="nonzero" transform="translate(33.206222, 73.723245) scale(-1, 1) rotate(-89.000000) translate(-33.206222, -73.723245) " xlink:href="#talent-manager-path-40"></use>
                                    <mask id="mask-43" fill="white">
                                        <use xlink:href="#talent-manager-path-42"></use>
                                    </mask>
                                    <use id="Path-68" fill="url(#linearGradient-17)" fill-rule="nonzero" xlink:href="#talent-manager-path-42"></use>
                                    <path d="M35.1818182,61.9849674 C32.3305498,64.4337043 30.0679235,66.0482877 28.3939394,66.8287174 C26.7199553,67.6091471 24.1340967,68.2549804 20.6363636,68.7662174 L22.5757576,73.1255924 C26.1187362,72.5022186 28.7045948,71.8563853 30.3333333,71.1880924 C31.9620718,70.5197995 33.9014658,69.308862 36.1515152,67.5552799 L35.1818182,61.9849674 Z" id="Path-69" fill="#F4F4F4" mask="url(#mask-43)"></path>
                                </g>
                            </g>
                        </g>
                        <g id="Group-54" transform="translate(199.000000, 251.000000)">
                            <g id="Group-51-Copy" transform="translate(67.221282, 91.585609) rotate(-104.000000) translate(-67.221282, -91.585609) translate(47.221282, 68.085609)">
                                <path d="M28.4864692,44.9417151 C26.0159242,42.9561312 24.3121896,39.9066269 23.3752652,35.7932022 C21.9698787,29.6230651 6.9768076,22.6381599 4.17515365,19.5168352 C2.60987698,17.7729593 -0.82760376,13.6254738 0.722599038,6.99208031 C1.94263331,1.77149408 6.79558833,0.0591439012 11.9713085,0.489691029 C17.1470286,0.920238156 20.1214467,3.10543809 22.8169759,10.1430338 C25.512505,17.1806296 26.5300919,18.2694203 30.4836166,19.5168352 C34.4371414,20.76425 34.4371414,26.0580874 34.4371414,29.0312158 C34.4371414,32.0043441 37.6045166,36.2320623 38.399889,37.472138 C39.1952613,38.7122136 39.473847,41.8314157 38.399889,43.9566653 C37.325931,46.0819148 35.434787,46.4263666 33.8750249,46.4263666 C32.8351835,46.4263666 31.0389983,45.9314828 28.4864692,44.9417151 Z" id="Path-22" fill="#2CAF78"></path>
                                <path d="M5.58823529,0.700483092 C17.8751941,11.8414797 26.6562889,24.1034771 31.9315198,37.4864751" id="Path-25" stroke-opacity="0.2" stroke="#000000" stroke-width="0.550000012"></path>
                                <path d="M18.6398739,15.3239682 C18.9994201,21.2772262 18.142261,25.2833495 16.0683967,27.3423383" id="Path-46" stroke-opacity="0.2" stroke="#000000" stroke-width="0.550000012" transform="translate(17.393979, 21.333153) rotate(7.000000) translate(-17.393979, -21.333153) "></path>
                                <path d="M22.3355714,20.8090839 C22.6947533,25.9599911 22.3364152,29.079583 21.260557,30.1678596" id="Path-47" stroke-opacity="0.2" stroke="#000000" stroke-width="0.550000012" transform="translate(21.865490, 25.488472) rotate(7.000000) translate(-21.865490, -25.488472) "></path>
                            </g>
                            <g id="Group-52" transform="translate(31.433824, 0.000000)">
                                <path d="M4.24844146,114.541069 C-0.75577509,106.194257 -0.75577509,99.0742684 4.24844146,93.1811019 C11.7547663,84.3413522 9.42913432,82.9239822 7.61434277,76.2506754 C5.79955123,69.5773686 8.31038005,60.1314567 12.7606124,56.3750464 C17.2108448,52.6186361 17.6239812,49.8657439 16.6105041,41.6117531 C15.9348526,36.1090926 19.0391376,30.8556872 25.9233589,25.8515371 C28.4812327,21.8201215 29.7601697,17.078295 29.7601697,11.6260574 C29.7601697,3.44770106 37.6302302,-0.378482674 41.6038187,0.654384346 C45.5774073,1.68725137 53.2775319,15.0798129 48.0951832,25.8515371 C42.9128345,36.6232613 39.8342665,38.3865008 38.8065888,39.6572599 C37.7789112,40.928019 35.3410827,44.8255713 37.0738357,52.081907 C38.8065888,59.3382428 31.6669908,62.530025 27.84142,67.2514457 C24.0158492,71.9728664 24.3571029,78.0284288 27.0586363,85.6047654 C29.7601697,93.1811019 26.7501244,110.144358 22.6269125,113.374691 C19.8781046,115.528247 13.7519475,115.917039 4.24844146,114.541069 Z" id="Path-26" fill="#6CE1B0"></path>
                                <path d="M12.927131,114.127871 C13.6793369,74.5251839 21.9026169,42.2365905 37.5969711,17.2620902" id="Path-27" stroke="#07946A" stroke-width="0.550000012"></path>
                                <path d="M15.6152855,80.6335941 C19.8439512,77.4517119 22.5083441,75.6505774 23.6084641,75.2301906" id="Path-42" stroke="#07946A" stroke-width="0.550000012"></path>
                                <path d="M14.2182267,87.6384251 C19.5681818,83.6491185 22.7932193,81.4442719 23.8933393,81.0238851" id="Path-42-Copy" stroke="#07946A" stroke-width="0.550000012"></path>
                                <path d="M20.4607296,56.1696368 C18.4545052,51.5199578 17.3077751,49.1951183 17.0205394,49.1951183" id="Path-43" stroke="#07946A" stroke-width="0.550000012"></path>
                                <path d="M21.6922142,52.2058814 C19.4742142,46.1384198 17.8378778,42.8207552 16.7832047,42.2528877" id="Path-45" stroke="#07946A" stroke-width="0.550000012"></path>
                            </g>
                            <g id="Group-51" transform="translate(0.000000, 68.647343)">
                                <path d="M28.4864692,44.9417151 C26.0159242,42.9561312 24.3121896,39.9066269 23.3752652,35.7932022 C21.9698787,29.6230651 6.9768076,22.6381599 4.17515365,19.5168352 C2.60987698,17.7729593 -0.82760376,13.6254738 0.722599038,6.99208031 C1.94263331,1.77149408 6.79558833,0.0591439012 11.9713085,0.489691029 C17.1470286,0.920238156 20.1214467,3.10543809 22.8169759,10.1430338 C25.512505,17.1806296 26.5300919,18.2694203 30.4836166,19.5168352 C34.4371414,20.76425 34.4371414,26.0580874 34.4371414,29.0312158 C34.4371414,32.0043441 37.6045166,36.2320623 38.399889,37.472138 C39.1952613,38.7122136 39.473847,41.8314157 38.399889,43.9566653 C37.325931,46.0819148 35.434787,46.4263666 33.8750249,46.4263666 C32.8351835,46.4263666 31.0389983,45.9314828 28.4864692,44.9417151 Z" id="Path-22" fill="#02BC85"></path>
                                <path d="M10.6720356,11.0198739 C23.3812259,21.160941 31.329512,33.3597957 34.5168939,47.616438" id="Path-25" stroke="#07946A" stroke-width="0.550000012"></path>
                                <path d="M19.3567796,18.9145358 C20.6238437,14.3859311 21.1518614,11.6267733 20.9408325,10.6370622" id="Path-26-Copy" stroke="#07946A" stroke-width="0.550000012"></path>
                                <path d="M17.2611914,16.8130865 C18.575471,11.5122161 19.1270964,8.36692534 18.9160676,7.37721432" id="Path-26-Copy-2" stroke="#07946A" stroke-width="0.550000012"></path>
                                <path d="M33.2471342,39.907853 C34.4319728,35.9037038 34.9188778,33.4067736 34.7078489,32.4170626" id="Path-26-Copy-4" stroke="#07946A" stroke-width="0.550000012" transform="translate(34.001419, 36.162458) rotate(12.000000) translate(-34.001419, -36.162458) "></path>
                                <path d="M31.930309,36.4266131 C33.1973731,31.8980084 33.7253908,29.1388506 33.514362,28.1491395" id="Path-26-Copy-5" stroke="#07946A" stroke-width="0.550000012" transform="translate(32.744932, 32.287876) rotate(12.000000) translate(-32.744932, -32.287876) "></path>
                            </g>
                            <g id="Group-55" transform="translate(21.000000, 111.000000)">
                                <mask id="mask-45" fill="white">
                                    <use xlink:href="#talent-manager-path-44"></use>
                                </mask>
                                <use id="Rectangle-20" fill="#6B18DC" xlink:href="#talent-manager-path-44"></use>
                                <polygon id="Path-48" fill="#000000" opacity="0.200000018" mask="url(#mask-45)" points="0.5 10.1197378 45.0631196 16.8381643 46.6176471 9"></polygon>
                            </g>
                            <path d="M22.4963235,108.695652 L67.6139706,108.695652 C68.7185401,108.695652 69.6139706,109.591083 69.6139706,110.695652 L69.6139706,119 C69.6139706,120.104569 68.7185401,121 67.6139706,121 L22.4963235,121 C21.391754,121 20.4963235,120.104569 20.4963235,119 L20.4963235,110.695652 C20.4963235,109.591083 21.391754,108.695652 22.4963235,108.695652 Z" id="Rectangle-20-Copy" fill="#6F17E0" transform="translate(45.055147, 114.847826) scale(1, -1) translate(-45.055147, -114.847826) "></path>
                        </g>
                    </g>
                </g>
            </g>
        </g>
    </g>
</svg>
