<?xml version="1.0" encoding="UTF-8"?>
<svg width="1440px" height="738px" viewBox="0 0 1440 738" version="1.1" xmlns="http://www.w3.org/2000/svg" xmlns:xlink="http://www.w3.org/1999/xlink">
    <!-- Generator: Sketch 52.2 (67145) - http://www.bohemiancoding.com/sketch -->
    <title>img_bg_hero</title>
    <desc>Created with Sketch.</desc>
    <defs>
        <linearGradient x1="30.3907588%" y1="-22.3486797%" x2="47.3752514%" y2="110.77454%" id="linearGradient-1">
            <stop stop-color="#B364E2" offset="0%"></stop>
            <stop stop-color="#4D35E2" offset="100%"></stop>
        </linearGradient>
        <linearGradient x1="44.3687576%" y1="102.298454%" x2="0%" y2="5.34906039%" id="linearGradient-2">
            <stop stop-color="#7F14F4" offset="0%"></stop>
            <stop stop-color="#4D35E2" offset="100%"></stop>
        </linearGradient>
        <path d="M3.53807694,694.219006 C934.811557,790.084671 1418.21338,636.584731 1453.74355,233.719186 C1453.74355,131.389327 1453.74355,53.9919495 1453.74355,1.52705465 L3.61291203,0.392956694 L3.53807694,694.219006 Z" id="path-3"></path>
        <linearGradient x1="23.835374%" y1="-14.2304633%" x2="14.9640864%" y2="125.004893%" id="linearGradient-5">
            <stop stop-color="#FFFFFF" stop-opacity="0" offset="0%"></stop>
            <stop stop-color="#FFFFFF" stop-opacity="0.15" offset="100%"></stop>
        </linearGradient>
    </defs>
    <g id="Page-1" stroke="none" stroke-width="1" fill="none" fill-rule="evenodd">
        <g id="01---Landing-Page" transform="translate(3.000000, 0.000000)">
            <g id="BG" transform="translate(-10.000000, -1.000000)">
                <path d="M0.873670167,694.219006 C764.472764,792.071788 1244.47276,728.661412 1440.87367,503.987878 L1437.96101,1.44512059 C1118.62615,1.21130639 639.62387,0.860585092 0.95415784,0.392956694 L0.873670167,694.219006 Z" id="Path-2" fill="url(#linearGradient-1)" opacity="0.100000001" transform="translate(720.873670, 369.571995) scale(-1, 1) translate(-720.873670, -369.571995) "></path>
                <mask id="mask-4" fill="white">
                    <use xlink:href="#path-3"></use>
                </mask>
                <use id="Path-2-Copy" fill="url(#linearGradient-2)" transform="translate(728.640815, 361.126390) scale(-1, 1) translate(-728.640815, -361.126390) " xlink:href="#path-3"></use>
                <path d="M127.231892,2 C155.949615,296.064338 270.623779,458.448396 471.254384,489.152175 C772.20029,535.207843 1142.65299,382.812064 1379.33741,708.099312 L1451.5,700.217333 L1451.5,2 L127.231892,2 Z" id="Path-296" fill="url(#linearGradient-5)" fill-rule="nonzero" mask="url(#mask-4)"></path>
                <path d="M1320,341 C1349.27109,341 1373,317.047234 1373,287.5 C1373,257.952766 1349.27109,234 1320,234 C1290.72891,234 1267,257.952766 1267,287.5" id="Oval-6-Copy-5" stroke="#EEEBFD" stroke-width="30.0000012" opacity="0.100000001" stroke-linecap="round" fill-rule="nonzero" mask="url(#mask-4)" transform="translate(1320.000000, 287.500000) scale(1, -1) translate(-1320.000000, -287.500000) "></path>
                <path d="M168,574 C197.271092,574 221,550.047234 221,520.5 C221,490.952766 197.271092,467 168,467 C138.728908,467 115,490.952766 115,520.5" id="Oval-6-Copy-6" stroke="#EEEBFD" stroke-width="30.0000012" opacity="0.100000001" stroke-linecap="round" fill-rule="nonzero" mask="url(#mask-4)"></path>
                <path d="M410,243 C424.359403,243 436,231.359403 436,217 C436,202.640597 424.359403,191 410,191 C395.640597,191 384,202.640597 384,217" id="Oval-6-Copy-7" stroke="#EEEBFD" stroke-width="14.7000001" opacity="0.100000001" stroke-linecap="round" fill-rule="nonzero" mask="url(#mask-4)" transform="translate(410.000000, 217.000000) scale(-1, -1) translate(-410.000000, -217.000000) "></path>
            </g>
        </g>
    </g>
</svg>