<?xml version="1.0" encoding="UTF-8"?>
<svg width="160px" height="160px" viewBox="0 0 160 160" version="1.1" xmlns="http://www.w3.org/2000/svg" xmlns:xlink="http://www.w3.org/1999/xlink">
    <!-- Generator: Sketch 52.2 (67145) - http://www.bohemiancoding.com/sketch -->
    <title>img_self_employed</title>
    <desc>Created with Sketch.</desc>
    <g id="Page-1" stroke="none" stroke-width="1" fill="none" fill-rule="evenodd">
        <g id="02---Mission" transform="translate(-248.000000, -616.000000)">
            <g id="section---" transform="translate(172.000000, 476.000000)">
                <g id="Group-3" transform="translate(33.000000, 140.000000)">
                    <g id="Group-4">
                        <g id="Illustration/img_self_employed" transform="translate(43.000000, 0.000000)">
                            <circle id="Oval-4" fill="#E6DFFC" cx="80" cy="80" r="80"></circle>
                            <path d="M67.3020301,72 C70.9450199,74.5068453 75.5251937,76 80.5,76 C85.4748063,76 90.0549801,74.5068453 93.6979699,72 L100,72 C102.761424,72 105,74.2385763 105,77 L105,81 C105,81.5522847 104.552285,82 104,82 L56,82 C55.4477153,82 55,81.5522847 55,81 L55,77 C55,74.2385763 57.2385763,72 60,72 L67.3020301,72 Z" id="Combined-Shape" fill="#6327EA" fill-rule="nonzero"></path>
                            <circle id="Oval" fill="#6327EA" fill-rule="nonzero" cx="80" cy="57" r="17"></circle>
                            <g id="noun_freelance_1805396_000000" transform="translate(49.000000, 84.000000)" fill="#5818BE" fill-rule="nonzero">
                                <path d="M58.6327511,0 L3.83275113,0 C1.53275113,0 -0.267248869,2 0.0327511308,4.3 L3.73275113,32.1 C4.03275113,34 5.63275113,35.4 7.53275113,35.4 L55.0327511,35.4 C56.9327511,35.4 58.5327511,34 58.8327511,32.1 L62.5327511,4.3 C62.8327511,2 61.0327511,0 58.6327511,0 Z M31.2327511,21.6 C29.0327511,21.6 27.2327511,19.8 27.2327511,17.6 C27.2327511,15.4 29.0327511,13.6 31.2327511,13.6 C33.4327511,13.6 35.2327511,15.4 35.2327511,17.6 C35.2327511,19.9 33.4327511,21.6 31.2327511,21.6 Z" id="Shape"></path>
                            </g>
                        </g>
                    </g>
                </g>
            </g>
        </g>
    </g>
</svg>