<?xml version="1.0" encoding="UTF-8"?>
<svg width="704px" height="1134px" viewBox="0 0 704 1134" version="1.1" xmlns="http://www.w3.org/2000/svg" xmlns:xlink="http://www.w3.org/1999/xlink">
    <!-- Generator: Sketch 52.2 (67145) - http://www.bohemiancoding.com/sketch -->
    <title>img_bg_hero_subpage3</title>
    <desc>Created with Sketch.</desc>
    <defs>
        <rect id="path-1" x="0" y="0" width="704" height="1134"></rect>
        <linearGradient x1="67.0931315%" y1="-45.0934801%" x2="47.3752514%" y2="110.77454%" id="linearGradient-3">
            <stop stop-color="#B364E2" offset="0%"></stop>
            <stop stop-color="#4D35E2" offset="100%"></stop>
        </linearGradient>
        <linearGradient x1="78.1507148%" y1="100%" x2="65.8828598%" y2="-6.97527851%" id="linearGradient-4">
            <stop stop-color="#FFFFFF" stop-opacity="0" offset="0%"></stop>
            <stop stop-color="#FFFFFF" stop-opacity="0.15" offset="100%"></stop>
        </linearGradient>
    </defs>
    <g id="Page-1" stroke="none" stroke-width="1" fill="none" fill-rule="evenodd">
        <g id="05b---for-Freelancer" transform="translate(-752.000000, 0.000000)">
            <g id="Background/img_bg_hero_subpage3" transform="translate(752.000000, 0.000000)">
                <mask id="mask-2" fill="white">
                    <use xlink:href="#path-1"></use>
                </mask>
                <g id="Mask" fill-rule="nonzero"></g>
                <path d="M10,1107.59833 C628.021275,1213.33359 961.466873,988.974064 1010.33679,434.519752 C1018.57901,341.00758 1010.33679,199.981508 1010.33679,79.7328884 L10.0748449,78 L10,1107.59833 Z" id="Path-2-Copy-2" fill="#E7F7FC" mask="url(#mask-2)" transform="translate(512.000000, 605.500000) scale(-1, 1) translate(-512.000000, -605.500000) "></path>
                <path d="M-4.54807054e-13,1027.59833 C618.021275,1133.33359 951.466873,908.974064 1000.33679,354.519752 C1008.57901,261.00758 1000.33679,119.981508 1000.33679,-0.267111581 L0.0748449094,-2 L-4.54807054e-13,1027.59833 Z" id="Path-2-Copy" fill="url(#linearGradient-3)" mask="url(#mask-2)" transform="translate(502.000000, 525.500000) scale(-1, 1) translate(-502.000000, -525.500000) "></path>
                <path d="M131.242458,550.589017 C132.268077,792.3329 240.558269,943.4445 456.113033,1003.92382 C629.532953,1052.58114 776.527958,930.511461 913.731199,869.261643 L943.819965,679.288651 L131.242458,550.589017 Z" id="Path-296" fill="url(#linearGradient-4)" fill-rule="nonzero" mask="url(#mask-2)" transform="translate(537.531212, 782.852472) rotate(81.000000) translate(-537.531212, -782.852472) "></path>
            </g>
        </g>
    </g>
</svg>