<?xml version="1.0" encoding="UTF-8"?>
<svg width="519px" height="407px" viewBox="0 0 519 407" version="1.1" xmlns="http://www.w3.org/2000/svg" xmlns:xlink="http://www.w3.org/1999/xlink">
    <!-- Generator: Sketch 52.2 (67145) - http://www.bohemiancoding.com/sketch -->
    <title>img_based_vetted</title>
    <desc>Created with Sketch.</desc>
    <defs>
        <path d="M42.8926976,76.9888456 C16.2148012,56.9062389 2.22202123,31.4096415 0.914357771,0.499053395 C30.2220173,18.3498153 46.0947466,43.8464126 48.5325458,76.9888456 L42.8926976,76.9888456 Z" id="path-1"></path>
        <path d="M79.3582862,50.3355309 C48.6068428,45.6023415 22.2172258,29.1116562 0.189435158,0.863475057 C37.5010961,0.863475057 65.7097316,17.3541603 84.8153416,50.3355309 L79.3582862,50.3355309 Z" id="path-3"></path>
        <rect id="path-5" x="0" y="0" width="125.999992" height="29.9999982" rx="2.39999986"></rect>
        <filter x="-8.3%" y="-25.0%" width="116.7%" height="170.0%" filterUnits="objectBoundingBox" id="filter-6">
            <feOffset dx="0" dy="3" in="SourceAlpha" result="shadowOffsetOuter1"></feOffset>
            <feGaussianBlur stdDeviation="3" in="shadowOffsetOuter1" result="shadowBlurOuter1"></feGaussianBlur>
            <feColorMatrix values="0 0 0 0 0   0 0 0 0 0.290196078   0 0 0 0 0.356862745  0 0 0 0.07 0" type="matrix" in="shadowBlurOuter1"></feColorMatrix>
        </filter>
        <rect id="path-7" x="0" y="0" width="125.999992" height="29.9999982" rx="2.39999986"></rect>
        <filter x="-8.3%" y="-25.0%" width="116.7%" height="170.0%" filterUnits="objectBoundingBox" id="filter-8">
            <feOffset dx="0" dy="3" in="SourceAlpha" result="shadowOffsetOuter1"></feOffset>
            <feGaussianBlur stdDeviation="3" in="shadowOffsetOuter1" result="shadowBlurOuter1"></feGaussianBlur>
            <feColorMatrix values="0 0 0 0 0   0 0 0 0 0.290196078   0 0 0 0 0.356862745  0 0 0 0.07 0" type="matrix" in="shadowBlurOuter1"></feColorMatrix>
        </filter>
        <rect id="path-9" x="0" y="0" width="125.999992" height="29.9999982" rx="2.39999986"></rect>
        <filter x="-8.3%" y="-25.0%" width="116.7%" height="170.0%" filterUnits="objectBoundingBox" id="filter-10">
            <feOffset dx="0" dy="3" in="SourceAlpha" result="shadowOffsetOuter1"></feOffset>
            <feGaussianBlur stdDeviation="3" in="shadowOffsetOuter1" result="shadowBlurOuter1"></feGaussianBlur>
            <feColorMatrix values="0 0 0 0 0   0 0 0 0 0.290196078   0 0 0 0 0.356862745  0 0 0 0.07 0" type="matrix" in="shadowBlurOuter1"></feColorMatrix>
        </filter>
        <rect id="path-11" x="0" y="0" width="125.999992" height="29.9999982" rx="2.39999986"></rect>
        <filter x="-8.3%" y="-25.0%" width="116.7%" height="170.0%" filterUnits="objectBoundingBox" id="filter-12">
            <feOffset dx="0" dy="3" in="SourceAlpha" result="shadowOffsetOuter1"></feOffset>
            <feGaussianBlur stdDeviation="3" in="shadowOffsetOuter1" result="shadowBlurOuter1"></feGaussianBlur>
            <feColorMatrix values="0 0 0 0 0   0 0 0 0 0.290196078   0 0 0 0 0.356862745  0 0 0 0.07 0" type="matrix" in="shadowBlurOuter1"></feColorMatrix>
        </filter>
        <path d="M46.128443,49.0758499 C49.3053488,21.1737685 42.9835996,5.34558845 27.1631955,1.59130976 C22.4019067,0.461426795 14.7762877,2.25797057 10.1982678,5.73467352 C5.60473584,9.22315686 3.37722804,14.9733185 3.08072213,16.3652966 C1.24209345,24.996932 1.19881673,34.3527192 2.04400593,47.6668993 C2.14836347,49.310833 6.51361328,77.3284882 20.1603345,78.0766152 C23.7691655,78.2744549 28.6051276,80.5770247 37.1577453,77.7799243 C42.8594904,75.9151906 45.849723,66.3471658 46.128443,49.0758499 Z" id="path-13"></path>
        <path d="M7.04639807,15.587347 C4.22835855,13.0442162 1.89104111,9.48553736 2.90431413,8.74524514 C3.42475757,8.36501176 4.47876994,8.70926766 6.06635124,9.77801283 C6.3567042,8.43933205 6.81774423,6.97256304 7.44947135,5.37770579 C2.24290823,2.81534039 -0.223247652,1.14279636 0.0510036956,0.360073712 C0.462380717,-0.814010265 9.98248302,1.54010998 13.2034362,3.50839694 C15.3507384,4.82058825 18.7032088,8.98445594 23.2608475,16 L15.2608475,21.5 C11.2802668,19.2223124 8.54211704,17.2514281 7.04639807,15.587347 Z" id="path-15"></path>
        <path d="M49.4351145,34.9482082 C46.1306076,34.9482082 40.8752252,34.6419008 34.7515174,33.7312007 C31.5495328,33.2550108 26.0598431,32.2109294 18.2824483,30.5989565 C13.2293328,28.3060681 13.2293328,14.8008536 9.92633853,15.3320564 C6.62334431,15.8632592 10.2965674,20.79825 8.38842153,21.8941575 C6.4802757,22.990065 5.4213465,15.8931328 2.34719012,15.8931328 C-0.726966264,15.8931328 -1.56788623,25.8586677 0.0829048331,27.8854742 C1.7336959,29.9122806 3.95189688,34.8094169 11.8932487,36.6776981 C29.3637326,44.3950109 41.0012788,48.6256069 46.8058874,49.3694862 C48.6557969,49.6065581 58.2795856,34.9482082 49.4351145,34.9482082 Z" id="path-17"></path>
        <path d="M117.490295,48.3670525 C97.8191783,50.3956516 83.4044119,50.3956516 74.245996,48.3670525 C70.7345054,47.5892535 64.9044119,43.1671397 60.5083723,40.4195358 C54.067038,37.058723 49.1214935,34.3111191 45.6717386,32.1767243 C35.6815545,25.9957065 26.2392035,18.0679637 24.7905505,16.7901429 C23.6558354,15.7892389 16.8996747,10.6809099 15.7608475,13.056916 C14.611276,15.4553389 14.6991556,20.2793027 14.7608475,20.556916 C15.7608475,25.056916 49.9468097,57.9047833 60.5083723,65.1479704 C71.5050821,72.6895842 79.7410455,74.4898234 82.4885703,81.0840726 C84.7547128,86.5229712 88.8577527,98.592112 94.79769,117.291495 C100.589396,123.686085 109.303881,128.072823 120.941144,130.451709 C138.397039,134.020038 147.424461,134.119765 157.221244,131.639983 C158.662537,129.518573 159.39521,127.686837 159.419263,126.144775 C159.499862,120.977513 155.023224,101.965862 157.221244,100.86682 C159.419263,99.7677787 161.360367,103.729375 165.364808,112.956277 C167.109323,116.975931 170.210227,124.168411 171.508372,127.144775 C180.755364,129.888483 185.334572,128.822455 185.245996,123.946692 C185.187087,120.703994 180.592775,103.173876 178.102432,98.1192164 C171.735727,81.9434309 164.030325,70.0040427 154.986228,62.3010518 C145.942131,54.598061 133.443487,49.9533945 117.490295,48.3670525 Z" id="path-19"></path>
        <linearGradient x1="89.4579087%" y1="0%" x2="19.4290097%" y2="130.745889%" id="linearGradient-21">
            <stop stop-color="#00D3E9" offset="0%"></stop>
            <stop stop-color="#00A7CE" offset="100%"></stop>
        </linearGradient>
        <path d="M22.9902769,73.3414878 C45.3915278,87.5003941 66.3710367,92.4292605 85.9288036,88.1280871 C87.9495959,84.3212897 88.9304863,81.2591637 88.8714747,78.9417091 C88.6696121,71.0143241 89.4116504,66.6641285 89.9288036,62.6094407 C96.3856338,60.9374492 100.780716,58.3069913 103.114049,54.7180669 C105.559172,50.9571974 104.313479,44.3208035 104.187696,41.2824112 C104.12291,39.7174477 94.4689622,25.9579561 92.1685044,22.8905909 C80.9247004,7.89842061 57.7241339,-1.20112421 43.8285441,0.831612718 C38.9700499,1.54234474 13.5557548,0.388714867 7.64375196,5.30592633 C5.32534466,7.23422361 1.96204687,11.9663126 0.950682649,17.944904 C0.392926874,21.2420286 0.947382319,25.1275451 2.61404899,29.6014535 C12.8615737,51.8708891 19.6536497,66.4509005 22.9902769,73.3414878 Z" id="path-22"></path>
        <path d="M22.9902769,73.3414878 C45.3915278,87.5003941 66.3710367,92.4292605 85.9288036,88.1280871 C87.9495959,84.3212897 88.9304863,81.2591637 88.8714747,78.9417091 C88.6696121,71.0143241 89.4116504,66.6641285 89.9288036,62.6094407 C96.3856338,60.9374492 100.780716,58.3069913 103.114049,54.7180669 C105.559172,50.9571974 104.313479,44.3208035 104.187696,41.2824112 C104.12291,39.7174477 94.4689622,25.9579561 92.1685044,22.8905909 C80.9247004,7.89842061 57.7241339,-1.20112421 43.8285441,0.831612718 C38.9700499,1.54234474 13.5557548,0.388714867 7.64375196,5.30592633 C5.32534466,7.23422361 1.96204687,11.9663126 0.950682649,17.944904 C0.392926874,21.2420286 0.947382319,25.1275451 2.61404899,29.6014535 C12.8615737,51.8708891 19.6536497,66.4509005 22.9902769,73.3414878 Z" id="path-24"></path>
        <linearGradient x1="132.71904%" y1="-175.047351%" x2="32.7802309%" y2="135.692239%" id="linearGradient-26">
            <stop stop-color="#00D3E9" offset="0%"></stop>
            <stop stop-color="#00A7CE" offset="100%"></stop>
        </linearGradient>
        <path d="M19.5327027,0.0495211414 C20.2106673,3.04670811 20.5496496,5.60784879 20.5496496,7.73294316 C20.5496496,10.9205847 -1.23474207,16.7918148 0.178737473,21.5796115 C1.06193068,24.5712002 11.0804782,23.9930736 30.2343799,19.8452318 L30.2343808,19.8452357 C32.4823723,19.3584256 33.9857749,17.2346252 33.6977748,14.9526291 L31.8169225,0.0495211414 L19.5327027,0.0495211414 Z" id="path-27"></path>
        <path d="M0.0816526123,3.80835169 L6.65278838,20.8146731 C7.12991469,22.0494908 8.13342459,23.0068103 9.38933908,23.4252635 C27.7635329,29.5472887 37.8765619,30.6875636 39.7284261,26.8460882 C42.604775,20.8794393 20.5447662,14.9733257 17.3599612,11.0262332 C15.2367578,8.39483825 13.3823616,4.7429054 11.7967727,0.0704346726 L0.0816526123,3.80835169 Z" id="path-29"></path>
        <linearGradient x1="59.9014233%" y1="6.39761353%" x2="25.2097224%" y2="111.166943%" id="linearGradient-31">
            <stop stop-color="#7F14F4" offset="0%"></stop>
            <stop stop-color="#4D35E2" offset="100%"></stop>
        </linearGradient>
        <path d="M8.10855932,0.0882240545 C-1.68107255,19.0719357 -1.68107255,58.0048205 8.10855932,116.886879 C12.0551476,140.624568 12.0551476,140.624568 24.5953902,201.683273 C26.4903522,203.280879 29.0316897,204.079682 32.2194026,204.079682 C35.4071156,204.079682 38.0599634,203.280879 40.177946,201.683273 C42.8121199,154.367777 42.2527813,126.102312 38.4999303,116.886879 C38.4999303,101.794341 38.0002776,80.8575825 37.000972,54.0766037 L66.4515887,125.422229 C71.0251599,151.430597 81.2725627,175.761238 97.1937969,198.41415 C99.6995011,198.877604 102.479541,198.59623 105.533916,197.570027 C108.588291,196.543824 110.461626,194.701133 111.153921,192.041954 C101.202249,145.187608 94.8503386,118.257529 92.0981885,111.251719 C87.9699634,100.743005 72.6589621,42.8693735 70.1370627,13.3681269 C58.6728662,15.1933536 47.2644851,14.8560274 35.9119194,12.3561483 C24.5593537,9.8562693 15.291567,5.76696121 8.10855932,0.0882240545 Z" id="path-32"></path>
        <path d="M14.992704,27.848087 C15.3690174,29.6328161 14.4975264,32.7069435 12.3782309,37.0704692 C10.617345,40.6960473 15.0563208,50.5647832 19.9524845,50.6516501 C22.8435957,50.7029437 28.0623281,45.5679846 29.228367,41.2079686 C29.7046913,39.4269119 28.9657804,36.2035233 28.1423497,32.3628128 C27.5933959,29.8023392 27.4520306,23.598813 27.7182538,13.7522341 C33.2639111,11.8023234 35.3829269,8.89504767 34.0753011,5.03040681 C32.1138624,-0.766554488 26.387838,2.57518785 25.9460427,7.32361245 C24.7697107,4.89379817 23.6238045,3.72973648 22.5083241,3.83142738 C20.2798724,4.03458045 16.4205095,5.30479598 12.3332683,6.18809824 C9.60844087,6.77696641 7.09313945,5.97852034 4.78736406,3.79276002 C1.71083545,10.2994074 2.25424571,29.412218 14.992704,27.848087 Z" id="path-34"></path>
        <path d="M27.2053815,34.722809 C31.660351,30.7266998 31.1584253,26.3389314 30.7680959,18.8757161 C46.6744564,23.0797627 45.7802162,4.63902089 32.420906,2.79319881 C30.6675973,1.1187126 27.0744813,0.42344424 21.641558,0.707393739 C13.4921731,1.13331799 9.24433498,2.90360641 4.69415991,10.8477638 C-2.33393586,15.7255718 -0.565302666,24.951505 10.0000595,38.5255637 C17.0621652,39.9444691 22.7972725,38.6768842 27.2053815,34.722809 Z" id="path-36"></path>
        <path d="M31.6168128,8.28097906 C32.0404683,9.90312749 33.7417043,14.5702155 34.1027953,15.6302462 C34.3577561,16.3787173 33.4598196,16.9776425 31.408986,17.4270218 C30.1164916,25.6416664 25.4139955,29.1439982 17.3014977,27.9340171 L17.3014977,35.2773663 L0.128130401,35.2773663 L1.69996996,22.8523196 C8.36140773,23.7848833 13.561917,22.7169026 17.3014977,19.6483777 C15.5471335,19.3221769 14.2371999,18.674115 13.3716968,17.7041921 C12.0734422,16.2493078 12.0734422,14.6856097 12.4532736,13.7082524 C13.6265004,10.6893817 18.6098492,10.9296185 20.1067282,15.6225432 C21.4518238,10.6121684 21.4177678,6.22521157 20.0045602,2.46167258 C24.5877447,2.22098503 28.0984711,1.4310026 30.5367394,0.0917252938 C31.0666535,3.05624866 31.426678,5.78599991 31.6168128,8.28097906 Z" id="path-38"></path>
        <path d="M1.49960283,4.08323376 L2.26024136,18.6269334 C2.39534048,21.2100695 4.59890551,23.1945956 7.18204162,23.0594965 C7.53335149,23.0411228 7.8814729,22.983227 8.21981913,22.8869044 C16.1701878,20.6235412 21.8259114,19.0419809 25.1869899,18.1422234 C38.0076415,14.7101471 41.0357987,12.3670174 40.1730826,8.29639202 C39.1859252,3.63860475 26.9456694,8.50860082 16.3091092,5.33268074 L1.49960283,4.08323376 Z" id="path-40"></path>
        <path d="M0.666991708,0.0356372183 L1.08425026,15.4409219 C1.12758857,17.0409641 2.37384775,18.3491032 3.96991459,18.4698668 C30.7979511,20.499763 44.2119694,19.5274594 44.2119694,15.5529562 C44.2119694,9.3865973 18.3645139,10.1439452 13.3860646,0.742723699 L0.666991708,0.0356372183 Z" id="path-42"></path>
        <linearGradient x1="72.7340779%" y1="6.81203417%" x2="25.2097224%" y2="111.166943%" id="linearGradient-44">
            <stop stop-color="#7F14F4" offset="0%"></stop>
            <stop stop-color="#4D35E2" offset="100%"></stop>
        </linearGradient>
        <path d="M41.2700133,2.96104333 L60.1826461,0.115653834 C81.3919395,53.2364966 91.9965862,84.9606617 91.9965862,95.288149 C91.9965862,105.615636 90.4880168,135.526577 87.470878,185.020972 C85.636489,187.107545 82.7231755,188.150832 78.7309377,188.150832 C74.7386998,188.150832 71.8253863,187.107545 69.9909973,185.020972 L60.1826461,95.288149 L43.3340869,64.782369 C43.8908751,82.8220036 44.1692692,94.1027561 44.1692692,98.6246263 C44.1692692,107.12139 39.4074162,136.975679 29.8837104,188.187493 C28.4644461,190.725776 25.6046747,191.994917 21.3043963,191.994917 C17.0041178,191.994917 13.9350004,190.725776 12.0970441,188.187493 L12.199212,101.636357 L0.237865192,1.54192193 L41.220423,1.54192193 C41.2370223,2.01666617 41.2535516,2.48970901 41.2700107,2.96105045 Z" id="path-45"></path>
        <linearGradient x1="82.7036561%" y1="0%" x2="17.640099%" y2="100%" id="linearGradient-47">
            <stop stop-color="#00D3E9" offset="0%"></stop>
            <stop stop-color="#00A7CE" offset="100%"></stop>
        </linearGradient>
        <path d="M4.65975074,95.3987667 C2.21694497,80.8283025 0.995542081,68.6178525 0.995542081,58.7674168 C0.995542081,43.9917632 9.17745207,0.124081223 47.6735661,0.124081223 C67.0272689,0.124081223 91.0252194,8.57831769 119.667418,25.4867906 L157.607353,4.64373815 C162.113438,7.21923296 164.50453,11.1465438 164.780631,16.4256706 C139.38294,40.6439126 123.342808,52.7530335 116.660235,52.7530335 C109.977662,52.7530335 99.409409,49.0713595 84.9554765,41.7080113 C84.3986853,71.7634944 85.1453549,90.0804116 87.1954854,96.658763 C90.2706812,106.52629 95.2667906,109.942911 87.1954854,113.298689 C79.1241802,116.654467 34.7143519,120.936084 25.5124852,115.184811 C27.4358118,124.345176 27.9786961,129.909228 27.1411378,131.876966 C22.3682269,133.397158 19.6034082,134.201476 18.8466817,134.289921 C15.1801027,128.082934 12.7186746,123.257501 11.4623973,119.813622 C9.56602329,114.615022 7.29847445,106.476737 4.65975074,95.3987667 Z" id="path-48"></path>
    </defs>
    <g id="Page-1" stroke="none" stroke-width="1" fill="none" fill-rule="evenodd">
        <g id="01---Landing-Page" transform="translate(-179.000000, -3645.000000)">
            <g id="section---illustration" transform="translate(169.000000, 3081.000000)">
                <g id="section" transform="translate(6.000000, 554.000000)">
                    <g id="Illustration/img_based_vetted" transform="translate(4.000000, 10.000000)">
                        <g id="Group-9-Copy">
                            <path d="M94.9999996,0 L398.599982,8.8817842e-16 C401.91369,2.7946008e-16 404.599981,2.68629134 404.599981,5.99999964 L404.599981,168 C404.599981,171.313709 401.91369,174 398.599982,174 L94.9999996,174 C91.6862913,174 89,171.313709 89,168 L89,5.99999964 C89,2.68629134 91.6862913,1.49689676e-15 94.9999996,8.8817842e-16 Z" id="Rectangle-11" fill="#EAE5FB"></path>
                            <path d="M280.286711,396.927612 C262.526626,401.234223 234.956833,404 204,404 C174.751965,404 148.527365,401.531135 130.742916,397.626489 C116.85813,400.33756 98.1194399,402 77.5,402 C34.6979319,402 0,394.836556 0,386 C0,377.163444 34.6979319,370 77.5,370 C96.9510763,370 114.728503,371.47938 128.336439,373.922868 C146.11462,369.701867 173.402923,367 204,367 C231.219879,367 255.821096,369.138338 273.43744,372.582285 C297.233819,366.814927 338.534726,363 385.5,363 C459.230014,363 519,372.40202 519,384 C519,395.59798 459.230014,405 385.5,405 C342.765982,405 304.721665,401.841506 280.286704,396.927611 Z" id="Combined-Shape" fill="#1C036C" opacity="0.0199999996"></path>
                            <g id="Group-63" transform="translate(217.500000, 329.248988) rotate(31.000000) translate(-217.500000, -329.248988) translate(175.000000, 288.000000)">
                                <g id="Group-62" transform="translate(35.000000, 0.000000)">
                                    <mask id="mask-2" fill="white">
                                        <use xlink:href="#path-1"></use>
                                    </mask>
                                    <use id="Path-45" fill="#02BC85" fill-rule="nonzero" xlink:href="#path-1"></use>
                                    <path d="M0.0218285583,-1.74998875 C11.1418294,25.6636342 25.1226838,46.5182443 41.964392,60.8138416" id="Path-50" stroke="#07946A" stroke-width="0.6" fill-rule="nonzero" mask="url(#mask-2)"></path>
                                    <polyline id="Path-51" stroke="#07946A" stroke-width="0.6" fill-rule="nonzero" mask="url(#mask-2)" points="-0.276539327 16.7826634 10.6026654 20.8041131 14.0707201 8.12690527"></polyline>
                                    <polyline id="Path-52" stroke="#07946A" stroke-width="0.6" fill-rule="nonzero" mask="url(#mask-2)" points="7.30853252 35.4017275 20.2817224 36.6544315 24.7487465 17.4447074"></polyline>
                                    <polyline id="Path-53" stroke="#07946A" stroke-width="0.6" fill-rule="nonzero" mask="url(#mask-2)" points="10.4750361 49.5688609 30.0230798 48.9947412 36.4590556 27.6447998"></polyline>
                                </g>
                                <g id="Group-61" transform="translate(0.000000, 31.188259)">
                                    <mask id="mask-4" fill="white">
                                        <use xlink:href="#path-3"></use>
                                    </mask>
                                    <use id="Path-43" fill="#00D495" fill-rule="nonzero" xlink:href="#path-3"></use>
                                    <path d="M-1.36096394,-0.328631709 C33.3172221,24.3160773 60.8864844,38.5126203 81.346823,42.2609971" id="Path-46" stroke="#07946A" stroke-width="0.6" fill-rule="nonzero" mask="url(#mask-4)"></path>
                                    <polyline id="Path-47" stroke="#07946A" stroke-width="0.6" fill-rule="nonzero" mask="url(#mask-4)" points="8.641514 17.8750661 21.0114981 14.7894925 17.4167703 0.489244288"></polyline>
                                    <polyline id="Path-48" stroke="#07946A" stroke-width="0.6" fill-rule="nonzero" mask="url(#mask-4)" points="22.372491 28.7251082 36.2770659 23.8540354 32.3052233 4.43543752"></polyline>
                                    <polyline id="Path-49" stroke="#07946A" stroke-width="0.6" fill-rule="nonzero" mask="url(#mask-4)" points="38.9058979 38.1947937 52.2408448 32.0652608 50.2078127 12.1368511"></polyline>
                                </g>
                            </g>
                            <path d="M249,368.886792 L296.5,389.5 L184.5,389.5 L237,369.033898 L237,166 L249,166 L249,368.886792 Z" id="Combined-Shape" fill="#EAE5FB"></path>
                            <ellipse id="Oval" fill="#FF625A" fill-rule="nonzero" cx="118.75" cy="18.7667005" rx="2.75000006" ry="2.76670046"></ellipse>
                            <ellipse id="Oval" fill="#FFC430" fill-rule="nonzero" cx="128.65" cy="18.7667005" rx="2.75000006" ry="2.76670046"></ellipse>
                            <ellipse id="Oval" fill="#29CD42" fill-rule="nonzero" cx="138.55" cy="18.7667005" rx="2.75000006" ry="2.76670046"></ellipse>
                            <g id="Group-5" transform="translate(110.599999, 73.399997)">
                                <rect id="Rectangle" fill="#5A2CE7" x="0" y="0" width="125.999992" height="29.9999982" rx="2.39999986"></rect>
                                <text id="Designer" font-family="CircularStd-Bold, Circular Std" font-size="10.7999994" font-weight="bold" fill="#FFFFFF">
                                    <tspan x="40.7999976" y="17.5999996">Designer</tspan>
                                </text>
                            </g>
                            <g id="Group-5-Copy-3" transform="translate(250.999990, 33.199999)">
                                <rect id="Rectangle" fill="#5A2CE7" x="0" y="0" width="125.999992" height="29.9999982" rx="2.39999986"></rect>
                                <text id="Tech-Consultans" font-family="CircularStd-Bold, Circular Std" font-size="10.7999994" font-weight="bold" fill="#FFFFFF">
                                    <tspan x="21.5999987" y="17.5999996">Tech Consultans</tspan>
                                </text>
                            </g>
                            <g id="Group-5-Copy-5" transform="translate(250.999990, 113.599994)">
                                <g id="Rectangle">
                                    <use fill="black" fill-opacity="1" filter="url(#filter-6)" xlink:href="#path-5"></use>
                                    <use fill="#FFFFFF" fill-rule="evenodd" xlink:href="#path-5"></use>
                                </g>
                                <text id="Digital-Marketers" font-family="CircularStd-Bold, Circular Std" font-size="10.7999994" font-weight="bold" fill="#999999">
                                    <tspan x="20.3999988" y="17.5999996">Digital Marketers</tspan>
                                </text>
                            </g>
                            <g id="Group-5-Copy-4" transform="translate(250.999990, 73.399997)">
                                <g id="Rectangle">
                                    <use fill="black" fill-opacity="1" filter="url(#filter-8)" xlink:href="#path-7"></use>
                                    <use fill="#FFFFFF" fill-rule="evenodd" xlink:href="#path-7"></use>
                                </g>
                                <text id="Data-Scientists" font-family="CircularStd-Bold, Circular Std" font-size="10.7999994" font-weight="bold" fill="#999999">
                                    <tspan x="25.1999985" y="17.5999996">Data Scientists</tspan>
                                </text>
                            </g>
                            <g id="Group-5-Copy" transform="translate(110.599999, 33.199999)">
                                <g id="Rectangle">
                                    <use fill="black" fill-opacity="1" filter="url(#filter-10)" xlink:href="#path-9"></use>
                                    <use fill="#FFFFFF" fill-rule="evenodd" xlink:href="#path-9"></use>
                                </g>
                                <text id="Developer" font-family="CircularStd-Bold, Circular Std" font-size="10.7999994" font-weight="bold" fill="#999999">
                                    <tspan x="37.1999978" y="17.5999996">Developer</tspan>
                                </text>
                            </g>
                            <g id="Group-5-Copy-2" transform="translate(110.599999, 113.599994)">
                                <g id="Rectangle">
                                    <use fill="black" fill-opacity="1" filter="url(#filter-12)" xlink:href="#path-11"></use>
                                    <use fill="#FFFFFF" fill-rule="evenodd" xlink:href="#path-11"></use>
                                </g>
                                <text id="Project-Manager" font-family="CircularStd-Bold, Circular Std" font-size="10.7999994" font-weight="bold" fill="#999999">
                                    <tspan x="20.3999988" y="17.5999996">Project Manager</tspan>
                                </text>
                            </g>
                        </g>
                        <g id="Group-7" transform="translate(281.000000, 49.000000)">
                            <g id="Group-18" transform="translate(101.000000, 0.000000)">
                                <mask id="mask-14" fill="white">
                                    <use xlink:href="#path-13"></use>
                                </mask>
                                <use id="Path-52" fill="#30007D" transform="translate(24.219783, 40.204891) rotate(1.000000) translate(-24.219783, -40.204891) " xlink:href="#path-13"></use>
                                <path d="M31.5,26 C34.1666667,19.3333333 38.6666667,17.5 45,20.5 C51.3333333,23.5 52.6666667,33.6666667 49,51 L23,59 C10.2399959,55.8297493 2.57332922,52.1630827 -5.17363929e-14,48 C-4.27564988,41.0829356 0.705044333,29.3668711 1.5,26 C2.2800747,22.6961542 4.85214826,16.4288841 10.5,18.5 C12.4676062,19.2215382 13.9826115,22.3420375 16.5,23 C19.3455919,23.7437441 24.3455919,24.7437441 31.5,26 Z" id="Path-5" fill-opacity="0.300000012" fill="#000000" mask="url(#mask-14)"></path>
                            </g>
                            <g id="Group-19" transform="translate(0.739152, 2.443084)">
                                <g id="Group-82" transform="translate(0.000000, 0.556916)">
                                    <mask id="mask-16" fill="white">
                                        <use xlink:href="#path-15"></use>
                                    </mask>
                                    <use id="Combined-Shape" fill="#FED2F5" fill-rule="nonzero" xlink:href="#path-15"></use>
                                    <path d="M7.20997283,5.26702897 C8.77438345,6.12139153 11.6726399,9.18496691 10.6902451,12.251321 C10.2880576,13.5066711 7.17942316,10.6098684 5.82886756,9.59640488 L7.20997283,5.26702897 Z" id="Path-114" fill="#F9B7EB" fill-rule="nonzero" mask="url(#mask-16)"></path>
                                </g>
                                <g id="Group-58" transform="translate(151.000000, 116.000000)">
                                    <mask id="mask-18" fill="white">
                                        <use xlink:href="#path-17"></use>
                                    </mask>
                                    <use id="Path-87" fill="#FED2F5" fill-rule="nonzero" transform="translate(26.185684, 32.344567) rotate(-112.000000) translate(-26.185684, -32.344567) " xlink:href="#path-17"></use>
                                    <path d="M23.7608475,27.056916 C21.4275142,-1.60975063 15.0941808,-19.6097506 4.76084751,-26.943084 C3.42751417,-24.6097506 2.76084751,-23.443084 2.76084751,-23.443084 L22.2608475,27.556916 L23.7608475,27.056916 Z" id="Path-54" fill="#000000" opacity="0.05" mask="url(#mask-18)"></path>
                                </g>
                                <mask id="mask-20" fill="white">
                                    <use xlink:href="#path-19"></use>
                                </mask>
                                <use id="hand" fill="#FED2F5" fill-rule="nonzero" xlink:href="#path-19"></use>
                                <path d="M76.4585913,67.9820481 C70.7984216,64.3595546 66.5806918,61.7662997 63.805402,60.2022835 C48.6931551,51.6857676 22.6128567,29.7256594 18.745996,25.5824751 C33.765798,42.4344453 41.275699,50.8604304 41.275699,50.8604304 C56.1730901,62.5177518 65.8810109,69.6615218 70.3994614,72.2917403 C73.6793523,74.2009855 77.5035773,68.6508363 76.4585913,67.9820481 Z" id="Path-49" fill="#000000" opacity="0.0469308036" mask="url(#mask-20)"></path>
                                <path d="M98.7551434,90.4673942 C95.4886681,109.227555 91.1963915,118.607636 85.8783136,118.607636 C80.5602356,118.607636 72.2806048,113.917595 61.0394212,104.537515 C75.3755913,122.141765 85.9262437,129.010345 92.6913784,125.143255 C99.4565131,121.276165 101.477768,109.717545 98.7551434,90.4673942 Z" id="Path-82" fill="#E69F9C" fill-rule="nonzero" mask="url(#mask-20)"></path>
                                <g id="Group-33" mask="url(#mask-20)">
                                    <g transform="translate(71.646799, 44.455463)">
                                        <mask id="mask-23" fill="white">
                                            <use xlink:href="#path-22"></use>
                                        </mask>
                                        <use id="Path-30" stroke="none" fill="url(#linearGradient-21)" fill-rule="nonzero" xlink:href="#path-22"></use>
                                        <mask id="mask-25" fill="white">
                                            <use xlink:href="#path-24"></use>
                                        </mask>
                                        <use id="Path-30" stroke="none" fill="url(#linearGradient-21)" fill-rule="nonzero" xlink:href="#path-24"></use>
                                        <path d="M43.382674,2.02237551 C36.1189995,11.3506548 44.051754,24.5391532 48.2081084,24.5391532 C52.2523315,24.5391532 65.2427619,17.944904 59.4663112,3.28373825 C59.3103113,2.88779584 59.2282237,2.44946987 59.0909687,2.02237551 L43.382674,2.02237551 Z" id="Path-91" stroke="none" fill="#FFFFFF" fill-rule="nonzero" mask="url(#mask-25)"></path>
                                        <path d="M26.2279104,58.6094407 C27.587195,66.9595723 30.7581011,71.8247874 32.2724648,72.3474599 C41.2138486,76.8599336 48.3574129,79.9738847 53.7031579,81.6893129 C64.7458999,85.2328848 86.5728266,84.5104849 86.12395,85.5359583 C85.3033573,87.4106289 78.5352665,89.9778398 65.8196775,93.2375909 C36.7847083,86.4044166 21.7845489,80.073099 20.8191992,74.2436382 C7.80357024,49.2825659 0.814394769,33.9966194 -0.148327252,28.3857985 C-0.573023495,25.9106349 -5.83488885,21.0976629 -3.44535695,20.142987 C-1.73949843,19.4614553 2.65654117,21.4763647 9.74276186,26.1877155 C18.1685044,32.0492703 23.6635539,42.8565121 26.2279104,58.6094407 Z" id="Path-93" stroke="none" fill="#000000" fill-rule="nonzero" opacity="0.195647321" mask="url(#mask-25)"></path>
                                        <path d="" id="Path-53" stroke="#979797" stroke-width="1.10000002" fill="none" mask="url(#mask-25)"></path>
                                    </g>
                                </g>
                                <path d="M178.760848,155.056916 C175.90133,141.903816 173.90133,132.903816 172.760848,128.056916 C171.698742,123.543111 170.365409,118.209777 168.760848,112.056916 C167.472537,108.91041 165.376151,102.027014 162.260848,99.056916 C159.494818,96.4198123 157.130393,96.9953251 156.760848,97.056916 C154.760848,97.3902494 156.760848,105.723583 162.760848,122.056916 L177.260848,155.556916 L178.760848,155.056916 Z" id="Path-54" fill="#000000" opacity="0.100000001" mask="url(#mask-20)"></path>
                            </g>
                            <path d="M185.380388,156.107777 L178.615943,156.5 L178,152.5 L185.222392,152.081224 C185.482173,150.737153 186.073495,149.805803 186.834817,149.739196 C188.00694,149.636648 189.138161,151.622667 189.361469,154.175092 C189.584778,156.727518 188.815611,158.879799 187.643488,158.982346 C186.724888,159.062713 185.831411,157.860294 185.380388,156.107777 Z" id="Combined-Shape" fill="url(#linearGradient-26)"></path>
                            <g id="Group-57" transform="translate(21.683168, 10.990415)"></g>
                            <g id="Group-23" transform="translate(94.214004, 315.767769)">
                                <mask id="mask-28" fill="white">
                                    <use xlink:href="#path-27"></use>
                                </mask>
                                <use id="Path-85" fill="#FED2F5" fill-rule="nonzero" xlink:href="#path-27"></use>
                                <path d="M19.8977,8.66949436 C18.3338384,9.72822385 11.7737705,12.0242182 14.481747,14.3579518 C17.1897235,16.6916854 31.1013839,15.0491596 33.0720804,8.66949436 C35.4598067,15.1060587 34.8777828,18.9802771 31.3260087,20.2921495 C25.9983475,22.2599581 0.977251232,29.0850891 -1.44327678,22.2798909 C-3.05696212,17.743092 4.05669681,13.2062932 19.8977,8.66949436 Z" id="Path-34" fill="#0C1642" fill-rule="nonzero" mask="url(#mask-28)"></path>
                            </g>
                            <g id="Group-24" transform="translate(184.256300, 308.950641)">
                                <mask id="mask-30" fill="white">
                                    <use xlink:href="#path-29"></use>
                                </mask>
                                <use id="Path-86" fill="#FED2F5" fill-rule="nonzero" xlink:href="#path-29"></use>
                                <path d="M18.4747046,10.9714922 C19.9492561,12.6028997 24.7370279,15.7045964 22.9646383,18.5588323 C21.1922488,21.4130682 5.56262326,18.137162 3.19835285,13.2271199 C4.69076057,19.2184256 5.98623289,22.7545633 7.08476982,23.8355329 C8.7325752,25.4569873 37.5958784,34.0516064 41.3586692,28.261739 C43.8671963,24.4018274 36.2392081,18.6384118 18.4747046,10.9714922 Z" id="Path-35" fill="#0C1642" fill-rule="nonzero" mask="url(#mask-30)"></path>
                            </g>
                            <g id="Group-35" transform="translate(87.494430, 119.650911)">
                                <mask id="mask-33" fill="white">
                                    <use xlink:href="#path-32"></use>
                                </mask>
                                <use id="Path-31" fill="url(#linearGradient-31)" fill-rule="nonzero" xlink:href="#path-32"></use>
                                <path d="M52.5055703,14.349089 C50.5055703,27.6824223 57.5055703,35.6824223 73.5055703,38.349089 L72.0191437,12.7996493 L52.5055703,14.349089 Z" id="Path-94" fill-opacity="0.200000018" fill="#000000" fill-rule="nonzero" mask="url(#mask-33)"></path>
                                <path d="M-1.82776302,4.349089 C-1.16109636,18.6824223 6.28334809,26.6824223 20.5055703,28.349089 L16.172237,-2.650911 L-1.82776302,4.349089 Z" id="Path-94-Copy" fill-opacity="0.200000018" fill="#000000" fill-rule="nonzero" mask="url(#mask-33)" transform="translate(9.338904, 12.849089) scale(-1, 1) translate(-9.338904, -12.849089) "></path>
                                <path d="M29.4388315,35.2166901 L43.9772035,71.8901759 L42.0055703,129.849089 C35.3201493,117.783425 31.1312363,101.847041 29.4388315,82.039935 C27.7464266,62.2328293 27.7464266,46.625081 29.4388315,35.2166901 Z" id="Path-95" fill-opacity="0.200000018" fill="#000000" fill-rule="nonzero" mask="url(#mask-33)"></path>
                                <path d="M21.2187693,194.208071 C29.385621,197.882322 36.5401098,197.882322 42.6822356,194.208071" id="Path-103" stroke="#FFFFFF" stroke-width="1.02910506" stroke-dasharray="5.50000011920929" fill-rule="nonzero" mask="url(#mask-33)"></path>
                                <path d="M92.0586161,192.97308 C101.87371,193.755694 108.396935,190.646736 111.628292,183.646208" id="Path-107" stroke="#FFFFFF" stroke-width="1.02910506" stroke-dasharray="5.50000011920929" fill-rule="nonzero" mask="url(#mask-33)"></path>
                                <path d="M52.0055703,15.849089 C53.672237,31.5157557 60.8389036,38.849089 73.5055703,37.849089" id="Path-33" stroke="#FFFFFF" stroke-width="1.02910506" opacity="0.5" stroke-dasharray="5.50000011920929" mask="url(#mask-33)"></path>
                                <path d="M19.5055703,11.849089 C15.172237,22.849089 9.17223698,27.849089 1.50557031,26.849089" id="Path-59" stroke="#FFFFFF" stroke-width="1.02910506" opacity="0.5" stroke-dasharray="5.50000011920929" mask="url(#mask-33)"></path>
                            </g>
                            <g id="Group-32" transform="translate(104.166514, 15.885948)">
                                <mask id="mask-35" fill="white">
                                    <use xlink:href="#path-34"></use>
                                </mask>
                                <use id="Path-75" fill="#FED2F5" fill-rule="nonzero" transform="translate(18.837412, 26.304197) rotate(7.000000) translate(-18.837412, -26.304197) " xlink:href="#path-34"></use>
                                <path d="M17.7321384,10.5120455 C18.2888061,10.5120455 18.7400745,10.0580149 18.7400745,9.49793981 C18.7400745,8.9378647 18.2888061,8.48383411 17.7321384,8.48383411 C17.1754706,8.48383411 16.7242022,8.9378647 16.7242022,9.49793981 C16.7242022,10.0580149 17.1754706,10.5120455 17.7321384,10.5120455 Z" id="Oval-2" fill="#902E7C" fill-rule="nonzero" mask="url(#mask-35)"></path>
                                <path d="M9.17883923,10.5120455 C9.735507,10.5120455 10.1867754,10.0580149 10.1867754,9.49793981 C10.1867754,8.9378647 9.735507,8.48383411 9.17883923,8.48383411 C8.62217147,8.48383411 8.17090308,8.9378647 8.17090308,9.49793981 C8.17090308,10.0580149 8.62217147,10.5120455 9.17883923,10.5120455 Z" id="Oval-2" fill="#902E7C" fill-rule="nonzero" mask="url(#mask-35)"></path>
                                <path d="M11.7689323,12.233732 C10.4305944,15.5262459 11.0175304,16.8333754 13.5297401,16.1551207" id="Path-65" stroke="#91357F" stroke-width="0.941287898" opacity="0.273883929" stroke-linecap="round" stroke-linejoin="round" fill-rule="nonzero" mask="url(#mask-35)"></path>
                                <path d="M12.5759132,21.0984442 C13.7945519,21.9649533 15.5498352,21.2435828 15.5498352,19.6383367" id="Path-66" stroke="#902E7C" stroke-width="0.840435674" stroke-linecap="round" stroke-linejoin="round" fill-rule="nonzero" mask="url(#mask-35)" transform="translate(14.062874, 20.553602) rotate(20.000000) translate(-14.062874, -20.553602) "></path>
                                <path d="M12.5775322,28.1618701 C15.717705,27.8681556 18.5367576,26.1655542 21.0346898,23.0540657 C19.521818,29.3942143 16.3693904,33.4770809 11.577407,35.3026654 L12.5775322,28.1618701 Z" id="Path-92" fill="#000000" fill-rule="nonzero" opacity="0.05" mask="url(#mask-35)"></path>
                            </g>
                        </g>
                        <g id="Group-69" transform="translate(108.500000, 219.500000) rotate(3.000000) translate(-108.500000, -219.500000) translate(17.000000, 37.000000)">
                            <g id="Group-26" transform="translate(35.137286, 9.359617)" fill="#FFFFFF" fill-rule="nonzero" opacity="0.200000003">
                                <path d="M2.02568257,6.11210773 C4.21011947,10.4086982 12.7851056,12.668201 18.4874595,3.32788605 C21.1319139,-1.00366497 28.011171,0.97700198 32.4921417,0.97700198 C36.6760225,11.3640352 33.9379948,17.9744265 24.2780586,20.8081756 C19.6267526,22.1726396 14.103437,22.1888528 10.6393805,19.7075648 C3.31209211,14.4590612 0.542456958,3.19473668 2.02568257,6.11210773 Z" id="Path-28"></path>
                            </g>
                            <g id="Group-56" transform="translate(33.650757, 0.042471)">
                                <g id="Group-53" transform="translate(0.985291, 0.175627)">
                                    <mask id="mask-37" fill="white">
                                        <use xlink:href="#path-36"></use>
                                    </mask>
                                    <use id="Path-11" fill="#30007D" fill-rule="nonzero" xlink:href="#path-36"></use>
                                    <path d="M27.6173956,30.4621143 C27.019263,24.7667166 24.7846668,22.4802765 20.9136071,23.6027941 C15.1070175,25.2865704 6.20663423,30.3316748 0.736778981,21.7848456 C2.01033501,29.6102286 5.11206155,35.4432176 10.0419586,39.2838127 C17.1939282,39.0843252 22.3775711,37.9540358 25.5928872,35.8929444 L27.6173956,30.4621143 Z" id="Path-39" fill="#000000" fill-rule="nonzero" opacity="0.254464286" mask="url(#mask-37)"></path>
                                </g>
                                <g id="Group-32" transform="translate(8.476571, 14.849033)">
                                    <mask id="mask-39" fill="white">
                                        <use xlink:href="#path-38"></use>
                                    </mask>
                                    <use id="Combined-Shape" fill="#FED2F5" fill-rule="nonzero" xlink:href="#path-38"></use>
                                    <path d="M27.2512656,10.8123031 C27.9790141,10.8123031 28.5689708,10.2211355 28.5689708,9.49189325 C28.5689708,8.76265099 27.9790141,8.17148335 27.2512656,8.17148335 C26.5235171,8.17148335 25.9335604,8.76265099 25.9335604,9.49189325 C25.9335604,10.2211355 26.5235171,10.8123031 27.2512656,10.8123031 Z" id="Oval-2" fill="#902E7C" fill-rule="nonzero" mask="url(#mask-39)"></path>
                                    <path d="M18.8301099,28.1532986 C15.3504538,27.5858721 13.0430704,27.1549045 11.9079597,26.8603958 C13.004496,29.7462843 14.9148145,31.7328681 17.6389152,32.8201473 L18.8301099,28.1532986 Z" id="Path-41" fill="#000000" fill-rule="nonzero" opacity="0.1" mask="url(#mask-39)"></path>
                                    <path d="M26.0811985,20.5363436 C26.5635561,22.7129461 27.5386674,23.7628886 29.0065325,23.6861713" id="Path-29" stroke="#902E7C" stroke-width="0.970299076" stroke-linecap="round" stroke-linejoin="round" mask="url(#mask-39)"></path>
                                </g>
                            </g>
                            <g id="Group-31" transform="translate(34.953506, 336.652907)">
                                <mask id="mask-41" fill="white">
                                    <use xlink:href="#path-40"></use>
                                </mask>
                                <use id="Path-145" fill="#0C1642" fill-rule="nonzero" transform="translate(20.904491, 13.574622) rotate(11.000000) translate(-20.904491, -13.574622) " xlink:href="#path-40"></use>
                            </g>
                            <g id="Group-30" transform="translate(118.649264, 345.087500) rotate(-3.000000) translate(-118.649264, -345.087500) translate(96.149264, 335.087500)">
                                <mask id="mask-43" fill="white">
                                    <use xlink:href="#path-42"></use>
                                </mask>
                                <use id="Path-144" fill="#0C1642" fill-rule="nonzero" xlink:href="#path-42"></use>
                            </g>
                            <path d="M24.1686522,184.700571 C25.6166187,186.453488 29.6373273,187.357021 30.3449063,186.706375 C30.7075167,186.372941 30.6190001,184.683944 30.0793566,181.639385 L27.531385,175.167115 L21.1567747,179.903907 C22.6353815,182.460895 23.6393407,184.059783 24.1686522,184.700571 Z" id="Path-51" fill="#FED2F5"></path>
                            <g id="Group-29" transform="translate(25.307624, 153.258885)">
                                <mask id="mask-46" fill="white">
                                    <use xlink:href="#path-45"></use>
                                </mask>
                                <use id="Combined-Shape" fill="url(#linearGradient-44)" fill-rule="nonzero" xlink:href="#path-45"></use>
                                <path d="M45.3075248,23.635849 L22.4876535,65.5525661 L20.9592265,94.7765518 C29.7542877,79.0510968 35.9023866,65.9732336 39.403523,55.5429624 C42.9046595,45.1126913 44.8726601,34.4769868 45.3075248,23.635849 Z" id="Path-155" fill-opacity="0.200000018" fill="#000000" fill-rule="nonzero" mask="url(#mask-46)" transform="translate(33.133376, 59.206200) scale(-1, 1) translate(-33.133376, -59.206200) "></path>
                                <path d="M0.151815709,14.1903103 C26.4115642,18.5495545 48.2195162,16.6698862 65.5756717,8.55130565 L61.9344532,2.16081744 L0.151815709,6.68570776 L0.151815709,14.1903103 Z" id="Path-36" fill-opacity="0.200000018" fill="#000000" fill-rule="nonzero" mask="url(#mask-46)"></path>
                                <path d="M41.3870233,2.93335617 C65.0086518,62.9345592 76.819466,96.255485 76.819466,102.896133 C76.819466,109.536782 76.6566362,137.904737 76.3309766,188" id="Path-37" stroke="#FFFFFF" stroke-width="1.02910506" opacity="0.5" stroke-dasharray="5.50000011920929" fill-rule="nonzero" mask="url(#mask-46)"></path>
                                <path d="M19.6153362,191.401003 C32.0694544,123.322573 34.200862,71.6401945 26.0095592,36.3538688" id="Path-64" stroke="#FFFFFF" stroke-width="1.02910506" opacity="0.5" stroke-dasharray="5.50000011920929" mask="url(#mask-46)"></path>
                            </g>
                            <path d="M157.199907,54.1812387 C162.661398,44.4117316 166.05322,39.9830653 167.375372,40.8952399 C168.697525,41.8074144 168.308205,43.9091269 166.207411,47.2003773 C175.239024,40.9582012 180.658908,38.4241985 182.467063,39.5983694 C185.179296,41.3596257 175.286003,46.5472035 176.07106,48.8541284 C176.923582,51.3593025 177.787516,54.9069994 175.872311,57.1476305 C173.419746,60.0169291 168.986593,61.9852847 162.572853,63.0526973 L157.199907,54.1812387 Z" id="Path-30" fill="#FED2F5" fill-rule="nonzero"></path>
                            <g id="Group-28" transform="translate(0.687593, 46.249238)">
                                <mask id="mask-49" fill="white">
                                    <use xlink:href="#path-48"></use>
                                </mask>
                                <use id="Path-141" fill="url(#linearGradient-47)" fill-rule="nonzero" xlink:href="#path-48"></use>
                                <path d="M87.1239927,42.8658689 C84.7179357,41.6040628 80.4585105,39.3842815 74.3457172,36.2065251 C78.994134,51.1120665 79.7403487,65.5007765 76.5843615,79.3726551 C71.8503807,100.180473 74.6678901,106.600142 87.1239927,113.514799 C90.6718903,113.021789 92.4458391,111.048246 92.4458391,107.594171 C92.4458391,102.413057 85.7483894,92.9044648 87.1239927,86.0799005 C88.4995959,79.2553362 90.7330781,44.7585781 87.1239927,42.8658689 Z" id="Path-31" fill="#000000" fill-rule="nonzero" opacity="0.195647321" mask="url(#mask-49)"></path>
                                <path d="M24.8805592,115.656017 C20.3636631,108.126519 17.9489615,102.475217 17.6364543,98.7021112 C16.8022143,88.6297814 21.7909807,78.5881468 20.3955249,70.6281382 C17.1261777,51.979013 16.1952962,36.2666625 17.0438791,29.6830576 C10.2316792,38.3447946 9.55813455,52.6046976 15.0232451,72.4627666 C17.6337175,81.9481993 14.1932299,94.4013463 15.7312811,100.43656 C16.363352,102.916766 19.4131114,107.989918 24.8805592,115.656017 Z" id="Path-32" fill="#000000" fill-rule="nonzero" opacity="0.195647321" mask="url(#mask-49)"></path>
                                <path d="M151.651103,7.09484577 C157.194929,9.63800303 160.142683,14.2717018 160.494363,20.995942 L166.48891,16.5789117 C164.828352,9.10533126 161.706659,4.81457849 157.123832,3.70665341 L151.651103,7.09484577 Z" id="Path-35" fill="#FFFFFF" fill-rule="nonzero" mask="url(#mask-49)"></path>
                                <path d="M16.9933986,130.53361 C19.5145929,130.362418 21.3398083,130.083539 22.4690449,129.696974 C23.5982815,129.310409 25.5685163,128.290014 28.3797493,126.635788 L29.218677,132.096473 L16.7314275,136.051833 L15.400895,131.739671 L16.9933986,130.53361 Z" id="Path-50" fill="#FFFFFF" mask="url(#mask-49)"></path>
                            </g>
                        </g>
                    </g>
                </g>
            </g>
        </g>
    </g>
</svg>