<?xml version="1.0" encoding="UTF-8"?>
<svg width="526px" height="420px" viewBox="0 0 526 420" version="1.1" xmlns="http://www.w3.org/2000/svg" xmlns:xlink="http://www.w3.org/1999/xlink">
    <!-- Generator: Sketch 52.2 (67145) - http://www.bohemiancoding.com/sketch -->
    <title>img_long_term</title>
    <desc>Created with Sketch.</desc>
    <defs>
        <path d="M228.950116,379 C353.241735,379 454,278.331523 454,154.150664 C454,29.9698049 331.421571,-71.5305511 242.309475,65.6132439 C153.197379,202.757039 0,78.5761798 0,202.757039 C0,326.937898 104.658498,379 228.950116,379 Z" id="path-1"></path>
        <linearGradient x1="27.3996788%" y1="88.8580026%" x2="0%" y2="-280.99014%" id="linearGradient-3">
            <stop stop-color="#FFFFFF" stop-opacity="0" offset="0%"></stop>
            <stop stop-color="#5818BE" offset="100%"></stop>
        </linearGradient>
        <path d="M0.996323529,0.376811594 L47.1139706,0.376811594 L41.890308,31.9589159 C41.7555039,32.7739383 41.1334765,33.4222145 40.3247185,33.5905715 C34.8517312,34.7298684 29.4101584,35.2995169 24,35.2995169 C18.5939805,35.2995169 13.187961,34.7307397 7.7819415,33.5931852 L7.78193717,33.5932058 C6.97507894,33.4234238 6.35510568,32.7758888 6.22055741,31.962413 L0.996323529,0.376811594 Z" id="path-4"></path>
        <linearGradient x1="83.3300201%" y1="-6.26190746%" x2="25.2097224%" y2="111.166943%" id="linearGradient-6">
            <stop stop-color="#7F14F4" offset="0%"></stop>
            <stop stop-color="#4D35E2" offset="100%"></stop>
        </linearGradient>
        <path d="M57.993405,88.6711852 C22.6915985,97.3102742 3.82567723,109.584276 1.39564138,125.493189 C-5.09042369,167.956039 10.135215,197.57209 65.9857721,203.374757 C121.836329,209.177423 160.173224,194.0348 177.609374,154.252049 C192.807976,119.574541 191.468089,61.3768453 158.002252,26.3666305 C124.536416,-8.6435844 75.7741469,-5.77017056 57.993405,17.362137 C46.1395771,32.7836753 46.1395771,56.5533581 57.993405,88.6711852 Z" id="path-7"></path>
        <linearGradient x1="94.6335923%" y1="-37.6392172%" x2="75.7373278%" y2="100%" id="linearGradient-9">
            <stop stop-color="#000000" stop-opacity="0" offset="0%"></stop>
            <stop stop-color="#000000" stop-opacity="0.0102063217" offset="8.73350187%"></stop>
            <stop stop-color="#000000" stop-opacity="0.2" offset="100%"></stop>
        </linearGradient>
        <path d="M34.9246683,36.6444159 C41.699686,33.2733998 43.3934405,27.0869267 40.0059316,18.0849966 C34.9246683,4.58210139 26.8746872,-2.07122151 12.972998,1.97293951 C-0.928691168,6.01710054 -0.928691168,26.2388554 0.892998594,33.8311424 C2.10745844,38.8926671 7.50076597,41.4012343 17.0729212,41.3568441 L34.9246683,36.6444159 Z" id="path-10"></path>
        <path d="M18.3371731,0.330567851 C18.939432,3.66208057 17.9749523,7.4939084 15.4437342,11.8260513 C11.646907,18.3242657 0.705192774,18.1265607 0.705192774,23.4442392 C0.705192774,28.7619176 10.392039,29.9195975 18.3371731,24.5530674 C26.2823073,19.1865373 31.4678672,19.8164442 31.4678672,15.5561436 C31.4678672,12.7159432 31.6843816,8.18230067 32.1174104,1.9552161 L18.3371731,0.330567851 Z" id="path-12"></path>
        <linearGradient x1="146.070261%" y1="-170.101001%" x2="19.4290097%" y2="130.745889%" id="linearGradient-14">
            <stop stop-color="#00D3E9" offset="0%"></stop>
            <stop stop-color="#00A7CE" offset="100%"></stop>
        </linearGradient>
        <path d="M103.609525,1.66929854 C41.5896463,-2.01649823 9.31658183,1.35145474 6.79033174,11.7731575 C4.26408166,22.1948602 2.1780627,51.3357797 0.532274882,99.1959161 C2.19579606,101.392643 4.5229116,102.713618 7.51362151,103.15884 C10.5043314,103.604063 13.4781394,103.072228 16.4350456,101.563336 C30.0181123,60.8707914 35.0386723,32.9973784 31.4967257,17.9430972 L103.609525,1.66929854 Z" id="path-15"></path>
        <path d="M10.8127947,3.47852216 C11.651996,5.59821745 12.0715967,8.04008397 12.0715967,10.8041217 C12.0715967,14.9501783 7.20708996,20.3599739 1.91321415,25.8549028 C-3.38066167,31.3498317 4.02134489,35.4936426 14.965909,28.8018507 C25.9104732,22.1100588 26.85333,14.5415856 25.7717854,10.8041217 C25.0507557,8.31247909 23.8707468,4.77934169 22.2317587,0.204709506 L10.8127947,3.47852216 Z" id="path-17"></path>
        <linearGradient x1="100%" y1="-19.5838075%" x2="21.819514%" y2="116.054626%" id="linearGradient-19">
            <stop stop-color="#00D3E9" offset="0%"></stop>
            <stop stop-color="#00A7CE" offset="100%"></stop>
        </linearGradient>
        <path d="M99.4660221,0.130063934 C110.403263,28.2352176 109.366294,45.4307982 96.3551145,51.7168057 C81.577709,58.8561188 61.851094,58.0626377 37.1752693,49.3363623 C48.116772,64.2100228 55.4411461,87.8583521 59.1483915,120.28135 C59.1483915,123.203267 51.8068658,127.005538 45.2869242,122.96487 C12.2733845,64.3621649 -2.62419047,30.6043748 0.594199303,21.6915 C3.81258908,12.7786253 36.7698633,5.5914799 99.4660221,0.130063934 Z" id="path-20"></path>
        <path d="M40.4865029,62.8373326 C60.2461085,68.5584838 73.8460345,70.61246 81.286281,68.9992612 C92.4466507,66.579463 84.9827736,16.4556823 73.9935238,8.29084244 C63.004274,0.126002578 42.7982925,-1.01721535 30.1438162,1.55716311 C20.6028499,3.49814096 1.87395947,11.1232519 0.905205034,58.602899 L40.4865029,62.8373326 Z" id="path-22"></path>
        <path d="M1.66948313,1.39711688 C0.665287633,7.39608841 0.282567996,11.9681314 0.52132422,15.1132458 C1.28676349,22.7833853 3.30834113,25.9469438 6.58605713,24.6039213 C11.5026311,22.5893876 21.9597544,9.40210953 18.0796785,0.0641921434 L1.66948313,1.39711688 Z" id="path-24"></path>
        <path d="M0.00732012792,0.370758548 C0.257287841,15.3476341 4.46251301,23.2417218 12.6229956,24.0530216 C12.9513134,27.8111695 12.9513134,32.1302918 12.6229956,37.0103883 C12.0143077,46.0578918 23.6342923,52.1636241 30.1930477,33.3854644 C31.4094575,29.9028007 29.5565391,22.0774655 24.6342923,9.90945856 C28.1912027,9.39919545 29.8332269,7.66992837 29.5603647,4.72165731 C29.1510714,0.299250716 25.3147294,-1.09456834 21.9946977,4.09850144 C11.5735856,5.88033909 4.24445977,4.63775813 0.00732012792,0.370758548 Z" id="path-26"></path>
        <path d="M2.35237763,0.0108613418 L56.0098822,0.0108613418 C58.0560096,0.0108613418 59.862503,1.34630126 60.4625458,3.30246743 L72.2572028,41.7535746 C72.6343661,42.9831437 71.9433546,44.2856576 70.7137855,44.6628209 C70.4944701,44.7300947 70.266418,44.7645931 70.0370174,44.7651986 L16.6728232,44.9060475 C14.6320835,44.9114338 12.8255225,43.58765 12.215817,41.6401113 L0.13002088,3.0353203 C-0.254226474,1.80794656 0.429262507,0.501469531 1.65663625,0.117222177 C1.88182202,0.0467244662 2.11641458,0.0108613418 2.35237763,0.0108613418 Z" id="path-28"></path>
        <path d="M0,19.5505051 C10.5936073,40.8299663 11.652968,56.523569 3.17808219,66.6313131 C2.40195665,67.8622722 2.13711646,68.5272554 2.38356164,68.6262626 C3.70776256,69.1582492 6.62100457,68.0942761 11.1232877,65.4343434 L9.13940787,73.7364992 C9.03672,74.1662282 9.30183922,74.5978374 9.73156822,74.7005252 C9.91498592,74.7443546 10.1079908,74.7219799 10.2765165,74.6373502 L16.6849315,71.4191919 L16.6849315,77.2870481 C16.6849315,77.7288759 17.0431037,78.0870481 17.4849315,78.0870481 C17.6127379,78.0870481 17.7386842,78.0564271 17.8522243,77.9977492 L57.6027397,57.4545455 C53.630137,27.6632997 51.1141553,11.3047138 50.0547945,8.37878788 L44.4931507,0.797979798 C43.43379,0.531986532 42.6392694,0.398989899 42.109589,0.398989899 C41.5799087,0.398989899 40.652968,0.531986532 39.3287671,0.797979798 L0,19.5505051 Z" id="path-30"></path>
        <linearGradient x1="59.9014233%" y1="6.39761353%" x2="25.2097224%" y2="111.166943%" id="linearGradient-32">
            <stop stop-color="#7F14F4" offset="0%"></stop>
            <stop stop-color="#4D35E2" offset="100%"></stop>
        </linearGradient>
        <path d="M27.2053815,34.722809 C31.660351,30.7266998 31.1584253,26.3389314 30.7680959,18.8757161 C46.6744564,23.0797627 45.7802162,4.63902089 32.420906,2.79319881 C30.6675973,1.1187126 27.0744813,0.42344424 21.641558,0.707393739 C13.4921731,1.13331799 9.24433498,2.90360641 4.69415991,10.8477638 C-2.33393586,15.7255718 -0.565302666,24.951505 10.0000595,38.5255637 C17.0621652,39.9444691 22.7972725,38.6768842 27.2053815,34.722809 Z" id="path-33"></path>
        <path d="M31.6168128,8.28097906 C32.0404683,9.90312749 33.7417043,14.5702155 34.1027953,15.6302462 C34.3577561,16.3787173 33.4598196,16.9776425 31.408986,17.4270218 C30.1164916,25.6416664 25.4139955,29.1439982 17.3014977,27.9340171 L17.3014977,35.2773663 L0.128130401,35.2773663 L1.69996996,22.8523196 C8.36140773,23.7848833 13.561917,22.7169026 17.3014977,19.6483777 C15.5471335,19.3221769 14.2371999,18.674115 13.3716968,17.7041921 C12.0734422,16.2493078 12.0734422,14.6856097 12.4532736,13.7082524 C13.6265004,10.6893817 18.6098492,10.9296185 20.1067282,15.6225432 C21.4518238,10.6121684 21.4177678,6.22521157 20.0045602,2.46167258 C24.5877447,2.22098503 28.0984711,1.4310026 30.5367394,0.0917252938 C31.0666535,3.05624866 31.426678,5.78599991 31.6168128,8.28097906 Z" id="path-35"></path>
        <path d="M1.49960283,4.08323376 L2.26024136,18.6269334 C2.39534048,21.2100695 4.59890551,23.1945956 7.18204162,23.0594965 C7.53335149,23.0411228 7.8814729,22.983227 8.21981913,22.8869044 C16.1701878,20.6235412 21.8259114,19.0419809 25.1869899,18.1422234 C38.0076415,14.7101471 41.0357987,12.3670174 40.1730826,8.29639202 C39.1859252,3.63860475 26.9456694,8.50860082 16.3091092,5.33268074 L1.49960283,4.08323376 Z" id="path-37"></path>
        <path d="M0.666991708,0.0356372183 L1.08425026,15.4409219 C1.12758857,17.0409641 2.37384775,18.3491032 3.96991459,18.4698668 C30.7979511,20.499763 44.2119694,19.5274594 44.2119694,15.5529562 C44.2119694,9.3865973 18.3645139,10.1439452 13.3860646,0.742723699 L0.666991708,0.0356372183 Z" id="path-39"></path>
        <linearGradient x1="72.7340779%" y1="6.81203417%" x2="25.2097224%" y2="111.166943%" id="linearGradient-41">
            <stop stop-color="#7F14F4" offset="0%"></stop>
            <stop stop-color="#4D35E2" offset="100%"></stop>
        </linearGradient>
        <path d="M41.2700133,2.96104333 L60.1826461,0.115653834 C81.3919395,53.2364966 91.9965862,84.9606617 91.9965862,95.288149 C91.9965862,105.615636 90.4880168,135.526577 87.470878,185.020972 C85.636489,187.107545 82.7231755,188.150832 78.7309377,188.150832 C74.7386998,188.150832 71.8253863,187.107545 69.9909973,185.020972 L60.1826461,95.288149 L43.3340869,64.782369 C43.8908751,82.8220036 44.1692692,94.1027561 44.1692692,98.6246263 C44.1692692,107.12139 39.4074162,136.975679 29.8837104,188.187493 C28.4644461,190.725776 25.6046747,191.994917 21.3043963,191.994917 C17.0041178,191.994917 13.9350004,190.725776 12.0970441,188.187493 L12.199212,101.636357 L0.237865192,1.54192193 L41.220423,1.54192193 C41.2370223,2.01666617 41.2535516,2.48970901 41.2700107,2.96105045 Z" id="path-42"></path>
        <linearGradient x1="82.7036561%" y1="0%" x2="17.640099%" y2="100%" id="linearGradient-44">
            <stop stop-color="#00D3E9" offset="0%"></stop>
            <stop stop-color="#00A7CE" offset="100%"></stop>
        </linearGradient>
        <path d="M4.65975074,95.3987667 C2.21694497,80.8283025 0.995542081,68.6178525 0.995542081,58.7674168 C0.995542081,43.9917632 9.17745207,0.124081223 47.6735661,0.124081223 C67.0272689,0.124081223 91.0252194,8.57831769 119.667418,25.4867906 L157.607353,4.64373815 C162.113438,7.21923296 164.50453,11.1465438 164.780631,16.4256706 C139.38294,40.6439126 123.342808,52.7530335 116.660235,52.7530335 C109.977662,52.7530335 99.409409,49.0713595 84.9554765,41.7080113 C84.3986853,71.7634944 85.1453549,90.0804116 87.1954854,96.658763 C90.2706812,106.52629 95.2667906,109.942911 87.1954854,113.298689 C79.1241802,116.654467 34.7143519,120.936084 25.5124852,115.184811 C27.4358118,124.345176 27.9786961,129.909228 27.1411378,131.876966 C22.3682269,133.397158 19.6034082,134.201476 18.8466817,134.289921 C15.1801027,128.082934 12.7186746,123.257501 11.4623973,119.813622 C9.56602329,114.615022 7.29847445,106.476737 4.65975074,95.3987667 Z" id="path-45"></path>
        <path d="M0,19.5505051 C10.5936073,40.8299663 11.652968,56.523569 3.17808219,66.6313131 C2.40195665,67.8622722 2.13711646,68.5272554 2.38356164,68.6262626 C3.70776256,69.1582492 6.62100457,68.0942761 11.1232877,65.4343434 L9.13940787,73.7364992 C9.03672,74.1662282 9.30183922,74.5978374 9.73156822,74.7005252 C9.91498592,74.7443546 10.1079908,74.7219799 10.2765165,74.6373502 L16.6849315,71.4191919 L16.6849315,77.2870481 C16.6849315,77.7288759 17.0431037,78.0870481 17.4849315,78.0870481 C17.6127379,78.0870481 17.7386842,78.0564271 17.8522243,77.9977492 L57.6027397,57.4545455 C53.630137,27.6632997 51.1141553,11.3047138 50.0547945,8.37878788 L44.4931507,0.797979798 C43.43379,0.531986532 42.6392694,0.398989899 42.109589,0.398989899 C41.5799087,0.398989899 40.652968,0.531986532 39.3287671,0.797979798 L0,19.5505051 Z" id="path-47"></path>
    </defs>
    <g id="Page-1" stroke="none" stroke-width="1" fill="none" fill-rule="evenodd">
        <g id="01---Landing-Page" transform="translate(-169.000000, -4731.000000)">
            <g id="section---illustration" transform="translate(169.000000, 3081.000000)">
                <g id="section" transform="translate(0.000000, 1650.000000)">
                    <g id="Illustration/img_long_term">
                        <rect id="Rectangle-7" x="0" y="0" width="526" height="420"></rect>
                        <path d="M238.348652,384.33076 C242.885735,373.513162 291.140586,365 350,365 C411.855892,365 462,374.40202 462,386 C462,397.59798 411.855892,407 350,407 C311.11685,407 276.861597,403.284802 256.780602,397.644349 C251.380782,401.928375 236.728479,405 219.5,405 C197.684752,405 180,400.075132 180,394 C180,387.924868 197.684752,383 219.5,383 C226.325633,383 232.746907,383.482126 238.348652,384.33076 Z" id="Combined-Shape" fill="#3C11CA" opacity="0.0600000024"></path>
                        <g id="Group-37" transform="translate(36.000000, 11.000000)">
                            <mask id="mask-2" fill="white">
                                <use xlink:href="#path-1"></use>
                            </mask>
                            <use id="Oval-9" fill="#F0EDFC" transform="translate(227.000000, 189.500000) scale(-1, 1) translate(-227.000000, -189.500000) " xlink:href="#path-1"></use>
                            <path d="M97.9809857,345.81104 C59.821738,275.13685 98.9368236,218.541946 165.949586,224.419976 C306.62026,236.758917 327.226806,284.770034 424.906075,250.040533 C433.024998,246.866749 438.391521,244.34412 441.005642,242.472645 C450.534592,235.650778 453.383406,229.653337 453.383406,229.653337 C451.444808,247.357833 449.007631,259.679158 446.071874,266.617311 C428.384226,308.419004 405.976411,330.848129 391.18591,339.162109 C311.661022,383.864335 222.271425,385.1687 203.928164,383.39972 C139.09667,377.147525 101.667418,352.638629 97.9809857,345.81104 Z" id="Path-16" fill="url(#linearGradient-3)" mask="url(#mask-2)"></path>
                        </g>
                        <g id="Group-54" transform="translate(175.000000, 249.000000)">
                            <g id="Group-51-Copy" transform="translate(67.221282, 91.585609) rotate(-104.000000) translate(-67.221282, -91.585609) translate(47.221282, 68.085609)">
                                <path d="M28.4864692,44.9417151 C26.0159242,42.9561312 24.3121896,39.9066269 23.3752652,35.7932022 C21.9698787,29.6230651 6.9768076,22.6381599 4.17515365,19.5168352 C2.60987698,17.7729593 -0.82760376,13.6254738 0.722599038,6.99208031 C1.94263331,1.77149408 6.79558833,0.0591439012 11.9713085,0.489691029 C17.1470286,0.920238156 20.1214467,3.10543809 22.8169759,10.1430338 C25.512505,17.1806296 26.5300919,18.2694203 30.4836166,19.5168352 C34.4371414,20.76425 34.4371414,26.0580874 34.4371414,29.0312158 C34.4371414,32.0043441 37.6045166,36.2320623 38.399889,37.472138 C39.1952613,38.7122136 39.473847,41.8314157 38.399889,43.9566653 C37.325931,46.0819148 35.434787,46.4263666 33.8750249,46.4263666 C32.8351835,46.4263666 31.0389983,45.9314828 28.4864692,44.9417151 Z" id="Path-22" fill="#2CAF78"></path>
                                <path d="M5.58823529,0.700483092 C17.8751941,11.8414797 26.6562889,24.1034771 31.9315198,37.4864751" id="Path-25" stroke-opacity="0.2" stroke="#000000" stroke-width="0.550000012"></path>
                                <path d="M18.6398739,15.3239682 C18.9994201,21.2772262 18.142261,25.2833495 16.0683967,27.3423383" id="Path-46" stroke-opacity="0.2" stroke="#000000" stroke-width="0.550000012" transform="translate(17.393979, 21.333153) rotate(7.000000) translate(-17.393979, -21.333153) "></path>
                                <path d="M22.3355714,20.8090839 C22.6947533,25.9599911 22.3364152,29.079583 21.260557,30.1678596" id="Path-47" stroke-opacity="0.2" stroke="#000000" stroke-width="0.550000012" transform="translate(21.865490, 25.488472) rotate(7.000000) translate(-21.865490, -25.488472) "></path>
                            </g>
                            <g id="Group-52" transform="translate(31.433824, 0.000000)">
                                <path d="M4.24844146,114.541069 C-0.75577509,106.194257 -0.75577509,99.0742684 4.24844146,93.1811019 C11.7547663,84.3413522 9.42913432,82.9239822 7.61434277,76.2506754 C5.79955123,69.5773686 8.31038005,60.1314567 12.7606124,56.3750464 C17.2108448,52.6186361 17.6239812,49.8657439 16.6105041,41.6117531 C15.9348526,36.1090926 19.0391376,30.8556872 25.9233589,25.8515371 C28.4812327,21.8201215 29.7601697,17.078295 29.7601697,11.6260574 C29.7601697,3.44770106 37.6302302,-0.378482674 41.6038187,0.654384346 C45.5774073,1.68725137 53.2775319,15.0798129 48.0951832,25.8515371 C42.9128345,36.6232613 39.8342665,38.3865008 38.8065888,39.6572599 C37.7789112,40.928019 35.3410827,44.8255713 37.0738357,52.081907 C38.8065888,59.3382428 31.6669908,62.530025 27.84142,67.2514457 C24.0158492,71.9728664 24.3571029,78.0284288 27.0586363,85.6047654 C29.7601697,93.1811019 26.7501244,110.144358 22.6269125,113.374691 C19.8781046,115.528247 13.7519475,115.917039 4.24844146,114.541069 Z" id="Path-26" fill="#6CE1B0"></path>
                                <path d="M12.927131,114.127871 C13.6793369,74.5251839 21.9026169,42.2365905 37.5969711,17.2620902" id="Path-27" stroke="#07946A" stroke-width="0.550000012"></path>
                                <path d="M15.6152855,80.6335941 C19.8439512,77.4517119 22.5083441,75.6505774 23.6084641,75.2301906" id="Path-42" stroke="#07946A" stroke-width="0.550000012"></path>
                                <path d="M14.2182267,87.6384251 C19.5681818,83.6491185 22.7932193,81.4442719 23.8933393,81.0238851" id="Path-42-Copy" stroke="#07946A" stroke-width="0.550000012"></path>
                                <path d="M20.4607296,56.1696368 C18.4545052,51.5199578 17.3077751,49.1951183 17.0205394,49.1951183" id="Path-43" stroke="#07946A" stroke-width="0.550000012"></path>
                                <path d="M21.6922142,52.2058814 C19.4742142,46.1384198 17.8378778,42.8207552 16.7832047,42.2528877" id="Path-45" stroke="#07946A" stroke-width="0.550000012"></path>
                            </g>
                            <g id="Group-51" transform="translate(0.000000, 68.647343)">
                                <path d="M28.4864692,44.9417151 C26.0159242,42.9561312 24.3121896,39.9066269 23.3752652,35.7932022 C21.9698787,29.6230651 6.9768076,22.6381599 4.17515365,19.5168352 C2.60987698,17.7729593 -0.82760376,13.6254738 0.722599038,6.99208031 C1.94263331,1.77149408 6.79558833,0.0591439012 11.9713085,0.489691029 C17.1470286,0.920238156 20.1214467,3.10543809 22.8169759,10.1430338 C25.512505,17.1806296 26.5300919,18.2694203 30.4836166,19.5168352 C34.4371414,20.76425 34.4371414,26.0580874 34.4371414,29.0312158 C34.4371414,32.0043441 37.6045166,36.2320623 38.399889,37.472138 C39.1952613,38.7122136 39.473847,41.8314157 38.399889,43.9566653 C37.325931,46.0819148 35.434787,46.4263666 33.8750249,46.4263666 C32.8351835,46.4263666 31.0389983,45.9314828 28.4864692,44.9417151 Z" id="Path-22" fill="#02BC85"></path>
                                <path d="M10.6720356,11.0198739 C23.3812259,21.160941 31.329512,33.3597957 34.5168939,47.616438" id="Path-25" stroke="#07946A" stroke-width="0.550000012"></path>
                                <path d="M19.3567796,18.9145358 C20.6238437,14.3859311 21.1518614,11.6267733 20.9408325,10.6370622" id="Path-26-Copy" stroke="#07946A" stroke-width="0.550000012"></path>
                                <path d="M17.2611914,16.8130865 C18.575471,11.5122161 19.1270964,8.36692534 18.9160676,7.37721432" id="Path-26-Copy-2" stroke="#07946A" stroke-width="0.550000012"></path>
                                <path d="M33.2471342,39.907853 C34.4319728,35.9037038 34.9188778,33.4067736 34.7078489,32.4170626" id="Path-26-Copy-4" stroke="#07946A" stroke-width="0.550000012" transform="translate(34.001419, 36.162458) rotate(12.000000) translate(-34.001419, -36.162458) "></path>
                                <path d="M31.930309,36.4266131 C33.1973731,31.8980084 33.7253908,29.1388506 33.514362,28.1491395" id="Path-26-Copy-5" stroke="#07946A" stroke-width="0.550000012" transform="translate(32.744932, 32.287876) rotate(12.000000) translate(-32.744932, -32.287876) "></path>
                            </g>
                            <g id="Group-55" transform="translate(21.000000, 111.000000)">
                                <mask id="mask-5" fill="white">
                                    <use xlink:href="#path-4"></use>
                                </mask>
                                <use id="Rectangle-20" fill="#6B18DC" xlink:href="#path-4"></use>
                                <polygon id="Path-48" fill="#000000" opacity="0.200000018" mask="url(#mask-5)" points="0.5 10.1197378 45.0631196 16.8381643 46.6176471 9"></polygon>
                            </g>
                            <path d="M22.4963235,108.695652 L67.6139706,108.695652 C68.7185401,108.695652 69.6139706,109.591083 69.6139706,110.695652 L69.6139706,119 C69.6139706,120.104569 68.7185401,121 67.6139706,121 L22.4963235,121 C21.391754,121 20.4963235,120.104569 20.4963235,119 L20.4963235,110.695652 C20.4963235,109.591083 21.391754,108.695652 22.4963235,108.695652 Z" id="Rectangle-20-Copy" fill="#6F17E0" transform="translate(45.055147, 114.847826) scale(1, -1) translate(-45.055147, -114.847826) "></path>
                        </g>
                        <g id="Group-64" transform="translate(278.000000, 161.000000)">
                            <g id="Group-3" transform="translate(27.632801, 22.685007)">
                                <g id="Group-8">
                                    <mask id="mask-8" fill="white">
                                        <use xlink:href="#path-7"></use>
                                    </mask>
                                    <use id="Path-10" fill="url(#linearGradient-6)" xlink:href="#path-7"></use>
                                    <path d="M114.164937,0.367705556 C143.520951,13.0480843 160.440118,28.4525017 164.922438,46.5809577 C189.69968,146.790932 120.834639,197.396484 2.57977978,154.613567" id="Path-247" stroke="#FFFFFF" stroke-width="1.02910506" stroke-dasharray="5.50000011920929" mask="url(#mask-8)"></path>
                                    <path d="M77.5040426,-0.968763035 C99.9416975,-8.43234503 138.730593,3.95216734 149.037669,38.2981805 C159.344746,72.6441937 148.301215,137.963908 77.5040426,142.359478 C6.70687057,146.755048 -11.6984989,99.4330748 8.46127842,70.2389853 C19.2946791,54.5507531 20.5567494,54.4667108 37.6335702,30.6344362 C54.710391,6.80216157 52.8330949,-4.29120272 77.5040426,-0.968763035 Z" id="Path-19" fill="url(#linearGradient-9)" mask="url(#mask-8)"></path>
                                    <path d="M171.820896,167.669742 C153.909707,197.417682 34.4095537,205.340441 3.30055702,167.669742 C21.7711856,200.050153 50.0734771,214.460596 88.2074316,210.901072 C145.408363,205.561784 157.452357,191.906051 171.820896,167.669742 Z" id="Path-40" fill="url(#linearGradient-9)" fill-rule="nonzero" mask="url(#mask-8)"></path>
                                </g>
                            </g>
                            <g id="Group-44" transform="translate(75.889383, 0.000000)">
                                <mask id="mask-11" fill="white">
                                    <use xlink:href="#path-10"></use>
                                </mask>
                                <use id="Path-159" fill="#30007D" fill-rule="nonzero" xlink:href="#path-10"></use>
                                <path d="M26.8573201,22.3013041 C29.7837105,15.9388287 34.1179913,14.3482099 39.8601624,17.5294476 C48.4734191,22.3013041 48.6150988,31.0481561 46.2183503,39.1986037 C44.620518,44.6322354 42.501122,48.832098 39.8601624,51.7981915 L29.7518119,51.7981915 L26.8573201,22.3013041 Z" id="Path-60" fill-opacity="0.300000012" fill="#000000" fill-rule="nonzero" opacity="0.600000024" mask="url(#mask-11)"></path>
                            </g>
                            <g id="Group-70" transform="translate(0.000000, 203.829515)">
                                <mask id="mask-13" fill="white">
                                    <use xlink:href="#path-12"></use>
                                </mask>
                                <use id="Path-163" fill="#FFD7D5" fill-rule="nonzero" xlink:href="#path-12"></use>
                                <path d="M15.5121224,10.9238523 C13.4196855,13.6053713 10.8446652,16.3544202 12.1321754,18.4464749 C13.4196855,20.5385295 29.8489945,15.6330418 31.881082,8.63114021 L31.881082,19.108185 L22.3812629,23.099243 C18.7214833,27.4193089 13.6059093,29.5793418 7.03454082,29.5793418 C-2.82251192,29.5793418 -3.38175698,22.3465159 -0.147886549,19.8517466 C2.00802707,18.188567 7.22803006,15.2126023 15.5121224,10.9238523 Z" id="Path-44" fill="#0C1642" fill-rule="nonzero" mask="url(#mask-13)"></path>
                            </g>
                            <g id="Group-41" transform="translate(16.222346, 108.465566)">
                                <mask id="mask-16" fill="white">
                                    <use xlink:href="#path-15"></use>
                                </mask>
                                <use id="Path-161" fill="url(#linearGradient-14)" fill-rule="nonzero" xlink:href="#path-15"></use>
                                <path d="M28.2893476,19.746803 L10.1350183,105.890711" id="Path-72" stroke="#FFFFFF" stroke-width="1.02910506" opacity="0.399999976" stroke-dasharray="5.50000011920929" fill-rule="nonzero" mask="url(#mask-16)"></path>
                                <path d="M55.9461459,1.61647941 C40.5653842,1.61647941 8.73439168,0.88742987 17.2711092,26.9784246 C22.9622542,44.372421 28.3196552,60.5379968 33.3433122,75.475152 C58.6657092,26.2360369 66.1999871,1.61647941 55.9461459,1.61647941 Z" id="Path-70" fill-opacity="0.300000012" fill="#000000" fill-rule="nonzero" opacity="0.699999988" mask="url(#mask-16)"></path>
                            </g>
                            <g id="Group-71" transform="translate(75.212694, 217.085383)">
                                <mask id="mask-18" fill="white">
                                    <use xlink:href="#path-17"></use>
                                </mask>
                                <use id="Path-162" fill="#FFD7D5" fill-rule="nonzero" xlink:href="#path-17"></use>
                                <path d="M11.3370895,13.2332339 C10.7650749,15.3596632 9.11265006,20.7528694 11.3370895,21.5652631 C13.561529,22.3776567 23.3768994,19.0340242 24.9170883,7.4074724 C27.6676108,10.0216708 27.9515345,14.07772 25.7688594,19.57562 C22.4948468,27.82247 8.4100639,35.5044178 0.857748794,32.8399996 C-4.17712794,31.0637209 -0.684014361,24.5281323 11.3370895,13.2332339 Z" id="Path-82" fill="#0C1642" fill-rule="nonzero" mask="url(#mask-18)"></path>
                            </g>
                            <g id="Group-50" transform="translate(39.818485, 97.674069)">
                                <mask id="mask-21" fill="white">
                                    <use xlink:href="#path-20"></use>
                                </mask>
                                <use id="Path-160" fill="url(#linearGradient-19)" fill-rule="nonzero" xlink:href="#path-20"></use>
                                <path d="M87.3424612,4.3877794 C94.499332,26.1134073 88.7489982,34.9363113 70.0914599,30.8564914 C42.1051523,24.7367616 17.6587188,18.6728089 15.7167627,27.1621527 C13.7748066,35.6514965 37.9085468,47.7298231 57.0116896,126.403865" id="Path-71" stroke="#FFFFFF" stroke-width="1.02910506" opacity="0.399999976" stroke-dasharray="5.50000011920929" fill-rule="nonzero" mask="url(#mask-21)"></path>
                            </g>
                            <g id="Group-46" transform="translate(64.889383, 44.759100)">
                                <g id="Group-48" transform="translate(0.000000, 0.372874)">
                                    <mask id="mask-23" fill="white">
                                        <use xlink:href="#path-22"></use>
                                    </mask>
                                    <use id="Path-157" fill="#FFFFFF" fill-rule="nonzero" xlink:href="#path-22"></use>
                                    <path d="M67.5478687,45.5501689 C65.2839203,38.2196268 64.4085638,31.0552768 64.9217991,24.0571189 C63.8596871,26.9358604 63.2665052,29.1979704 63.1422536,30.8434491 C62.6607457,37.2201137 62.9723919,43.1268777 60.9387092,45.5501689 C59.8842728,46.806612 53.8353756,48.8485896 47.9625432,49.0033889 C44.0768289,49.1058106 39.9009881,47.2939628 38.6172358,47.7855747 C38.2577444,47.9232416 40.3175424,48.5323416 44.6933991,49.4443076 C45.7731382,49.6693345 47.7187175,49.834756 50.5301369,49.940572 C58.4977746,49.8607638 63.2471262,49.5274305 64.7781918,48.940572 C66.4082143,48.3157832 67.3314399,47.1856489 67.5478687,45.5501689 Z" id="Path-67" fill="#000000" fill-rule="nonzero" opacity="0.100000001" mask="url(#mask-23)"></path>
                                    <path d="M25.3492904,-0.31620212 C17.2528116,18.4112427 19.3432919,35.0333908 31.6207315,49.5502422 C50.9457513,40.309869 57.926218,23.6877209 52.5621316,-0.31620212" id="Path-79" stroke="#FFFFFF" stroke-width="1.47015008" fill-rule="nonzero" mask="url(#mask-23)"></path>
                                    <polygon id="Path-164" fill="#0C1642" fill-rule="nonzero" mask="url(#mask-23)" points="37.5815231 55.8116849 37.225071 57.6086544 45.0333218 60.5988368 18.4776106 60.5988368 16.9685019 50.0769377 27.9988712 50.0769377"></polygon>
                                </g>
                                <g id="Group-47" transform="translate(28.545657, 0.000000)">
                                    <mask id="mask-25" fill="white">
                                        <use xlink:href="#path-24"></use>
                                    </mask>
                                    <use id="Path-62" fill="#0C1642" fill-rule="nonzero" xlink:href="#path-24"></use>
                                </g>
                            </g>
                            <g id="Group-45" transform="translate(81.636970, 18.728742)">
                                <mask id="mask-27" fill="white">
                                    <use xlink:href="#path-26"></use>
                                </mask>
                                <use id="Path-153" fill="#FED2F5" fill-rule="nonzero" xlink:href="#path-26"></use>
                                <path d="M12.3788974,7.99230498 C12.9897625,7.99230498 13.4849665,7.49773379 13.4849665,6.88764932 C13.4849665,6.27756485 12.9897625,5.78299366 12.3788974,5.78299366 C11.7680324,5.78299366 11.2728284,6.27756485 11.2728284,6.88764932 C11.2728284,7.49773379 11.7680324,7.99230498 12.3788974,7.99230498 Z" id="Oval-2" fill="#902E7C" fill-rule="nonzero" mask="url(#mask-27)"></path>
                                <path d="M3.53034517,9.46517919 C4.14121023,9.46517919 4.6364142,8.970608 4.6364142,8.36052353 C4.6364142,7.75043906 4.14121023,7.25586787 3.53034517,7.25586787 C2.91948011,7.25586787 2.42427613,7.75043906 2.42427613,8.36052353 C2.42427613,8.970608 2.91948011,9.46517919 3.53034517,9.46517919 Z" id="Oval-2" fill="#902E7C" fill-rule="nonzero" mask="url(#mask-27)"></path>
                                <path d="M12.1770024,24.1412219 C13.3431251,23.9830228 15.5901819,23.3120779 20.2755223,18.9115042 C19.5777996,23.4234032 17.0637038,26.5758139 12.7332348,28.3687363 L12.1770024,24.1412219 Z" id="Path-61" fill="#000000" fill-rule="nonzero" opacity="0.1" mask="url(#mask-27)"></path>
                                <path d="M12.4536598,37.3010612 C12.4536598,39.2646231 15.103314,44.0609592 19.4361952,42.9177268 C23.7690765,41.7744945 32.7287616,37.3010612 29.9791743,26.6975588 C32.5438166,36.5969319 29.5857391,43.2330874 21.1049417,46.606025 C12.6241443,49.9789627 9.74038371,46.8773081 12.4536598,37.3010612 Z" id="Path-63" fill="#000000" fill-rule="nonzero" opacity="0.1" mask="url(#mask-27)"></path>
                                <path d="M7.48460402,10.4016437 C6.32128853,13.4819418 6.79965715,14.5902823 8.91970988,13.7266651" id="Path-65" stroke="#E0A7D4" stroke-width="0.88209005" stroke-linecap="round" stroke-linejoin="round" fill-rule="nonzero" mask="url(#mask-27)"></path>
                                <path d="M9.33862872,18.409108 C10.6759143,19.3529881 12.6020924,18.5672061 12.6020924,16.8186268" id="Path-66" stroke="#902E7C" stroke-width="0.88209005" stroke-linecap="round" stroke-linejoin="round" fill-rule="nonzero" mask="url(#mask-27)" transform="translate(10.970361, 17.815617) rotate(18.000000) translate(-10.970361, -17.815617) "></path>
                            </g>
                            <path d="M104.195591,93.2665738 C96.5832704,90.2860317 92.019712,88.7957606 90.5049157,88.7957606 C88.2327212,88.7957606 78.3542218,93.7803665 78.3542218,95.0710963 C78.3542218,95.9315828 79.9043093,95.9315828 83.0044844,95.0710963 C81.0910575,98.6811025 80.6127007,100.684525 81.5694142,101.081365 C82.5261276,101.478204 83.9095443,100.089266 85.7196641,96.9145497 C91.351316,99.6924265 95.4398864,100.502447 97.9853753,99.3446111 L102.445787,101.081365 L104.195591,93.2665738 Z" id="Path-158" fill="#FED2F5" fill-rule="nonzero"></path>
                            <path d="M101.106001,102.422905 L104.457879,103.657275 L106.61227,93.8621971 L103.269376,92.9185915 C102.428682,94.0678409 101.844698,95.4212074 101.517424,96.9786913 C101.19015,98.5361752 101.053009,100.350913 101.106001,102.422905 Z" id="Path-38" fill="#0C1642" fill-rule="nonzero"></path>
                            <g id="Group-43" transform="translate(17.918320, 65.383996)">
                                <path d="M66.3164024,39.7958701 L108.298434,39.7958701 L108.298434,41.6845327 C108.298434,43.6137056 106.734531,45.1776091 104.805358,45.1776091 L66.3164024,45.1776091 L66.3164024,39.7958701 Z" id="Rectangle-4" fill="#5C2AE7"></path>
                                <g id="Group-16" transform="translate(0.000000, 0.470130)">
                                    <mask id="mask-29" fill="white">
                                        <use xlink:href="#path-28"></use>
                                    </mask>
                                    <use id="Path-6" fill="#6F17E0" fill-rule="nonzero" xlink:href="#path-28"></use>
                                    <path d="M30.4158787,23.3246288 C30.8608747,23.6610145 31.4153255,23.8605615 32.0164426,23.8605615 C33.4825187,23.8605615 34.6710082,22.6735907 34.6710082,21.209388 C34.6710082,20.7266004 34.5417955,20.2739535 34.3160242,19.8840595 C34.331288,19.8838875 34.3465724,19.8838013 34.361877,19.8838013 C36.5609912,19.8838013 38.3437254,21.6642575 38.3437254,23.8605615 C38.3437254,26.0568656 36.5609912,27.8373218 34.361877,27.8373218 C32.1627629,27.8373218 30.3800286,26.0568656 30.3800286,23.8605615 C30.3800286,23.6788118 30.3922367,23.4999098 30.4158787,23.3246288 Z" id="Combined-Shape" fill="#FFFFFF" mask="url(#mask-29)"></path>
                                </g>
                            </g>
                            <g id="Group-49" transform="translate(79.000000, 22.000000)" stroke="#FFFFFF">
                                <ellipse id="Oval-12" stroke-width="1.10000002" fill-opacity="0.400000006" fill="#FFFFFF" transform="translate(5.000000, 6.000000) rotate(-18.000000) translate(-5.000000, -6.000000) " cx="5" cy="6" rx="3" ry="4"></ellipse>
                                <ellipse id="Oval-12-Copy" stroke-width="1.10000002" fill-opacity="0.400000006" fill="#FFFFFF" transform="translate(15.500000, 5.000000) rotate(-18.000000) translate(-15.500000, -5.000000) " cx="15.5" cy="5" rx="3.5" ry="4"></ellipse>
                                <path d="M11.9897879,4.83585495 C10.4403134,3.69151562 9.11013347,3.8161181 7.99924827,5.20966239" id="Path-21"></path>
                                <path d="M18.1423883,2.34043399 L24.5,0.5" id="Path-24" stroke-linecap="round"></path>
                            </g>
                        </g>
                        <g id="Calendar" transform="translate(162.000000, 37.989036)">
                            <g id="Group-40">
                                <mask id="mask-31" fill="white">
                                    <use xlink:href="#path-30"></use>
                                </mask>
                                <use id="Path-81" fill="#C3B0F5" xlink:href="#path-30"></use>
                                <path d="M16.6849315,73.4141414 L52.4383562,55.459596 C54.5570776,40.2979798 53.7625571,27.1313131 50.0547945,15.959596 L14.3013699,34.7121212 L16.6849315,73.4141414 Z" id="Path-97" fill="#000000" opacity="0.0469308036" mask="url(#mask-31)"></path>
                                <path d="M16.6849315,71.4191919 L50.8493151,53.8636364 C51.8517101,46.0508145 52.3813904,40.5979526 52.4383562,37.5050505 C52.6496521,26.0329295 50.3917453,18.0026103 49.260274,15.1616162 L44.890411,11.5707071 L12.7123288,37.5050505 L11.5205479,63.8383838 L4.76712329,76.6060606 L10.5650819,74.8806528 L16.6849315,71.4191919 Z" id="Path-83" fill="#F8F8FA" mask="url(#mask-31)"></path>
                                <path d="M7.54794521,75.8080808 L51.6438356,54.2626263 C53.2402887,39.5022603 53.2402887,28.729533 51.6438356,21.9444444 C50.4337801,17.7508753 49.5068395,15.2239393 48.8630137,14.3636364 C47.7987956,12.9415903 46.3421746,11.611624 44.4931507,10.3737374 L7.54794521,31.1212121 L8.73972603,71.020202 L7.54794521,75.8080808 Z" id="Path-99" fill="#000000" opacity="0.100000001" mask="url(#mask-31)"></path>
                                <path d="M1.98630137,69.8232323 L6.89114903,68.3162915 L10.5100904,65.8176733 L45.2876712,49.4747475 C49.7899543,40.6969697 49.7899543,28.7272727 45.2876712,13.5656566 C40.7853881,-1.5959596 39.9908676,-3.85690236 42.9041096,6.78282828 L-1.19178082,25.1363636 L1.98630137,69.8232323 Z" id="Path-96" fill="#F8F8FA" mask="url(#mask-31)"></path>
                                <polygon id="Path-84" fill="url(#linearGradient-32)" mask="url(#mask-31)" points="5.16438356 29.5252525 44.4931507 11.1717172 51.2465753 16.3585859 52.8356164 11.969697 49.260274 2.79292929 43.3013699 -1.99494949 -2.38356164 18.3535354 3.17808219 30.7222222"></polygon>
                            </g>
                            <ellipse id="Oval-18" stroke="#999999" stroke-width="2.40000004" transform="translate(19.717984, 38.731143) rotate(-10.000000) translate(-19.717984, -38.731143) " cx="19.7179844" cy="38.7311432" rx="4.27650678" ry="6.96997986"></ellipse>
                            <path d="M33.6799188,42.2203767 C32.6579137,42.6405157 31.7085711,42.7763164 30.8315441,42.6277829 C29.9542541,42.4792494 29.2274117,42.0828501 28.6509059,41.4385733 C28.0740177,40.7942964 27.7098842,39.9533517 27.5586787,38.9157139 C27.50973,38.5800076 27.5584978,38.2608098 27.7050196,37.9581109 C27.8515751,37.655412 28.0632792,37.4472901 28.3401217,37.3337391 C28.6169759,37.220188 28.8620151,37.2409534 29.0752098,37.3960358 C29.2883674,37.5511183 29.4192722,37.796509 29.467945,38.1322154 C29.5586154,38.7578499 29.7872702,39.2742694 30.1538379,39.6814893 C30.520252,40.0887093 30.9782385,40.3451087 31.5278447,40.4506952 C32.0773419,40.5562817 32.6561295,40.4841699 33.2643496,40.2343575 C34.1906127,39.8539614 34.8901238,39.2679225 35.3630114,38.4762233 C35.8361746,37.6845241 36.0024148,36.7927581 35.8614368,35.8008985 C35.772448,35.1752639 35.5657658,34.6503282 35.2413172,34.2260756 C34.9167303,33.8018231 34.5147907,33.5303434 34.0355202,33.4116284 C33.5561561,33.2929135 33.053013,33.3414288 32.526178,33.5571759 C32.2211877,33.6820821 31.9517077,33.6712523 31.7176891,33.5246861 C31.4836306,33.37812 31.3423494,33.1369874 31.2938605,32.801281 C31.2453572,32.4655747 31.3056826,32.1459336 31.4748779,31.842348 C31.6441113,31.5387625 31.8813829,31.3245198 32.1866819,31.1996137 C32.575265,31.0406421 32.9375443,30.7753023 33.2735767,30.4035861 C33.6096933,30.0318699 33.8649655,29.6084361 34.0393859,29.133272 C34.2138709,28.6581079 34.2683188,28.1916421 34.2026631,27.7338608 C34.1063199,27.0624481 33.8027911,26.588699 33.2919826,26.3125994 C32.7810032,26.0364998 32.1777481,26.0403888 31.4823824,26.3242665 C30.9539538,26.5400135 30.4873811,26.8517492 30.0826997,27.2594829 C29.6781268,27.6672165 29.3751077,28.1143362 29.1736085,28.6008554 C28.9721851,29.0873747 28.9059769,29.5671475 28.974904,30.0401882 C29.0260251,30.3911539 28.9785708,30.7217961 28.8325772,31.0321247 C28.6866182,31.3424533 28.4748879,31.5543899 28.1973631,31.667941 C27.91985,31.7814921 27.6747447,31.7645415 27.4620043,31.6170887 C27.2492284,31.4696359 27.1182486,31.22806 27.069077,30.8923536 C26.9416113,30.022569 27.0341659,29.147746 27.3469774,28.2678582 C27.6600052,27.3879705 28.1485357,26.5982353 28.8126533,25.8986289 C29.4770805,25.1990226 30.2547185,24.6675456 31.1454494,24.3041822 C31.9527786,23.974884 32.7186747,23.8685323 33.442956,23.9851239 C34.1670638,24.1017154 34.7685726,24.4176464 35.2474396,24.9329264 C35.726052,25.4482063 36.0240721,26.1178394 36.1416351,26.9418459 C36.2591121,27.7658524 36.1245824,28.5757346 35.7382806,29.3715169 C35.3522108,30.1672992 34.8304202,30.8854401 34.1729247,31.5259611 C35.2841496,31.4912108 36.1544625,31.776985 36.7837431,32.3832923 C37.4126201,32.9895995 37.8056952,33.8497076 37.9631653,34.9636423 C38.1010918,35.9402425 37.997587,36.9189514 37.6529366,37.8997984 C37.3085502,38.8806454 36.7846124,39.7536838 36.0811812,40.5189397 C35.3781127,41.2841957 34.5777594,41.8513356 33.6799188,42.2203767 Z" id="3" fill="#999999"></path>
                            <path d="M12.3150685,18.7525253 C10.6619641,17.9364993 9.57724468,17.2078816 9.0609101,16.566672 C7.62972951,14.7893618 7.25782797,12.3260604 7.94520548,10.7727273 C8.74261083,8.97075367 10.0652135,8.60052216 11.9130134,9.66203275 C12.3176935,9.89451042 12.9813922,10.3977386 13.9041096,11.1717172" id="Path-98" stroke="#C3B0F5" stroke-width="2.40000004" stroke-linecap="round"></path>
                            <path d="M29.7945205,10.7727273 C28.1414162,9.95670135 27.0566967,9.22808361 26.5403622,8.58687404 C25.1091816,6.80956386 24.73728,4.34626241 25.4246575,2.79292929 C26.2220629,0.990955691 27.5446655,0.620724182 29.3924654,1.68223477 C29.7971455,1.91471244 30.4608443,2.41794058 31.3835616,3.19191919" id="Path-98-Copy" stroke="#C3B0F5" stroke-width="2.40000004" stroke-linecap="round"></path>
                        </g>
                        <ellipse id="Oval-19" fill="#3C11CA" opacity="0.0600000024" cx="88.5" cy="396" rx="73.5" ry="16"></ellipse>
                        <g id="illust" transform="translate(100.925914, 226.027666) rotate(3.000000) translate(-100.925914, -226.027666) translate(9.425914, 43.527666)">
                            <g id="Group-26" transform="translate(35.137286, 9.359617)" fill="#FFFFFF" fill-rule="nonzero" opacity="0.200000003">
                                <path d="M2.02568257,6.11210773 C4.21011947,10.4086982 12.7851056,12.668201 18.4874595,3.32788605 C21.1319139,-1.00366497 28.011171,0.97700198 32.4921417,0.97700198 C36.6760225,11.3640352 33.9379948,17.9744265 24.2780586,20.8081756 C19.6267526,22.1726396 14.103437,22.1888528 10.6393805,19.7075648 C3.31209211,14.4590612 0.542456958,3.19473668 2.02568257,6.11210773 Z" id="Path-28"></path>
                            </g>
                            <g id="Group-56" transform="translate(33.650757, 0.042471)">
                                <g id="Group-53" transform="translate(0.985291, 0.175627)">
                                    <mask id="mask-34" fill="white">
                                        <use xlink:href="#path-33"></use>
                                    </mask>
                                    <use id="Path-11" fill="#30007D" fill-rule="nonzero" xlink:href="#path-33"></use>
                                    <path d="M27.6173956,30.4621143 C27.019263,24.7667166 24.7846668,22.4802765 20.9136071,23.6027941 C15.1070175,25.2865704 6.20663423,30.3316748 0.736778981,21.7848456 C2.01033501,29.6102286 5.11206155,35.4432176 10.0419586,39.2838127 C17.1939282,39.0843252 22.3775711,37.9540358 25.5928872,35.8929444 L27.6173956,30.4621143 Z" id="Path-39" fill="#000000" fill-rule="nonzero" opacity="0.254464286" mask="url(#mask-34)"></path>
                                </g>
                                <g id="Group-32" transform="translate(8.476571, 14.849033)">
                                    <mask id="mask-36" fill="white">
                                        <use xlink:href="#path-35"></use>
                                    </mask>
                                    <use id="Combined-Shape" fill="#FED2F5" fill-rule="nonzero" xlink:href="#path-35"></use>
                                    <path d="M27.2512656,10.8123031 C27.9790141,10.8123031 28.5689708,10.2211355 28.5689708,9.49189325 C28.5689708,8.76265099 27.9790141,8.17148335 27.2512656,8.17148335 C26.5235171,8.17148335 25.9335604,8.76265099 25.9335604,9.49189325 C25.9335604,10.2211355 26.5235171,10.8123031 27.2512656,10.8123031 Z" id="Oval-2" fill="#902E7C" fill-rule="nonzero" mask="url(#mask-36)"></path>
                                    <path d="M18.8301099,28.1532986 C15.3504538,27.5858721 13.0430704,27.1549045 11.9079597,26.8603958 C13.004496,29.7462843 14.9148145,31.7328681 17.6389152,32.8201473 L18.8301099,28.1532986 Z" id="Path-41" fill="#000000" fill-rule="nonzero" opacity="0.1" mask="url(#mask-36)"></path>
                                    <path d="M26.0811985,20.5363436 C26.5635561,22.7129461 27.5386674,23.7628886 29.0065325,23.6861713" id="Path-29" stroke="#902E7C" stroke-width="0.970299076" stroke-linecap="round" stroke-linejoin="round" mask="url(#mask-36)"></path>
                                </g>
                            </g>
                            <g id="Group-31" transform="translate(34.953506, 336.652907)">
                                <mask id="mask-38" fill="white">
                                    <use xlink:href="#path-37"></use>
                                </mask>
                                <use id="Path-145" fill="#0C1642" fill-rule="nonzero" transform="translate(20.904491, 13.574622) rotate(11.000000) translate(-20.904491, -13.574622) " xlink:href="#path-37"></use>
                            </g>
                            <g id="Group-30" transform="translate(118.649264, 345.087500) rotate(-3.000000) translate(-118.649264, -345.087500) translate(96.149264, 335.087500)">
                                <mask id="mask-40" fill="white">
                                    <use xlink:href="#path-39"></use>
                                </mask>
                                <use id="Path-144" fill="#0C1642" fill-rule="nonzero" xlink:href="#path-39"></use>
                            </g>
                            <path d="M24.1686522,184.700571 C25.6166187,186.453488 29.6373273,187.357021 30.3449063,186.706375 C30.7075167,186.372941 30.6190001,184.683944 30.0793566,181.639385 L27.531385,175.167115 L21.1567747,179.903907 C22.6353815,182.460895 23.6393407,184.059783 24.1686522,184.700571 Z" id="Path-51" fill="#FED2F5"></path>
                            <g id="Group-29" transform="translate(25.307624, 153.258885)">
                                <mask id="mask-43" fill="white">
                                    <use xlink:href="#path-42"></use>
                                </mask>
                                <use id="Combined-Shape" fill="url(#linearGradient-41)" fill-rule="nonzero" xlink:href="#path-42"></use>
                                <path d="M45.3075248,23.635849 L22.4876535,65.5525661 L20.9592265,94.7765518 C29.7542877,79.0510968 35.9023866,65.9732336 39.403523,55.5429624 C42.9046595,45.1126913 44.8726601,34.4769868 45.3075248,23.635849 Z" id="Path-155" fill-opacity="0.200000018" fill="#000000" fill-rule="nonzero" mask="url(#mask-43)" transform="translate(33.133376, 59.206200) scale(-1, 1) translate(-33.133376, -59.206200) "></path>
                                <path d="M0.151815709,14.1903103 C26.4115642,18.5495545 48.2195162,16.6698862 65.5756717,8.55130565 L61.9344532,2.16081744 L0.151815709,6.68570776 L0.151815709,14.1903103 Z" id="Path-36" fill-opacity="0.200000018" fill="#000000" fill-rule="nonzero" mask="url(#mask-43)"></path>
                                <path d="M41.3870233,2.93335617 C65.0086518,62.9345592 76.819466,96.255485 76.819466,102.896133 C76.819466,109.536782 76.6566362,137.904737 76.3309766,188" id="Path-37" stroke="#FFFFFF" stroke-width="1.02910506" opacity="0.5" stroke-dasharray="5.50000011920929" fill-rule="nonzero" mask="url(#mask-43)"></path>
                                <path d="M19.6153362,191.401003 C32.0694544,123.322573 34.200862,71.6401945 26.0095592,36.3538688" id="Path-64" stroke="#FFFFFF" stroke-width="1.02910506" opacity="0.5" stroke-dasharray="5.50000011920929" mask="url(#mask-43)"></path>
                            </g>
                            <path d="M157.199907,54.1812387 C162.661398,44.4117316 166.05322,39.9830653 167.375372,40.8952399 C168.697525,41.8074144 168.308205,43.9091269 166.207411,47.2003773 C175.239024,40.9582012 180.658908,38.4241985 182.467063,39.5983694 C185.179296,41.3596257 175.286003,46.5472035 176.07106,48.8541284 C176.923582,51.3593025 177.787516,54.9069994 175.872311,57.1476305 C173.419746,60.0169291 168.986593,61.9852847 162.572853,63.0526973 L157.199907,54.1812387 Z" id="Path-30" fill="#FED2F5" fill-rule="nonzero"></path>
                            <g id="Group-28" transform="translate(0.687593, 46.249238)">
                                <mask id="mask-46" fill="white">
                                    <use xlink:href="#path-45"></use>
                                </mask>
                                <use id="Path-141" fill="url(#linearGradient-44)" fill-rule="nonzero" xlink:href="#path-45"></use>
                                <path d="M87.1239927,42.8658689 C84.7179357,41.6040628 80.4585105,39.3842815 74.3457172,36.2065251 C78.994134,51.1120665 79.7403487,65.5007765 76.5843615,79.3726551 C71.8503807,100.180473 74.6678901,106.600142 87.1239927,113.514799 C90.6718903,113.021789 92.4458391,111.048246 92.4458391,107.594171 C92.4458391,102.413057 85.7483894,92.9044648 87.1239927,86.0799005 C88.4995959,79.2553362 90.7330781,44.7585781 87.1239927,42.8658689 Z" id="Path-31" fill="#000000" fill-rule="nonzero" opacity="0.195647321" mask="url(#mask-46)"></path>
                                <path d="M24.8805592,115.656017 C20.3636631,108.126519 17.9489615,102.475217 17.6364543,98.7021112 C16.8022143,88.6297814 21.7909807,78.5881468 20.3955249,70.6281382 C17.1261777,51.979013 16.1952962,36.2666625 17.0438791,29.6830576 C10.2316792,38.3447946 9.55813455,52.6046976 15.0232451,72.4627666 C17.6337175,81.9481993 14.1932299,94.4013463 15.7312811,100.43656 C16.363352,102.916766 19.4131114,107.989918 24.8805592,115.656017 Z" id="Path-32" fill="#000000" fill-rule="nonzero" opacity="0.195647321" mask="url(#mask-46)"></path>
                                <path d="M151.651103,7.09484577 C157.194929,9.63800303 160.142683,14.2717018 160.494363,20.995942 L166.48891,16.5789117 C164.828352,9.10533126 161.706659,4.81457849 157.123832,3.70665341 L151.651103,7.09484577 Z" id="Path-35" fill="#FFFFFF" fill-rule="nonzero" mask="url(#mask-46)"></path>
                                <path d="M16.9933986,130.53361 C19.5145929,130.362418 21.3398083,130.083539 22.4690449,129.696974 C23.5982815,129.310409 25.5685163,128.290014 28.3797493,126.635788 L29.218677,132.096473 L16.7314275,136.051833 L15.400895,131.739671 L16.9933986,130.53361 Z" id="Path-50" fill="#FFFFFF" mask="url(#mask-46)"></path>
                            </g>
                        </g>
                        <g id="Group-42-Copy" transform="translate(339.000000, 128.500000) scale(-1, 1) translate(-339.000000, -128.500000) translate(310.000000, 89.000000)">
                            <g id="Group-40">
                                <mask id="mask-48" fill="white">
                                    <use xlink:href="#path-47"></use>
                                </mask>
                                <use id="Path-81" fill="#C3B0F5" xlink:href="#path-47"></use>
                                <path d="M16.6849315,73.4141414 L52.4383562,55.459596 C54.5570776,40.2979798 53.7625571,27.1313131 50.0547945,15.959596 L14.3013699,34.7121212 L16.6849315,73.4141414 Z" id="Path-97" fill="#000000" opacity="0.0469308036" mask="url(#mask-48)"></path>
                                <path d="M16.6849315,71.4191919 L50.8493151,53.8636364 C51.8517101,46.0508145 52.3813904,40.5979526 52.4383562,37.5050505 C52.6496521,26.0329295 50.3917453,18.0026103 49.260274,15.1616162 L44.890411,11.5707071 L12.7123288,37.5050505 L11.5205479,63.8383838 L4.76712329,76.6060606 L10.5650819,74.8806528 L16.6849315,71.4191919 Z" id="Path-83" fill="#F8F8FA" mask="url(#mask-48)"></path>
                                <path d="M7.54794521,75.8080808 L51.6438356,54.2626263 C53.2402887,39.5022603 53.2402887,28.729533 51.6438356,21.9444444 C50.4337801,17.7508753 49.5068395,15.2239393 48.8630137,14.3636364 C47.7987956,12.9415903 46.3421746,11.611624 44.4931507,10.3737374 L7.54794521,31.1212121 L8.73972603,71.020202 L7.54794521,75.8080808 Z" id="Path-99" fill="#000000" opacity="0.100000001" mask="url(#mask-48)"></path>
                                <path d="M1.98630137,69.8232323 L6.89114903,68.3162915 L10.5100904,65.8176733 L45.2876712,49.4747475 C49.7899543,40.6969697 49.7899543,28.7272727 45.2876712,13.5656566 C40.7853881,-1.5959596 39.9908676,-3.85690236 42.9041096,6.78282828 L-1.19178082,25.1363636 L1.98630137,69.8232323 Z" id="Path-96" fill="#F8F8FA" mask="url(#mask-48)"></path>
                                <polygon id="Path-84" fill="url(#linearGradient-32)" mask="url(#mask-48)" points="5.16438356 29.5252525 44.4931507 11.1717172 51.2465753 16.3585859 52.8356164 11.969697 49.260274 2.79292929 43.3013699 -1.99494949 -2.38356164 18.3535354 3.17808219 30.7222222"></polygon>
                                <path d="M38.1369863,19.9494949 L12.3150685,31.9191919" id="Path-100" stroke="#999999" stroke-width="1.60000002" stroke-linecap="round" mask="url(#mask-48)"></path>
                                <path d="M38.1369863,27.9292929 L12.3150685,39.8989899" id="Path-100-Copy" stroke="#999999" stroke-width="1.60000002" stroke-linecap="round" mask="url(#mask-48)"></path>
                                <path d="M38.1369863,35.9090909 L12.3150685,47.8787879" id="Path-100-Copy-2" stroke="#999999" stroke-width="1.60000002" stroke-linecap="round" mask="url(#mask-48)"></path>
                            </g>
                            <path d="M12.3150685,18.7525253 C10.6619641,17.9364993 9.57724468,17.2078816 9.0609101,16.566672 C7.62972951,14.7893618 7.25782797,12.3260604 7.94520548,10.7727273 C8.74261083,8.97075367 10.0652135,8.60052216 11.9130134,9.66203275 C12.3176935,9.89451042 12.9813922,10.3977386 13.9041096,11.1717172" id="Path-98" stroke="#C3B0F5" stroke-width="2.40000004" stroke-linecap="round"></path>
                            <path d="M29.7945205,10.7727273 C28.1414162,9.95670135 27.0566967,9.22808361 26.5403622,8.58687404 C25.1091816,6.80956386 24.73728,4.34626241 25.4246575,2.79292929 C26.2220629,0.990955691 27.5446655,0.620724182 29.3924654,1.68223477 C29.7971455,1.91471244 30.4608443,2.41794058 31.3835616,3.19191919" id="Path-98-Copy" stroke="#C3B0F5" stroke-width="2.40000004" stroke-linecap="round"></path>
                        </g>
                    </g>
                </g>
            </g>
        </g>
    </g>
</svg>