<svg id="b620aa53-a730-4295-9780-8a7486184a3e"
  xmlns="http://www.w3.org/2000/svg" viewBox="0 0 1433.46 823.14" preserveAspectRatio="none">
  <g>
    <path d="M1128.67,357.13c-153,26.43-275.11-61.75-416.29-136.81C552.28,135.2,320.58,42,0,0V452.26q526.77-108.47,739.51,177,213.48,286.56,694,149.54V131.09C1363.84,231.32,1263.81,333.79,1128.67,357.13Z" style="fill: #f6f4fe"/>
    <path d="M1155.22,684.06c-65.12-9.66-137.53-14.49-216.58-14.49-61.3,0-126.61,2.91-195.55,8.73-157.87,13.33-301.53,9.53-427-11.29C196.51,647.15,90.26,611.28,0,560.35v1.15C90.26,612.34,196.45,648.16,315.94,668c125.54,20.84,269.28,24.64,427.24,11.3,157.76-13.32,296.35-11.38,411.9,5.76,112.3,16.66,205.89,48.16,278.38,93.63V777.5C1360.93,732.14,1267.39,700.7,1155.22,684.06Z" style="fill: #e6dffc"/>
    <path d="M1433.46,769.12c-70.46-46.62-159.77-81-266.06-102.47-67-13.49-141.78-22-223.67-25.59-63.51-2.76-131.3-2.51-203,.76C576.56,649.3,427.92,638.69,299,610.27,186.38,585.46,86.05,546.46,0,494.17v1.26c86,52.19,186.28,91.13,298.73,115.91,129.06,28.44,277.78,39.06,442.05,31.57,164.07-7.48,307.54.87,426.42,24.82,106.44,21.44,195.82,56,266.26,102.69Z" style="fill: #e6dffc"/>
  </g>
</svg>
