<?xml version="1.0" encoding="UTF-8"?>
<svg width="160px" height="160px" viewBox="0 0 160 160" version="1.1" xmlns="http://www.w3.org/2000/svg" xmlns:xlink="http://www.w3.org/1999/xlink">
    <!-- Generator: Sketch 52.2 (67145) - http://www.bohemiancoding.com/sketch -->
    <title>img_change_game</title>
    <desc>Created with Sketch.</desc>
    <g id="Page-1" stroke="none" stroke-width="1" fill="none" fill-rule="evenodd">
        <g id="02---Mission" transform="translate(-508.000000, -616.000000)">
            <g id="section---" transform="translate(172.000000, 476.000000)">
                <g id="Group-3-Copy" transform="translate(293.000000, 140.000000)">
                    <g id="Group-4">
                        <g id="Illustration/img_change_game" transform="translate(43.000000, 0.000000)">
                            <circle id="Oval-4" fill="#E6DFFC" cx="80" cy="80" r="80"></circle>
                            <path d="M110.167689,110.5 L119.055241,119.436076 C120.20621,120.593329 120.201422,122.464418 119.044546,123.615765 C119.044318,123.615992 119.044089,123.616219 119.043861,123.616446 C117.887098,124.766928 116.016705,124.761836 114.866223,123.605073 L106,114.690443 L97.1337774,123.605073 C95.983295,124.761836 94.1129025,124.766928 92.9561388,123.616446 C92.9559106,123.616219 92.9556825,123.615992 92.9554544,123.615765 C91.7985781,122.464418 91.7937899,120.593329 92.9447585,119.436076 L101.832311,110.5 L92.9447585,101.563924 C91.7937899,100.406671 91.7985781,98.5355818 92.9554544,97.3842351 C92.9556825,97.3840081 92.9559106,97.3837811 92.9561388,97.3835542 C94.1129025,96.2330718 95.983295,96.2381638 97.1337774,97.3949275 L106,106.309557 L114.866223,97.3949275 C116.016705,96.2381638 117.887098,96.2330718 119.043861,97.3835542 C119.044089,97.3837811 119.044318,97.3840081 119.044546,97.3842351 C120.201422,98.5355818 120.20621,100.406671 119.055241,101.563924 L110.167689,110.5 Z" id="Combined-Shape" fill="#6327EA" fill-rule="nonzero"></path>
                            <g id="Group-11" transform="translate(49.000000, 35.000000)" fill-rule="nonzero">
                                <path d="M-4.40536496e-13,76.9545613 C28.7975197,71.6034454 50.6020434,46.3480824 50.6020434,16" id="Oval" stroke="#5818BE" stroke-width="6" stroke-linecap="round" stroke-linejoin="round"></path>
                                <path d="M50.8944272,1.78885438 L60.2763932,20.5527864 C60.5233825,21.0467649 60.3231581,21.6474379 59.8291796,21.8944272 C59.6903242,21.9638549 59.5372111,22 59.381966,22 L40.618034,22 C40.0657492,22 39.618034,21.5522847 39.618034,21 C39.618034,20.8447549 39.6541791,20.6916418 39.7236068,20.5527864 L49.1055728,1.78885438 C49.3525621,1.29487588 49.9532351,1.09465154 50.4472136,1.34164079 C50.640741,1.43840449 50.7976635,1.59532698 50.8944272,1.78885438 Z" id="Triangle" fill="#5818BE"></path>
                            </g>
                            <g id="Group-7" transform="translate(39.000000, 41.000000)" fill-rule="nonzero">
                                <circle id="Oval" fill="#6327EA" cx="20" cy="20" r="20"></circle>
                                <polygon id="Star" fill="#FFFFFF" points="20 26 12.946577 29.7082039 14.2936609 21.854102 8.5873218 16.2917961 16.4732885 15.145898 20 8 23.5267115 15.145898 31.4126782 16.2917961 25.7063391 21.854102 27.053423 29.7082039"></polygon>
                            </g>
                        </g>
                    </g>
                </g>
            </g>
        </g>
    </g>
</svg>