<?xml version="1.0" encoding="UTF-8"?>
<svg width="160px" height="160px" viewBox="0 0 160 160" version="1.1" xmlns="http://www.w3.org/2000/svg" xmlns:xlink="http://www.w3.org/1999/xlink">
    <!-- Generator: Sketch 52.2 (67145) - http://www.bohemiancoding.com/sketch -->
    <title>img_learning</title>
    <desc>Created with Sketch.</desc>
    <g id="Page-1" stroke="none" stroke-width="1" fill="none" fill-rule="evenodd">
        <g id="02---Mission" transform="translate(-768.000000, -616.000000)">
            <g id="section---" transform="translate(172.000000, 476.000000)">
                <g id="Group-3-Copy-2" transform="translate(553.000000, 140.000000)">
                    <g id="Group-4">
                        <g id="Illustration/img_learning" transform="translate(43.000000, 0.000000)">
                            <g>
                                <circle id="Oval-4" fill="#E6DFFC" cx="80" cy="80" r="80"></circle>
                                <path d="M51.2380166,94.146026 C51.0693008,93.9444088 50.9677419,93.6846694 50.9677419,93.4012097 L50.9677419,87.53125 C50.9677419,83.6479979 54.1157398,80.5 57.9989919,80.5 L65.2539705,80.5 C69.4845392,83.4377093 74.8034507,85.1875 80.5806452,85.1875 C86.3578396,85.1875 91.6767511,83.4377093 95.9073198,80.5 L102.001008,80.5 C105.88426,80.5 109.032258,83.6479979 109.032258,87.53125 L109.032258,93.4012097 C109.032258,93.6846694 108.930699,93.9444088 108.761983,94.146026 C104.994697,90.8963725 100.078058,88.703125 94.3926756,88.703125 C89.1703562,88.703125 83.887074,91.1945983 80,94.3980782 C76.112926,91.1945983 70.8296438,88.703125 65.6073244,88.703125 C59.9219424,88.703125 55.0053027,90.8963725 51.2380166,94.146026 Z" id="Combined-Shape" fill="#6327EA" fill-rule="nonzero"></path>
                                <ellipse id="Oval" fill="#6327EA" fill-rule="nonzero" cx="80" cy="62.921875" rx="19.7419355" ry="19.921875"></ellipse>
                                <path d="M80,118 C74.6335356,112.879651 67.6328892,109.89941 60.0773145,109.89941 C54.2602541,109.89941 48.7397228,111.695699 44,114.80894 L47.8819941,100.031302 C51.8277032,94.9367364 58.0358075,91.046875 65.6073244,91.046875 C70.8296438,91.046875 76.112926,93.5383483 80,96.7418282 C83.887074,93.5383483 89.1703562,91.046875 94.3926756,91.046875 C101.964192,91.046875 108.172297,94.9367364 112.118006,100.031302 L116,114.80894 C111.260277,111.695699 105.739746,109.89941 99.9226855,109.89941 C92.3671108,109.89941 85.3664644,112.879651 80,118 Z" id="Combined-Shape" fill="#5818BE" fill-rule="nonzero"></path>
                            </g>
                        </g>
                    </g>
                </g>
            </g>
        </g>
    </g>
</svg>