<?xml version="1.0" encoding="UTF-8"?>
<svg width="160px" height="160px" viewBox="0 0 160 160" version="1.1" xmlns="http://www.w3.org/2000/svg" xmlns:xlink="http://www.w3.org/1999/xlink">
    <!-- Generator: Sketch 52.2 (67145) - http://www.bohemiancoding.com/sketch -->
    <title>img_earn_money</title>
    <desc>Created with Sketch.</desc>
    <defs>
        <linearGradient x1="50%" y1="-95.5191329%" x2="2.31757106%" y2="155.269167%" id="linearGradient-1">
            <stop stop-color="#7F14F4" offset="0%"></stop>
            <stop stop-color="#4D35E2" offset="100%"></stop>
        </linearGradient>
        <path d="M0.712984907,0.459082965 L16.224727,0.459082965 C18.1277599,0.459082965 19.9381754,1.28051603 21.191431,2.71260702 L38.5974678,22.602427 C39.2580743,23.8386674 39.6763501,24.8245168 39.8522951,25.5599753 C40.0282402,26.2954337 40.0282402,26.6938823 39.8522951,26.7553212 L66.9921313,26.9483676 C68.5520178,27.7120668 69.331961,29.2078107 69.331961,31.4355993 C69.331961,33.6633879 68.5520178,35.1484951 66.9921313,35.890921 L28.3667408,35.890921 C26.8671097,35.890921 25.4121883,35.380216 24.2415702,34.4429079 L5.19516025,19.1925419 L0.712984907,19.1925419 L0.712984907,0.459082965 Z" id="path-2"></path>
        <path d="M0.712984907,0.459082965 L16.224727,0.459082965 C18.1277599,0.459082965 19.9381754,1.28051603 21.191431,2.71260702 L38.5974678,22.602427 C39.2580743,23.8386674 39.6763501,24.8245168 39.8522951,25.5599753 C40.0282402,26.2954337 40.0282402,26.6938823 39.8522951,26.7553212 L66.9921313,26.9483676 C68.5520178,27.7120668 69.331961,29.2078107 69.331961,31.4355993 C69.331961,33.6633879 68.5520178,35.1484951 66.9921313,35.890921 L28.3667408,35.890921 C26.8671097,35.890921 25.4121883,35.380216 24.2415702,34.4429079 L5.19516025,19.1925419 L0.712984907,19.1925419 L0.712984907,0.459082965 Z" id="path-4"></path>
    </defs>
    <g id="Page-1" stroke="none" stroke-width="1" fill="none" fill-rule="evenodd">
        <g id="07a---Refferal-Program" transform="translate(-1019.000000, -789.000000)">
            <g id="section---" transform="translate(173.000000, 789.000000)">
                <g id="Group-3-Copy" transform="translate(759.000000, 0.000000)">
                    <g id="Group-4">
                        <g id="Illustration/img_earn_money" transform="translate(87.000000, 0.000000)">
                            <rect id="Rectangle-5" x="0" y="0" width="160" height="160"></rect>
                            <circle id="Oval-4" fill="#E6DFFC" cx="80" cy="80" r="80"></circle>
                            <g id="Group-35" transform="translate(81.000000, 80.000000) rotate(91.000000) translate(-81.000000, -80.000000) translate(39.000000, 28.000000)">
                                <g id="Group-29" transform="translate(0.000000, -0.000000)">
                                    <g id="Group-26" transform="translate(64.075844, 66.107023) rotate(-90.000000) translate(-64.075844, -66.107023) translate(26.224282, 46.299331)">
                                        <g id="Group-27" transform="translate(4.203979, 1.662260)">
                                            <mask id="mask-3" fill="white">
                                                <use xlink:href="#path-2"></use>
                                            </mask>
                                            <use id="Path-11" fill="url(#linearGradient-1)" xlink:href="#path-2"></use>
                                            <path d="M23.8223702,20.6970143 L32.6131429,29.3621685 C34.1459309,29.930033 35.5734837,29.930033 36.8958013,29.3621685 C38.2181189,28.794304 39.4456736,27.5907967 40.5784654,25.7516467" id="Path-5" stroke="#FFFFFF" stroke-width="1.08108008" mask="url(#mask-3)"></path>
                                        </g>
                                        <g id="Group-28">
                                            <rect id="Rectangle-13" fill="#FFFFFF" x="0" y="1.09234258" width="7.61662138" height="21.8468516"></rect>
                                            <rect id="Rectangle-13-Copy" fill="url(#linearGradient-1)" x="0" y="0" width="4.35235507" height="24.0315367"></rect>
                                        </g>
                                    </g>
                                    <g id="Group-21" transform="translate(34.742980, 29.925519)"></g>
                                    <g id="Group-26-Copy" transform="translate(20.544629, 38.744491) scale(-1, -1) rotate(-90.000000) translate(-20.544629, -38.744491) translate(-17.306934, 18.936799)">
                                        <g id="Group-27" transform="translate(4.203979, 1.662260)">
                                            <mask id="mask-5" fill="white">
                                                <use xlink:href="#path-4"></use>
                                            </mask>
                                            <use id="Path-11" fill="url(#linearGradient-1)" xlink:href="#path-4"></use>
                                            <path d="M23.8223702,20.6970143 L32.6131429,29.3621685 C34.1459309,29.930033 35.5734837,29.930033 36.8958013,29.3621685 C38.2181189,28.794304 39.4456736,27.5907967 40.5784654,25.7516467" id="Path-5" stroke="#FFFFFF" stroke-width="1.08108008" mask="url(#mask-5)"></path>
                                        </g>
                                        <g id="Group-28">
                                            <rect id="Rectangle-13" fill="#FFFFFF" x="0" y="1.09234258" width="7.61662138" height="21.8468516"></rect>
                                            <rect id="Rectangle-13-Copy" fill="url(#linearGradient-1)" x="0" y="0" width="4.35235507" height="24.0315367"></rect>
                                        </g>
                                    </g>
                                </g>
                                <g id="Group-24-Copy" transform="translate(49.000000, 43.000000) rotate(90.000000) translate(-49.000000, -43.000000) translate(38.000000, 32.000000)">
                                    <circle id="Oval-20" fill="#BEA7F6" cx="11" cy="11" r="11"></circle>
                                    <path d="M11.4969721,17.0401942 L10.0050697,17.0401942 L10.0050697,15.4751594 C7.97198705,15.197256 7.00663845,13.7199801 6.875,12.4767281 L8.68868526,12.0379333 C8.77644422,12.9594024 9.39075697,13.807739 10.7363944,13.807739 C11.6871165,13.807739 12.2429233,13.3543177 12.2429233,12.710752 C12.2429233,12.2134512 11.877261,11.8331624 11.1459363,11.6722709 L9.8002988,11.379741 C8.22063745,11.0287052 7.24066235,10.0341036 7.24066235,8.62996016 C7.24066235,7.07955179 8.44003486,5.93868526 10.0050697,5.69003486 L10.0050697,4.125 L11.4969721,4.125 L11.4969721,5.73391434 C13.1790189,6.04107072 13.9103436,7.21119024 14.1151145,8.19116534 L12.3160558,8.70309263 C12.2282968,8.19116534 11.848008,7.34282869 10.6486355,7.34282869 C9.71253984,7.34282869 9.20061255,7.88400896 9.20061255,8.48369522 C9.20061255,8.93711653 9.52239542,9.31740538 10.2098406,9.46367032 L11.5408516,9.77082669 C13.3837898,10.1803685 14.2175,11.2773556 14.2175,12.59374 C14.2175,13.9393775 13.2521514,15.1826295 11.4969721,15.4605329 L11.4969721,17.0401942 Z" id="$" fill="#FFFFFF"></path>
                                </g>
                                <g id="Group-24" transform="translate(36.000000, 63.000000) rotate(90.000000) translate(-36.000000, -63.000000) translate(23.000000, 50.000000)">
                                    <circle id="Oval-20" fill="url(#linearGradient-1)" cx="13" cy="13" r="13"></circle>
                                    <path d="M13.4802608,20.0909091 L11.7993481,20.0909091 L11.7993481,18.2291774 C9.5086925,17.8985895 8.4210431,16.141254 8.27272727,14.6623082 L10.3161898,14.1403274 C10.415067,15.2364872 11.1072075,16.2456502 12.6233249,16.2456502 C13.6944947,16.2456502 14.3207171,15.7062699 14.3207171,14.940698 C14.3207171,14.3491197 13.9087287,13.8967363 13.0847519,13.7053434 L11.5686346,13.3573561 C9.78884462,12.9397714 8.68471568,11.7566148 8.68471568,10.0862761 C8.68471568,8.24194379 10.0360377,6.88479358 11.7993481,6.58900443 L11.7993481,4.72727273 L13.4802608,4.72727273 L13.4802608,6.64120251 C15.3754075,7.00658911 16.1993843,8.39853804 16.4300978,9.56429527 L14.4031148,10.1732729 C14.3042376,9.56429527 13.8757696,8.5551323 12.5244477,8.5551323 C11.4697573,8.5551323 10.8929736,9.19890868 10.8929736,9.91228251 C10.8929736,10.4516627 11.2555234,10.9040461 12.0300616,11.0780397 L13.5296994,11.4434263 C15.606121,11.9306085 16.5454545,13.2355606 16.5454545,14.8015031 C16.5454545,16.4022444 15.4578051,17.8811902 13.4802608,18.211778 L13.4802608,20.0909091 Z" id="$" fill="#FFFFFF"></path>
                                </g>
                            </g>
                        </g>
                    </g>
                </g>
            </g>
        </g>
    </g>
</svg>