<?xml version="1.0" encoding="UTF-8"?>
<svg width="160px" height="160px" viewBox="0 0 160 160" version="1.1" xmlns="http://www.w3.org/2000/svg" xmlns:xlink="http://www.w3.org/1999/xlink">
    <!-- Generator: Sketch 52.2 (67145) - http://www.bohemiancoding.com/sketch -->
    <title>img_gain_access</title>
    <desc>Created with Sketch.</desc>
    <g id="Page-1" stroke="none" stroke-width="1" fill="none" fill-rule="evenodd">
        <g id="01---Landing-Page" transform="translate(-260.000000, -2446.000000)">
            <g id="section----copy" transform="translate(173.000000, 2305.000000)">
                <g id="Group-3" transform="translate(0.000000, 141.000000)">
                    <g id="Group-4">
                        <g id="Illustration/img_gain_access" transform="translate(87.000000, 0.000000)">
                            <circle id="Oval-4" fill="#E6DFFC" cx="80" cy="80" r="80"></circle>
                            <g id="Group-39" transform="translate(80.000000, 80.500000) rotate(-15.000000) translate(-80.000000, -80.500000) translate(41.000000, 47.000000)" fill-rule="nonzero">
                                <g id="Group-38">
                                    <rect id="Rectangle-17" fill="#6327EA" x="0" y="25.3513514" width="57.3793103" height="41.6486486" rx="5.40000021"></rect>
                                    <path d="M17.0344828,0 L43.0344828,0 L43.0344828,17.7837838 C43.0344828,24.9634855 37.2141845,30.7837838 30.0344828,30.7837838 L30.0344828,30.7837838 C22.854781,30.7837838 17.0344828,24.9634855 17.0344828,17.7837838 L17.0344828,16.0075676" id="Rectangle-18" stroke="#6327EA" stroke-width="7.20000029" stroke-linecap="round" stroke-linejoin="round" transform="translate(30.034483, 15.391892) rotate(-180.000000) translate(-30.034483, -15.391892) "></path>
                                    <path d="M31.0000889,47.6316218 L31.0000889,53.9999733 C31.0000889,55.1054547 30.1055456,56 29.0000667,56 C27.8945877,56 27.0000444,55.1054547 27.0000444,53.9999733 L27.0000444,47.6316218 C24.6770853,46.8032107 23,44.6039814 23,42.00008 C23,38.6915026 25.6914966,36 29.0000667,36 C32.3086368,36 35,38.6915026 35,42.00008 C35,44.6041147 33.3229147,46.8032107 31.0000889,47.6316218 Z" id="Path" fill="#FFFFFF"></path>
                                </g>
                                <path d="M77.4030214,6.64830225 C76.8643935,5.56040814 75.5529957,5.12390017 74.4777745,5.66359076 L65.7575535,10.0668319 C64.6802976,10.6107789 64.2438432,11.9330723 64.7824712,13.0209664 C65.3203725,14.1044572 66.6231952,14.5496249 67.7077181,14.0056779 L76.4279391,9.60243673 C77.5051951,9.05848967 77.9416494,7.73619636 77.4030214,6.64830225 Z" id="Shape" fill="#6327EA" opacity="0.3"></path>
                                <path d="M76.4279391,31.7978591 L67.7077181,27.394618 C66.6304622,26.8528726 65.3232792,27.2892338 64.7824712,28.3793295 C64.2438432,29.4672236 64.6802976,30.7895169 65.7575535,31.333464 L74.4777745,35.7367051 C75.5654949,36.2822667 76.8668642,35.8319619 77.4030214,34.7519936 C77.9416494,33.6640995 77.5051951,32.3418062 76.4279391,31.7978591 Z" id="Shape" fill="#6327EA" opacity="0.3"></path>
                                <path d="M75.4520368,19.0135135 L66.7318157,19.0135135 C65.5268064,19.0135135 64.5517241,19.998225 64.5517241,21.2151341 C64.5517241,22.4320432 65.5268064,23.4167546 66.7318157,23.4167546 L75.4520368,23.4167546 C76.6570461,23.4167546 77.6321284,22.4320432 77.6321284,21.2151341 C77.6321284,19.998225 76.6570461,19.0135135 75.4520368,19.0135135 Z" id="Shape" fill="#6327EA" opacity="0.3"></path>
                            </g>
                        </g>
                    </g>
                </g>
            </g>
        </g>
    </g>
</svg>