<?xml version="1.0" encoding="utf-8"?>
<!-- Generator: Adobe Illustrator 23.0.1, SVG Export Plug-In . SVG Version: 6.00 Build 0)  -->
<svg version="1.1" id="Layer_1" xmlns="http://www.w3.org/2000/svg" xmlns:xlink="http://www.w3.org/1999/xlink" x="0px" y="0px"
	 viewBox="0 0 519 407" style="enable-background:new 0 0 519 407;" xml:space="preserve">
<style type="text/css">
	.st0{fill-rule:evenodd;clip-rule:evenodd;fill:#EAE5FB;}
	.st1{opacity:2.000000e-02;fill-rule:evenodd;clip-rule:evenodd;fill:#1C036C;enable-background:new    ;}
	.st2{fill:#02BC85;}
	.st3{filter:url(#Adobe_OpacityMaskFilter);}
	.st4{fill-rule:evenodd;clip-rule:evenodd;fill:#FFFFFF;}
	.st5{mask:url(#mask-2_1_);fill:none;stroke:#07946A;stroke-width:0.6;}
	.st6{filter:url(#Adobe_OpacityMaskFilter_1_);}
	.st7{mask:url(#mask-2_2_);fill:none;stroke:#07946A;stroke-width:0.6;}
	.st8{filter:url(#Adobe_OpacityMaskFilter_2_);}
	.st9{mask:url(#mask-2_3_);fill:none;stroke:#07946A;stroke-width:0.6;}
	.st10{filter:url(#Adobe_OpacityMaskFilter_3_);}
	.st11{mask:url(#mask-2_4_);fill:none;stroke:#07946A;stroke-width:0.6;}
	.st12{fill:#00D495;}
	.st13{filter:url(#Adobe_OpacityMaskFilter_4_);}
	.st14{mask:url(#mask-4_1_);fill:none;stroke:#07946A;stroke-width:0.6;}
	.st15{filter:url(#Adobe_OpacityMaskFilter_5_);}
	.st16{mask:url(#mask-4_2_);fill:none;stroke:#07946A;stroke-width:0.6;}
	.st17{filter:url(#Adobe_OpacityMaskFilter_6_);}
	.st18{mask:url(#mask-4_3_);fill:none;stroke:#07946A;stroke-width:0.6;}
	.st19{filter:url(#Adobe_OpacityMaskFilter_7_);}
	.st20{mask:url(#mask-4_4_);fill:none;stroke:#07946A;stroke-width:0.6;}
	.st21{fill:#FF625A;}
	.st22{fill:#FFC430;}
	.st23{fill:#29CD42;}
	.st24{fill-rule:evenodd;clip-rule:evenodd;fill:#5A2CE7;}
	.st25{fill:#FFFFFF;}
	.st26{font-family:'CircularStd-Bold';}
	.st27{font-size:10.8px;}
	.st28{fill-rule:evenodd;clip-rule:evenodd;}
	.st29{fill:#999999;}
	.st30{fill-rule:evenodd;clip-rule:evenodd;fill:#30007D;}
	.st31{filter:url(#Adobe_OpacityMaskFilter_8_);}
	.st32{mask:url(#mask-14_1_);fill-rule:evenodd;clip-rule:evenodd;fill-opacity:0.3;}
	.st33{fill:#FED2F5;}
	.st34{filter:url(#Adobe_OpacityMaskFilter_9_);}
	.st35{mask:url(#mask-16_1_);fill:#F9B7EB;}
	.st36{filter:url(#Adobe_OpacityMaskFilter_10_);}
	.st37{opacity:5.000000e-02;mask:url(#mask-18_1_);fill-rule:evenodd;clip-rule:evenodd;enable-background:new    ;}
	.st38{filter:url(#Adobe_OpacityMaskFilter_11_);}
	.st39{opacity:4.693080e-02;mask:url(#mask-20_1_);fill-rule:evenodd;clip-rule:evenodd;enable-background:new    ;}
	.st40{filter:url(#Adobe_OpacityMaskFilter_12_);}
	.st41{mask:url(#mask-20_2_);fill:#E69F9C;}
	.st42{filter:url(#Adobe_OpacityMaskFilter_13_);}
	.st43{mask:url(#mask-20_3_);}
	.st44{fill:url(#SVGID_1_);}
	.st45{fill:url(#SVGID_2_);}
	.st46{filter:url(#Adobe_OpacityMaskFilter_14_);}
	.st47{mask:url(#mask-25_1_);fill:#FFFFFF;}
	.st48{filter:url(#Adobe_OpacityMaskFilter_15_);}
	.st49{opacity:0.1956;mask:url(#mask-25_2_);enable-background:new    ;}
	.st50{filter:url(#Adobe_OpacityMaskFilter_16_);}
	.st51{mask:url(#mask-25_3_);}
	.st52{filter:url(#Adobe_OpacityMaskFilter_17_);}
	.st53{opacity:0.1;mask:url(#mask-20_4_);fill-rule:evenodd;clip-rule:evenodd;enable-background:new    ;}
	.st54{fill-rule:evenodd;clip-rule:evenodd;fill:url(#SVGID_3_);}
	.st55{filter:url(#Adobe_OpacityMaskFilter_18_);}
	.st56{mask:url(#mask-28_1_);fill:#0C1642;}
	.st57{filter:url(#Adobe_OpacityMaskFilter_19_);}
	.st58{mask:url(#mask-30_1_);fill:#0C1642;}
	.st59{fill:url(#SVGID_4_);}
	.st60{filter:url(#Adobe_OpacityMaskFilter_20_);}
	.st61{mask:url(#mask-33_1_);fill-opacity:0.2;}
	.st62{filter:url(#Adobe_OpacityMaskFilter_21_);}
	.st63{mask:url(#mask-33_2_);fill-opacity:0.2;}
	.st64{filter:url(#Adobe_OpacityMaskFilter_22_);}
	.st65{mask:url(#mask-33_3_);fill-opacity:0.2;}
	.st66{filter:url(#Adobe_OpacityMaskFilter_23_);}
	.st67{mask:url(#mask-33_4_);fill:none;stroke:#FFFFFF;stroke-width:1.0291;stroke-dasharray:5.5;}
	.st68{filter:url(#Adobe_OpacityMaskFilter_24_);}
	.st69{mask:url(#mask-33_5_);fill:none;stroke:#FFFFFF;stroke-width:1.0291;stroke-dasharray:5.5;}
	.st70{filter:url(#Adobe_OpacityMaskFilter_25_);}
	
		.st71{opacity:0.5;mask:url(#mask-33_6_);fill:none;stroke:#FFFFFF;stroke-width:1.0291;stroke-dasharray:5.5;enable-background:new    ;}
	.st72{filter:url(#Adobe_OpacityMaskFilter_26_);}
	
		.st73{opacity:0.5;mask:url(#mask-33_7_);fill:none;stroke:#FFFFFF;stroke-width:1.0291;stroke-dasharray:5.5;enable-background:new    ;}
	.st74{filter:url(#Adobe_OpacityMaskFilter_27_);}
	.st75{mask:url(#mask-35_1_);fill:#902E7C;}
	.st76{filter:url(#Adobe_OpacityMaskFilter_28_);}
	.st77{mask:url(#mask-35_2_);fill:#902E7C;}
	.st78{filter:url(#Adobe_OpacityMaskFilter_29_);}
	
		.st79{opacity:0.2739;mask:url(#mask-35_3_);fill:none;stroke:#91357F;stroke-width:0.9413;stroke-linecap:round;stroke-linejoin:round;enable-background:new    ;}
	.st80{filter:url(#Adobe_OpacityMaskFilter_30_);}
	.st81{mask:url(#mask-35_4_);fill:none;stroke:#902E7C;stroke-width:0.8404;stroke-linecap:round;stroke-linejoin:round;}
	.st82{filter:url(#Adobe_OpacityMaskFilter_31_);}
	.st83{opacity:5.000000e-02;mask:url(#mask-35_5_);enable-background:new    ;}
	.st84{opacity:0.2;}
	.st85{fill:#30007D;}
	.st86{filter:url(#Adobe_OpacityMaskFilter_32_);}
	.st87{opacity:0.2545;mask:url(#mask-37_1_);enable-background:new    ;}
	.st88{filter:url(#Adobe_OpacityMaskFilter_33_);}
	.st89{mask:url(#mask-39_1_);fill:#902E7C;}
	.st90{filter:url(#Adobe_OpacityMaskFilter_34_);}
	.st91{opacity:0.1;mask:url(#mask-39_2_);enable-background:new    ;}
	.st92{filter:url(#Adobe_OpacityMaskFilter_35_);}
	.st93{mask:url(#mask-39_3_);fill:none;stroke:#902E7C;stroke-width:0.9703;stroke-linecap:round;stroke-linejoin:round;}
	.st94{fill:#0C1642;}
	.st95{fill-rule:evenodd;clip-rule:evenodd;fill:#FED2F5;}
	.st96{fill:url(#SVGID_5_);}
	.st97{filter:url(#Adobe_OpacityMaskFilter_36_);}
	.st98{mask:url(#mask-46_1_);fill-opacity:0.2;}
	.st99{filter:url(#Adobe_OpacityMaskFilter_37_);}
	.st100{mask:url(#mask-46_2_);fill-opacity:0.2;}
	.st101{filter:url(#Adobe_OpacityMaskFilter_38_);}
	
		.st102{opacity:0.5;mask:url(#mask-46_3_);fill:none;stroke:#FFFFFF;stroke-width:1.0291;stroke-dasharray:5.5;enable-background:new    ;}
	.st103{filter:url(#Adobe_OpacityMaskFilter_39_);}
	
		.st104{opacity:0.5;mask:url(#mask-46_4_);fill:none;stroke:#FFFFFF;stroke-width:1.0291;stroke-dasharray:5.5;enable-background:new    ;}
	.st105{fill:url(#SVGID_6_);}
	.st106{filter:url(#Adobe_OpacityMaskFilter_40_);}
	.st107{opacity:0.1956;mask:url(#mask-49_1_);enable-background:new    ;}
	.st108{filter:url(#Adobe_OpacityMaskFilter_41_);}
	.st109{opacity:0.1956;mask:url(#mask-49_2_);enable-background:new    ;}
	.st110{filter:url(#Adobe_OpacityMaskFilter_42_);}
	.st111{mask:url(#mask-49_3_);fill:#FFFFFF;}
	.st112{filter:url(#Adobe_OpacityMaskFilter_43_);}
	.st113{mask:url(#mask-49_4_);fill-rule:evenodd;clip-rule:evenodd;fill:#FFFFFF;}
</style>
<title>img_based_vetted</title>
<desc>Created with Sketch.</desc>
<g id="Page-1">
	<g transform="translate(-179.000000, -3645.000000)">
		<g id="section---illustration" transform="translate(169.000000, 3081.000000)">
			<g id="section" transform="translate(6.000000, 554.000000)">
				<g transform="translate(4.000000, 10.000000)">
					<g id="Group-9-Copy">
						<path id="Rectangle-11" class="st0" d="M95,0h303.6c3.3,0,6,2.7,6,6v162c0,3.3-2.7,6-6,6H95c-3.3,0-6-2.7-6-6V6
							C89,2.7,91.7,0,95,0z"/>
						<path id="Combined-Shape" class="st1" d="M280.3,396.9c-17.8,4.3-45.3,7.1-76.3,7.1c-29.2,0-55.5-2.5-73.3-6.4
							c-13.9,2.7-32.6,4.4-53.2,4.4C34.7,402,0,394.8,0,386s34.7-16,77.5-16c19.5,0,37.2,1.5,50.8,3.9c17.8-4.2,45.1-6.9,75.7-6.9
							c27.2,0,51.8,2.1,69.4,5.6c23.8-5.8,65.1-9.6,112.1-9.6c73.7,0,133.5,9.4,133.5,21s-59.8,21-133.5,21
							C342.8,405,304.7,401.8,280.3,396.9z"/>
						
							<g id="Group-63" transform="translate(217.500000, 329.248988) rotate(31.000000) translate(-217.500000, -329.248988) translate(175.000000, 288.000000)">
							<g id="Group-62" transform="translate(35.000000, 0.000000)">
								<g id="Path-45">
									<path class="st2" d="M42.9,77C16.2,56.9,2.2,31.4,0.9,0.5C30.2,18.3,46.1,43.8,48.5,77H42.9z"/>
								</g>
								<defs>
									<filter id="Adobe_OpacityMaskFilter" filterUnits="userSpaceOnUse">
										<feColorMatrix  type="matrix" values="1 0 0 0 0  0 1 0 0 0  0 0 1 0 0  0 0 0 1 0"/>
									</filter>
								</defs>
								<mask maskUnits="userSpaceOnUse" id="mask-2_1_">
									<g class="st3">
										<path id="path-1_1_" class="st4" d="M42.9,77C16.2,56.9,2.2,31.4,0.9,0.5C30.2,18.3,46.1,43.8,48.5,77H42.9z"/>
									</g>
								</mask>
								<path id="Path-50" class="st5" d="M0-1.7C11.1,25.7,25.1,46.5,42,60.8"/>
								<defs>
									<filter id="Adobe_OpacityMaskFilter_1_" filterUnits="userSpaceOnUse" x="4.4" y="7.8" width="9.7" height="17.2">
										<feColorMatrix  type="matrix" values="1 0 0 0 0  0 1 0 0 0  0 0 1 0 0  0 0 0 1 0"/>
									</filter>
								</defs>
								<mask maskUnits="userSpaceOnUse" x="4.4" y="7.8" width="9.7" height="17.2" id="mask-2_2_">
									<g class="st6">
										<path id="path-1_2_" class="st4" d="M42.9,77C16.2,56.9,2.2,31.4,0.9,0.5C30.2,18.3,46.1,43.8,48.5,77H42.9z"/>
									</g>
								</mask>
								<polyline id="Path-51" class="st7" points="-0.3,16.8 10.6,20.8 14.1,8.1 								"/>
								<defs>
									<filter id="Adobe_OpacityMaskFilter_2_" filterUnits="userSpaceOnUse" x="11.4" y="17.2" width="13.5" height="25.3">
										<feColorMatrix  type="matrix" values="1 0 0 0 0  0 1 0 0 0  0 0 1 0 0  0 0 0 1 0"/>
									</filter>
								</defs>
								<mask maskUnits="userSpaceOnUse" x="11.4" y="17.2" width="13.5" height="25.3" id="mask-2_3_">
									<g class="st8">
										<path id="path-1_3_" class="st4" d="M42.9,77C16.2,56.9,2.2,31.4,0.9,0.5C30.2,18.3,46.1,43.8,48.5,77H42.9z"/>
									</g>
								</mask>
								<polyline id="Path-52" class="st9" points="7.3,35.4 20.3,36.7 24.7,17.4 								"/>
								<defs>
									<filter id="Adobe_OpacityMaskFilter_3_" filterUnits="userSpaceOnUse" x="15.5" y="27.4" width="21" height="30.8">
										<feColorMatrix  type="matrix" values="1 0 0 0 0  0 1 0 0 0  0 0 1 0 0  0 0 0 1 0"/>
									</filter>
								</defs>
								<mask maskUnits="userSpaceOnUse" x="15.5" y="27.4" width="21" height="30.8" id="mask-2_4_">
									<g class="st10">
										<path id="path-1_4_" class="st4" d="M42.9,77C16.2,56.9,2.2,31.4,0.9,0.5C30.2,18.3,46.1,43.8,48.5,77H42.9z"/>
									</g>
								</mask>
								<polyline id="Path-53" class="st11" points="10.5,49.6 30,49 36.5,27.6 								"/>
							</g>
							<g id="Group-61" transform="translate(0.000000, 31.188259)">
								<g id="Path-43">
									<path class="st12" d="M79.4,50.3C48.6,45.6,22.2,29.1,0.2,0.9c37.3,0,65.5,16.5,84.6,49.5L79.4,50.3z"/>
								</g>
								<defs>
									<filter id="Adobe_OpacityMaskFilter_4_" filterUnits="userSpaceOnUse" x="39.3" y="-25.7" width="1.5" height="93.6">
										<feColorMatrix  type="matrix" values="1 0 0 0 0  0 1 0 0 0  0 0 1 0 0  0 0 0 1 0"/>
									</filter>
								</defs>
								<mask maskUnits="userSpaceOnUse" x="39.3" y="-25.7" width="1.5" height="93.6" id="mask-4_1_">
									<g class="st13">
										<path id="path-3_1_" class="st4" d="M79.4,50.3C48.6,45.6,22.2,29.1,0.2,0.9c37.3,0,65.5,16.5,84.6,49.5L79.4,50.3z"/>
									</g>
								</mask>
								<path id="Path-46" class="st14" d="M-1.4-0.3c34.7,24.6,62.2,38.8,82.7,42.6"/>
								<defs>
									<filter id="Adobe_OpacityMaskFilter_5_" filterUnits="userSpaceOnUse" x="10.7" y="0.3" width="6.9" height="21.2">
										<feColorMatrix  type="matrix" values="1 0 0 0 0  0 1 0 0 0  0 0 1 0 0  0 0 0 1 0"/>
									</filter>
								</defs>
								<mask maskUnits="userSpaceOnUse" x="10.7" y="0.3" width="6.9" height="21.2" id="mask-4_2_">
									<g class="st15">
										<path id="path-3_2_" class="st4" d="M79.4,50.3C48.6,45.6,22.2,29.1,0.2,0.9c37.3,0,65.5,16.5,84.6,49.5L79.4,50.3z"/>
									</g>
								</mask>
								<polyline id="Path-47" class="st16" points="8.6,17.9 21,14.8 17.4,0.5 								"/>
								<defs>
									<filter id="Adobe_OpacityMaskFilter_6_" filterUnits="userSpaceOnUse" x="24" y="4.2" width="8.5" height="27.4">
										<feColorMatrix  type="matrix" values="1 0 0 0 0  0 1 0 0 0  0 0 1 0 0  0 0 0 1 0"/>
									</filter>
								</defs>
								<mask maskUnits="userSpaceOnUse" x="24" y="4.2" width="8.5" height="27.4" id="mask-4_3_">
									<g class="st17">
										<path id="path-3_3_" class="st4" d="M79.4,50.3C48.6,45.6,22.2,29.1,0.2,0.9c37.3,0,65.5,16.5,84.6,49.5L79.4,50.3z"/>
									</g>
								</mask>
								<polyline id="Path-48" class="st18" points="22.4,28.7 36.3,23.9 32.3,4.4 								"/>
								<defs>
									<filter id="Adobe_OpacityMaskFilter_7_" filterUnits="userSpaceOnUse" x="39.9" y="11.9" width="10.5" height="28">
										<feColorMatrix  type="matrix" values="1 0 0 0 0  0 1 0 0 0  0 0 1 0 0  0 0 0 1 0"/>
									</filter>
								</defs>
								<mask maskUnits="userSpaceOnUse" x="39.9" y="11.9" width="10.5" height="28" id="mask-4_4_">
									<g class="st19">
										<path id="path-3_4_" class="st4" d="M79.4,50.3C48.6,45.6,22.2,29.1,0.2,0.9c37.3,0,65.5,16.5,84.6,49.5L79.4,50.3z"/>
									</g>
								</mask>
								<polyline id="Path-49" class="st20" points="38.9,38.2 52.2,32.1 50.2,12.1 								"/>
							</g>
						</g>
						<path class="st0" d="M249,368.9l47.5,20.6h-112L237,369V166h12V368.9z"/>
						<ellipse id="Oval" class="st21" cx="118.8" cy="18.8" rx="2.8" ry="2.8"/>
						<ellipse class="st22" cx="128.6" cy="18.8" rx="2.8" ry="2.8"/>
						<ellipse class="st23" cx="138.6" cy="18.8" rx="2.8" ry="2.8"/>
						<g id="Group-5" transform="translate(110.599999, 73.399997)">
							<path id="Rectangle" class="st24" d="M2.4,0h121.2c1.3,0,2.4,1.1,2.4,2.4v25.2c0,1.3-1.1,2.4-2.4,2.4H2.4
								C1.1,30,0,28.9,0,27.6V2.4C0,1.1,1.1,0,2.4,0z"/>
							<text transform="matrix(1 0 0 1 40.8 17.6)" class="st25 st26 st27">Designer</text>
						</g>
						<g id="Group-5-Copy-3" transform="translate(250.999990, 33.199999)">
							<path class="st24" d="M2.4,0h121.2c1.3,0,2.4,1.1,2.4,2.4v25.2c0,1.3-1.1,2.4-2.4,2.4H2.4C1.1,30,0,28.9,0,27.6V2.4
								C0,1.1,1.1,0,2.4,0z"/>
							<text transform="matrix(1 0 0 1 20.6 17.6)" class="st25 st26 st27">Tech Consultants</text>
						</g>
						<g id="Group-5-Copy-5" transform="translate(250.999990, 113.599994)">
							<g>
								<g>
									<path id="path-5" class="st28" d="M2.4,0h121.2c1.3,0,2.4,1.1,2.4,2.4v25.2c0,1.3-1.1,2.4-2.4,2.4H2.4
										C1.1,30,0,28.9,0,27.6V2.4C0,1.1,1.1,0,2.4,0z"/>
								</g>
								<g>
									<path class="st4" d="M2.4,0h121.2c1.3,0,2.4,1.1,2.4,2.4v25.2c0,1.3-1.1,2.4-2.4,2.4H2.4C1.1,30,0,28.9,0,27.6V2.4
										C0,1.1,1.1,0,2.4,0z"/>
								</g>
							</g>
							<text transform="matrix(1 0 0 1 20.4 17.6)" class="st29 st26 st27">Digital Marketers</text>
						</g>
						<g id="Group-5-Copy-4" transform="translate(250.999990, 73.399997)">
							<g>
								<g>
									<path id="path-7" class="st28" d="M2.4,0h121.2c1.3,0,2.4,1.1,2.4,2.4v25.2c0,1.3-1.1,2.4-2.4,2.4H2.4
										C1.1,30,0,28.9,0,27.6V2.4C0,1.1,1.1,0,2.4,0z"/>
								</g>
								<g>
									<path class="st4" d="M2.4,0h121.2c1.3,0,2.4,1.1,2.4,2.4v25.2c0,1.3-1.1,2.4-2.4,2.4H2.4C1.1,30,0,28.9,0,27.6V2.4
										C0,1.1,1.1,0,2.4,0z"/>
								</g>
							</g>
							<text transform="matrix(1 0 0 1 25.2 17.6)" class="st29 st26 st27">Data Scientists</text>
						</g>
						<g id="Group-5-Copy" transform="translate(110.599999, 33.199999)">
							<g>
								<g>
									<path id="path-9" class="st28" d="M2.4,0h121.2c1.3,0,2.4,1.1,2.4,2.4v25.2c0,1.3-1.1,2.4-2.4,2.4H2.4
										C1.1,30,0,28.9,0,27.6V2.4C0,1.1,1.1,0,2.4,0z"/>
								</g>
								<g>
									<path class="st4" d="M2.4,0h121.2c1.3,0,2.4,1.1,2.4,2.4v25.2c0,1.3-1.1,2.4-2.4,2.4H2.4C1.1,30,0,28.9,0,27.6V2.4
										C0,1.1,1.1,0,2.4,0z"/>
								</g>
							</g>
							<text transform="matrix(1 0 0 1 35.2 17.6)" class="st29 st26 st27">Developers</text>
						</g>
						<g id="Group-5-Copy-2" transform="translate(110.599999, 113.599994)">
							<g>
								<g>
									<path id="path-11" class="st28" d="M2.4,0h121.2c1.3,0,2.4,1.1,2.4,2.4v25.2c0,1.3-1.1,2.4-2.4,2.4H2.4
										C1.1,30,0,28.9,0,27.6V2.4C0,1.1,1.1,0,2.4,0z"/>
								</g>
								<g>
									<path class="st4" d="M2.4,0h121.2c1.3,0,2.4,1.1,2.4,2.4v25.2c0,1.3-1.1,2.4-2.4,2.4H2.4C1.1,30,0,28.9,0,27.6V2.4
										C0,1.1,1.1,0,2.4,0z"/>
								</g>
							</g>
							<text transform="matrix(1 0 0 1 17.4 17.6)" class="st29 st26 st27">Project Managers</text>
						</g>
					</g>
					<g id="Group-7" transform="translate(281.000000, 49.000000)">
						<g id="Group-18" transform="translate(101.000000, 0.000000)">
							<g transform="translate(24.219783, 40.204891) rotate(1.000000) translate(-24.219783, -40.204891) ">
								<path class="st30" d="M46,49.5c3.7-27.8-2.4-43.8-18.1-47.8c-4.7-1.2-12.4,0.5-17,3.8c-4.7,3.4-7,9.1-7.3,10.5
									c-2,8.6-2.2,18-1.6,31.3C2,48.9,5.9,77,19.5,78c3.6,0.3,8.4,2.6,17,0C42.2,76.2,45.4,66.7,46,49.5z"/>
							</g>
							<defs>
								<filter id="Adobe_OpacityMaskFilter_8_" filterUnits="userSpaceOnUse" x="-1.7" y="18.1" width="52.7" height="40.9">
									<feColorMatrix  type="matrix" values="1 0 0 0 0  0 1 0 0 0  0 0 1 0 0  0 0 0 1 0"/>
								</filter>
							</defs>
							<mask maskUnits="userSpaceOnUse" x="-1.7" y="18.1" width="52.7" height="40.9" id="mask-14_1_">
								<g class="st31">
									<path id="path-13_1_" class="st4" d="M46.1,49.1c3.2-27.9-3.1-43.7-19-47.5c-4.8-1.1-12.4,0.7-17,4.1
										C5.6,9.2,3.4,15,3.1,16.4c-1.8,8.6-1.9,18-1,31.3c0.1,1.6,4.5,29.7,18.1,30.4c3.6,0.2,8.4,2.5,17-0.3
										C42.9,75.9,45.8,66.3,46.1,49.1z"/>
								</g>
							</mask>
							<path id="Path-5" class="st32" d="M31.5,26c2.7-6.7,7.2-8.5,13.5-5.5s7.7,13.2,4,30.5l-26,8C10.2,55.8,2.6,52.2,0,48
								c-4.3-6.9,0.7-18.6,1.5-22c0.8-3.3,3.4-9.6,9-7.5c2,0.7,3.5,3.8,6,4.5C19.3,23.7,24.3,24.7,31.5,26z"/>
						</g>
						<g id="Group-19" transform="translate(0.739152, 2.443084)">
							<g id="Group-82" transform="translate(0.000000, 0.556916)">
								<g>
									<path class="st33" d="M7,15.6C4.2,13,1.9,9.5,2.9,8.7c0.5-0.4,1.6,0,3.2,1C6.4,8.4,6.8,7,7.4,5.4c-5.2-2.6-7.7-4.2-7.4-5
										C0.5-0.8,10,1.5,13.2,3.5C15.4,4.8,18.7,9,23.3,16l-8,5.5C11.3,19.2,8.5,17.3,7,15.6z"/>
								</g>
								<defs>
									<filter id="Adobe_OpacityMaskFilter_9_" filterUnits="userSpaceOnUse" x="5.8" y="5.3" width="5.1" height="7.3">
										<feColorMatrix  type="matrix" values="1 0 0 0 0  0 1 0 0 0  0 0 1 0 0  0 0 0 1 0"/>
									</filter>
								</defs>
								<mask maskUnits="userSpaceOnUse" x="5.8" y="5.3" width="5.1" height="7.3" id="mask-16_1_">
									<g class="st34">
										<path id="path-15_1_" class="st4" d="M7,15.6C4.2,13,1.9,9.5,2.9,8.7c0.5-0.4,1.6,0,3.2,1C6.4,8.4,6.8,7,7.4,5.4
											c-5.2-2.6-7.7-4.2-7.4-5C0.5-0.8,10,1.5,13.2,3.5C15.4,4.8,18.7,9,23.3,16l-8,5.5C11.3,19.2,8.5,17.3,7,15.6z"/>
									</g>
								</mask>
								<path id="Path-114" class="st35" d="M7.2,5.3c1.6,0.9,4.5,3.9,3.5,7c-0.4,1.3-3.5-1.6-4.9-2.7L7.2,5.3z"/>
							</g>
							<g id="Group-58" transform="translate(151.000000, 116.000000)">
								<g id="Path-87" transform="translate(26.185684, 32.344567) rotate(-112.000000) translate(-26.185684, -32.344567) ">
									<path class="st33" d="M19.9,9.8c1.2,3.1,2.9,8.1,4.4,14.1c0.8,3.1,1.8,8.6,3.3,16.4c-0.2,5.5-12.8,10.6-11,13.5
										s4.9-2.4,6.7-1c1.7,1.4-4.5,5-3.3,7.8c1.2,2.9,10.7-0.1,12-2.4c1.3-2.3,5-6.2,3.7-14.2c0.6-19.1,0.2-31.5-1.3-37.1
										C33.8,5,16.6,1.6,19.9,9.8z"/>
								</g>
								<defs>
									<filter id="Adobe_OpacityMaskFilter_10_" filterUnits="userSpaceOnUse" x="2.8" y="-26.9" width="21" height="54.5">
										<feColorMatrix  type="matrix" values="1 0 0 0 0  0 1 0 0 0  0 0 1 0 0  0 0 0 1 0"/>
									</filter>
								</defs>
								<mask maskUnits="userSpaceOnUse" x="2.8" y="-26.9" width="21" height="54.5" id="mask-18_1_">
									<g class="st36">
										<path id="path-17_1_" class="st4" d="M49.4,34.9c-3.3,0-8.6-0.3-14.7-1.2c-3.2-0.5-8.7-1.5-16.5-3.1
											c-5.1-2.3-5.1-15.8-8.4-15.3c-3.3,0.5,0.4,5.5-1.5,6.6s-3-6-6-6s-3.9,10-2.3,12s3.9,6.9,11.8,8.8
											C29.4,44.4,41,48.6,46.8,49.4C48.7,49.6,58.3,34.9,49.4,34.9z"/>
									</g>
								</mask>
								<path id="Path-54" class="st37" d="M23.8,27.1c-2.3-28.7-8.7-46.7-19-54c-1.3,2.3-2,3.5-2,3.5l19.5,51L23.8,27.1z"/>
							</g>
							<g id="hand">
								<path class="st33" d="M117.5,48.4c-19.7,2-34.1,2-43.2,0c-3.5-0.8-9.3-5.2-13.7-7.9c-6.4-3.4-11.4-6.1-14.8-8.2
									c-10-6.2-19.4-14.1-20.9-15.4c-1.1-1-7.9-6.1-9-3.7c-1.1,2.4-1.1,7.2-1,7.5c1,4.5,35.2,37.3,45.7,44.6
									c11,7.5,19.2,9.3,22,15.9c2.3,5.4,6.4,17.5,12.3,36.2c5.8,6.4,14.5,10.8,26.1,13.2c17.5,3.6,26.5,3.7,36.3,1.2
									c1.4-2.1,2.2-4,2.2-5.5c0.1-5.2-4.4-24.2-2.2-25.3c2.2-1.1,4.1,2.9,8.1,12.1c1.7,4,4.8,11.2,6.1,14.2
									c9.2,2.7,13.8,1.7,13.7-3.2c-0.1-3.2-4.7-20.8-7.1-25.8C171.7,81.9,164,70,155,62.3S133.4,50,117.5,48.4z"/>
							</g>
							<defs>
								<filter id="Adobe_OpacityMaskFilter_11_" filterUnits="userSpaceOnUse" x="18.7" y="25.6" width="57.9" height="47.1">
									<feColorMatrix  type="matrix" values="1 0 0 0 0  0 1 0 0 0  0 0 1 0 0  0 0 0 1 0"/>
								</filter>
							</defs>
							<mask maskUnits="userSpaceOnUse" x="18.7" y="25.6" width="57.9" height="47.1" id="mask-20_1_">
								<g class="st38">
									<path id="path-19_1_" class="st4" d="M117.5,48.4c-19.7,2-34.1,2-43.2,0c-3.5-0.8-9.3-5.2-13.7-7.9
										c-6.4-3.4-11.4-6.1-14.8-8.2c-10-6.2-19.4-14.1-20.9-15.4c-1.1-1-7.9-6.1-9-3.7c-1.1,2.4-1.1,7.2-1,7.5
										c1,4.5,35.2,37.3,45.7,44.6c11,7.5,19.2,9.3,22,15.9c2.3,5.4,6.4,17.5,12.3,36.2c5.8,6.4,14.5,10.8,26.1,13.2
										c17.5,3.6,26.5,3.7,36.3,1.2c1.4-2.1,2.2-4,2.2-5.5c0.1-5.2-4.4-24.2-2.2-25.3c2.2-1.1,4.1,2.9,8.1,12.1
										c1.7,4,4.8,11.2,6.1,14.2c9.2,2.7,13.8,1.7,13.7-3.2c-0.1-3.2-4.7-20.8-7.1-25.8C171.7,81.9,164,70,155,62.3
										S133.4,50,117.5,48.4z"/>
								</g>
							</mask>
							<path class="st39" d="M76.5,68c-5.7-3.6-9.9-6.2-12.7-7.8c-15.1-8.5-41.2-30.5-45.1-34.6c15,16.9,22.5,25.3,22.5,25.3
								c14.9,11.7,24.6,18.8,29.1,21.4C73.7,74.2,77.5,68.7,76.5,68z"/>
							<defs>
								<filter id="Adobe_OpacityMaskFilter_12_" filterUnits="userSpaceOnUse" x="61" y="90.5" width="38.9" height="35.7">
									<feColorMatrix  type="matrix" values="1 0 0 0 0  0 1 0 0 0  0 0 1 0 0  0 0 0 1 0"/>
								</filter>
							</defs>
							<mask maskUnits="userSpaceOnUse" x="61" y="90.5" width="38.9" height="35.7" id="mask-20_2_">
								<g class="st40">
									<path id="path-19_2_" class="st4" d="M117.5,48.4c-19.7,2-34.1,2-43.2,0c-3.5-0.8-9.3-5.2-13.7-7.9
										c-6.4-3.4-11.4-6.1-14.8-8.2c-10-6.2-19.4-14.1-20.9-15.4c-1.1-1-7.9-6.1-9-3.7c-1.1,2.4-1.1,7.2-1,7.5
										c1,4.5,35.2,37.3,45.7,44.6c11,7.5,19.2,9.3,22,15.9c2.3,5.4,6.4,17.5,12.3,36.2c5.8,6.4,14.5,10.8,26.1,13.2
										c17.5,3.6,26.5,3.7,36.3,1.2c1.4-2.1,2.2-4,2.2-5.5c0.1-5.2-4.4-24.2-2.2-25.3c2.2-1.1,4.1,2.9,8.1,12.1
										c1.7,4,4.8,11.2,6.1,14.2c9.2,2.7,13.8,1.7,13.7-3.2c-0.1-3.2-4.7-20.8-7.1-25.8C171.7,81.9,164,70,155,62.3
										S133.4,50,117.5,48.4z"/>
								</g>
							</mask>
							<path id="Path-82" class="st41" d="M98.8,90.5c-3.3,18.8-7.6,28.1-12.9,28.1s-13.6-4.7-24.8-14.1
								c14.3,17.6,24.9,24.5,31.7,20.6C99.5,121.3,101.5,109.7,98.8,90.5z"/>
							<defs>
								<filter id="Adobe_OpacityMaskFilter_13_" filterUnits="userSpaceOnUse" x="67.6" y="44.5" width="108.7" height="93.2">
									<feColorMatrix  type="matrix" values="1 0 0 0 0  0 1 0 0 0  0 0 1 0 0  0 0 0 1 0"/>
								</filter>
							</defs>
							<mask maskUnits="userSpaceOnUse" x="67.6" y="44.5" width="108.7" height="93.2" id="mask-20_3_">
								<g class="st42">
									<path id="path-19_3_" class="st4" d="M117.5,48.4c-19.7,2-34.1,2-43.2,0c-3.5-0.8-9.3-5.2-13.7-7.9
										c-6.4-3.4-11.4-6.1-14.8-8.2c-10-6.2-19.4-14.1-20.9-15.4c-1.1-1-7.9-6.1-9-3.7c-1.1,2.4-1.1,7.2-1,7.5
										c1,4.5,35.2,37.3,45.7,44.6c11,7.5,19.2,9.3,22,15.9c2.3,5.4,6.4,17.5,12.3,36.2c5.8,6.4,14.5,10.8,26.1,13.2
										c17.5,3.6,26.5,3.7,36.3,1.2c1.4-2.1,2.2-4,2.2-5.5c0.1-5.2-4.4-24.2-2.2-25.3c2.2-1.1,4.1,2.9,8.1,12.1
										c1.7,4,4.8,11.2,6.1,14.2c9.2,2.7,13.8,1.7,13.7-3.2c-0.1-3.2-4.7-20.8-7.1-25.8C171.7,81.9,164,70,155,62.3
										S133.4,50,117.5,48.4z"/>
								</g>
							</mask>
							<g id="Group-33" class="st43">
								<g transform="translate(71.646799, 44.455463)">
									<g id="Path-30">
										
											<linearGradient id="SVGID_1_" gradientUnits="userSpaceOnUse" x1="-771.5574" y1="490.1548" x2="-772.2576" y2="488.8474" gradientTransform="matrix(103.8751 0 0 -89.0822 80224.9219 43658.0391)">
											<stop  offset="0" style="stop-color:#00D3E9"/>
											<stop  offset="1" style="stop-color:#00A7CE"/>
										</linearGradient>
										<path class="st44" d="M23,73.3c22.4,14.2,43.4,19.1,62.9,14.8c2-3.8,3-6.9,2.9-9.2c-0.2-7.9,0.5-12.3,1.1-16.3
											c6.5-1.7,10.9-4.3,13.2-7.9c2.4-3.8,1.2-10.4,1.1-13.4c-0.1-1.6-9.7-15.3-12-18.4C80.9,7.9,57.7-1.2,43.8,0.8
											C39,1.5,13.6,0.4,7.6,5.3C5.3,7.2,2,12,1,17.9c-0.6,3.3,0,7.2,1.7,11.7C12.9,51.9,19.7,66.5,23,73.3z"/>
									</g>
									<g>
										
											<linearGradient id="SVGID_2_" gradientUnits="userSpaceOnUse" x1="-771.5574" y1="490.1548" x2="-772.2576" y2="488.8474" gradientTransform="matrix(103.8751 0 0 -89.0822 80224.9219 43658.0391)">
											<stop  offset="0" style="stop-color:#00D3E9"/>
											<stop  offset="1" style="stop-color:#00A7CE"/>
										</linearGradient>
										<path class="st45" d="M23,73.3c22.4,14.2,43.4,19.1,62.9,14.8c2-3.8,3-6.9,2.9-9.2c-0.2-7.9,0.5-12.3,1.1-16.3
											c6.5-1.7,10.9-4.3,13.2-7.9c2.4-3.8,1.2-10.4,1.1-13.4c-0.1-1.6-9.7-15.3-12-18.4C80.9,7.9,57.7-1.2,43.8,0.8
											C39,1.5,13.6,0.4,7.6,5.3C5.3,7.2,2,12,1,17.9c-0.6,3.3,0,7.2,1.7,11.7C12.9,51.9,19.7,66.5,23,73.3z"/>
									</g>
									<defs>
										<filter id="Adobe_OpacityMaskFilter_14_" filterUnits="userSpaceOnUse" x="40.4" y="2" width="20.5" height="22.5">
											<feColorMatrix  type="matrix" values="1 0 0 0 0  0 1 0 0 0  0 0 1 0 0  0 0 0 1 0"/>
										</filter>
									</defs>
									<mask maskUnits="userSpaceOnUse" x="40.4" y="2" width="20.5" height="22.5" id="mask-25_1_">
										<g class="st46">
											<path id="path-24_1_" class="st4" d="M23,73.3c22.4,14.2,43.4,19.1,62.9,14.8c2-3.8,3-6.9,2.9-9.2
												c-0.2-7.9,0.5-12.3,1.1-16.3c6.5-1.7,10.9-4.3,13.2-7.9c2.4-3.8,1.2-10.4,1.1-13.4c-0.1-1.6-9.7-15.3-12-18.4
												C80.9,7.9,57.7-1.2,43.8,0.8C39,1.5,13.6,0.4,7.6,5.3C5.3,7.2,2,12,1,17.9c-0.6,3.3,0,7.2,1.7,11.7
												C12.9,51.9,19.7,66.5,23,73.3z"/>
										</g>
									</mask>
									<path id="Path-91" class="st47" d="M43.4,2c-7.3,9.3,0.7,22.5,4.8,22.5c4,0,17-6.6,11.3-21.3c-0.2-0.4-0.2-0.8-0.4-1.3
										H43.4z"/>
									<defs>
										<filter id="Adobe_OpacityMaskFilter_15_" filterUnits="userSpaceOnUse" x="-4.1" y="20" width="90.2" height="73.2">
											<feColorMatrix  type="matrix" values="1 0 0 0 0  0 1 0 0 0  0 0 1 0 0  0 0 0 1 0"/>
										</filter>
									</defs>
									<mask maskUnits="userSpaceOnUse" x="-4.1" y="20" width="90.2" height="73.2" id="mask-25_2_">
										<g class="st48">
											<path id="path-24_2_" class="st4" d="M23,73.3c22.4,14.2,43.4,19.1,62.9,14.8c2-3.8,3-6.9,2.9-9.2
												c-0.2-7.9,0.5-12.3,1.1-16.3c6.5-1.7,10.9-4.3,13.2-7.9c2.4-3.8,1.2-10.4,1.1-13.4c-0.1-1.6-9.7-15.3-12-18.4
												C80.9,7.9,57.7-1.2,43.8,0.8C39,1.5,13.6,0.4,7.6,5.3C5.3,7.2,2,12,1,17.9c-0.6,3.3,0,7.2,1.7,11.7
												C12.9,51.9,19.7,66.5,23,73.3z"/>
										</g>
									</mask>
									<path id="Path-93" class="st49" d="M26.2,58.6c1.4,8.4,4.5,13.2,6,13.7c8.9,4.5,16.1,7.6,21.4,9.3
										c11,3.5,32.9,2.8,32.4,3.8c-0.8,1.9-7.6,4.4-20.3,7.7c-29-6.8-44-13.2-45-19c-13-25-20-40.2-21-45.9
										c-0.4-2.5-5.7-7.3-3.3-8.2c1.7-0.7,6.1,1.3,13.2,6C18.2,32,23.7,42.9,26.2,58.6z"/>
									<defs>
										<filter id="Adobe_OpacityMaskFilter_16_" filterUnits="userSpaceOnUse" x="0" y="0" width="0" height="0">
											<feColorMatrix  type="matrix" values="1 0 0 0 0  0 1 0 0 0  0 0 1 0 0  0 0 0 1 0"/>
										</filter>
									</defs>
									<mask maskUnits="userSpaceOnUse" x="0" y="0" width="0" height="0" id="mask-25_3_">
										<g class="st50">
											<path id="path-24_3_" class="st4" d="M23,73.3c22.4,14.2,43.4,19.1,62.9,14.8c2-3.8,3-6.9,2.9-9.2
												c-0.2-7.9,0.5-12.3,1.1-16.3c6.5-1.7,10.9-4.3,13.2-7.9c2.4-3.8,1.2-10.4,1.1-13.4c-0.1-1.6-9.7-15.3-12-18.4
												C80.9,7.9,57.7-1.2,43.8,0.8C39,1.5,13.6,0.4,7.6,5.3C5.3,7.2,2,12,1,17.9c-0.6,3.3,0,7.2,1.7,11.7
												C12.9,51.9,19.7,66.5,23,73.3z"/>
										</g>
									</mask>
									<path class="st51" d="M0,0"/>
								</g>
							</g>
							<defs>
								<filter id="Adobe_OpacityMaskFilter_17_" filterUnits="userSpaceOnUse" x="156" y="97" width="22.8" height="58.6">
									<feColorMatrix  type="matrix" values="1 0 0 0 0  0 1 0 0 0  0 0 1 0 0  0 0 0 1 0"/>
								</filter>
							</defs>
							<mask maskUnits="userSpaceOnUse" x="156" y="97" width="22.8" height="58.6" id="mask-20_4_">
								<g class="st52">
									<path id="path-19_4_" class="st4" d="M117.5,48.4c-19.7,2-34.1,2-43.2,0c-3.5-0.8-9.3-5.2-13.7-7.9
										c-6.4-3.4-11.4-6.1-14.8-8.2c-10-6.2-19.4-14.1-20.9-15.4c-1.1-1-7.9-6.1-9-3.7c-1.1,2.4-1.1,7.2-1,7.5
										c1,4.5,35.2,37.3,45.7,44.6c11,7.5,19.2,9.3,22,15.9c2.3,5.4,6.4,17.5,12.3,36.2c5.8,6.4,14.5,10.8,26.1,13.2
										c17.5,3.6,26.5,3.7,36.3,1.2c1.4-2.1,2.2-4,2.2-5.5c0.1-5.2-4.4-24.2-2.2-25.3c2.2-1.1,4.1,2.9,8.1,12.1
										c1.7,4,4.8,11.2,6.1,14.2c9.2,2.7,13.8,1.7,13.7-3.2c-0.1-3.2-4.7-20.8-7.1-25.8C171.7,81.9,164,70,155,62.3
										S133.4,50,117.5,48.4z"/>
								</g>
							</mask>
							<path class="st53" d="M178.8,155.1c-2.9-13.2-4.9-22.2-6-27c-1.1-4.5-2.4-9.8-4-16c-1.3-3.1-3.4-10-6.5-13
								c-2.8-2.6-5.1-2.1-5.5-2c-2,0.3,0,8.7,6,25l14.5,33.5L178.8,155.1z"/>
						</g>
						
							<linearGradient id="SVGID_3_" gradientUnits="userSpaceOnUse" x1="-665.656" y1="521.321" x2="-666.6554" y2="518.2136" gradientTransform="matrix(11.4 0 0 -9.2507 7780.6172 4955.8882)">
							<stop  offset="0" style="stop-color:#00D3E9"/>
							<stop  offset="1" style="stop-color:#00A7CE"/>
						</linearGradient>
						<path class="st54" d="M185.4,156.1l-6.8,0.4l-0.6-4l7.2-0.4c0.3-1.3,0.9-2.3,1.6-2.3c1.2-0.1,2.3,1.9,2.5,4.4
							c0.2,2.6-0.5,4.7-1.7,4.8C186.7,159.1,185.8,157.9,185.4,156.1z"/>
						<g id="Group-57" transform="translate(21.683168, 10.990415)">
						</g>
						<g id="Group-23" transform="translate(94.214004, 315.767769)">
							<g id="Path-85">
								<path class="st33" d="M19.5,0c0.7,3,1,5.6,1,7.7c0,3.2-21.8,9.1-20.4,13.8c0.9,3,10.9,2.4,30.1-1.7v0
									c2.2-0.5,3.8-2.6,3.5-4.9L31.8,0H19.5z"/>
							</g>
							<defs>
								<filter id="Adobe_OpacityMaskFilter_18_" filterUnits="userSpaceOnUse" x="-1.7" y="8.7" width="36.2" height="16.6">
									<feColorMatrix  type="matrix" values="1 0 0 0 0  0 1 0 0 0  0 0 1 0 0  0 0 0 1 0"/>
								</filter>
							</defs>
							<mask maskUnits="userSpaceOnUse" x="-1.7" y="8.7" width="36.2" height="16.6" id="mask-28_1_">
								<g class="st55">
									<path id="path-27_1_" class="st4" d="M19.5,0c0.7,3,1,5.6,1,7.7c0,3.2-21.8,9.1-20.4,13.8c0.9,3,10.9,2.4,30.1-1.7v0
										c2.2-0.5,3.8-2.6,3.5-4.9L31.8,0H19.5z"/>
								</g>
							</mask>
							<path id="Path-34" class="st56" d="M19.9,8.7c-1.6,1.1-8.1,3.4-5.4,5.7S31.1,15,33.1,8.7c2.4,6.4,1.8,10.3-1.7,11.6
								c-5.3,2-30.3,8.8-32.8,2C-3.1,17.7,4.1,13.2,19.9,8.7z"/>
						</g>
						<g id="Group-24" transform="translate(184.256300, 308.950641)">
							<g id="Path-86">
								<path class="st33" d="M0.1,3.8l6.6,17C7.1,22,8.1,23,9.4,23.4c18.4,6.1,28.5,7.3,30.3,3.4c2.9-6-19.2-11.9-22.4-15.8
									c-2.1-2.6-4-6.3-5.6-11L0.1,3.8z"/>
							</g>
							<defs>
								<filter id="Adobe_OpacityMaskFilter_19_" filterUnits="userSpaceOnUse" x="3.2" y="11" width="38.6" height="19.3">
									<feColorMatrix  type="matrix" values="1 0 0 0 0  0 1 0 0 0  0 0 1 0 0  0 0 0 1 0"/>
								</filter>
							</defs>
							<mask maskUnits="userSpaceOnUse" x="3.2" y="11" width="38.6" height="19.3" id="mask-30_1_">
								<g class="st57">
									<path id="path-29_1_" class="st4" d="M0.1,3.8l6.6,17C7.1,22,8.1,23,9.4,23.4c18.4,6.1,28.5,7.3,30.3,3.4
										c2.9-6-19.2-11.9-22.4-15.8c-2.1-2.6-4-6.3-5.6-11L0.1,3.8z"/>
								</g>
							</mask>
							<path id="Path-35" class="st58" d="M18.5,11c1.5,1.6,6.3,4.7,4.5,7.6c-1.8,2.9-17.4-0.4-19.8-5.3c1.5,6,2.8,9.5,3.9,10.6
								c1.6,1.6,30.5,10.2,34.3,4.4C43.9,24.4,36.2,18.6,18.5,11z"/>
						</g>
						<g id="Group-35" transform="translate(87.494430, 119.650911)">
							<g id="Path-31">
								
									<linearGradient id="SVGID_4_" gradientUnits="userSpaceOnUse" x1="-787.0107" y1="418.3853" x2="-787.3577" y2="417.3376" gradientTransform="matrix(110.3876 0 0 -203.9915 86948.9297 85363.7188)">
									<stop  offset="0" style="stop-color:#7F14F4"/>
									<stop  offset="1" style="stop-color:#4D35E2"/>
								</linearGradient>
								<path class="st59" d="M8.1,0.1c-9.8,19-9.8,57.9,0,116.8c3.9,23.7,3.9,23.7,16.5,84.8c1.9,1.6,4.4,2.4,7.6,2.4
									s5.8-0.8,8-2.4c2.6-47.3,2.1-75.6-1.7-84.8c0-15.1-0.5-36-1.5-62.8l29.5,71.3c4.6,26,14.8,50.3,30.7,73
									c2.5,0.5,5.3,0.2,8.3-0.8c3.1-1,4.9-2.9,5.6-5.5c-10-46.9-16.3-73.8-19.1-80.8c-4.1-10.5-19.4-68.4-22-97.9
									c-11.5,1.8-22.9,1.5-34.2-1S15.3,5.8,8.1,0.1z"/>
							</g>
							<defs>
								<filter id="Adobe_OpacityMaskFilter_20_" filterUnits="userSpaceOnUse" x="52.2" y="12.8" width="21.3" height="25.5">
									<feColorMatrix  type="matrix" values="1 0 0 0 0  0 1 0 0 0  0 0 1 0 0  0 0 0 1 0"/>
								</filter>
							</defs>
							<mask maskUnits="userSpaceOnUse" x="52.2" y="12.8" width="21.3" height="25.5" id="mask-33_1_">
								<g class="st60">
									<path id="path-32_1_" class="st4" d="M8.1,0.1c-9.8,19-9.8,57.9,0,116.8c3.9,23.7,3.9,23.7,16.5,84.8
										c1.9,1.6,4.4,2.4,7.6,2.4s5.8-0.8,8-2.4c2.6-47.3,2.1-75.6-1.7-84.8c0-15.1-0.5-36-1.5-62.8l29.5,71.3
										c4.6,26,14.8,50.3,30.7,73c2.5,0.5,5.3,0.2,8.3-0.8c3.1-1,4.9-2.9,5.6-5.5c-10-46.9-16.3-73.8-19.1-80.8
										c-4.1-10.5-19.4-68.4-22-97.9c-11.5,1.8-22.9,1.5-34.2-1S15.3,5.8,8.1,0.1z"/>
								</g>
							</mask>
							<path id="Path-94" class="st61" d="M52.5,14.3c-2,13.3,5,21.3,21,24L72,12.8L52.5,14.3z"/>
							<defs>
								<filter id="Adobe_OpacityMaskFilter_21_" filterUnits="userSpaceOnUse" x="-1.8" y="-2.7" width="22.3" height="31">
									<feColorMatrix  type="matrix" values="1 0 0 0 0  0 1 0 0 0  0 0 1 0 0  0 0 0 1 0"/>
								</filter>
							</defs>
							<mask maskUnits="userSpaceOnUse" x="-1.8" y="-2.7" width="22.3" height="31" id="mask-33_2_">
								<g class="st62">
									<path id="path-32_2_" class="st4" d="M8.1,0.1c-9.8,19-9.8,57.9,0,116.8c3.9,23.7,3.9,23.7,16.5,84.8
										c1.9,1.6,4.4,2.4,7.6,2.4s5.8-0.8,8-2.4c2.6-47.3,2.1-75.6-1.7-84.8c0-15.1-0.5-36-1.5-62.8l29.5,71.3
										c4.6,26,14.8,50.3,30.7,73c2.5,0.5,5.3,0.2,8.3-0.8c3.1-1,4.9-2.9,5.6-5.5c-10-46.9-16.3-73.8-19.1-80.8
										c-4.1-10.5-19.4-68.4-22-97.9c-11.5,1.8-22.9,1.5-34.2-1S15.3,5.8,8.1,0.1z"/>
								</g>
							</mask>
							<path id="Path-94-Copy" class="st63" d="M20.5,4.3c-0.7,14.3-8.1,22.3-22.3,24l4.3-31L20.5,4.3z"/>
							<defs>
								<filter id="Adobe_OpacityMaskFilter_22_" filterUnits="userSpaceOnUse" x="28.2" y="35.2" width="15.8" height="94.6">
									<feColorMatrix  type="matrix" values="1 0 0 0 0  0 1 0 0 0  0 0 1 0 0  0 0 0 1 0"/>
								</filter>
							</defs>
							<mask maskUnits="userSpaceOnUse" x="28.2" y="35.2" width="15.8" height="94.6" id="mask-33_3_">
								<g class="st64">
									<path id="path-32_3_" class="st4" d="M8.1,0.1c-9.8,19-9.8,57.9,0,116.8c3.9,23.7,3.9,23.7,16.5,84.8
										c1.9,1.6,4.4,2.4,7.6,2.4s5.8-0.8,8-2.4c2.6-47.3,2.1-75.6-1.7-84.8c0-15.1-0.5-36-1.5-62.8l29.5,71.3
										c4.6,26,14.8,50.3,30.7,73c2.5,0.5,5.3,0.2,8.3-0.8c3.1-1,4.9-2.9,5.6-5.5c-10-46.9-16.3-73.8-19.1-80.8
										c-4.1-10.5-19.4-68.4-22-97.9c-11.5,1.8-22.9,1.5-34.2-1S15.3,5.8,8.1,0.1z"/>
								</g>
							</mask>
							<path id="Path-95" class="st65" d="M29.4,35.2L44,71.9l-2,58c-6.7-12.1-10.9-28-12.6-47.8C27.7,62.2,27.7,46.6,29.4,35.2z"/>
							<defs>
								<filter id="Adobe_OpacityMaskFilter_23_" filterUnits="userSpaceOnUse" x="21" y="193.7" width="21.9" height="3.7">
									<feColorMatrix  type="matrix" values="1 0 0 0 0  0 1 0 0 0  0 0 1 0 0  0 0 0 1 0"/>
								</filter>
							</defs>
							<mask maskUnits="userSpaceOnUse" x="21" y="193.7" width="21.9" height="3.7" id="mask-33_4_">
								<g class="st66">
									<path id="path-32_4_" class="st4" d="M8.1,0.1c-9.8,19-9.8,57.9,0,116.8c3.9,23.7,3.9,23.7,16.5,84.8
										c1.9,1.6,4.4,2.4,7.6,2.4s5.8-0.8,8-2.4c2.6-47.3,2.1-75.6-1.7-84.8c0-15.1-0.5-36-1.5-62.8l29.5,71.3
										c4.6,26,14.8,50.3,30.7,73c2.5,0.5,5.3,0.2,8.3-0.8c3.1-1,4.9-2.9,5.6-5.5c-10-46.9-16.3-73.8-19.1-80.8
										c-4.1-10.5-19.4-68.4-22-97.9c-11.5,1.8-22.9,1.5-34.2-1S15.3,5.8,8.1,0.1z"/>
								</g>
							</mask>
							<path id="Path-103" class="st67" d="M21.2,194.2c8.2,3.7,15.3,3.7,21.5,0"/>
							<defs>
								<filter id="Adobe_OpacityMaskFilter_24_" filterUnits="userSpaceOnUse" x="92" y="183.4" width="20.1" height="10.2">
									<feColorMatrix  type="matrix" values="1 0 0 0 0  0 1 0 0 0  0 0 1 0 0  0 0 0 1 0"/>
								</filter>
							</defs>
							<mask maskUnits="userSpaceOnUse" x="92" y="183.4" width="20.1" height="10.2" id="mask-33_5_">
								<g class="st68">
									<path id="path-32_5_" class="st4" d="M8.1,0.1c-9.8,19-9.8,57.9,0,116.8c3.9,23.7,3.9,23.7,16.5,84.8
										c1.9,1.6,4.4,2.4,7.6,2.4s5.8-0.8,8-2.4c2.6-47.3,2.1-75.6-1.7-84.8c0-15.1-0.5-36-1.5-62.8l29.5,71.3
										c4.6,26,14.8,50.3,30.7,73c2.5,0.5,5.3,0.2,8.3-0.8c3.1-1,4.9-2.9,5.6-5.5c-10-46.9-16.3-73.8-19.1-80.8
										c-4.1-10.5-19.4-68.4-22-97.9c-11.5,1.8-22.9,1.5-34.2-1S15.3,5.8,8.1,0.1z"/>
								</g>
							</mask>
							<path id="Path-107" class="st69" d="M92.1,193c9.8,0.8,16.3-2.3,19.6-9.3"/>
							<defs>
								<filter id="Adobe_OpacityMaskFilter_25_" filterUnits="userSpaceOnUse" x="51.5" y="15.8" width="22.1" height="22.7">
									<feColorMatrix  type="matrix" values="1 0 0 0 0  0 1 0 0 0  0 0 1 0 0  0 0 0 1 0"/>
								</filter>
							</defs>
							<mask maskUnits="userSpaceOnUse" x="51.5" y="15.8" width="22.1" height="22.7" id="mask-33_6_">
								<g class="st70">
									<path id="path-32_6_" class="st4" d="M8.1,0.1c-9.8,19-9.8,57.9,0,116.8c3.9,23.7,3.9,23.7,16.5,84.8
										c1.9,1.6,4.4,2.4,7.6,2.4s5.8-0.8,8-2.4c2.6-47.3,2.1-75.6-1.7-84.8c0-15.1-0.5-36-1.5-62.8l29.5,71.3
										c4.6,26,14.8,50.3,30.7,73c2.5,0.5,5.3,0.2,8.3-0.8c3.1-1,4.9-2.9,5.6-5.5c-10-46.9-16.3-73.8-19.1-80.8
										c-4.1-10.5-19.4-68.4-22-97.9c-11.5,1.8-22.9,1.5-34.2-1S15.3,5.8,8.1,0.1z"/>
								</g>
							</mask>
							<path id="Path-33" class="st71" d="M52,15.8c1.7,15.7,8.8,23,21.5,22"/>
							<defs>
								<filter id="Adobe_OpacityMaskFilter_26_" filterUnits="userSpaceOnUse" x="1.4" y="11.7" width="18.5" height="15.8">
									<feColorMatrix  type="matrix" values="1 0 0 0 0  0 1 0 0 0  0 0 1 0 0  0 0 0 1 0"/>
								</filter>
							</defs>
							<mask maskUnits="userSpaceOnUse" x="1.4" y="11.7" width="18.5" height="15.8" id="mask-33_7_">
								<g class="st72">
									<path id="path-32_7_" class="st4" d="M8.1,0.1c-9.8,19-9.8,57.9,0,116.8c3.9,23.7,3.9,23.7,16.5,84.8
										c1.9,1.6,4.4,2.4,7.6,2.4s5.8-0.8,8-2.4c2.6-47.3,2.1-75.6-1.7-84.8c0-15.1-0.5-36-1.5-62.8l29.5,71.3
										c4.6,26,14.8,50.3,30.7,73c2.5,0.5,5.3,0.2,8.3-0.8c3.1-1,4.9-2.9,5.6-5.5c-10-46.9-16.3-73.8-19.1-80.8
										c-4.1-10.5-19.4-68.4-22-97.9c-11.5,1.8-22.9,1.5-34.2-1S15.3,5.8,8.1,0.1z"/>
								</g>
							</mask>
							<path id="Path-59" class="st73" d="M19.5,11.8c-4.3,11-10.3,16-18,15"/>
						</g>
						<g id="Group-32" transform="translate(104.166514, 15.885948)">
							<g id="Path-75" transform="translate(18.837412, 26.304197) rotate(7.000000) translate(-18.837412, -26.304197) ">
								<path class="st33" d="M14.8,27.4c0.2,1.8-1.1,4.8-3.7,8.8c-2.2,3.4,1,13.7,5.9,14.4c2.9,0.4,8.7-4.1,10.4-8.2
									c0.7-1.7,0.3-5,0-8.9c-0.2-2.6,0.4-8.8,1.8-18.5c5.7-1.3,8.2-3.9,7.4-7.9c-1.2-6-7.3-3.4-8.3,1.3c-0.9-2.6-1.9-3.9-3-3.9
									C23,4.4,19,5.2,14.8,5.5c-2.8,0.3-5.2-0.8-7.2-3.3C3.8,8.3,2,27.4,14.8,27.4z"/>
							</g>
							<defs>
								<filter id="Adobe_OpacityMaskFilter_27_" filterUnits="userSpaceOnUse" x="16.7" y="8.5" width="2" height="2">
									<feColorMatrix  type="matrix" values="1 0 0 0 0  0 1 0 0 0  0 0 1 0 0  0 0 0 1 0"/>
								</filter>
							</defs>
							<mask maskUnits="userSpaceOnUse" x="16.7" y="8.5" width="2" height="2" id="mask-35_1_">
								<g class="st74">
									<path id="path-34_1_" class="st4" d="M15,27.8c0.4,1.8-0.5,4.9-2.6,9.2c-1.8,3.6,2.7,13.5,7.6,13.6
										c2.9,0.1,8.1-5.1,9.3-9.4c0.5-1.8-0.3-5-1.1-8.8c-0.5-2.6-0.7-8.8-0.4-18.6c5.5-1.9,7.7-4.9,6.4-8.7
										c-2-5.8-7.7-2.5-8.1,2.3c-1.2-2.4-2.3-3.6-3.4-3.5C20.3,4,16.4,5.3,12.3,6.2C9.6,6.8,7.1,6,4.8,3.8
										C1.7,10.3,2.3,29.4,15,27.8z"/>
								</g>
							</mask>
							<path id="Oval-2" class="st75" d="M17.7,10.5c0.6,0,1-0.5,1-1c0-0.6-0.5-1-1-1c-0.6,0-1,0.5-1,1
								C16.7,10.1,17.2,10.5,17.7,10.5z"/>
							<defs>
								<filter id="Adobe_OpacityMaskFilter_28_" filterUnits="userSpaceOnUse" x="8.2" y="8.5" width="2" height="2">
									<feColorMatrix  type="matrix" values="1 0 0 0 0  0 1 0 0 0  0 0 1 0 0  0 0 0 1 0"/>
								</filter>
							</defs>
							<mask maskUnits="userSpaceOnUse" x="8.2" y="8.5" width="2" height="2" id="mask-35_2_">
								<g class="st76">
									<path id="path-34_2_" class="st4" d="M15,27.8c0.4,1.8-0.5,4.9-2.6,9.2c-1.8,3.6,2.7,13.5,7.6,13.6
										c2.9,0.1,8.1-5.1,9.3-9.4c0.5-1.8-0.3-5-1.1-8.8c-0.5-2.6-0.7-8.8-0.4-18.6c5.5-1.9,7.7-4.9,6.4-8.7
										c-2-5.8-7.7-2.5-8.1,2.3c-1.2-2.4-2.3-3.6-3.4-3.5C20.3,4,16.4,5.3,12.3,6.2C9.6,6.8,7.1,6,4.8,3.8
										C1.7,10.3,2.3,29.4,15,27.8z"/>
								</g>
							</mask>
							<path class="st77" d="M9.2,10.5c0.6,0,1-0.5,1-1c0-0.6-0.5-1-1-1c-0.6,0-1,0.5-1,1C8.2,10.1,8.6,10.5,9.2,10.5z"/>
							<defs>
								<filter id="Adobe_OpacityMaskFilter_29_" filterUnits="userSpaceOnUse" x="10.6" y="11.8" width="3.4" height="5">
									<feColorMatrix  type="matrix" values="1 0 0 0 0  0 1 0 0 0  0 0 1 0 0  0 0 0 1 0"/>
								</filter>
							</defs>
							<mask maskUnits="userSpaceOnUse" x="10.6" y="11.8" width="3.4" height="5" id="mask-35_3_">
								<g class="st78">
									<path id="path-34_3_" class="st4" d="M15,27.8c0.4,1.8-0.5,4.9-2.6,9.2c-1.8,3.6,2.7,13.5,7.6,13.6
										c2.9,0.1,8.1-5.1,9.3-9.4c0.5-1.8-0.3-5-1.1-8.8c-0.5-2.6-0.7-8.8-0.4-18.6c5.5-1.9,7.7-4.9,6.4-8.7
										c-2-5.8-7.7-2.5-8.1,2.3c-1.2-2.4-2.3-3.6-3.4-3.5C20.3,4,16.4,5.3,12.3,6.2C9.6,6.8,7.1,6,4.8,3.8
										C1.7,10.3,2.3,29.4,15,27.8z"/>
								</g>
							</mask>
							<path id="Path-65" class="st79" d="M11.8,12.2c-1.3,3.3-0.8,4.6,1.8,3.9"/>
							<defs>
								<filter id="Adobe_OpacityMaskFilter_30_" filterUnits="userSpaceOnUse" x="12.1" y="19.8" width="4.1" height="2.1">
									<feColorMatrix  type="matrix" values="1 0 0 0 0  0 1 0 0 0  0 0 1 0 0  0 0 0 1 0"/>
								</filter>
							</defs>
							<mask maskUnits="userSpaceOnUse" x="12.1" y="19.8" width="4.1" height="2.1" id="mask-35_4_">
								<g class="st80">
									<path id="path-34_4_" class="st4" d="M15,27.8c0.4,1.8-0.5,4.9-2.6,9.2c-1.8,3.6,2.7,13.5,7.6,13.6
										c2.9,0.1,8.1-5.1,9.3-9.4c0.5-1.8-0.3-5-1.1-8.8c-0.5-2.6-0.7-8.8-0.4-18.6c5.5-1.9,7.7-4.9,6.4-8.7
										c-2-5.8-7.7-2.5-8.1,2.3c-1.2-2.4-2.3-3.6-3.4-3.5C20.3,4,16.4,5.3,12.3,6.2C9.6,6.8,7.1,6,4.8,3.8
										C1.7,10.3,2.3,29.4,15,27.8z"/>
								</g>
							</mask>
							<path id="Path-66" class="st81" d="M12.5,20.6c0.8,1.2,2.7,1.2,3.3-0.4"/>
							<defs>
								<filter id="Adobe_OpacityMaskFilter_31_" filterUnits="userSpaceOnUse" x="11.6" y="23.1" width="9.5" height="12.2">
									<feColorMatrix  type="matrix" values="1 0 0 0 0  0 1 0 0 0  0 0 1 0 0  0 0 0 1 0"/>
								</filter>
							</defs>
							<mask maskUnits="userSpaceOnUse" x="11.6" y="23.1" width="9.5" height="12.2" id="mask-35_5_">
								<g class="st82">
									<path id="path-34_5_" class="st4" d="M15,27.8c0.4,1.8-0.5,4.9-2.6,9.2c-1.8,3.6,2.7,13.5,7.6,13.6
										c2.9,0.1,8.1-5.1,9.3-9.4c0.5-1.8-0.3-5-1.1-8.8c-0.5-2.6-0.7-8.8-0.4-18.6c5.5-1.9,7.7-4.9,6.4-8.7
										c-2-5.8-7.7-2.5-8.1,2.3c-1.2-2.4-2.3-3.6-3.4-3.5C20.3,4,16.4,5.3,12.3,6.2C9.6,6.8,7.1,6,4.8,3.8
										C1.7,10.3,2.3,29.4,15,27.8z"/>
								</g>
							</mask>
							<path id="Path-92" class="st83" d="M12.6,28.2c3.1-0.3,6-2,8.5-5.1c-1.5,6.3-4.7,10.4-9.5,12.2L12.6,28.2z"/>
						</g>
					</g>
					
						<g id="Group-69" transform="translate(108.500000, 219.500000) rotate(3.000000) translate(-108.500000, -219.500000) translate(17.000000, 37.000000)">
						<g id="Group-26" transform="translate(35.137286, 9.359617)" class="st84">
							<path id="Path-28" class="st25" d="M2,6.1c2.2,4.3,10.8,6.6,16.5-2.8C21.1-1,28,1,32.5,1c4.2,10.4,1.4,17-8.2,19.8
								c-4.7,1.4-10.2,1.4-13.6-1.1C3.3,14.5,0.5,3.2,2,6.1z"/>
						</g>
						<g id="Group-56" transform="translate(33.650757, 0.042471)">
							<g id="Group-53" transform="translate(0.985291, 0.175627)">
								<g id="Path-11">
									<path class="st85" d="M27.2,34.7c4.5-4,4-8.4,3.6-15.8c15.9,4.2,15-14.2,1.7-16.1c-1.8-1.7-5.3-2.4-10.8-2.1
										C13.5,1.1,9.2,2.9,4.7,10.8c-7,4.9-5.3,14.1,5.3,27.7C17.1,39.9,22.8,38.7,27.2,34.7z"/>
								</g>
								<defs>
									<filter id="Adobe_OpacityMaskFilter_32_" filterUnits="userSpaceOnUse" x="1.7" y="20.4" width="25.4" height="19.3">
										<feColorMatrix  type="matrix" values="1 0 0 0 0  0 1 0 0 0  0 0 1 0 0  0 0 0 1 0"/>
									</filter>
								</defs>
								<mask maskUnits="userSpaceOnUse" x="1.7" y="20.4" width="25.4" height="19.3" id="mask-37_1_">
									<g class="st86">
										<path id="path-36_1_" class="st4" d="M27.2,34.7c4.5-4,4-8.4,3.6-15.8c15.9,4.2,15-14.2,1.7-16.1
											c-1.8-1.7-5.3-2.4-10.8-2.1C13.5,1.1,9.2,2.9,4.7,10.8c-7,4.9-5.3,14.1,5.3,27.7C17.1,39.9,22.8,38.7,27.2,34.7z"/>
									</g>
								</mask>
								<path id="Path-39" class="st87" d="M27.6,30.5c-0.6-5.7-2.8-8-6.7-6.9c-5.8,1.7-14.7,6.7-20.2-1.8C2,29.6,5.1,35.4,10,39.3
									c7.2-0.2,12.3-1.3,15.6-3.4L27.6,30.5z"/>
							</g>
							<g transform="translate(8.476571, 14.849033)">
								<g>
									<path class="st33" d="M31.6,8.3c0.4,1.6,2.1,6.3,2.5,7.3c0.3,0.7-0.6,1.3-2.7,1.8c-1.3,8.2-6,11.7-14.1,10.5v7.3H0.1
										l1.6-12.4c6.7,0.9,11.9-0.1,15.6-3.2c-1.8-0.3-3.1-1-3.9-1.9c-1.3-1.5-1.3-3-0.9-4c1.2-3,6.2-2.8,7.7,1.9
										c1.3-5,1.3-9.4-0.1-13.2c4.6-0.2,8.1-1,10.5-2.4C31.1,3.1,31.4,5.8,31.6,8.3z"/>
								</g>
								<defs>
									<filter id="Adobe_OpacityMaskFilter_33_" filterUnits="userSpaceOnUse" x="26" y="8.1" width="2.5" height="2.8">
										<feColorMatrix  type="matrix" values="1 0 0 0 0  0 1 0 0 0  0 0 1 0 0  0 0 0 1 0"/>
									</filter>
								</defs>
								<mask maskUnits="userSpaceOnUse" x="26" y="8.1" width="2.5" height="2.8" id="mask-39_1_">
									<g class="st88">
										<path id="path-38_1_" class="st4" d="M31.6,8.3c0.4,1.6,2.1,6.3,2.5,7.3c0.3,0.7-0.6,1.3-2.7,1.8
											c-1.3,8.2-6,11.7-14.1,10.5v7.3H0.1l1.6-12.4c6.7,0.9,11.9-0.1,15.6-3.2c-1.8-0.3-3.1-1-3.9-1.9c-1.3-1.5-1.3-3-0.9-4
											c1.2-3,6.2-2.8,7.7,1.9c1.3-5,1.3-9.4-0.1-13.2c4.6-0.2,8.1-1,10.5-2.4C31.1,3.1,31.4,5.8,31.6,8.3z"/>
									</g>
								</mask>
								<path class="st89" d="M27.3,10.8c0.7,0,1.3-0.6,1.3-1.3S28,8.2,27.3,8.2s-1.3,0.6-1.3,1.3S26.5,10.8,27.3,10.8z"/>
								<defs>
									<filter id="Adobe_OpacityMaskFilter_34_" filterUnits="userSpaceOnUse" x="12.2" y="26.5" width="6.5" height="6.6">
										<feColorMatrix  type="matrix" values="1 0 0 0 0  0 1 0 0 0  0 0 1 0 0  0 0 0 1 0"/>
									</filter>
								</defs>
								<mask maskUnits="userSpaceOnUse" x="12.2" y="26.5" width="6.5" height="6.6" id="mask-39_2_">
									<g class="st90">
										<path id="path-38_2_" class="st4" d="M31.6,8.3c0.4,1.6,2.1,6.3,2.5,7.3c0.3,0.7-0.6,1.3-2.7,1.8
											c-1.3,8.2-6,11.7-14.1,10.5v7.3H0.1l1.6-12.4c6.7,0.9,11.9-0.1,15.6-3.2c-1.8-0.3-3.1-1-3.9-1.9c-1.3-1.5-1.3-3-0.9-4
											c1.2-3,6.2-2.8,7.7,1.9c1.3-5,1.3-9.4-0.1-13.2c4.6-0.2,8.1-1,10.5-2.4C31.1,3.1,31.4,5.8,31.6,8.3z"/>
									</g>
								</mask>
								<path id="Path-41" class="st91" d="M18.8,28.2c-3.5-0.6-5.8-1-6.9-1.3c1.1,2.9,3,4.9,5.7,6L18.8,28.2z"/>
								<defs>
									<filter id="Adobe_OpacityMaskFilter_35_" filterUnits="userSpaceOnUse" x="25.8" y="19.9" width="3.5" height="4.5">
										<feColorMatrix  type="matrix" values="1 0 0 0 0  0 1 0 0 0  0 0 1 0 0  0 0 0 1 0"/>
									</filter>
								</defs>
								<mask maskUnits="userSpaceOnUse" x="25.8" y="19.9" width="3.5" height="4.5" id="mask-39_3_">
									<g class="st92">
										<path id="path-38_3_" class="st4" d="M31.6,8.3c0.4,1.6,2.1,6.3,2.5,7.3c0.3,0.7-0.6,1.3-2.7,1.8
											c-1.3,8.2-6,11.7-14.1,10.5v7.3H0.1l1.6-12.4c6.7,0.9,11.9-0.1,15.6-3.2c-1.8-0.3-3.1-1-3.9-1.9c-1.3-1.5-1.3-3-0.9-4
											c1.2-3,6.2-2.8,7.7,1.9c1.3-5,1.3-9.4-0.1-13.2c4.6-0.2,8.1-1,10.5-2.4C31.1,3.1,31.4,5.8,31.6,8.3z"/>
									</g>
								</mask>
								<path id="Path-29" class="st93" d="M26.1,20.5c0.5,2.2,1.5,3.2,2.9,3.1"/>
							</g>
						</g>
						<g id="Group-31" transform="translate(34.953506, 336.652907)">
							<g id="Path-145" transform="translate(20.904491, 13.574622) rotate(11.000000) translate(-20.904491, -13.574622) ">
								<path class="st94" d="M3.7,0.6L1.6,15c-0.4,2.6,1.4,4.9,4,5.3c0.3,0,0.7,0.1,1.1,0c8.2-0.7,14.1-1.2,17.6-1.4
									c13.2-0.9,16.7-2.6,16.6-6.8c-0.1-4.8-13-2.3-22.9-7.5L3.7,0.6z"/>
							</g>
						</g>
						
							<g id="Group-30" transform="translate(118.649264, 345.087500) rotate(-3.000000) translate(-118.649264, -345.087500) translate(96.149264, 335.087500)">
							<g id="Path-144">
								<path class="st94" d="M0.7,0l0.4,15.4c0,1.6,1.3,2.9,2.9,3c26.8,2,40.2,1.1,40.2-2.9c0-6.2-25.8-5.4-30.8-14.8L0.7,0z"/>
							</g>
						</g>
						<path class="st95" d="M24.2,184.7c1.4,1.8,5.5,2.7,6.2,2c0.4-0.3,0.3-2-0.3-5.1l-2.5-6.5l-6.4,4.7
							C22.6,182.5,23.6,184.1,24.2,184.7z"/>
						<g id="Group-29" transform="translate(25.307624, 153.258885)">
							<g>
								
									<linearGradient id="SVGID_5_" gradientUnits="userSpaceOnUse" x1="-439.964" y1="423.9059" x2="-440.4392" y2="422.8623" gradientTransform="matrix(91.633 -10.0422 -4.8023 -191.6163 42413.1992 76817.7812)">
									<stop  offset="0" style="stop-color:#7F14F4"/>
									<stop  offset="1" style="stop-color:#4D35E2"/>
								</linearGradient>
								<path class="st96" d="M41.3,3l18.9-2.8C81.4,53.2,92,85,92,95.3c0,10.3-1.5,40.2-4.5,89.7c-1.8,2.1-4.7,3.1-8.7,3.1
									c-4,0-6.9-1-8.7-3.1l-9.8-89.7L43.3,64.8c0.6,18,0.8,29.3,0.8,33.8c0,8.5-4.8,38.4-14.3,89.6c-1.4,2.5-4.3,3.8-8.6,3.8
									s-7.4-1.3-9.2-3.8l0.1-86.6L0.2,1.5l41,0C41.2,2,41.3,2.5,41.3,3z"/>
							</g>
							<defs>
								<filter id="Adobe_OpacityMaskFilter_36_" filterUnits="userSpaceOnUse" x="24.7" y="22.6" width="16.8" height="73.3">
									<feColorMatrix  type="matrix" values="1 0 0 0 0  0 1 0 0 0  0 0 1 0 0  0 0 0 1 0"/>
								</filter>
							</defs>
							<mask maskUnits="userSpaceOnUse" x="24.7" y="22.6" width="16.8" height="73.3" id="mask-46_1_">
								<g class="st97">
									<path id="path-45_1_" class="st4" d="M41.3,3l18.9-2.8C81.4,53.2,92,85,92,95.3c0,10.3-1.5,40.2-4.5,89.7
										c-1.8,2.1-4.7,3.1-8.7,3.1c-4,0-6.9-1-8.7-3.1l-9.8-89.7L43.3,64.8c0.6,18,0.8,29.3,0.8,33.8c0,8.5-4.8,38.4-14.3,89.6
										c-1.4,2.5-4.3,3.8-8.6,3.8s-7.4-1.3-9.2-3.8l0.1-86.6L0.2,1.5l41,0C41.2,2,41.3,2.5,41.3,3z"/>
								</g>
							</mask>
							<path id="Path-155" class="st98" d="M21,23.6l22.8,41.9l1.5,29.2C36.5,79.1,30.4,66,26.9,55.5S21.4,34.5,21,23.6z"/>
							<defs>
								<filter id="Adobe_OpacityMaskFilter_37_" filterUnits="userSpaceOnUse" x="0.4" y="2" width="64.9" height="16">
									<feColorMatrix  type="matrix" values="1 0 0 0 0  0 1 0 0 0  0 0 1 0 0  0 0 0 1 0"/>
								</filter>
							</defs>
							<mask maskUnits="userSpaceOnUse" x="0.4" y="2" width="64.9" height="16" id="mask-46_2_">
								<g class="st99">
									<path id="path-45_2_" class="st4" d="M41.3,3l18.9-2.8C81.4,53.2,92,85,92,95.3c0,10.3-1.5,40.2-4.5,89.7
										c-1.8,2.1-4.7,3.1-8.7,3.1c-4,0-6.9-1-8.7-3.1l-9.8-89.7L43.3,64.8c0.6,18,0.8,29.3,0.8,33.8c0,8.5-4.8,38.4-14.3,89.6
										c-1.4,2.5-4.3,3.8-8.6,3.8s-7.4-1.3-9.2-3.8l0.1-86.6L0.2,1.5l41,0C41.2,2,41.3,2.5,41.3,3z"/>
								</g>
							</mask>
							<path id="Path-36" class="st100" d="M0.2,14.2c26.3,4.4,48.1,2.5,65.4-5.6l-3.6-6.4L0.2,6.7L0.2,14.2z"/>
							<defs>
								<filter id="Adobe_OpacityMaskFilter_38_" filterUnits="userSpaceOnUse" x="50.7" y="1.2" width="21.3" height="188.2">
									<feColorMatrix  type="matrix" values="1 0 0 0 0  0 1 0 0 0  0 0 1 0 0  0 0 0 1 0"/>
								</filter>
							</defs>
							<mask maskUnits="userSpaceOnUse" x="50.7" y="1.2" width="21.3" height="188.2" id="mask-46_3_">
								<g class="st101">
									<path id="path-45_3_" class="st4" d="M41.3,3l18.9-2.8C81.4,53.2,92,85,92,95.3c0,10.3-1.5,40.2-4.5,89.7
										c-1.8,2.1-4.7,3.1-8.7,3.1c-4,0-6.9-1-8.7-3.1l-9.8-89.7L43.3,64.8c0.6,18,0.8,29.3,0.8,33.8c0,8.5-4.8,38.4-14.3,89.6
										c-1.4,2.5-4.3,3.8-8.6,3.8s-7.4-1.3-9.2-3.8l0.1-86.6L0.2,1.5l41,0C41.2,2,41.3,2.5,41.3,3z"/>
								</g>
							</mask>
							<path id="Path-37" class="st102" d="M41.4,2.9c23.6,60,35.4,93.3,35.4,100c0,6.6-0.2,35-0.5,85.1"/>
							<defs>
								<filter id="Adobe_OpacityMaskFilter_39_" filterUnits="userSpaceOnUse" x="19.1" y="36.1" width="10.1" height="155.4">
									<feColorMatrix  type="matrix" values="1 0 0 0 0  0 1 0 0 0  0 0 1 0 0  0 0 0 1 0"/>
								</filter>
							</defs>
							<mask maskUnits="userSpaceOnUse" x="19.1" y="36.1" width="10.1" height="155.4" id="mask-46_4_">
								<g class="st103">
									<path id="path-45_4_" class="st4" d="M41.3,3l18.9-2.8C81.4,53.2,92,85,92,95.3c0,10.3-1.5,40.2-4.5,89.7
										c-1.8,2.1-4.7,3.1-8.7,3.1c-4,0-6.9-1-8.7-3.1l-9.8-89.7L43.3,64.8c0.6,18,0.8,29.3,0.8,33.8c0,8.5-4.8,38.4-14.3,89.6
										c-1.4,2.5-4.3,3.8-8.6,3.8s-7.4-1.3-9.2-3.8l0.1-86.6L0.2,1.5l41,0C41.2,2,41.3,2.5,41.3,3z"/>
								</g>
							</mask>
							<path id="Path-64" class="st104" d="M19.6,191.4c12.5-68.1,14.6-119.8,6.4-155"/>
						</g>
						<path class="st33" d="M157.2,54.2c5.5-9.8,8.9-14.2,10.2-13.3c1.3,0.9,0.9,3-1.2,6.3c9-6.2,14.5-8.8,16.3-7.6
							c2.7,1.8-7.2,6.9-6.4,9.3c0.9,2.5,1.7,6.1-0.2,8.3c-2.5,2.9-6.9,4.8-13.3,5.9L157.2,54.2z"/>
						<g id="Group-28" transform="translate(0.687593, 46.249238)">
							<g id="Path-141">
								
									<linearGradient id="SVGID_6_" gradientUnits="userSpaceOnUse" x1="-417.4136" y1="530.8078" x2="-418.0642" y2="529.8078" gradientTransform="matrix(163.5606 -7.0217 -8.5719 -133.982 72935.5391 68175.4062)">
									<stop  offset="0" style="stop-color:#00D3E9"/>
									<stop  offset="1" style="stop-color:#00A7CE"/>
								</linearGradient>
								<path class="st105" d="M4.7,95.4C2.2,80.8,1,68.6,1,58.8C1,44,9.2,0.1,47.7,0.1c19.4,0,43.4,8.5,72,25.4l37.9-20.8
									c4.5,2.6,6.9,6.5,7.2,11.8c-25.4,24.2-41.4,36.3-48.1,36.3c-6.7,0-17.3-3.7-31.7-11c-0.6,30.1,0.2,48.4,2.2,55
									c3.1,9.9,8.1,13.3,0,16.6c-8.1,3.4-52.5,7.6-61.7,1.9c1.9,9.2,2.5,14.7,1.6,16.7c-4.8,1.5-7.5,2.3-8.3,2.4
									c-3.7-6.2-6.1-11-7.4-14.5C9.6,114.6,7.3,106.5,4.7,95.4z"/>
							</g>
							<defs>
								<filter id="Adobe_OpacityMaskFilter_40_" filterUnits="userSpaceOnUse" x="75.4" y="35.5" width="13.3" height="78.7">
									<feColorMatrix  type="matrix" values="1 0 0 0 0  0 1 0 0 0  0 0 1 0 0  0 0 0 1 0"/>
								</filter>
							</defs>
							<mask maskUnits="userSpaceOnUse" x="75.4" y="35.5" width="13.3" height="78.7" id="mask-49_1_">
								<g class="st106">
									<path id="path-48_1_" class="st4" d="M4.7,95.4C2.2,80.8,1,68.6,1,58.8C1,44,9.2,0.1,47.7,0.1c19.4,0,43.4,8.5,72,25.4
										l37.9-20.8c4.5,2.6,6.9,6.5,7.2,11.8c-25.4,24.2-41.4,36.3-48.1,36.3c-6.7,0-17.3-3.7-31.7-11c-0.6,30.1,0.2,48.4,2.2,55
										c3.1,9.9,8.1,13.3,0,16.6c-8.1,3.4-52.5,7.6-61.7,1.9c1.9,9.2,2.5,14.7,1.6,16.7c-4.8,1.5-7.5,2.3-8.3,2.4
										c-3.7-6.2-6.1-11-7.4-14.5C9.6,114.6,7.3,106.5,4.7,95.4z"/>
								</g>
							</mask>
							<path class="st107" d="M87.1,42.9c-2.4-1.3-6.7-3.5-12.8-6.7c4.6,14.9,5.4,29.3,2.2,43.2c-4.7,20.8-1.9,27.2,10.5,34.1
								c3.5-0.5,5.3-2.5,5.3-5.9c0-5.2-6.7-14.7-5.3-21.5C88.5,79.3,90.7,44.8,87.1,42.9z"/>
							<defs>
								<filter id="Adobe_OpacityMaskFilter_41_" filterUnits="userSpaceOnUse" x="14.8" y="29.5" width="5.6" height="86.7">
									<feColorMatrix  type="matrix" values="1 0 0 0 0  0 1 0 0 0  0 0 1 0 0  0 0 0 1 0"/>
								</filter>
							</defs>
							<mask maskUnits="userSpaceOnUse" x="14.8" y="29.5" width="5.6" height="86.7" id="mask-49_2_">
								<g class="st108">
									<path id="path-48_2_" class="st4" d="M4.7,95.4C2.2,80.8,1,68.6,1,58.8C1,44,9.2,0.1,47.7,0.1c19.4,0,43.4,8.5,72,25.4
										l37.9-20.8c4.5,2.6,6.9,6.5,7.2,11.8c-25.4,24.2-41.4,36.3-48.1,36.3c-6.7,0-17.3-3.7-31.7-11c-0.6,30.1,0.2,48.4,2.2,55
										c3.1,9.9,8.1,13.3,0,16.6c-8.1,3.4-52.5,7.6-61.7,1.9c1.9,9.2,2.5,14.7,1.6,16.7c-4.8,1.5-7.5,2.3-8.3,2.4
										c-3.7-6.2-6.1-11-7.4-14.5C9.6,114.6,7.3,106.5,4.7,95.4z"/>
								</g>
							</mask>
							<path id="Path-32" class="st109" d="M24.9,115.7c-4.5-7.5-6.9-13.2-7.2-17c-0.8-10.1,4.2-20.1,2.8-28.1
								C17.1,52,16.2,36.3,17,29.7c-6.8,8.7-7.5,22.9-2,42.8c2.6,9.5-0.8,21.9,0.7,28C16.4,102.9,19.4,108,24.9,115.7z"/>
							<defs>
								<filter id="Adobe_OpacityMaskFilter_42_" filterUnits="userSpaceOnUse" x="152.4" y="3.3" width="13.4" height="18.2">
									<feColorMatrix  type="matrix" values="1 0 0 0 0  0 1 0 0 0  0 0 1 0 0  0 0 0 1 0"/>
								</filter>
							</defs>
							<mask maskUnits="userSpaceOnUse" x="152.4" y="3.3" width="13.4" height="18.2" id="mask-49_3_">
								<g class="st110">
									<path id="path-48_3_" class="st4" d="M4.7,95.4C2.2,80.8,1,68.6,1,58.8C1,44,9.2,0.1,47.7,0.1c19.4,0,43.4,8.5,72,25.4
										l37.9-20.8c4.5,2.6,6.9,6.5,7.2,11.8c-25.4,24.2-41.4,36.3-48.1,36.3c-6.7,0-17.3-3.7-31.7-11c-0.6,30.1,0.2,48.4,2.2,55
										c3.1,9.9,8.1,13.3,0,16.6c-8.1,3.4-52.5,7.6-61.7,1.9c1.9,9.2,2.5,14.7,1.6,16.7c-4.8,1.5-7.5,2.3-8.3,2.4
										c-3.7-6.2-6.1-11-7.4-14.5C9.6,114.6,7.3,106.5,4.7,95.4z"/>
								</g>
							</mask>
							<path class="st111" d="M151.7,7.1c5.5,2.5,8.5,7.2,8.8,13.9l6-4.4c-1.7-7.5-4.8-11.8-9.4-12.9L151.7,7.1z"/>
							<defs>
								<filter id="Adobe_OpacityMaskFilter_43_" filterUnits="userSpaceOnUse" x="15.6" y="126.6" width="13.3" height="9.5">
									<feColorMatrix  type="matrix" values="1 0 0 0 0  0 1 0 0 0  0 0 1 0 0  0 0 0 1 0"/>
								</filter>
							</defs>
							<mask maskUnits="userSpaceOnUse" x="15.6" y="126.6" width="13.3" height="9.5" id="mask-49_4_">
								<g class="st112">
									<path id="path-48_4_" class="st4" d="M4.7,95.4C2.2,80.8,1,68.6,1,58.8C1,44,9.2,0.1,47.7,0.1c19.4,0,43.4,8.5,72,25.4
										l37.9-20.8c4.5,2.6,6.9,6.5,7.2,11.8c-25.4,24.2-41.4,36.3-48.1,36.3c-6.7,0-17.3-3.7-31.7-11c-0.6,30.1,0.2,48.4,2.2,55
										c3.1,9.9,8.1,13.3,0,16.6c-8.1,3.4-52.5,7.6-61.7,1.9c1.9,9.2,2.5,14.7,1.6,16.7c-4.8,1.5-7.5,2.3-8.3,2.4
										c-3.7-6.2-6.1-11-7.4-14.5C9.6,114.6,7.3,106.5,4.7,95.4z"/>
								</g>
							</mask>
							<path class="st113" d="M17,130.5c2.5-0.2,4.3-0.5,5.5-0.8c1.1-0.4,3.1-1.4,5.9-3.1l0.8,5.5l-12.5,4l-1.3-4.3L17,130.5z"/>
						</g>
					</g>
				</g>
			</g>
		</g>
	</g>
</g>
</svg>
