<?xml version="1.0" encoding="UTF-8"?>
<svg width="160px" height="160px" viewBox="0 0 160 160" version="1.1" xmlns="http://www.w3.org/2000/svg" xmlns:xlink="http://www.w3.org/1999/xlink">
    <!-- Generator: Sketch 52.2 (67145) - http://www.bohemiancoding.com/sketch -->
    <title>img_join_program</title>
    <desc>Created with Sketch.</desc>
    <defs>
        <path d="M38.9667762,20.5461593 C38.9667762,9.68333697 30.6166685,0.877279554 20.3162886,0.877279554 C10.0159087,0.877279554 1.66580102,9.68333697 1.66580102,20.5461593 C1.66580102,31.4089816 38.9667762,31.4089816 38.9667762,20.5461593 Z" id="path-1"></path>
    </defs>
    <g id="Page-1" stroke="none" stroke-width="1" fill="none" fill-rule="evenodd">
        <g id="07a---Refferal-Program" transform="translate(-260.000000, -789.000000)">
            <g id="section---" transform="translate(173.000000, 789.000000)">
                <g id="Group-3">
                    <g id="Group-4">
                        <g id="Illustration/img_join_program" transform="translate(87.000000, 0.000000)">
                            <circle id="Oval-4" fill="#E6DFFC" cx="80" cy="80" r="80"></circle>
                            <g id="Group-16" transform="translate(35.000000, 52.000000)">
                                <g id="Group-15">
                                    <path d="M9.18013848,12.0490777 L9.18013848,0 L20.9030021,0 L20.9030021,2.39277108 C20.9030021,5.78898959 23.6730464,8.54216867 27.0900691,8.54216867 C30.5070918,8.54216867 33.277136,5.78898959 33.277136,2.39277108 L33.277136,0 L44.9999996,0 L44.9999996,12.086747 L41.789838,12.086747 L41.789838,12.095118 C41.6820003,12.0895603 41.5734322,12.086747 41.4642029,12.086747 C38.0471802,12.086747 35.277136,14.8399261 35.277136,18.2361446 C35.277136,21.6323631 38.0471802,24.3855422 41.4642029,24.3855422 C41.5734322,24.3855422 41.6820003,24.3827289 41.789838,24.3771712 L41.789838,24.3855422 L44.9999996,24.3855422 L44.9999996,34.9879518 L32.5881964,34.9879518 L32.5881964,37.7822477 L32.5858034,37.7822477 C32.5873945,37.8401784 32.5881964,37.8983082 32.5881964,37.9566265 C32.5881964,41.3736492 29.8350174,44.1436934 26.4387989,44.1436934 C23.0425803,44.1436934 20.2894013,41.3736492 20.2894013,37.9566265 C20.2894013,37.8983082 20.2902032,37.8401784 20.2917966,37.7822476 L20.2894013,37.7822477 L20.2894013,34.9879518 L9.18013848,34.9879518 L9.18013848,24.4232115 L6.0076462,24.4232115 L6.0076462,24.4165477 C2.74512077,24.2652337 0.146214371,21.5560519 0.146214371,18.2361446 C0.146214371,14.9162373 2.74512077,12.2070555 6.0076462,12.0557415 L6.0076462,12.0490777 L9.18013848,12.0490777 Z" id="Combined-Shape" fill="#6327EA"></path>
                                    <path d="M80.7342396,24.0425459 L80.7342396,35 L69.2122131,35 L69.2122131,30.5411255 L69.1650225,30.5411255 C68.7859715,27.5032462 66.1697288,25.1515152 62.9986715,25.1515152 C59.8276141,25.1515152 57.2113714,27.5032462 56.8323204,30.5411255 L56.7851298,30.5411255 L56.7851298,35 L44.761104,35 L44.761104,24.3455762 L42.1796008,24.3455762 C41.865717,24.3954432 41.5439512,24.4213338 41.2161987,24.4213338 C37.8188107,24.4213338 35.0646835,21.6394365 35.0646835,18.2077922 C35.0646835,14.7761479 37.8188107,11.9942506 41.2161987,11.9942506 C41.2839538,11.9942506 41.3514531,11.9953571 41.4186798,11.9975531 L41.4186798,11.918493 L44.761104,11.918493 L44.761104,1.59161573e-12 L56.5341302,1.59161573e-12 L56.5341302,3.39393939 C56.5341302,6.7913274 59.3160275,9.54545455 62.7476718,9.54545455 C66.1793161,9.54545455 68.9612134,6.7913274 68.9612134,3.39393939 L68.9612134,1.59161573e-12 L80.7342396,1.59161573e-12 L80.7342396,11.6154627 L82.6736065,11.6154627 L82.6736065,11.7163892 C83.0337097,11.6500919 83.4047518,11.6154627 83.7838013,11.6154627 C87.1811893,11.6154627 89.9353165,14.3973601 89.9353165,17.8290043 C89.9353165,21.2606486 87.1811893,24.0425459 83.7838013,24.0425459 C83.4047518,24.0425459 83.0337097,24.0079167 82.6736065,23.9416195 L82.6736065,24.0425459 L80.7342396,24.0425459 Z" id="Combined-Shape-Copy" fill="#BEA7F6"></path>
                                </g>
                                <g id="Group-23-Copy" transform="translate(43.000000, 18.000000)">
                                    <g id="Group-22" transform="translate(0.000000, 20.008810)">
                                        <g id="Group-37">
                                            <mask id="mask-2" fill="white">
                                                <use xlink:href="#path-1"></use>
                                            </mask>
                                            <use id="Oval-9" fill="#6327EA" xlink:href="#path-1"></use>
                                            <path d="M32.2954703,1.75455911 L23.75689,19.0025302 C22.8943962,20.7447716 20.782841,21.457948 19.0405996,20.5954541 C18.3494666,20.2533099 17.7898199,19.6936631 17.4476756,19.0025302 L8.90909527,1.75455911 C14.0986662,0.621767965 17.9963954,0.0553723941 20.6022828,0.0553723941 C23.2081702,0.0553723941 27.1058994,0.621767965 32.2954703,1.75455911 Z" id="Mask" fill="#000000" opacity="0.0813058036" mask="url(#mask-2)"></path>
                                            <path d="M18.9906177,1.7382987 L15.9440109,16.7630167 C15.8232393,17.3586168 16.0182816,17.974383 16.4599353,18.3918363 L20.1008199,21.8332195 C20.4400356,22.153848 20.9705759,22.153848 21.3097916,21.8332195 L24.9361672,18.4055503 C25.3856813,17.9806672 25.579163,17.3510043 25.4457988,16.7470155 L22.1317879,1.7382987 L18.9906177,1.7382987 Z" id="Mask" fill="#FFFFFF" mask="url(#mask-2)"></path>
                                            <path d="M20.4464876,4.05199503 C22.5610523,4.05199503 24.2752457,2.23785506 24.2752457,0 L16.6177295,0 C16.6177295,2.23785506 18.3319229,4.05199503 20.4464876,4.05199503 Z" id="Oval-6" fill="#FFFFFF" mask="url(#mask-2)"></path>
                                        </g>
                                    </g>
                                    <ellipse id="Oval-5" fill="#6327EA" cx="20.1340491" cy="9.90528369" rx="9.39747298" ry="9.46664391"></ellipse>
                                </g>
                            </g>
                        </g>
                    </g>
                </g>
            </g>
        </g>
    </g>
</svg>