<?xml version="1.0" encoding="UTF-8"?>
<svg width="499px" height="396px" viewBox="0 0 499 396" version="1.1" xmlns="http://www.w3.org/2000/svg" xmlns:xlink="http://www.w3.org/1999/xlink">
    <!-- Generator: Sketch 52.2 (67145) - http://www.bohemiancoding.com/sketch -->
    <title>img_good_company</title>
    <desc>Created with Sketch.</desc>
    <defs>
        <path d="M228.950116,379 C353.241735,379 454,278.331523 454,154.150664 C454,29.9698049 331.421571,-71.5305511 242.309475,65.6132439 C153.197379,202.757039 0,78.5761798 0,202.757039 C0,326.937898 104.658498,379 228.950116,379 Z" id="path-1"></path>
        <linearGradient x1="27.7549017%" y1="28.8374166%" x2="-36.9465986%" y2="171.825687%" id="linearGradient-3">
            <stop stop-color="#FFFFFF" stop-opacity="0" offset="0%"></stop>
            <stop stop-color="#5818BE" offset="100%"></stop>
        </linearGradient>
        <linearGradient x1="83.3300201%" y1="-6.26190746%" x2="25.2097224%" y2="111.166943%" id="linearGradient-4">
            <stop stop-color="#7F14F4" offset="0%"></stop>
            <stop stop-color="#4D35E2" offset="100%"></stop>
        </linearGradient>
        <path d="M3.53799199,0 L12.3522608,0 C14.184609,-3.36596913e-16 15.6700208,1.48541175 15.6700208,3.31776 C15.6700208,3.46262046 15.6605334,3.60732542 15.6416196,3.75094582 L14.6226425,11.4884595 C14.4052629,13.1391122 12.9981886,14.3730337 11.3332837,14.3730337 L4.60549179,14.3730337 C2.94835873,14.3730337 1.54534314,13.1502944 1.31886338,11.5087107 L0.251363582,3.77119702 C0.000937230749,1.95604227 1.26940022,0.281557944 3.08455497,0.0311315929 C3.23481132,0.010401598 3.38631238,4.71952301e-16 3.53799199,4.4408921e-16 Z" id="path-5"></path>
        <filter x="-168.3%" y="-132.2%" width="436.6%" height="461.8%" filterUnits="objectBoundingBox" id="filter-7">
            <feOffset dx="0" dy="7" in="SourceAlpha" result="shadowOffsetOuter1"></feOffset>
            <feGaussianBlur stdDeviation="7.5" in="shadowOffsetOuter1" result="shadowBlurOuter1"></feGaussianBlur>
            <feColorMatrix values="0 0 0 0 0   0 0 0 0 0   0 0 0 0 0  0 0 0 0.0902400362 0" type="matrix" in="shadowBlurOuter1"></feColorMatrix>
        </filter>
        <path d="M1.8439045,34.2741573 L17.7126847,34.2741573 C18.3234674,34.2741573 18.8186047,34.7692946 18.8186047,35.3800773 L18.8186047,36.4850912 C18.8186047,37.095874 18.3234674,37.5910112 17.7126847,37.5910112 L1.8439045,37.5910112 C1.23312175,37.5910112 0.737984496,37.095874 0.737984496,36.4850912 L0.737984496,35.3800773 C0.737984496,34.7692946 1.23312175,34.2741573 1.8439045,34.2741573 Z" id="path-8"></path>
        <filter x="-143.8%" y="-572.8%" width="387.6%" height="1667.8%" filterUnits="objectBoundingBox" id="filter-9">
            <feOffset dx="0" dy="7" in="SourceAlpha" result="shadowOffsetOuter1"></feOffset>
            <feGaussianBlur stdDeviation="7.5" in="shadowOffsetOuter1" result="shadowBlurOuter1"></feGaussianBlur>
            <feColorMatrix values="0 0 0 0 0   0 0 0 0 0   0 0 0 0 0  0 0 0 0.0902400362 0" type="matrix" in="shadowBlurOuter1"></feColorMatrix>
        </filter>
        <path d="M0.996323529,0.376811594 L47.1139706,0.376811594 L41.890308,31.9589159 C41.7555039,32.7739383 41.1334765,33.4222145 40.3247185,33.5905715 C34.8517312,34.7298684 29.4101584,35.2995169 24,35.2995169 C18.5939805,35.2995169 13.187961,34.7307397 7.7819415,33.5931852 L7.78193717,33.5932058 C6.97507894,33.4234238 6.35510568,32.7758888 6.22055741,31.962413 L0.996323529,0.376811594 Z" id="path-10"></path>
        <path d="M57.993405,88.6711852 C22.6915985,97.3102742 3.82567723,109.584276 1.39564138,125.493189 C-5.09042369,167.956039 10.135215,197.57209 65.9857721,203.374757 C121.836329,209.177423 160.173224,194.0348 177.609374,154.252049 C192.807976,119.574541 191.468089,61.3768453 158.002252,26.3666305 C124.536416,-8.6435844 75.7741469,-5.77017056 57.993405,17.362137 C46.1395771,32.7836753 46.1395771,56.5533581 57.993405,88.6711852 Z" id="path-12"></path>
        <linearGradient x1="94.6335923%" y1="-37.6392172%" x2="75.7373278%" y2="100%" id="linearGradient-14">
            <stop stop-color="#000000" stop-opacity="0" offset="0%"></stop>
            <stop stop-color="#000000" stop-opacity="0.0102063217" offset="8.73350187%"></stop>
            <stop stop-color="#000000" stop-opacity="0.2" offset="100%"></stop>
        </linearGradient>
        <path d="M34.9246683,36.6444159 C41.699686,33.2733998 43.3934405,27.0869267 40.0059316,18.0849966 C34.9246683,4.58210139 26.8746872,-2.07122151 12.972998,1.97293951 C-0.928691168,6.01710054 -0.928691168,26.2388554 0.892998594,33.8311424 C2.10745844,38.8926671 7.50076597,41.4012343 17.0729212,41.3568441 L34.9246683,36.6444159 Z" id="path-15"></path>
        <path d="M18.3371731,0.330567851 C18.939432,3.66208057 17.9749523,7.4939084 15.4437342,11.8260513 C11.646907,18.3242657 0.705192774,18.1265607 0.705192774,23.4442392 C0.705192774,28.7619176 10.392039,29.9195975 18.3371731,24.5530674 C26.2823073,19.1865373 31.4678672,19.8164442 31.4678672,15.5561436 C31.4678672,12.7159432 31.6843816,8.18230067 32.1174104,1.9552161 L18.3371731,0.330567851 Z" id="path-17"></path>
        <linearGradient x1="146.070261%" y1="-170.101001%" x2="19.4290097%" y2="130.745889%" id="linearGradient-19">
            <stop stop-color="#00D3E9" offset="0%"></stop>
            <stop stop-color="#00A7CE" offset="100%"></stop>
        </linearGradient>
        <path d="M103.609525,1.66929854 C41.5896463,-2.01649823 9.31658183,1.35145474 6.79033174,11.7731575 C4.26408166,22.1948602 2.1780627,51.3357797 0.532274882,99.1959161 C2.19579606,101.392643 4.5229116,102.713618 7.51362151,103.15884 C10.5043314,103.604063 13.4781394,103.072228 16.4350456,101.563336 C30.0181123,60.8707914 35.0386723,32.9973784 31.4967257,17.9430972 L103.609525,1.66929854 Z" id="path-20"></path>
        <path d="M10.8127947,3.47852216 C11.651996,5.59821745 12.0715967,8.04008397 12.0715967,10.8041217 C12.0715967,14.9501783 7.20708996,20.3599739 1.91321415,25.8549028 C-3.38066167,31.3498317 4.02134489,35.4936426 14.965909,28.8018507 C25.9104732,22.1100588 26.85333,14.5415856 25.7717854,10.8041217 C25.0507557,8.31247909 23.8707468,4.77934169 22.2317587,0.204709506 L10.8127947,3.47852216 Z" id="path-22"></path>
        <linearGradient x1="100%" y1="-19.5838075%" x2="21.819514%" y2="116.054626%" id="linearGradient-24">
            <stop stop-color="#00D3E9" offset="0%"></stop>
            <stop stop-color="#00A7CE" offset="100%"></stop>
        </linearGradient>
        <path d="M99.4660221,0.130063934 C110.403263,28.2352176 109.366294,45.4307982 96.3551145,51.7168057 C81.577709,58.8561188 61.851094,58.0626377 37.1752693,49.3363623 C48.116772,64.2100228 55.4411461,87.8583521 59.1483915,120.28135 C59.1483915,123.203267 51.8068658,127.005538 45.2869242,122.96487 C12.2733845,64.3621649 -2.62419047,30.6043748 0.594199303,21.6915 C3.81258908,12.7786253 36.7698633,5.5914799 99.4660221,0.130063934 Z" id="path-25"></path>
        <path d="M40.4865029,62.8373326 C60.2461085,68.5584838 73.8460345,70.61246 81.286281,68.9992612 C92.4466507,66.579463 84.9827736,16.4556823 73.9935238,8.29084244 C63.004274,0.126002578 42.7982925,-1.01721535 30.1438162,1.55716311 C20.6028499,3.49814096 1.87395947,11.1232519 0.905205034,58.602899 L40.4865029,62.8373326 Z" id="path-27"></path>
        <path d="M1.66948313,1.39711688 C0.665287633,7.39608841 0.282567996,11.9681314 0.52132422,15.1132458 C1.28676349,22.7833853 3.30834113,25.9469438 6.58605713,24.6039213 C11.5026311,22.5893876 21.9597544,9.40210953 18.0796785,0.0641921434 L1.66948313,1.39711688 Z" id="path-29"></path>
        <path d="M0.00732012792,0.370758548 C0.257287841,15.3476341 4.46251301,23.2417218 12.6229956,24.0530216 C12.9513134,27.8111695 12.9513134,32.1302918 12.6229956,37.0103883 C12.0143077,46.0578918 23.6342923,52.1636241 30.1930477,33.3854644 C31.4094575,29.9028007 29.5565391,22.0774655 24.6342923,9.90945856 C28.1912027,9.39919545 29.8332269,7.66992837 29.5603647,4.72165731 C29.1510714,0.299250716 25.3147294,-1.09456834 21.9946977,4.09850144 C11.5735856,5.88033909 4.24445977,4.63775813 0.00732012792,0.370758548 Z" id="path-31"></path>
        <path d="M2.35237763,0.0108613418 L56.0098822,0.0108613418 C58.0560096,0.0108613418 59.862503,1.34630126 60.4625458,3.30246743 L72.2572028,41.7535746 C72.6343661,42.9831437 71.9433546,44.2856576 70.7137855,44.6628209 C70.4944701,44.7300947 70.266418,44.7645931 70.0370174,44.7651986 L16.6728232,44.9060475 C14.6320835,44.9114338 12.8255225,43.58765 12.215817,41.6401113 L0.13002088,3.0353203 C-0.254226474,1.80794656 0.429262507,0.501469531 1.65663625,0.117222177 C1.88182202,0.0467244662 2.11641458,0.0108613418 2.35237763,0.0108613418 Z" id="path-33"></path>
    </defs>
    <g id="Page-1" stroke="none" stroke-width="1" fill="none" fill-rule="evenodd">
        <g id="01---Landing-Page" transform="translate(-756.000000, -3101.000000)">
            <g id="section---illustration" transform="translate(169.000000, 3081.000000)">
                <g id="section" transform="translate(4.000000, 0.000000)">
                    <g id="Illustration/img_good_company" transform="translate(583.000000, 20.000000)">
                        <g id="Group-37" opacity="0.5" transform="translate(272.000000, 189.500000) scale(-1, 1) translate(-272.000000, -189.500000) translate(45.000000, 0.000000)">
                            <mask id="mask-2" fill="white">
                                <use xlink:href="#path-1"></use>
                            </mask>
                            <use id="Oval-9" fill="#EAE5FB" transform="translate(227.000000, 189.500000) scale(-1, 1) translate(-227.000000, -189.500000) " xlink:href="#path-1"></use>
                            <path d="M376.528375,138.042016 C431.068197,278.411122 191.082698,416.524654 129.056603,76.8361298 C123.357877,45.6268139 118.236911,20.5221209 113.352636,-3.4381111 C112.783455,-6.23027825 135.452131,-10.7034389 176.026825,14.1073299 C204.128279,31.2909149 218.405016,81.804621 264.185308,109.923319 C294.705503,128.669117 332.153192,138.042016 376.528375,138.042016 Z" id="Path-17" fill="url(#linearGradient-3)" mask="url(#mask-2)"></path>
                        </g>
                        <g id="Group-67" opacity="0.400000006" transform="translate(163.000000, 183.000000)">
                            <path d="M4.23820225,59 L263.761798,59 C266.102492,59 268,60.8975078 268,63.2382022 L268,63.2382022 C268,65.5788967 266.102492,67.4764045 263.761798,67.4764045 L4.23820225,67.4764045 C1.89750778,67.4764045 2.86652399e-16,65.5788967 0,63.2382022 L0,63.2382022 C-2.86652399e-16,60.8975078 1.89750778,59 4.23820225,59 Z" id="Rectangle-22" fill="#A477DF" fill-rule="nonzero"></path>
                            <g id="macbook" transform="translate(60.145736, 0.000000)" fill-rule="nonzero">
                                <path d="M35.5605209,53.0696629 C35.8675225,53.9246742 36.6793054,54.5438202 37.6372093,54.5438202 L49.4449612,54.5438202 C50.4028651,54.5438202 51.216124,53.9246742 51.5216496,53.0696629 L81.1782946,53.0696629 L81.1782946,4.52124045 C81.1782946,2.02401798 79.1517891,0 76.6514977,0 L8.95470388,0 C6.4544124,0 4.42790698,2.02401798 4.42790698,4.52124045 L4.42790698,53.0696629 L35.5605209,53.0696629 Z" id="Shape" fill="#4625B8"></path>
                                <polygon id="Rectangle-path" fill="#FFFFFF" points="7.23100775 4 78.3751938 4 78.3751938 48.647191 7.23100775 48.647191"></polygon>
                                <path d="M51.5216496,53.0696629 C51.2146481,53.9246742 50.4028651,54.5438202 49.4449612,54.5438202 L37.6372093,54.5438202 C36.6793054,54.5438202 35.8660465,53.9246742 35.5605209,53.0696629 L0.853110078,53.0696629 C0.382275969,53.0696629 0,53.4514697 0,53.9217258 L0,58.1142292 C0,58.5844854 0.382275969,58.9662921 0.853110078,58.9662921 L84.7530915,58.9662921 C85.2239256,58.9662921 85.6062016,58.5844854 85.6062016,58.1142292 L85.6062016,53.9217258 C85.6062016,53.4514697 85.2239256,53.0696629 84.7530915,53.0696629 L51.5216496,53.0696629 Z" id="Shape" fill="#5C2BE7"></path>
                            </g>
                            <g id="pot" transform="translate(211.100775, 10.319101)">
                                <path d="M10.4969593,24.695424 C17.4595701,18.3285952 21.7094209,15.0106449 23.2465116,14.741573 L23.2465116,21.1162466 L19.4887488,22.57443 L23.2465116,23.5023649 L22.4412767,26.5512938 L19.4887488,27.3466665 L22.4412767,28.1420393 L22.0220178,30.2132041 L18.0124849,31.1909682 L21.6360419,32.2514652 C21.3676302,34.0189603 19.2650725,35.167832 15.3283686,35.6980805 C11.3916648,36.228329 9.78119499,32.5607769 10.4969593,24.695424 Z" id="Path-23" fill="#02BC85"></path>
                                <path d="M14.9461505,36.0656679 C17.2817918,35.4446109 18.4496124,33.7588847 18.4496124,31.0084894 L14.8114019,31.0084894 L18.4496124,28.4799001 C18.0004506,25.3746151 17.7758697,23.8219725 17.7758697,23.8219725 C17.7758697,23.8219725 16.338552,23.9994174 13.4639166,24.3543071 L16.83263,21.8257179 C16.4733005,18.2768206 16.1813454,16.502372 15.9567645,16.502372 C15.7321836,16.502372 14.317324,17.1677903 11.7121856,18.4986267 L14.9461505,14.5061174 L14.2724078,11.3121099 L11.30794,12.77603 L13.4639166,9.58202247 C11.6672694,3.46017478 10.2748679,0.266167291 9.28671195,0 C7.13073537,4.08123179 4.57051319,12.154973 1.6060454,24.2212235 C0.707721823,28.9235123 1.02213507,32.0287973 2.54928515,33.5370787 C4.07643522,35.04536 5.19933969,36.6423637 5.91799855,38.3280899 L14.9461505,36.0656679 Z" id="Path-22" fill="#6CE1B0"></path>
                                <path d="M7.74883721,34.9964808 C8.02481479,21.2807414 8.53077369,12.8092553 9.26671391,9.58202247 C8.53077369,22.6702444 8.53077369,30.9624398 9.26671391,34.4586087 C10.0026541,37.9547776 9.49669523,38.1340683 7.74883721,34.9964808 Z" id="Path-25" fill="#000000" opacity="0.1"></path>
                                <path d="M0,25.3555056 C0.269157635,31.4585169 2.15326108,35.6598652 5.65231034,37.9595506 C8.61304432,34.9522697 10.0485517,29.4241798 9.9588325,21.3752809 C7.92723631,24.876171 6.26743089,27.9719014 4.97941625,30.6624719 C3.86581369,32.9887081 3.33240251,30.4038944 2.79408724,29.4088382 C2.07397874,28.0777439 1.21166779,26.629991 0.942051723,26.1515506 C0.493455664,25.3555056 0.179438423,25.0901573 0,25.3555056 Z" id="Path-24" fill="#02BC85" transform="translate(4.981395, 29.667416) scale(-1, 1) translate(-4.981395, -29.667416) "></path>
                                <g id="Oval-7" transform="translate(1.844961, 34.274157)">
                                    <mask id="mask-6" fill="white">
                                        <use xlink:href="#path-5"></use>
                                    </mask>
                                    <g id="Mask">
                                        <use fill="black" fill-opacity="1" filter="url(#filter-7)" xlink:href="#path-5"></use>
                                        <use fill="url(#linearGradient-4)" fill-rule="evenodd" xlink:href="#path-5"></use>
                                    </g>
                                </g>
                                <g id="Rectangle">
                                    <use fill="black" fill-opacity="1" filter="url(#filter-9)" xlink:href="#path-8"></use>
                                    <use fill="url(#linearGradient-4)" fill-rule="evenodd" xlink:href="#path-8"></use>
                                </g>
                            </g>
                            <g id="Group-62" transform="translate(154.607752, 37.591011)" fill-rule="nonzero">
                                <path d="M0,11.0561798 L31.9239439,11.0561798 C34.6717157,11.0561798 36.8992248,13.2836889 36.8992248,16.0314607 L36.8992248,16.0314607 C36.8992248,18.7792324 34.6717157,21.0067416 31.9239439,21.0067416 L0,21.0067416" id="Rectangle-24" stroke="#552FE5" stroke-width="1.10592" fill="#FFFFFF" stroke-linecap="round" stroke-linejoin="round"></path>
                                <rect id="Rectangle-25" fill="#CFCFCF" x="17.7116279" y="15.1101124" width="15.1286822" height="1" rx="0.5"></rect>
                                <path d="M3.32093023,0 L35.2448741,0 C37.9926459,-5.04757485e-16 40.220155,2.22750913 40.220155,4.9752809 L40.220155,4.9752809 C40.220155,7.72305267 37.9926459,9.9505618 35.2448741,9.9505618 L3.32093023,9.9505618" id="Rectangle-24-Copy" stroke="#01A7CE" stroke-width="1.10592" fill="#FFFFFF" stroke-linecap="round" stroke-linejoin="round" transform="translate(21.770543, 4.975281) scale(-1, 1) translate(-21.770543, -4.975281) "></path>
                                <rect id="Rectangle-25-Copy-2" fill="#CFCFCF" x="8.48682171" y="4.05393258" width="15.1286822" height="1" rx="0.5"></rect>
                                <rect id="Rectangle-25-Copy" fill="#CFCFCF" x="12.5457364" y="15.1101124" width="3.68992248" height="1" rx="0.5"></rect>
                                <polygon id="Rectangle-26" fill="#00B9D9" points="25.8294574 15.1101124 32.1023256 15.1101124 32.1023256 19.1640449 29.1503876 16.952809 25.8294574 19.1640449"></polygon>
                            </g>
                            <path d="M6,67 L261.823256,67 L261.823256,71.0520198 C261.823256,74.9203105 258.687387,78.0561798 254.819096,78.0561798 L13.00416,78.0561798 C9.13586925,78.0561798 6,74.9203105 6,71.0520198 L6,67 Z" id="Rectangle-22-Copy" fill="#6B18DC" fill-rule="nonzero"></path>
                            <g id="Group-63" transform="translate(39.000000, 78.000000)" fill="#5F27E5" fill-rule="nonzero">
                                <path d="M179.736434,0 L179.736434,104.264503 C179.736434,105.893257 178.416068,107.213623 176.787314,107.213623 L171.615787,107.213623 C169.987033,107.213623 168.666667,105.893257 168.666667,104.264503 L168.666667,0 L179.736434,0 Z" id="Rectangle-22-Copy-3"></path>
                                <path d="M11.0697674,0 L11.0697674,104.264503 C11.0697674,105.893257 9.74940144,107.213623 8.12064744,107.213623 L2.94912,107.213623 C1.320366,107.213623 7.71180848e-15,105.893257 -4.4408921e-16,104.264503 L0,0 L11.0697674,0 Z" id="Rectangle-22-Copy-4"></path>
                            </g>
                            <g id="Group-61" transform="translate(21.401550, 42.750562)" fill-rule="nonzero">
                                <ellipse id="Oval-16" stroke="#0096B0" stroke-width="2.21184" cx="3.68992248" cy="7.00224719" rx="3.68992248" ry="3.68539326"></ellipse>
                                <path d="M5.16448248,0 L21.4029594,-2.22044605e-16 C22.2173364,1.798293e-15 22.8775194,0.660182999 22.8775194,1.47456 L22.8775194,9.21157034 C22.8775194,13.0798611 19.7416501,16.2157303 15.8733594,16.2157303 L10.6940825,16.2157303 C6.82579173,16.2157303 3.68992248,13.0798611 3.68992248,9.21157034 L3.68992248,1.47456 C3.68992248,0.660182999 4.35010548,1.49598628e-16 5.16448248,0 Z" id="Rectangle-23" fill="#00B9D9"></path>
                            </g>
                            <g id="Group-66" transform="translate(31.364341, 31.325843)" fill-rule="nonzero" stroke="#BDBDBD" stroke-linecap="round" stroke-linejoin="round" stroke-width="0.73728">
                                <path d="M0.737984496,2.57977528 C0.245994832,3.07116105 0,3.56254682 0,4.05393258 C0,4.79101124 0.491989664,5.30129646 0.737984496,5.52808989 C0.983979328,5.75488332 1.47596899,6.20847018 1.47596899,7.00224719 C1.47596899,7.53143186 1.22997416,8.02281763 0.737984496,8.47640449" id="Path-57"></path>
                                <path d="M6.27286822,2.57977528 C5.78087855,3.07116105 5.53488372,3.56254682 5.53488372,4.05393258 C5.53488372,4.79101124 6.02687339,5.30129646 6.27286822,5.52808989 C6.51886305,5.75488332 7.01085271,6.20847018 7.01085271,7.00224719 C7.01085271,7.53143186 6.76485788,8.02281763 6.27286822,8.47640449" id="Path-57-Copy-2"></path>
                                <path d="M3.32093023,0 C2.82894057,0.675655431 2.58294574,1.35131086 2.58294574,2.02696629 C2.58294574,3.04044944 3.0749354,3.74209162 3.32093023,4.05393258 C3.56692506,4.36577355 4.05891473,4.98945549 4.05891473,6.08089888 C4.05891473,6.8085278 3.8129199,7.48418323 3.32093023,8.10786517" id="Path-57-Copy"></path>
                            </g>
                            <rect id="Rectangle-27" fill="#F0F0F0" fill-rule="nonzero" x="67.4496124" y="3.42247191" width="70.9984496" height="4.05393258"></rect>
                            <ellipse id="Oval-17" fill="#D8D8D8" fill-rule="nonzero" cx="71.2155039" cy="5.26516854" rx="1" ry="1"></ellipse>
                            <ellipse id="Oval-17-Copy" fill="#D8D8D8" fill-rule="nonzero" cx="73.4294574" cy="5.26516854" rx="1" ry="1"></ellipse>
                            <ellipse id="Oval-17-Copy-2" fill="#D8D8D8" fill-rule="nonzero" cx="75.6434109" cy="5.26516854" rx="1" ry="1"></ellipse>
                        </g>
                        <ellipse id="Oval-13" fill="#1C036C" opacity="0.0199999996" cx="438.5" cy="374" rx="39.5" ry="11"></ellipse>
                        <g id="Group-54" transform="translate(394.000000, 229.000000)">
                            <g id="Group-51-Copy" transform="translate(67.221282, 91.585609) rotate(-104.000000) translate(-67.221282, -91.585609) translate(47.221282, 68.085609)">
                                <path d="M28.4864692,44.9417151 C26.0159242,42.9561312 24.3121896,39.9066269 23.3752652,35.7932022 C21.9698787,29.6230651 6.9768076,22.6381599 4.17515365,19.5168352 C2.60987698,17.7729593 -0.82760376,13.6254738 0.722599038,6.99208031 C1.94263331,1.77149408 6.79558833,0.0591439012 11.9713085,0.489691029 C17.1470286,0.920238156 20.1214467,3.10543809 22.8169759,10.1430338 C25.512505,17.1806296 26.5300919,18.2694203 30.4836166,19.5168352 C34.4371414,20.76425 34.4371414,26.0580874 34.4371414,29.0312158 C34.4371414,32.0043441 37.6045166,36.2320623 38.399889,37.472138 C39.1952613,38.7122136 39.473847,41.8314157 38.399889,43.9566653 C37.325931,46.0819148 35.434787,46.4263666 33.8750249,46.4263666 C32.8351835,46.4263666 31.0389983,45.9314828 28.4864692,44.9417151 Z" id="Path-22" fill="#2CAF78"></path>
                                <path d="M5.58823529,0.700483092 C17.8751941,11.8414797 26.6562889,24.1034771 31.9315198,37.4864751" id="Path-25" stroke-opacity="0.2" stroke="#000000" stroke-width="0.550000012"></path>
                                <path d="M18.6398739,15.3239682 C18.9994201,21.2772262 18.142261,25.2833495 16.0683967,27.3423383" id="Path-46" stroke-opacity="0.2" stroke="#000000" stroke-width="0.550000012" transform="translate(17.393979, 21.333153) rotate(7.000000) translate(-17.393979, -21.333153) "></path>
                                <path d="M22.3355714,20.8090839 C22.6947533,25.9599911 22.3364152,29.079583 21.260557,30.1678596" id="Path-47" stroke-opacity="0.2" stroke="#000000" stroke-width="0.550000012" transform="translate(21.865490, 25.488472) rotate(7.000000) translate(-21.865490, -25.488472) "></path>
                            </g>
                            <g id="Group-52" transform="translate(31.433824, 0.000000)">
                                <path d="M4.24844146,114.541069 C-0.75577509,106.194257 -0.75577509,99.0742684 4.24844146,93.1811019 C11.7547663,84.3413522 9.42913432,82.9239822 7.61434277,76.2506754 C5.79955123,69.5773686 8.31038005,60.1314567 12.7606124,56.3750464 C17.2108448,52.6186361 17.6239812,49.8657439 16.6105041,41.6117531 C15.9348526,36.1090926 19.0391376,30.8556872 25.9233589,25.8515371 C28.4812327,21.8201215 29.7601697,17.078295 29.7601697,11.6260574 C29.7601697,3.44770106 37.6302302,-0.378482674 41.6038187,0.654384346 C45.5774073,1.68725137 53.2775319,15.0798129 48.0951832,25.8515371 C42.9128345,36.6232613 39.8342665,38.3865008 38.8065888,39.6572599 C37.7789112,40.928019 35.3410827,44.8255713 37.0738357,52.081907 C38.8065888,59.3382428 31.6669908,62.530025 27.84142,67.2514457 C24.0158492,71.9728664 24.3571029,78.0284288 27.0586363,85.6047654 C29.7601697,93.1811019 26.7501244,110.144358 22.6269125,113.374691 C19.8781046,115.528247 13.7519475,115.917039 4.24844146,114.541069 Z" id="Path-26" fill="#6CE1B0"></path>
                                <path d="M12.927131,114.127871 C13.6793369,74.5251839 21.9026169,42.2365905 37.5969711,17.2620902" id="Path-27" stroke="#07946A" stroke-width="0.550000012"></path>
                                <path d="M15.6152855,80.6335941 C19.8439512,77.4517119 22.5083441,75.6505774 23.6084641,75.2301906" id="Path-42" stroke="#07946A" stroke-width="0.550000012"></path>
                                <path d="M14.2182267,87.6384251 C19.5681818,83.6491185 22.7932193,81.4442719 23.8933393,81.0238851" id="Path-42-Copy" stroke="#07946A" stroke-width="0.550000012"></path>
                                <path d="M20.4607296,56.1696368 C18.4545052,51.5199578 17.3077751,49.1951183 17.0205394,49.1951183" id="Path-43" stroke="#07946A" stroke-width="0.550000012"></path>
                                <path d="M21.6922142,52.2058814 C19.4742142,46.1384198 17.8378778,42.8207552 16.7832047,42.2528877" id="Path-45" stroke="#07946A" stroke-width="0.550000012"></path>
                            </g>
                            <g id="Group-51" transform="translate(0.000000, 68.647343)">
                                <path d="M28.4864692,44.9417151 C26.0159242,42.9561312 24.3121896,39.9066269 23.3752652,35.7932022 C21.9698787,29.6230651 6.9768076,22.6381599 4.17515365,19.5168352 C2.60987698,17.7729593 -0.82760376,13.6254738 0.722599038,6.99208031 C1.94263331,1.77149408 6.79558833,0.0591439012 11.9713085,0.489691029 C17.1470286,0.920238156 20.1214467,3.10543809 22.8169759,10.1430338 C25.512505,17.1806296 26.5300919,18.2694203 30.4836166,19.5168352 C34.4371414,20.76425 34.4371414,26.0580874 34.4371414,29.0312158 C34.4371414,32.0043441 37.6045166,36.2320623 38.399889,37.472138 C39.1952613,38.7122136 39.473847,41.8314157 38.399889,43.9566653 C37.325931,46.0819148 35.434787,46.4263666 33.8750249,46.4263666 C32.8351835,46.4263666 31.0389983,45.9314828 28.4864692,44.9417151 Z" id="Path-22" fill="#02BC85"></path>
                                <path d="M10.6720356,11.0198739 C23.3812259,21.160941 31.329512,33.3597957 34.5168939,47.616438" id="Path-25" stroke="#07946A" stroke-width="0.550000012"></path>
                                <path d="M19.3567796,18.9145358 C20.6238437,14.3859311 21.1518614,11.6267733 20.9408325,10.6370622" id="Path-26-Copy" stroke="#07946A" stroke-width="0.550000012"></path>
                                <path d="M17.2611914,16.8130865 C18.575471,11.5122161 19.1270964,8.36692534 18.9160676,7.37721432" id="Path-26-Copy-2" stroke="#07946A" stroke-width="0.550000012"></path>
                                <path d="M33.2471342,39.907853 C34.4319728,35.9037038 34.9188778,33.4067736 34.7078489,32.4170626" id="Path-26-Copy-4" stroke="#07946A" stroke-width="0.550000012" transform="translate(34.001419, 36.162458) rotate(12.000000) translate(-34.001419, -36.162458) "></path>
                                <path d="M31.930309,36.4266131 C33.1973731,31.8980084 33.7253908,29.1388506 33.514362,28.1491395" id="Path-26-Copy-5" stroke="#07946A" stroke-width="0.550000012" transform="translate(32.744932, 32.287876) rotate(12.000000) translate(-32.744932, -32.287876) "></path>
                            </g>
                            <g id="Group-55" transform="translate(21.000000, 111.000000)">
                                <mask id="mask-11" fill="white">
                                    <use xlink:href="#path-10"></use>
                                </mask>
                                <use id="Rectangle-20" fill="#6B18DC" xlink:href="#path-10"></use>
                                <polygon id="Path-48" fill="#000000" opacity="0.200000018" mask="url(#mask-11)" points="0.5 10.1197378 45.0631196 16.8381643 46.6176471 9"></polygon>
                            </g>
                            <path d="M22.4963235,108.695652 L67.6139706,108.695652 C68.7185401,108.695652 69.6139706,109.591083 69.6139706,110.695652 L69.6139706,119 C69.6139706,120.104569 68.7185401,121 67.6139706,121 L22.4963235,121 C21.391754,121 20.4963235,120.104569 20.4963235,119 L20.4963235,110.695652 C20.4963235,109.591083 21.391754,108.695652 22.4963235,108.695652 Z" id="Rectangle-20-Copy" fill="#6F17E0" transform="translate(45.055147, 114.847826) scale(1, -1) translate(-45.055147, -114.847826) "></path>
                        </g>
                        <ellipse id="Oval-10" fill="#1C036C" opacity="0.0199999996" cx="112" cy="375" rx="112" ry="21"></ellipse>
                        <g id="Group-64" transform="translate(107.500000, 267.500000) scale(-1, 1) translate(-107.500000, -267.500000) translate(0.000000, 142.000000)">
                            <g id="Group-3" transform="translate(27.632801, 22.685007)">
                                <g id="Group-8">
                                    <mask id="mask-13" fill="white">
                                        <use xlink:href="#path-12"></use>
                                    </mask>
                                    <use id="Path-10" fill="url(#linearGradient-4)" xlink:href="#path-12"></use>
                                    <path d="M114.164937,0.367705556 C143.520951,13.0480843 160.440118,28.4525017 164.922438,46.5809577 C189.69968,146.790932 120.834639,197.396484 2.57977978,154.613567" id="Path-247" stroke="#FFFFFF" stroke-width="1.02910506" stroke-dasharray="5.50000011920929" mask="url(#mask-13)"></path>
                                    <path d="M77.5040426,-0.968763035 C99.9416975,-8.43234503 138.730593,3.95216734 149.037669,38.2981805 C159.344746,72.6441937 148.301215,137.963908 77.5040426,142.359478 C6.70687057,146.755048 -11.6984989,99.4330748 8.46127842,70.2389853 C19.2946791,54.5507531 20.5567494,54.4667108 37.6335702,30.6344362 C54.710391,6.80216157 52.8330949,-4.29120272 77.5040426,-0.968763035 Z" id="Path-19" fill="url(#linearGradient-14)" mask="url(#mask-13)"></path>
                                    <path d="M171.820896,167.669742 C153.909707,197.417682 34.4095537,205.340441 3.30055702,167.669742 C21.7711856,200.050153 50.0734771,214.460596 88.2074316,210.901072 C145.408363,205.561784 157.452357,191.906051 171.820896,167.669742 Z" id="Path-40" fill="url(#linearGradient-14)" fill-rule="nonzero" mask="url(#mask-13)"></path>
                                </g>
                            </g>
                            <g id="Group-44" transform="translate(75.889383, 0.000000)">
                                <mask id="mask-16" fill="white">
                                    <use xlink:href="#path-15"></use>
                                </mask>
                                <use id="Path-159" fill="#30007D" fill-rule="nonzero" xlink:href="#path-15"></use>
                                <path d="M26.8573201,22.3013041 C29.7837105,15.9388287 34.1179913,14.3482099 39.8601624,17.5294476 C48.4734191,22.3013041 48.6150988,31.0481561 46.2183503,39.1986037 C44.620518,44.6322354 42.501122,48.832098 39.8601624,51.7981915 L29.7518119,51.7981915 L26.8573201,22.3013041 Z" id="Path-60" fill-opacity="0.300000012" fill="#000000" fill-rule="nonzero" opacity="0.600000024" mask="url(#mask-16)"></path>
                            </g>
                            <g id="Group-70" transform="translate(0.000000, 203.829515)">
                                <mask id="mask-18" fill="white">
                                    <use xlink:href="#path-17"></use>
                                </mask>
                                <use id="Path-163" fill="#FFD7D5" fill-rule="nonzero" xlink:href="#path-17"></use>
                                <path d="M15.5121224,10.9238523 C13.4196855,13.6053713 10.8446652,16.3544202 12.1321754,18.4464749 C13.4196855,20.5385295 29.8489945,15.6330418 31.881082,8.63114021 L31.881082,19.108185 L22.3812629,23.099243 C18.7214833,27.4193089 13.6059093,29.5793418 7.03454082,29.5793418 C-2.82251192,29.5793418 -3.38175698,22.3465159 -0.147886549,19.8517466 C2.00802707,18.188567 7.22803006,15.2126023 15.5121224,10.9238523 Z" id="Path-44" fill="#0C1642" fill-rule="nonzero" mask="url(#mask-18)"></path>
                            </g>
                            <g id="Group-41" transform="translate(16.222346, 108.465566)">
                                <mask id="mask-21" fill="white">
                                    <use xlink:href="#path-20"></use>
                                </mask>
                                <use id="Path-161" fill="url(#linearGradient-19)" fill-rule="nonzero" xlink:href="#path-20"></use>
                                <path d="M28.2893476,19.746803 L10.1350183,105.890711" id="Path-72" stroke="#FFFFFF" stroke-width="1.02910506" opacity="0.399999976" stroke-dasharray="5.50000011920929" fill-rule="nonzero" mask="url(#mask-21)"></path>
                                <path d="M55.9461459,1.61647941 C40.5653842,1.61647941 8.73439168,0.88742987 17.2711092,26.9784246 C22.9622542,44.372421 28.3196552,60.5379968 33.3433122,75.475152 C58.6657092,26.2360369 66.1999871,1.61647941 55.9461459,1.61647941 Z" id="Path-70" fill-opacity="0.300000012" fill="#000000" fill-rule="nonzero" opacity="0.699999988" mask="url(#mask-21)"></path>
                            </g>
                            <g id="Group-71" transform="translate(75.212694, 217.085383)">
                                <mask id="mask-23" fill="white">
                                    <use xlink:href="#path-22"></use>
                                </mask>
                                <use id="Path-162" fill="#FFD7D5" fill-rule="nonzero" xlink:href="#path-22"></use>
                                <path d="M11.3370895,13.2332339 C10.7650749,15.3596632 9.11265006,20.7528694 11.3370895,21.5652631 C13.561529,22.3776567 23.3768994,19.0340242 24.9170883,7.4074724 C27.6676108,10.0216708 27.9515345,14.07772 25.7688594,19.57562 C22.4948468,27.82247 8.4100639,35.5044178 0.857748794,32.8399996 C-4.17712794,31.0637209 -0.684014361,24.5281323 11.3370895,13.2332339 Z" id="Path-82" fill="#0C1642" fill-rule="nonzero" mask="url(#mask-23)"></path>
                            </g>
                            <g id="Group-50" transform="translate(39.818485, 97.674069)">
                                <mask id="mask-26" fill="white">
                                    <use xlink:href="#path-25"></use>
                                </mask>
                                <use id="Path-160" fill="url(#linearGradient-24)" fill-rule="nonzero" xlink:href="#path-25"></use>
                                <path d="M87.3424612,4.3877794 C94.499332,26.1134073 88.7489982,34.9363113 70.0914599,30.8564914 C42.1051523,24.7367616 17.6587188,18.6728089 15.7167627,27.1621527 C13.7748066,35.6514965 37.9085468,47.7298231 57.0116896,126.403865" id="Path-71" stroke="#FFFFFF" stroke-width="1.02910506" opacity="0.399999976" stroke-dasharray="5.50000011920929" fill-rule="nonzero" mask="url(#mask-26)"></path>
                            </g>
                            <g id="Group-46" transform="translate(64.889383, 44.759100)">
                                <g id="Group-48" transform="translate(0.000000, 0.372874)">
                                    <mask id="mask-28" fill="white">
                                        <use xlink:href="#path-27"></use>
                                    </mask>
                                    <use id="Path-157" fill="#FFFFFF" fill-rule="nonzero" xlink:href="#path-27"></use>
                                    <path d="M67.5478687,45.5501689 C65.2839203,38.2196268 64.4085638,31.0552768 64.9217991,24.0571189 C63.8596871,26.9358604 63.2665052,29.1979704 63.1422536,30.8434491 C62.6607457,37.2201137 62.9723919,43.1268777 60.9387092,45.5501689 C59.8842728,46.806612 53.8353756,48.8485896 47.9625432,49.0033889 C44.0768289,49.1058106 39.9009881,47.2939628 38.6172358,47.7855747 C38.2577444,47.9232416 40.3175424,48.5323416 44.6933991,49.4443076 C45.7731382,49.6693345 47.7187175,49.834756 50.5301369,49.940572 C58.4977746,49.8607638 63.2471262,49.5274305 64.7781918,48.940572 C66.4082143,48.3157832 67.3314399,47.1856489 67.5478687,45.5501689 Z" id="Path-67" fill="#000000" fill-rule="nonzero" opacity="0.100000001" mask="url(#mask-28)"></path>
                                    <path d="M25.3492904,-0.31620212 C17.2528116,18.4112427 19.3432919,35.0333908 31.6207315,49.5502422 C50.9457513,40.309869 57.926218,23.6877209 52.5621316,-0.31620212" id="Path-79" stroke="#FFFFFF" stroke-width="1.47015008" fill-rule="nonzero" mask="url(#mask-28)"></path>
                                    <polygon id="Path-164" fill="#0C1642" fill-rule="nonzero" mask="url(#mask-28)" points="37.5815231 55.8116849 37.225071 57.6086544 45.0333218 60.5988368 18.4776106 60.5988368 16.9685019 50.0769377 27.9988712 50.0769377"></polygon>
                                </g>
                                <g id="Group-47" transform="translate(28.545657, 0.000000)">
                                    <mask id="mask-30" fill="white">
                                        <use xlink:href="#path-29"></use>
                                    </mask>
                                    <use id="Path-62" fill="#0C1642" fill-rule="nonzero" xlink:href="#path-29"></use>
                                </g>
                            </g>
                            <g id="Group-45" transform="translate(81.636970, 18.728742)">
                                <mask id="mask-32" fill="white">
                                    <use xlink:href="#path-31"></use>
                                </mask>
                                <use id="Path-153" fill="#FED2F5" fill-rule="nonzero" xlink:href="#path-31"></use>
                                <path d="M12.3788974,7.99230498 C12.9897625,7.99230498 13.4849665,7.49773379 13.4849665,6.88764932 C13.4849665,6.27756485 12.9897625,5.78299366 12.3788974,5.78299366 C11.7680324,5.78299366 11.2728284,6.27756485 11.2728284,6.88764932 C11.2728284,7.49773379 11.7680324,7.99230498 12.3788974,7.99230498 Z" id="Oval-2" fill="#902E7C" fill-rule="nonzero" mask="url(#mask-32)"></path>
                                <path d="M3.53034517,9.46517919 C4.14121023,9.46517919 4.6364142,8.970608 4.6364142,8.36052353 C4.6364142,7.75043906 4.14121023,7.25586787 3.53034517,7.25586787 C2.91948011,7.25586787 2.42427613,7.75043906 2.42427613,8.36052353 C2.42427613,8.970608 2.91948011,9.46517919 3.53034517,9.46517919 Z" id="Oval-2" fill="#902E7C" fill-rule="nonzero" mask="url(#mask-32)"></path>
                                <path d="M12.1770024,24.1412219 C13.3431251,23.9830228 15.5901819,23.3120779 20.2755223,18.9115042 C19.5777996,23.4234032 17.0637038,26.5758139 12.7332348,28.3687363 L12.1770024,24.1412219 Z" id="Path-61" fill="#000000" fill-rule="nonzero" opacity="0.1" mask="url(#mask-32)"></path>
                                <path d="M12.4536598,37.3010612 C12.4536598,39.2646231 15.103314,44.0609592 19.4361952,42.9177268 C23.7690765,41.7744945 32.7287616,37.3010612 29.9791743,26.6975588 C32.5438166,36.5969319 29.5857391,43.2330874 21.1049417,46.606025 C12.6241443,49.9789627 9.74038371,46.8773081 12.4536598,37.3010612 Z" id="Path-63" fill="#000000" fill-rule="nonzero" opacity="0.1" mask="url(#mask-32)"></path>
                                <path d="M7.48460402,10.4016437 C6.32128853,13.4819418 6.79965715,14.5902823 8.91970988,13.7266651" id="Path-65" stroke="#E0A7D4" stroke-width="0.88209005" stroke-linecap="round" stroke-linejoin="round" fill-rule="nonzero" mask="url(#mask-32)"></path>
                                <path d="M9.33862872,18.409108 C10.6759143,19.3529881 12.6020924,18.5672061 12.6020924,16.8186268" id="Path-66" stroke="#902E7C" stroke-width="0.88209005" stroke-linecap="round" stroke-linejoin="round" fill-rule="nonzero" mask="url(#mask-32)" transform="translate(10.970361, 17.815617) rotate(18.000000) translate(-10.970361, -17.815617) "></path>
                            </g>
                            <path d="M104.195591,93.2665738 C96.5832704,90.2860317 92.019712,88.7957606 90.5049157,88.7957606 C88.2327212,88.7957606 78.3542218,93.7803665 78.3542218,95.0710963 C78.3542218,95.9315828 79.9043093,95.9315828 83.0044844,95.0710963 C81.0910575,98.6811025 80.6127007,100.684525 81.5694142,101.081365 C82.5261276,101.478204 83.9095443,100.089266 85.7196641,96.9145497 C91.351316,99.6924265 95.4398864,100.502447 97.9853753,99.3446111 L102.445787,101.081365 L104.195591,93.2665738 Z" id="Path-158" fill="#FED2F5" fill-rule="nonzero"></path>
                            <path d="M101.106001,102.422905 L104.457879,103.657275 L106.61227,93.8621971 L103.269376,92.9185915 C102.428682,94.0678409 101.844698,95.4212074 101.517424,96.9786913 C101.19015,98.5361752 101.053009,100.350913 101.106001,102.422905 Z" id="Path-38" fill="#0C1642" fill-rule="nonzero"></path>
                            <g id="Group-43" transform="translate(17.918320, 65.383996)">
                                <path d="M66.3164024,39.7958701 L108.298434,39.7958701 L108.298434,41.6845327 C108.298434,43.6137056 106.734531,45.1776091 104.805358,45.1776091 L66.3164024,45.1776091 L66.3164024,39.7958701 Z" id="Rectangle-4" fill="#5C2AE7"></path>
                                <g id="Group-16" transform="translate(0.000000, 0.470130)">
                                    <mask id="mask-34" fill="white">
                                        <use xlink:href="#path-33"></use>
                                    </mask>
                                    <use id="Path-6" fill="#6F17E0" fill-rule="nonzero" xlink:href="#path-33"></use>
                                    <path d="M30.4158787,23.3246288 C30.8608747,23.6610145 31.4153255,23.8605615 32.0164426,23.8605615 C33.4825187,23.8605615 34.6710082,22.6735907 34.6710082,21.209388 C34.6710082,20.7266004 34.5417955,20.2739535 34.3160242,19.8840595 C34.331288,19.8838875 34.3465724,19.8838013 34.361877,19.8838013 C36.5609912,19.8838013 38.3437254,21.6642575 38.3437254,23.8605615 C38.3437254,26.0568656 36.5609912,27.8373218 34.361877,27.8373218 C32.1627629,27.8373218 30.3800286,26.0568656 30.3800286,23.8605615 C30.3800286,23.6788118 30.3922367,23.4999098 30.4158787,23.3246288 Z" id="Combined-Shape" fill="#FFFFFF" mask="url(#mask-34)"></path>
                                </g>
                            </g>
                            <g id="Group-49" transform="translate(79.000000, 22.000000)" stroke="#FFFFFF">
                                <ellipse id="Oval-12" stroke-width="1.10000002" fill-opacity="0.400000006" fill="#FFFFFF" transform="translate(5.000000, 6.000000) rotate(-18.000000) translate(-5.000000, -6.000000) " cx="5" cy="6" rx="3" ry="4"></ellipse>
                                <ellipse id="Oval-12-Copy" stroke-width="1.10000002" fill-opacity="0.400000006" fill="#FFFFFF" transform="translate(15.500000, 5.000000) rotate(-18.000000) translate(-15.500000, -5.000000) " cx="15.5" cy="5" rx="3.5" ry="4"></ellipse>
                                <path d="M11.9897879,4.83585495 C10.4403134,3.69151562 9.11013347,3.8161181 7.99924827,5.20966239" id="Path-21"></path>
                                <path d="M18.1423883,2.34043399 L24.5,0.5" id="Path-24" stroke-linecap="round"></path>
                            </g>
                        </g>
                    </g>
                </g>
            </g>
        </g>
    </g>
</svg>