<?xml version="1.0" encoding="UTF-8"?>
<svg width="160px" height="160px" viewBox="0 0 160 160" version="1.1" xmlns="http://www.w3.org/2000/svg" xmlns:xlink="http://www.w3.org/1999/xlink">
    <!-- Generator: Sketch 52.2 (67145) - http://www.bohemiancoding.com/sketch -->
    <title>img_stay_focused</title>
    <desc>Created with Sketch.</desc>
    <g id="Page-1" stroke="none" stroke-width="1" fill="none" fill-rule="evenodd">
        <g id="05a---For-Freelancer" transform="translate(-640.000000, -654.000000)">
            <g id="section---" transform="translate(173.000000, 654.000000)">
                <g id="Group-3-Copy-2" transform="translate(380.000000, 0.000000)">
                    <g id="Group-4">
                        <g id="Illustration/img_stay_focused" transform="translate(87.000000, 0.000000)">
                            <circle id="Oval-4" fill="#E6DFFC" cx="80" cy="80" r="80"></circle>
                            <g id="Group-21" transform="translate(44.000000, 41.000000)">
                                <g id="Group-18" stroke="#C8B4F6" stroke-dasharray="1.100000023841858" stroke-linecap="round" stroke-width="5.50000012">
                                    <path d="M52.0108548,0.607692308 L74,0.607692308 L74,21.2781655" id="Path-4"></path>
                                    <path d="M52.0108548,57.7307692 L74,57.7307692 L74,78.4012424" id="Path-4-Copy" transform="translate(63.005427, 68.066006) scale(1, -1) translate(-63.005427, -68.066006) "></path>
                                    <path d="M0,0.607692308 L21.9891452,0.607692308 L21.9891452,21.2781655" id="Path-4-Copy-3" transform="translate(10.994573, 10.942929) scale(-1, 1) translate(-10.994573, -10.942929) "></path>
                                    <path d="M0,57.7307692 L21.9891452,57.7307692 L21.9891452,78.4012424" id="Path-4-Copy-2" transform="translate(10.994573, 68.066006) scale(-1, -1) translate(-10.994573, -68.066006) "></path>
                                </g>
                                <g id="Group-20" transform="translate(14.726368, 1.890598)">
                                    <path d="M15.0997059,42.0718751 C11.3234711,39.5663561 8.8358209,35.2898346 8.8358209,30.4352564 C8.8358209,22.7160149 15.1256026,16.4583333 22.8844414,16.4583333 C30.6432803,16.4583333 36.933062,22.7160149 36.933062,30.4352564 C36.933062,35.2898346 34.4454118,39.5663561 30.6691769,42.0718751 C30.1766542,45.5395738 28.3481189,48.0583333 22.8844414,48.0583333 C17.4207639,48.0583333 15.5922286,45.5395738 15.0997059,42.0718751 Z" id="Combined-Shape" fill="#6327EA"></path>
                                    <ellipse id="Oval-8" fill="#FFFFFF" opacity="0.300000012" cx="32.7661692" cy="29.9288462" rx="1.10447761" ry="1.09722222"></ellipse>
                                    <path d="M17.3871551,50.4891026 C18.5693672,51.299359 20.401796,51.7044872 22.8844414,51.7044872 C25.3670869,51.7044872 27.1995156,51.299359 28.3817277,50.4891026" id="Path-5" stroke="#6327EA" stroke-width="3.63000016" stroke-linecap="round" stroke-linejoin="round"></path>
                                    <path d="M18.5167345,56.5660256 C19.4560263,56.9317664 20.9119286,57.1146368 22.8844414,57.1146368 C24.8569542,57.1146368 26.3128565,56.9317664 27.2521483,56.5660256" id="Path-5-Copy" stroke="#6327EA" stroke-width="3.63000016" stroke-linecap="round" stroke-linejoin="round"></path>
                                    <path d="M25.5870647,20.0538462 C28.9004975,20.7853276 31.1094527,22.431161 32.2139303,24.9913462 C32.4127299,25.4521647 33.0896887,26.6371795 32.7661692,27.1857906 C32.4426496,27.7344017 31.9378109,28.2830128 30.5572139,27.1857906 C29.1766169,26.0885684 28.9004975,23.8941239 25.0348259,22.7969017 C23.9303483,22.431161 23.3781095,21.8825499 23.3781095,21.1510684 C23.3781095,20.4195869 24.1144279,20.0538462 25.5870647,20.0538462 Z" id="Path-7" fill="#FFFFFF" opacity="0.300000012"></path>
                                </g>
                            </g>
                        </g>
                    </g>
                </g>
            </g>
        </g>
    </g>
</svg>