<?xml version="1.0" encoding="UTF-8"?>
<svg width="160px" height="160px" viewBox="0 0 160 160" version="1.1" xmlns="http://www.w3.org/2000/svg" xmlns:xlink="http://www.w3.org/1999/xlink">
    <!-- Generator: Sketch 52.2 (67145) - http://www.bohemiancoding.com/sketch -->
    <title>img_evaluate_each_other</title>
    <desc>Created with Sketch.</desc>
    <defs>
        <path d="M39.3052714,20.6416293 C39.3052714,9.72833169 30.8826283,0.881355932 20.4927714,0.881355932 C10.1029146,0.881355932 1.68027144,9.72833169 1.68027144,20.6416293 C1.68027144,31.554927 39.3052714,31.554927 39.3052714,20.6416293 Z" id="path-1"></path>
        <path d="M39.3052714,20.6416293 C39.3052714,9.72833169 30.8826283,0.881355932 20.4927714,0.881355932 C10.1029146,0.881355932 1.68027144,9.72833169 1.68027144,20.6416293 C1.68027144,31.554927 39.3052714,31.554927 39.3052714,20.6416293 Z" id="path-3"></path>
    </defs>
    <g id="Page-1" stroke="none" stroke-width="1" fill="none" fill-rule="evenodd">
        <g id="05a---For-Freelancer" transform="translate(-642.000000, -1364.000000)">
            <g id="section----copy" transform="translate(174.000000, 1191.000000)">
                <g id="Group-3-Copy-3" transform="translate(382.000000, 173.000000)">
                    <g id="Group-4">
                        <g id="Illustration/img_evaluate_each_other" transform="translate(86.000000, 0.000000)">
                            <circle id="Oval-4" fill="#E6DFFC" cx="80" cy="80" r="80"></circle>
                            <g id="Group-31" transform="translate(28.000000, 37.000000)">
                                <g id="Group-23" transform="translate(0.000000, 35.000000)">
                                    <g id="Group-22" transform="translate(0.000000, 20.101783)">
                                        <g id="Group-37">
                                            <mask id="mask-2" fill="white">
                                                <use xlink:href="#path-1"></use>
                                            </mask>
                                            <use id="Oval-9" fill="#6327EA" xlink:href="#path-1"></use>
                                            <path d="M32.5760135,1.76271186 L23.9333581,19.1509887 C23.0680818,20.8918499 20.9553899,21.6016518 19.2145287,20.7363755 C18.5273908,20.394841 17.9706764,19.8381266 17.6291419,19.1509887 L8.98648649,1.76271186 C14.221138,0.62465708 18.1527259,0.0556296881 20.78125,0.0556296881 C23.4097741,0.0556296881 27.341362,0.62465708 32.5760135,1.76271186 Z" id="Mask" fill="#000000" opacity="0.0813058036" mask="url(#mask-2)"></path>
                                            <path d="M19.1555848,1.7463759 L16.0822163,16.8423643 C15.9606303,17.4395792 16.1566717,18.0571903 16.600431,18.4749539 L20.2819644,21.9408207 C20.620831,22.2598363 21.1495047,22.2598363 21.4883714,21.9408207 L25.1552918,18.4887108 C25.6069583,18.0635032 25.8014288,17.4319237 25.6671662,16.826302 L22.3240416,1.7463759 L19.1555848,1.7463759 Z" id="Mask" fill="#FFFFFF" mask="url(#mask-2)"></path>
                                            <path d="M20.6241014,4.07082308 C22.7570348,4.07082308 24.486119,2.24825351 24.486119,0 L16.7620838,0 C16.7620838,2.24825351 18.491168,4.07082308 20.6241014,4.07082308 Z" id="Oval-6" fill="#FFFFFF" mask="url(#mask-2)"></path>
                                        </g>
                                    </g>
                                    <ellipse id="Oval-5" fill="#6327EA" cx="20.3089489" cy="9.95130971" rx="9.47910662" ry="9.51063174"></ellipse>
                                </g>
                                <g id="Group-23-Copy" transform="translate(61.000000, 35.000000)">
                                    <g id="Group-22" transform="translate(0.000000, 20.101783)">
                                        <g id="Group-37">
                                            <mask id="mask-4" fill="white">
                                                <use xlink:href="#path-3"></use>
                                            </mask>
                                            <use id="Oval-9" fill="#6327EA" xlink:href="#path-3"></use>
                                            <path d="M32.5760135,1.76271186 L23.9333581,19.1509887 C23.0680818,20.8918499 20.9553899,21.6016518 19.2145287,20.7363755 C18.5273908,20.394841 17.9706764,19.8381266 17.6291419,19.1509887 L8.98648649,1.76271186 C14.221138,0.62465708 18.1527259,0.0556296881 20.78125,0.0556296881 C23.4097741,0.0556296881 27.341362,0.62465708 32.5760135,1.76271186 Z" id="Mask" fill="#000000" opacity="0.0813058036" mask="url(#mask-4)"></path>
                                            <path d="M19.1555848,1.7463759 L16.0822163,16.8423643 C15.9606303,17.4395792 16.1566717,18.0571903 16.600431,18.4749539 L20.2819644,21.9408207 C20.620831,22.2598363 21.1495047,22.2598363 21.4883714,21.9408207 L25.1552918,18.4887108 C25.6069583,18.0635032 25.8014288,17.4319237 25.6671662,16.826302 L22.3240416,1.7463759 L19.1555848,1.7463759 Z" id="Mask" fill="#FFFFFF" mask="url(#mask-4)"></path>
                                            <path d="M20.6241014,4.07082308 C22.7570348,4.07082308 24.486119,2.24825351 24.486119,0 L16.7620838,0 C16.7620838,2.24825351 18.491168,4.07082308 20.6241014,4.07082308 Z" id="Oval-6" fill="#FFFFFF" mask="url(#mask-4)"></path>
                                        </g>
                                    </g>
                                    <ellipse id="Oval-5" fill="#6327EA" cx="20.3089489" cy="9.95130971" rx="9.47910662" ry="9.51063174"></ellipse>
                                </g>
                                <g id="Group-30" transform="translate(29.000000, 0.000000)">
                                    <path d="M8.30514496,31.2344498 L1.4783841,35.1061073 C1.32946842,35.1905617 1.16119707,35.2349563 0.989999995,35.2349563 C0.443238096,35.2349563 -6.27131276e-16,34.7917182 -1.66533454e-15,34.2449563 L-1.76500716e-15,26.2844498 L0,4.94999998 C-3.34795105e-16,2.21619048 2.21619048,-3.85985762e-16 4.94999998,-8.8817842e-16 L40.3928572,0 C43.1266667,-5.02192658e-16 45.3428571,2.21619048 45.3428571,4.94999998 L45.3428571,26.2844498 C45.3428571,29.0182593 43.1266667,31.2344498 40.3928572,31.2344498 L8.30514496,31.2344498 Z" id="Combined-Shape" fill="#6327EA" opacity="0.299999982"></path>
                                    <path d="M10.3330049,9.70334928 L36.5097444,9.70334928" id="Line" stroke="#FFFFFF" stroke-width="3.30000007" opacity="0.300000012" stroke-linecap="round"></path>
                                    <path d="M9.85714286,19.5215311 L25.6668872,19.5215311" id="Line-Copy" stroke="#FFFFFF" stroke-width="3.30000007" opacity="0.300000012" stroke-linecap="round"></path>
                                </g>
                                <g id="Group-30-Copy" transform="translate(50.500000, 50.000000) scale(-1, 1) translate(-50.500000, -50.000000) translate(37.000000, 40.000000)" fill="#6327EA" opacity="0.299999982">
                                    <path d="M4.94540768,16.996997 L0.894334686,19.3710986 C0.803246834,19.42448 0.699577266,19.4526193 0.593999962,19.4526193 C0.265942841,19.4526193 -6.25958405e-16,19.1866765 -6.66133815e-16,18.8586194 L-1.64764459e-15,14.0269972 L4.4408921e-16,2.96999981 C2.43212159e-16,1.32971421 1.32971421,7.45404787e-16 2.96999981,4.4408921e-16 L24.0300002,4.4408921e-16 C25.6702858,1.42773633e-16 27,1.32971421 27,2.96999981 L27,14.0269972 C27,15.6672828 25.6702858,16.996997 24.0300002,16.996997 L4.94540768,16.996997 Z" id="Combined-Shape"></path>
                                </g>
                            </g>
                        </g>
                    </g>
                </g>
            </g>
        </g>
    </g>
</svg>