<?xml version="1.0" encoding="UTF-8"?>
<svg width="160px" height="160px" viewBox="0 0 160 160" version="1.1" xmlns="http://www.w3.org/2000/svg" xmlns:xlink="http://www.w3.org/1999/xlink">
    <!-- Generator: Sketch 52.2 (67145) - http://www.bohemiancoding.com/sketch -->
    <title>img_2confidence</title>
    <desc>Created with Sketch.</desc>
    <g id="Page-1" stroke="none" stroke-width="1" fill="none" fill-rule="evenodd">
        <g id="02---Mission" transform="translate(-1029.000000, -616.000000)">
            <g id="section---" transform="translate(172.000000, 476.000000)">
                <g id="Group-3-Copy-3" transform="translate(814.000000, 140.000000)">
                    <g id="Group-4">
                        <g id="Illustration/img_2confidence" transform="translate(43.000000, 0.000000)">
                            <g>
                                <circle id="Oval-4" fill="#E6DFFC" cx="80" cy="80" r="80"></circle>
                                <path d="M106.5216,58.0071771 C106.5216,49.0607396 101.2016,42.2366146 92.2792,42.2366146 C86.9888,42.2366146 81.0936,46.7218646 79.9976,52.0789792 C78.9024,46.7210625 73.0072,42.2366146 67.7176,42.2366146 C58.796,42.2366146 53.4736,49.0607396 53.4736,58.0071771 C53.4736,63.5840625 57.0576,68.6067083 61.4376,71.7773438 C70.5408,78.372875 72.6816,79.5399062 79.9968,86.8725521 C87.3136,79.5391042 89.4528,78.3720729 98.5576,71.7773438 C102.9376,68.6067083 106.5216,63.5840625 106.5216,58.0071771 Z" id="Path" fill="#6327EA"></path>
                                <path d="M56.4704,83.426 C56.4704,83.4276042 56.4704,83.4276042 56.4704,83.4292083 L53.3968,80.6283333 C52.5936,79.8246458 51.5152,79.4845625 50.4688,79.5784062 C49.6376,79.6505937 48.8264,79.9890729 48.192,80.6283333 C46.7528,82.0696771 46.7528,84.4069479 48.192,85.8466875 L51.672,89.0141146 L57.156,94.0022708 L60.672,97.199375 C61.1504,97.6333021 61.1864,98.3744271 60.7552,98.8524687 C60.3192,99.3321146 59.5832,99.365 59.1056,98.9326771 L47.028,87.9489479 C45.5808,86.8661354 44.6408,85.1368437 44.6408,83.1877812 C44.6408,80.0339896 47.0984,77.4560937 50.1952,77.266 L47.9488,58.5726458 C47.9488,56.5345521 46.3016,54.8814583 44.2672,54.8814583 C42.2328,54.8814583 40.5872,56.5345521 40.5872,58.5726458 L40.5872,92.3010521 C40.5872,93.522625 41.1792,94.6054375 42.0888,95.2775833 L55.5136,107.358562 C56.7448,108.525594 57.512,110.178687 57.512,112.009844 L57.512,116.192708 L57.5168,116.192708 L57.5168,116.205542 C57.5168,117.673354 58.7,118.86124 60.1624,118.86124 L70.3312,118.86124 C71.7968,118.86124 72.98,117.674156 72.98,116.205542 L72.98,116.192708 L72.98,114.220385 L72.98,102.496333 C72.9616,99.8141667 71.8,97.4031042 69.9632,95.7275521 L56.4704,83.426 Z" id="Path" fill="#5818BE"></path>
                                <path d="M115.7344,54.8822604 C113.7,54.8822604 112.0488,56.5353542 112.0488,58.5734479 L109.8032,77.2676042 C112.9032,77.4568958 115.3576,80.0355938 115.3576,83.1893854 C115.3576,85.1384479 114.42,86.8677396 112.9744,87.9505521 L100.8936,98.931875 C100.4184,99.3641979 99.6776,99.3313125 99.2464,98.8516667 C98.8152,98.373625 98.8464,97.6325 99.3248,97.1985729 L102.8448,94.0014688 L108.3248,89.0133125 L111.8088,85.8458854 C113.248,84.4061458 113.248,82.068875 111.8088,80.6275313 C111.1744,79.9882708 110.3632,79.6497917 109.532,79.5776042 C108.4848,79.4837604 107.4072,79.8238438 106.604,80.6275313 L103.5304,83.4284063 C103.5304,83.4268021 103.5304,83.4268021 103.5304,83.4251979 L90.0392,95.72675 C88.2016,97.4031042 87.0408,99.8141667 87.0224,102.495531 L87.0224,114.219583 L87.0224,116.192708 L87.0224,116.205542 C87.0224,117.673354 88.2056,118.86124 89.668,118.86124 L99.8352,118.86124 C101.3024,118.86124 102.4848,117.674156 102.4848,116.205542 L102.4848,116.192708 L102.4848,112.009844 C102.4848,110.178687 103.2584,108.525594 104.488,107.358562 L117.9096,95.2775833 C118.8224,94.6054375 119.4144,93.522625 119.4144,92.3010521 L119.4144,58.5726458 C119.4144,56.5345521 117.764,54.8822604 115.7344,54.8822604 Z" id="Path" fill="#5818BE"></path>
                            </g>
                        </g>
                    </g>
                </g>
            </g>
        </g>
    </g>
</svg>