<?xml version="1.0" encoding="UTF-8"?>
<svg width="62px" height="51px" viewBox="0 0 62 51" version="1.1" xmlns="http://www.w3.org/2000/svg" xmlns:xlink="http://www.w3.org/1999/xlink">
    <!-- Generator: Sketch 52.5 (67469) - http://www.bohemiancoding.com/sketch -->
    <title>“</title>
    <desc>Created with Sketch.</desc>
    <defs>
        <linearGradient x1="30.3907588%" y1="-22.3486797%" x2="47.3752514%" y2="110.77454%" id="linearGradient-1">
            <stop stop-color="#B364E2" offset="0%"></stop>
            <stop stop-color="#4D35E2" offset="100%"></stop>
        </linearGradient>
    </defs>
    <g id="Page-1" stroke="none" stroke-width="1" fill="none" fill-rule="evenodd" opacity="0.100000001">
        <g id="01---Landing-Page" transform="translate(-842.000000, -1488.000000)" fill="url(#linearGradient-1)">
            <g id="Group-6" transform="translate(173.000000, 1271.000000)">
                <g id="Testi-2" transform="translate(340.000000, 0.000000)">
                    <path d="M378.2,267.4 C372.999974,267.4 369.06668,265.266688 366.4,261 C364.133322,257.399982 363,253.000026 363,247.8 C363,241.1333 364.699983,235.13336 368.1,229.8 C371.500017,224.46664 376.666632,220.200016 383.6,217 L385.4,220.6 C381.266646,222.333342 377.700015,225.066648 374.7,228.8 C371.699985,232.533352 370.2,236.333314 370.2,240.2 C370.2,241.800008 370.399998,243.199994 370.8,244.4 C372.933344,242.666658 375.399986,241.8 378.2,241.8 C381.800018,241.8 384.833321,242.966655 387.3,245.3 C389.766679,247.633345 391,250.733314 391,254.6 C391,258.200018 389.766679,261.233321 387.3,263.7 C384.833321,266.166679 381.800018,267.4 378.2,267.4 Z M344.2,267.4 C338.999974,267.4 335.06668,265.266688 332.4,261 C330.133322,257.399982 329,253.000026 329,247.8 C329,241.1333 330.699983,235.13336 334.1,229.8 C337.500017,224.46664 342.666632,220.200016 349.6,217 L351.4,220.6 C347.266646,222.333342 343.700015,225.066648 340.7,228.8 C337.699985,232.533352 336.2,236.333314 336.2,240.2 C336.2,241.800008 336.399998,243.199994 336.8,244.4 C338.933344,242.666658 341.399986,241.8 344.2,241.8 C347.800018,241.8 350.833321,242.966655 353.3,245.3 C355.766679,247.633345 357,250.733314 357,254.6 C357,258.200018 355.766679,261.233321 353.3,263.7 C350.833321,266.166679 347.800018,267.4 344.2,267.4 Z" id="“"></path>
                </g>
            </g>
        </g>
    </g>
</svg>