<svg xmlns="http://www.w3.org/2000/svg" viewBox="0 0 244.02 37.74">
  <polygon id="readybase-logo-mark" points="15.91 18.89 21.42 12.74 12.74 12.74 12.74 20.91 22 30.97 12.68 30.97 12.68 30.97 6.71 30.97 6.71 6.71 28.57 6.71 28.57 13.81 24.02 18.89 35.34 31.37 35.34 0 0 0 0 37.74 33.02 37.74 15.91 18.89" style="fill: #7961a9"/>
  <g>
    <g id="readybase-logo-ready" style="fill: #404041">
      <path d="M53.23,11.62a.41.41,0,0,1,.41-.42h6.27a4.74,4.74,0,0,1,4.77,4.71,4.83,4.83,0,0,1-3.24,4.43l3,5.56a.41.41,0,0,1-.37.64h-2.3a.36.36,0,0,1-.35-.2l-2.91-5.81H56.08v5.59a.44.44,0,0,1-.42.42h-2a.41.41,0,0,1-.41-.42Zm6.44,6.57A2.23,2.23,0,0,0,61.84,16a2.19,2.19,0,0,0-2.17-2.13H56.1v4.36Z" />
      <path d="M79.21,13.83h6.71a.41.41,0,0,0,.41-.41v-1.8a.41.41,0,0,0-.41-.42H77a.42.42,0,0,0-.42.42v14.5a.42.42,0,0,0,.42.42h8.92a.41.41,0,0,0,.41-.42v-1.8a.41.41,0,0,0-.41-.41H79.21V20.07h5.63a.41.41,0,0,0,.42-.41V17.84a.44.44,0,0,0-.42-.42H79.21V13.83Z" />
      <path d="M121.52,11.62a.42.42,0,0,1,.4-.42h5.19a7.67,7.67,0,1,1,0,15.34h-5.19a.42.42,0,0,1-.4-.42Zm5.33,12.24a4.84,4.84,0,0,0,4.93-5,4.84,4.84,0,0,0-4.93-5h-2.5v10Z" />
      <path d="M149.11,19.15l-5-7.31a.41.41,0,0,1,.35-.64h2.23a.42.42,0,0,1,.35.2l3.5,5,3.51-5a.43.43,0,0,1,.35-.2h2.26a.41.41,0,0,1,.35.64L152,19.13v7a.44.44,0,0,1-.42.42h-2a.42.42,0,0,1-.42-.42Z" />
      <path d="M110.76,26,104,11.23a.38.38,0,0,0-.38-.25h-.21a.4.4,0,0,0-.38.25L96.24,26a.39.39,0,0,0,.37.57h1.91a.65.65,0,0,0,.63-.44l.86-1.89,1.29-2.91h0l2.15-4.82h.06l1.8,4h0l.38.85h0l1.31,3,.84,1.84a.64.64,0,0,0,.63.44h1.91A.39.39,0,0,0,110.76,26Z" />
    </g>
    <g id="readybase-logo-base" style="fill: #7961a9">
      <path d="M168.06,11.62a.41.41,0,0,1,.41-.42h5c2.6,0,4.62,1.76,4.62,4.06a4.17,4.17,0,0,1-2.41,3.48,3.93,3.93,0,0,1,2.85,3.57c0,2.45-2.11,4.23-4.78,4.23h-5.3a.41.41,0,0,1-.41-.42Zm5.17,6a1.87,1.87,0,0,0,1.88-2,1.79,1.79,0,0,0-1.88-1.86h-2.35v3.83Zm.3,6.31a2,2,0,0,0,2-2,2.12,2.12,0,0,0-2.23-1.91h-2.39V24Z" />
      <path d="M202.87,26l-6.75-14.74a.37.37,0,0,0-.37-.25h-.22a.38.38,0,0,0-.37.25L188.35,26a.38.38,0,0,0,.37.57h1.9a.67.67,0,0,0,.64-.44l.85-1.89,1.3-2.91h0l2.15-4.82h.07l1.8,4h0l.39.85h0l1.32,3L200,26.1a.65.65,0,0,0,.64.44h1.91A.39.39,0,0,0,202.87,26Z" />
      <path d="M212.73,24.39l.79-1.36a.5.5,0,0,1,.74-.15,7.35,7.35,0,0,0,3.31,1.36,1.84,1.84,0,0,0,2-1.69c0-1.12-.95-1.88-2.79-2.63-2.06-.83-4.11-2.15-4.11-4.73,0-1.95,1.44-4.21,4.92-4.21A7.72,7.72,0,0,1,222,12.45a.55.55,0,0,1,.13.72l-.84,1.25a.57.57,0,0,1-.76.27,7.22,7.22,0,0,0-3-1.21A1.73,1.73,0,0,0,215.54,15c0,1,.81,1.73,2.58,2.46,2.13.85,4.58,2.12,4.58,5,0,2.25-1.95,4.33-5,4.33a7.1,7.1,0,0,1-4.82-1.7C212.64,24.85,212.53,24.74,212.73,24.39Z" />
      <path d="M236.9,13.83h6.7a.42.42,0,0,0,.42-.41v-1.8a.42.42,0,0,0-.42-.42h-8.91a.42.42,0,0,0-.42.42v14.5a.42.42,0,0,0,.42.42h8.91a.42.42,0,0,0,.42-.42v-1.8a.41.41,0,0,0-.42-.41h-6.7V20.07h5.63a.41.41,0,0,0,.41-.41V17.84a.43.43,0,0,0-.41-.42H236.9V13.83Z" />
    </g>
  </g>
</svg>
